  0
SECTION
  2
HEADER
  9
$ACADVER
  1
AC1032
  9
$ACADMAINTVER
 90
      155
  9
$DWGCODEPAGE
  3
ANSI_1252
  9
$LASTSAVEDBY
  1
21961517
  9
$REQUIREDVERSIONS
160
                 0
  9
$INSBASE
 10
0.0
 20
0.0
 30
0.0
  9
$EXTMIN
 10
-81.27889148880489
 20
35.67539246579246
 30
-0.0000000000002223
  9
$EXTMAX
 10
59.43749999999999
 20
163.3999296017191
 30
0.000000000000036
  9
$LIMMIN
 10
0.0
 20
0.0
  9
$LIMMAX
 10
12.0
 20
9.0
  9
$ORTHOMODE
 70
     0
  9
$REGENMODE
 70
     1
  9
$FILLMODE
 70
     1
  9
$QTEXTMODE
 70
     0
  9
$MIRRTEXT
 70
     1
  9
$LTSCALE
 40
1.0
  9
$ATTMODE
 70
     1
  9
$TEXTSIZE
 40
0.2
  9
$TRACEWID
 40
0.05
  9
$TEXTSTYLE
  7
Standard
  9
$CLAYER
  8
0.1mm kerf$HiPro1
  9
$CELTYPE
  6
ByLayer
  9
$CECOLOR
 62
   256
  9
$CELTSCALE
 40
1.0
  9
$DISPSILH
 70
     0
  9
$DIMSCALE
 40
1.0
  9
$DIMASZ
 40
0.18
  9
$DIMEXO
 40
0.0625
  9
$DIMDLI
 40
0.38
  9
$DIMRND
 40
0.0
  9
$DIMDLE
 40
0.0
  9
$DIMEXE
 40
0.18
  9
$DIMTP
 40
0.0
  9
$DIMTM
 40
0.0
  9
$DIMTXT
 40
0.18
  9
$DIMCEN
 40
0.09
  9
$DIMTSZ
 40
0.0
  9
$DIMTOL
 70
     0
  9
$DIMLIM
 70
     0
  9
$DIMTIH
 70
     1
  9
$DIMTOH
 70
     1
  9
$DIMSE1
 70
     0
  9
$DIMSE2
 70
     0
  9
$DIMTAD
 70
     0
  9
$DIMZIN
 70
     0
  9
$DIMBLK
  1

  9
$DIMASO
 70
     1
  9
$DIMSHO
 70
     1
  9
$DIMPOST
  1

  9
$DIMAPOST
  1

  9
$DIMALT
 70
     0
  9
$DIMALTD
 70
     2
  9
$DIMALTF
 40
25.4
  9
$DIMLFAC
 40
1.0
  9
$DIMTOFL
 70
     0
  9
$DIMTVP
 40
0.0
  9
$DIMTIX
 70
     0
  9
$DIMSOXD
 70
     0
  9
$DIMSAH
 70
     0
  9
$DIMBLK1
  1

  9
$DIMBLK2
  1

  9
$DIMSTYLE
  2
Standard
  9
$DIMCLRD
 70
     0
  9
$DIMCLRE
 70
     0
  9
$DIMCLRT
 70
     0
  9
$DIMTFAC
 40
1.0
  9
$DIMGAP
 40
0.09
  9
$DIMJUST
 70
     0
  9
$DIMSD1
 70
     0
  9
$DIMSD2
 70
     0
  9
$DIMTOLJ
 70
     1
  9
$DIMTZIN
 70
     0
  9
$DIMALTZ
 70
     0
  9
$DIMALTTZ
 70
     0
  9
$DIMUPT
 70
     0
  9
$DIMDEC
 70
     4
  9
$DIMTDEC
 70
     4
  9
$DIMALTU
 70
     2
  9
$DIMALTTD
 70
     2
  9
$DIMTXSTY
  7
Standard
  9
$DIMAUNIT
 70
     0
  9
$DIMADEC
 70
     0
  9
$DIMALTRND
 40
0.0
  9
$DIMAZIN
 70
     0
  9
$DIMDSEP
 70
    46
  9
$DIMATFIT
 70
     3
  9
$DIMFRAC
 70
     0
  9
$DIMLDRBLK
  1

  9
$DIMLUNIT
 70
     2
  9
$DIMLWD
 70
    -2
  9
$DIMLWE
 70
    -2
  9
$DIMTMOVE
 70
     2
  9
$DIMFXL
 40
1.0
  9
$DIMFXLON
 70
     0
  9
$DIMJOGANG
 40
0.7853981633974483
  9
$DIMTFILL
 70
     0
  9
$DIMTFILLCLR
 70
     0
  9
$DIMARCSYM
 70
     0
  9
$DIMLTYPE
  6

  9
$DIMLTEX1
  6

  9
$DIMLTEX2
  6

  9
$DIMTXTDIRECTION
 70
     0
  9
$LUNITS
 70
     2
  9
$LUPREC
 70
     3
  9
$SKETCHINC
 40
0.1
  9
$FILLETRAD
 40
0.5
  9
$AUNITS
 70
     0
  9
$AUPREC
 70
     0
  9
$MENU
  1
.
  9
$ELEVATION
 40
0.0
  9
$PELEVATION
 40
0.0
  9
$THICKNESS
 40
0.0
  9
$LIMCHECK
 70
     0
  9
$CHAMFERA
 40
0.0
  9
$CHAMFERB
 40
0.0
  9
$CHAMFERC
 40
0.0
  9
$CHAMFERD
 40
0.0
  9
$SKPOLY
 70
     0
  9
$TDCREATE
 40
2459031.837696759
  9
$TDUCREATE
 40
2459031.504365359
  9
$TDUPDATE
 40
2459043.542199074
  9
$TDUUPDATE
 40
2459043.208865741
  9
$TDINDWG
 40
0.0005092708
  9
$TDUSRTIMER
 40
0.0005092708
  9
$USRTIMER
 70
     1
  9
$ANGBASE
 50
0.0
  9
$ANGDIR
 70
     0
  9
$PDMODE
 70
     0
  9
$PDSIZE
 40
0.0
  9
$PLINEWID
 40
0.0
  9
$SPLFRAME
 70
     0
  9
$SPLINETYPE
 70
     6
  9
$SPLINESEGS
 70
     8
  9
$HANDSEED
  5
136
  9
$SURFTAB1
 70
     6
  9
$SURFTAB2
 70
     6
  9
$SURFTYPE
 70
     6
  9
$SURFU
 70
     6
  9
$SURFV
 70
     6
  9
$UCSBASE
  2

  9
$UCSNAME
  2

  9
$UCSORG
 10
0.0
 20
0.0
 30
0.0
  9
$UCSXDIR
 10
1.0
 20
0.0
 30
0.0
  9
$UCSYDIR
 10
0.0
 20
1.0
 30
0.0
  9
$UCSORTHOREF
  2

  9
$UCSORTHOVIEW
 70
     0
  9
$UCSORGTOP
 10
0.0
 20
0.0
 30
0.0
  9
$UCSORGBOTTOM
 10
0.0
 20
0.0
 30
0.0
  9
$UCSORGLEFT
 10
0.0
 20
0.0
 30
0.0
  9
$UCSORGRIGHT
 10
0.0
 20
0.0
 30
0.0
  9
$UCSORGFRONT
 10
0.0
 20
0.0
 30
0.0
  9
$UCSORGBACK
 10
0.0
 20
0.0
 30
0.0
  9
$PUCSBASE
  2

  9
$PUCSNAME
  2

  9
$PUCSORG
 10
0.0
 20
0.0
 30
0.0
  9
$PUCSXDIR
 10
1.0
 20
0.0
 30
0.0
  9
$PUCSYDIR
 10
0.0
 20
1.0
 30
0.0
  9
$PUCSORTHOREF
  2

  9
$PUCSORTHOVIEW
 70
     0
  9
$PUCSORGTOP
 10
0.0
 20
0.0
 30
0.0
  9
$PUCSORGBOTTOM
 10
0.0
 20
0.0
 30
0.0
  9
$PUCSORGLEFT
 10
0.0
 20
0.0
 30
0.0
  9
$PUCSORGRIGHT
 10
0.0
 20
0.0
 30
0.0
  9
$PUCSORGFRONT
 10
0.0
 20
0.0
 30
0.0
  9
$PUCSORGBACK
 10
0.0
 20
0.0
 30
0.0
  9
$USERI1
 70
     0
  9
$USERI2
 70
     0
  9
$USERI3
 70
     0
  9
$USERI4
 70
     0
  9
$USERI5
 70
     0
  9
$USERR1
 40
0.0
  9
$USERR2
 40
0.0
  9
$USERR3
 40
0.0
  9
$USERR4
 40
0.0
  9
$USERR5
 40
0.0
  9
$WORLDVIEW
 70
     1
  9
$SHADEDGE
 70
     3
  9
$SHADEDIF
 70
    70
  9
$TILEMODE
 70
     1
  9
$MAXACTVP
 70
    64
  9
$PINSBASE
 10
0.0
 20
0.0
 30
0.0
  9
$PLIMCHECK
 70
     0
  9
$PEXTMIN
 10
1.000000000000000E+20
 20
1.000000000000000E+20
 30
1.000000000000000E+20
  9
$PEXTMAX
 10
-1.000000000000000E+20
 20
-1.000000000000000E+20
 30
-1.000000000000000E+20
  9
$PLIMMIN
 10
0.0
 20
0.0
  9
$PLIMMAX
 10
12.0
 20
9.0
  9
$UNITMODE
 70
     0
  9
$VISRETAIN
 70
     1
  9
$PLINEGEN
 70
     0
  9
$PSLTSCALE
 70
     1
  9
$TREEDEPTH
 70
  3020
  9
$CMLSTYLE
  2
Standard
  9
$CMLJUST
 70
     0
  9
$CMLSCALE
 40
1.0
  9
$PROXYGRAPHICS
 70
     1
  9
$MEASUREMENT
 70
     0
  9
$CELWEIGHT
370
    -1
  9
$ENDCAPS
280
     0
  9
$JOINSTYLE
280
     0
  9
$LWDISPLAY
290
     0
  9
$INSUNITS
 70
     4
  9
$HYPERLINKBASE
  1

  9
$STYLESHEET
  1

  9
$XEDIT
290
     1
  9
$CEPSNTYPE
380
     0
  9
$PSTYLEMODE
290
     1
  9
$FINGERPRINTGUID
  2
{43ADB666-1267-4A15-AF7B-07D8FF9259FE}
  9
$VERSIONGUID
  2
{DA68F9BD-B5F9-FF41-A463-25781A3AC4C6}
  9
$EXTNAMES
290
     1
  9
$PSVPSCALE
 40
0.0
  9
$OLESTARTUP
290
     0
  9
$SORTENTS
280
   127
  9
$INDEXCTL
280
     0
  9
$HIDETEXT
280
     1
  9
$XCLIPFRAME
280
     2
  9
$HALOGAP
280
     0
  9
$OBSCOLOR
 70
   257
  9
$OBSLTYPE
280
     0
  9
$INTERSECTIONDISPLAY
280
     0
  9
$INTERSECTIONCOLOR
 70
   257
  9
$DIMASSOC
280
     2
  9
$PROJECTNAME
  1

  9
$CAMERADISPLAY
290
     0
  9
$LENSLENGTH
 40
50.0
  9
$CAMERAHEIGHT
 40
0.0
  9
$STEPSPERSEC
 40
2.0
  9
$STEPSIZE
 40
6.0
  9
$3DDWFPREC
 40
2.0
  9
$PSOLWIDTH
 40
0.25
  9
$PSOLHEIGHT
 40
4.0
  9
$LOFTANG1
 40
1.570796326794896
  9
$LOFTANG2
 40
1.570796326794896
  9
$LOFTMAG1
 40
0.0
  9
$LOFTMAG2
 40
0.0
  9
$LOFTPARAM
 70
     7
  9
$LOFTNORMALS
280
     1
  9
$LATITUDE
 40
37.795
  9
$LONGITUDE
 40
-122.394
  9
$NORTHDIRECTION
 40
0.0
  9
$TIMEZONE
 70
 -8000
  9
$LIGHTGLYPHDISPLAY
280
     1
  9
$TILEMODELIGHTSYNCH
280
     1
  9
$CMATERIAL
347
44
  9
$SOLIDHIST
280
     0
  9
$SHOWHIST
280
     1
  9
$DWFFRAME
280
     2
  9
$DGNFRAME
280
     0
  9
$REALWORLDSCALE
290
     1
  9
$INTERFERECOLOR
 62
     1
  9
$INTERFEREOBJVS
345
33
  9
$INTERFEREVPVS
346
30
  9
$CSHADOW
280
     0
  9
$SHADOWPLANELOCATION
 40
0.0
  0
ENDSEC
  0
SECTION
  2
CLASSES
  0
CLASS
  1
ACDBDICTIONARYWDFLT
  2
AcDbDictionaryWithDefault
  3
ObjectDBX Classes
 90
        0
 91
        1
280
     0
281
     0
  0
CLASS
  1
VISUALSTYLE
  2
AcDbVisualStyle
  3
ObjectDBX Classes
 90
     4095
 91
       24
280
     0
281
     0
  0
CLASS
  1
MATERIAL
  2
AcDbMaterial
  3
ObjectDBX Classes
 90
     1153
 91
        3
280
     0
281
     0
  0
CLASS
  1
SCALE
  2
AcDbScale
  3
ObjectDBX Classes
 90
     1153
 91
       33
280
     0
281
     0
  0
CLASS
  1
TABLESTYLE
  2
AcDbTableStyle
  3
ObjectDBX Classes
 90
     4095
 91
        1
280
     0
281
     0
  0
CLASS
  1
MLEADERSTYLE
  2
AcDbMLeaderStyle
  3
ACDB_MLEADERSTYLE_CLASS
 90
     4095
 91
        1
280
     0
281
     0
  0
CLASS
  1
SUN
  2
AcDbSun
  3
SCENEOE
 90
     1153
 91
        0
280
     0
281
     0
  0
CLASS
  1
DICTIONARYVAR
  2
AcDbDictionaryVar
  3
ObjectDBX Classes
 90
        0
 91
       10
280
     0
281
     0
  0
CLASS
  1
CELLSTYLEMAP
  2
AcDbCellStyleMap
  3
ObjectDBX Classes
 90
     1152
 91
        2
280
     0
281
     0
  0
CLASS
  1
ACDBSECTIONVIEWSTYLE
  2
AcDbSectionViewStyle
  3
ObjectDBX Classes
 90
     1025
 91
        1
280
     0
281
     0
  0
CLASS
  1
ACDBDETAILVIEWSTYLE
  2
AcDbDetailViewStyle
  3
ObjectDBX Classes
 90
     1025
 91
        1
280
     0
281
     0
  0
ENDSEC
  0
SECTION
  2
TABLES
  0
TABLE
  2
VPORT
  5
8
330
0
100
AcDbSymbolTable
 70
     1
  0
VPORT
  5
29
330
8
100
AcDbSymbolTableRecord
100
AcDbViewportTableRecord
  2
*Active
 70
     0
 10
0.0
 20
0.0
 11
1.0
 21
1.0
 12
82.96213811216933
 22
114.1978192818104
 13
0.0
 23
0.0
 14
0.5
 24
0.5
 15
0.5
 25
0.5
 16
0.0
 26
0.0
 36
1.0
 17
0.0
 27
0.0
 37
0.0
 40
201.5211498345765
 41
2.305925030229746
 42
50.0
 43
0.0
 44
0.0
 50
0.0
 51
0.0
 71
     0
 72
   100
 73
     1
 74
     3
 75
     0
 76
     0
 77
     0
 78
     0
281
     0
 65
     1
110
0.0
120
0.0
130
0.0
111
1.0
121
0.0
131
0.0
112
0.0
122
1.0
132
0.0
 79
     0
146
0.0
348
2F
 60
     3
 61
     5
292
     1
282
     1
141
0.0
142
0.0
 63
   250
421
  3355443
1001
ACAD_NAV_VCDISPLAY
1070
     3
  0
ENDTAB
  0
TABLE
  2
LTYPE
  5
5
330
0
100
AcDbSymbolTable
 70
     1
  0
LTYPE
  5
14
330
5
100
AcDbSymbolTableRecord
100
AcDbLinetypeTableRecord
  2
ByBlock
 70
     0
  3

 72
    65
 73
     0
 40
0.0
  0
LTYPE
  5
15
330
5
100
AcDbSymbolTableRecord
100
AcDbLinetypeTableRecord
  2
ByLayer
 70
     0
  3

 72
    65
 73
     0
 40
0.0
  0
LTYPE
  5
16
330
5
100
AcDbSymbolTableRecord
100
AcDbLinetypeTableRecord
  2
Continuous
 70
     0
  3
Solid line
 72
    65
 73
     0
 40
0.0
  0
ENDTAB
  0
TABLE
  2
LAYER
  5
2
330
0
100
AcDbSymbolTable
 70
     2
  0
LAYER
  5
10
102
{ACAD_XDICTIONARY
360
12A
102
}
330
2
100
AcDbSymbolTableRecord
100
AcDbLayerTableRecord
  2
0
 70
     0
 62
     7
  6
Continuous
370
    -3
390
F
347
46
348
0
  0
LAYER
  5
6E
102
{ACAD_XDICTIONARY
360
12C
102
}
330
2
100
AcDbSymbolTableRecord
100
AcDbLayerTableRecord
  2
0.1mm kerf$HiPro1
 70
     0
 62
    18
420
        0
  6
Continuous
370
    -3
390
F
347
46
348
0
  0
ENDTAB
  0
TABLE
  2
STYLE
  5
3
330
0
100
AcDbSymbolTable
 70
     1
  0
STYLE
  5
11
330
3
100
AcDbSymbolTableRecord
100
AcDbTextStyleTableRecord
  2
Standard
 70
     0
 40
0.0
 41
1.0
 50
0.0
 71
     0
 42
0.2
  3
txt
  4

  0
ENDTAB
  0
TABLE
  2
VIEW
  5
6
330
0
100
AcDbSymbolTable
 70
     0
  0
ENDTAB
  0
TABLE
  2
UCS
  5
7
330
0
100
AcDbSymbolTable
 70
     0
  0
ENDTAB
  0
TABLE
  2
APPID
  5
9
330
0
100
AcDbSymbolTable
 70
     3
  0
APPID
  5
12
330
9
100
AcDbSymbolTableRecord
100
AcDbRegAppTableRecord
  2
ACAD
 70
     0
  0
APPID
  5
E4
330
9
100
AcDbSymbolTableRecord
100
AcDbRegAppTableRecord
  2
ACAD_MLEADERVER
 70
     0
  0
APPID
  5
133
330
9
100
AcDbSymbolTableRecord
100
AcDbRegAppTableRecord
  2
ACAD_NAV_VCDISPLAY
 70
     0
  0
ENDTAB
  0
TABLE
  2
DIMSTYLE
  5
A
330
0
100
AcDbSymbolTable
 70
     1
100
AcDbDimStyleTable
 71
     0
  0
DIMSTYLE
105
27
330
A
100
AcDbSymbolTableRecord
100
AcDbDimStyleTableRecord
  2
Standard
 70
     0
340
11
  0
ENDTAB
  0
TABLE
  2
BLOCK_RECORD
  5
1
330
0
100
AcDbSymbolTable
 70
     1
  0
BLOCK_RECORD
  5
1F
330
1
100
AcDbSymbolTableRecord
100
AcDbBlockTableRecord
  2
*Model_Space
340
22
 70
     0
280
     1
281
     0
  0
BLOCK_RECORD
  5
1B
330
1
100
AcDbSymbolTableRecord
100
AcDbBlockTableRecord
  2
*Paper_Space
340
1E
 70
     0
280
     1
281
     0
  0
BLOCK_RECORD
  5
23
330
1
100
AcDbSymbolTableRecord
100
AcDbBlockTableRecord
  2
*Paper_Space0
340
26
 70
     0
280
     1
281
     0
  0
ENDTAB
  0
ENDSEC
  0
SECTION
  2
BLOCKS
  0
BLOCK
  5
20
330
1F
100
AcDbEntity
  8
0
100
AcDbBlockBegin
  2
*Model_Space
 70
     0
 10
0.0
 20
0.0
 30
0.0
  3
*Model_Space
  1

  0
ENDBLK
  5
21
330
1F
100
AcDbEntity
  8
0
100
AcDbBlockEnd
  0
BLOCK
  5
1C
330
1B
100
AcDbEntity
 67
     1
  8
0
100
AcDbBlockBegin
  2
*Paper_Space
 70
     0
 10
0.0
 20
0.0
 30
0.0
  3
*Paper_Space
  1

  0
ENDBLK
  5
1D
330
1B
100
AcDbEntity
 67
     1
  8
0
100
AcDbBlockEnd
  0
BLOCK
  5
24
330
23
100
AcDbEntity
 67
     1
  8
0
100
AcDbBlockBegin
  2
*Paper_Space0
 70
     0
 10
0.0
 20
0.0
 30
0.0
  3
*Paper_Space0
  1

  0
ENDBLK
  5
25
330
23
100
AcDbEntity
 67
     1
  8
0
100
AcDbBlockEnd
  0
ENDSEC
  0
SECTION
  2
ENTITIES
  0
LWPOLYLINE
  5
F4
330
1F
100
AcDbEntity
  8
0.1mm kerf$HiPro1
100
AcDbPolyline
 90
        6
 70
     0
 43
0.0
 10
-43.91250000000001
 20
148.1187499999997
 10
-43.91250000000272
 20
148.3672506602238
 10
-43.91250000000542
 20
148.6157513204479
 10
-43.91250000000814
 20
148.864251980672
 10
-43.91250000001085
 20
149.112752640896
 10
-43.91250000001357
 20
149.3612533011201
  0
LWPOLYLINE
  5
F5
330
1F
100
AcDbEntity
  8
0.1mm kerf$HiPro1
100
AcDbPolyline
 90
        9
 70
     0
 43
0.0
 10
-42.86250000000004
 20
147.06875
 10
-43.05356120503279
 20
147.0862793631626
 10
-43.24899944504
 20
147.1424722838844
 10
-43.43707024105444
 20
147.2399047132203
 10
-43.60496212024591
 20
147.376287879754
 10
-43.74134528677959
 20
147.5441797589454
 10
-43.83877771611557
 20
147.7322505549598
 10
-43.89497063683742
 20
147.927688794967
 10
-43.91250000000001
 20
148.1187499999997
  0
LWPOLYLINE
  5
F6
330
1F
100
AcDbEntity
  8
0.1mm kerf$HiPro1
100
AcDbPolyline
 90
        6
 70
     0
 43
0.0
 10
-25.81250000000002
 20
147.0687499999999
 10
-29.22250000000014
 20
147.0687499999999
 10
-32.63250000000027
 20
147.0687499999999
 10
-36.04250000000039
 20
147.06875
 10
-39.45250000000051
 20
147.06875
 10
-42.86250000000063
 20
147.06875
  0
LWPOLYLINE
  5
F7
330
1F
100
AcDbEntity
  8
0.1mm kerf$HiPro1
100
AcDbPolyline
 90
        9
 70
     0
 43
0.0
 10
-24.76249999999999
 20
148.1187499999999
 10
-24.7800293631626
 20
147.9276887949671
 10
-24.83622228388445
 20
147.7322505549599
 10
-24.93365471322043
 20
147.5441797589455
 10
-25.07003787975415
 20
147.376287879754
 10
-25.23792975894561
 20
147.2399047132203
 10
-25.42600055496006
 20
147.1424722838843
 10
-25.62143879496728
 20
147.0862793631625
 10
-25.81250000000002
 20
147.0687499999999
  0
LWPOLYLINE
  5
F8
330
1F
100
AcDbEntity
  8
0.1mm kerf$HiPro1
100
AcDbPolyline
 90
        6
 70
     0
 43
0.0
 10
-24.76249999999999
 20
148.5000000000001
 10
-24.76249999999999
 20
148.4237500000001
 10
-24.76249999999999
 20
148.3475000000001
 10
-24.76249999999999
 20
148.2712500000001
 10
-24.76249999999999
 20
148.1950000000001
 10
-24.76249999999999
 20
148.1187500000002
  0
LWPOLYLINE
  5
F9
330
1F
100
AcDbEntity
  8
0.1mm kerf$HiPro1
100
AcDbPolyline
 90
        9
 70
     0
 43
0.0
 10
-23.81249999999999
 20
149.4500000000001
 10
-23.98536489979152
 20
149.4341400999958
 10
-24.16218997408377
 20
149.3832988860094
 10
-24.33234926571588
 20
149.2951457356578
 10
-24.48425144212722
 20
149.1717514421273
 10
-24.60764573565771
 20
149.019849265716
 10
-24.69579888600931
 20
148.8496899740838
 10
-24.74664009999574
 20
148.6728648997916
 10
-24.76249999999999
 20
148.5000000000001
  0
LWPOLYLINE
  5
FA
330
1F
100
AcDbEntity
  8
0.1mm kerf$HiPro1
100
AcDbPolyline
 90
        6
 70
     0
 43
0.0
 10
-6.762511558537106
 20
149.45
 10
-10.17250924682962
 20
149.45
 10
-13.58250693512214
 20
149.4500000000001
 10
-16.99250462341466
 20
149.4500000000001
 10
-20.40250231170718
 20
149.4500000000001
 10
-23.81249999999969
 20
149.4500000000001
  0
LWPOLYLINE
  5
FB
330
1F
100
AcDbEntity
  8
0.1mm kerf$HiPro1
100
AcDbPolyline
 90
        9
 70
     0
 43
0.0
 10
-5.712511558537109
 20
150.5
 10
-5.730040921699708
 20
150.3089387949672
 10
-5.786233842421557
 20
150.11350055496
 10
-5.883666271757526
 20
149.9254297589456
 10
-6.020049438291239
 20
149.7575378797541
 10
-6.187941317482715
 20
149.6211547132204
 10
-6.37601211349715
 20
149.5237222838844
 10
-6.571450353504353
 20
149.4675293631626
 10
-6.762511558537106
 20
149.45
  0
LWPOLYLINE
  5
FC
330
1F
100
AcDbEntity
  8
0.1mm kerf$HiPro1
100
AcDbPolyline
 90
        6
 70
     0
 43
0.0
 10
-5.712511558536832
 20
155.6437713739012
 10
-5.712511558536887
 20
154.615017099121
 10
-5.712511558536943
 20
153.5862628243408
 10
-5.712511558536998
 20
152.5575085495606
 10
-5.712511558537054
 20
151.5287542747804
 10
-5.712511558537109
 20
150.5000000000003
  0
LWPOLYLINE
  5
FD
330
1F
100
AcDbEntity
  8
0.1mm kerf$HiPro1
100
AcDbPolyline
 90
        9
 70
     0
 43
0.0
 10
-4.762511558536829
 20
156.5937713739012
 10
-4.93537645832836
 20
156.5779114738969
 10
-5.112201532620609
 20
156.5270702599105
 10
-5.282360824252722
 20
156.4389171095589
 10
-5.434263000664051
 20
156.3155228160284
 10
-5.557657294194546
 20
156.1636206396171
 10
-5.64581044454614
 20
155.993461347985
 10
-5.696651658532579
 20
155.8166362736927
 10
-5.712511558536832
 20
155.6437713739012
  0
LWPOLYLINE
  5
FE
330
1F
100
AcDbEntity
  8
0.1mm kerf$HiPro1
100
AcDbPolyline
 90
        6
 70
     0
 43
0.0
 10
14.28748844146345
 20
156.5937713739015
 10
10.47748844146333
 20
156.5937713739014
 10
6.667488441463216
 20
156.5937713739014
 10
2.857488441463102
 20
156.5937713739013
 10
-0.9525115585370134
 20
156.5937713739012
 10
-4.762511558537127
 20
156.5937713739012
  0
LWPOLYLINE
  5
FF
330
1F
100
AcDbEntity
  8
0.1mm kerf$HiPro1
100
AcDbPolyline
 90
        9
 70
     0
 43
0.0
 10
15.23748844146344
 20
155.6437713739015
 10
15.22162854145919
 20
155.816636273693
 10
15.17078732747275
 20
155.9934613479853
 10
15.08263417712116
 20
156.1636206396173
 10
14.95923988359066
 20
156.3155228160287
 10
14.80733770717933
 20
156.4389171095592
 10
14.63717841554722
 20
156.5270702599108
 10
14.46035334125499
 20
156.5779114738972
 10
14.28748844146345
 20
156.5937713739015
  0
LWPOLYLINE
  5
100
330
1F
100
AcDbEntity
  8
0.1mm kerf$HiPro1
100
AcDbPolyline
 90
        6
 70
     0
 43
0.0
 10
15.23748844146314
 20
152.8812360398596
 10
15.2374884414632
 20
153.433743106668
 10
15.23748844146326
 20
153.9862501734764
 10
15.23748844146332
 20
154.5387572402847
 10
15.23748844146338
 20
155.0912643070931
 10
15.23748844146344
 20
155.6437713739015
  0
LWPOLYLINE
  5
101
330
1F
100
AcDbEntity
  8
0.1mm kerf$HiPro1
100
AcDbPolyline
 90
        9
 70
     0
 43
0.0
 10
16.28748844146313
 20
151.8312360398596
 10
16.09642723643038
 20
151.8487654030222
 10
15.90098899642316
 20
151.904958323744
 10
15.71291820040874
 20
152.00239075308
 10
15.54502632121726
 20
152.1387739196137
 10
15.40864315468355
 20
152.3066657988052
 10
15.31121072534759
 20
152.4947365948196
 10
15.25501780462574
 20
152.6901748348268
 10
15.23748844146314
 20
152.8812360398596
  0
LWPOLYLINE
  5
102
330
1F
100
AcDbEntity
  8
0.1mm kerf$HiPro1
100
AcDbPolyline
 90
        6
 70
     0
 43
0.0
 10
33.33750970154671
 20
151.8312360398599
 10
29.92750544952994
 20
151.8312360398599
 10
26.51750119751317
 20
151.8312360398598
 10
23.10749694549639
 20
151.8312360398597
 10
19.69749269347961
 20
151.8312360398597
 10
16.28748844146283
 20
151.8312360398596
  0
LWPOLYLINE
  5
103
330
1F
100
AcDbEntity
  8
0.1mm kerf$HiPro1
100
AcDbPolyline
 90
        9
 70
     0
 43
0.0
 10
34.28750970154672
 20
150.8812360398599
 10
34.27164980154247
 20
151.0541009396514
 10
34.22080858755603
 20
151.2309260139437
 10
34.13265543720444
 20
151.4010853055758
 10
34.00926114367394
 20
151.5529874819871
 10
33.85735896726261
 20
151.6763817755176
 10
33.6871996756305
 20
151.7645349258692
 10
33.51037460133826
 20
151.8153761398556
 10
33.33750970154671
 20
151.8312360398599
  0
LWPOLYLINE
  5
104
330
1F
100
AcDbEntity
  8
0.1mm kerf$HiPro1
100
AcDbPolyline
 90
        6
 70
     0
 43
0.0
 10
34.28750970154645
 20
138.7375083871663
 10
34.28750970154651
 20
141.1662539177049
 10
34.28750970154656
 20
143.5949994482436
 10
34.28750970154661
 20
146.0237449787823
 10
34.28750970154667
 20
148.4524905093209
 10
34.28750970154672
 20
150.8812360398596
  0
LWPOLYLINE
  5
105
330
1F
100
AcDbEntity
  8
0.1mm kerf$HiPro1
100
AcDbPolyline
 90
        9
 70
     0
 43
0.0
 10
35.33750970154645
 20
137.6875083871662
 10
35.1464484965137
 20
137.7050377503288
 10
34.95101025650649
 20
137.7612306710506
 10
34.76293946049207
 20
137.8586631003866
 10
34.59504758130059
 20
137.9950462669204
 10
34.45866441476687
 20
138.1629381461119
 10
34.3612319854309
 20
138.3510089421263
 10
34.30503906470905
 20
138.5464471821335
 10
34.28750970154645
 20
138.7375083871662
  0
LWPOLYLINE
  5
106
330
1F
100
AcDbEntity
  8
0.1mm kerf$HiPro1
100
AcDbPolyline
 90
        6
 70
     0
 43
0.0
 10
52.38750648331381
 20
137.687508387166
 10
48.97750712696027
 20
137.687508387166
 10
45.56750777060674
 20
137.6875083871661
 10
42.15750841425321
 20
137.6875083871661
 10
38.74750905789968
 20
137.6875083871661
 10
35.33750970154616
 20
137.6875083871662
  0
LWPOLYLINE
  5
107
330
1F
100
AcDbEntity
  8
0.1mm kerf$HiPro1
100
AcDbPolyline
 90
        9
 70
     0
 43
0.0
 10
53.33750648331381
 20
136.737508387166
 10
53.32164658330956
 20
136.9103732869575
 10
53.27080536932312
 20
137.0871983612498
 10
53.18265221897153
 20
137.2573576528818
 10
53.05925792544104
 20
137.4092598292932
 10
52.90735574902969
 20
137.5326541228237
 10
52.73719645739758
 20
137.6208072731753
 10
52.56037138310535
 20
137.6716484871617
 10
52.3875064833138
 20
137.687508387166
  0
LWPOLYLINE
  5
108
330
1F
100
AcDbEntity
  8
0.1mm kerf$HiPro1
100
AcDbPolyline
 90
       30
 70
     0
 43
0.0
 10
53.33750648331355
 20
79.58750838716568
 10
53.33750648331355
 20
93.34621528371801
 10
53.33750648331355
 20
99.99225488565071
 10
53.33750648331355
 20
100.6458751657719
 10
53.33750648331355
 20
101.2994954458932
 10
53.33750648331355
 20
101.9531157260144
 10
53.33750648331355
 20
102.6067360061356
 10
53.33750648331355
 20
103.2603562862568
 10
53.33750648331355
 20
103.9139765663781
 10
53.33750648331355
 20
104.5675968464993
 10
53.33750648331355
 20
105.2212171266206
 10
53.33750648331355
 20
105.8748374067418
 10
53.33750648331355
 20
106.528457686863
 10
53.33750648331355
 20
107.1820779669843
 10
53.33750648331355
 20
107.8356982471055
 10
53.33750648331355
 20
108.4893185272267
 10
53.33750648331355
 20
109.1429388073479
 10
53.33750648331355
 20
109.7965590874691
 10
53.33750648331355
 20
110.4501793675904
 10
53.33750648331355
 20
111.1037996477116
 10
53.33750648331356
 20
111.7574199278328
 10
53.33750648331356
 20
112.411040207954
 10
53.33750648331356
 20
113.0646604880753
 10
53.33750648331356
 20
113.7182807681965
 10
53.33750648331356
 20
114.3719010483177
 10
53.33750648331356
 20
115.0255213284389
 10
53.33750648331356
 20
115.6791416085601
 10
53.33750648331356
 20
116.3327618886813
 10
53.33750648331363
 20
122.978801490616
 10
53.33750648331381
 20
136.737508387168
  0
LWPOLYLINE
  5
109
330
1F
100
AcDbEntity
  8
0.1mm kerf$HiPro1
100
AcDbPolyline
 90
        9
 70
     0
 43
0.0
 10
52.38750648331354
 20
78.63750838716569
 10
52.56037138310507
 20
78.65336828716995
 10
52.73719645739731
 20
78.70420950115637
 10
52.90735574902943
 20
78.79236265150796
 10
53.05925792544076
 20
78.91575694503846
 10
53.18265221897125
 20
79.0676591214498
 10
53.27080536932285
 20
79.23781841308191
 10
53.3216465833093
 20
79.41464348737416
 10
53.33750648331355
 20
79.5875083871657
  0
LWPOLYLINE
  5
10A
330
1F
100
AcDbEntity
  8
0.1mm kerf$HiPro1
100
AcDbPolyline
 90
        6
 70
     0
 43
0.0
 10
33.33750648331352
 20
78.63750838716621
 10
37.14750648331353
 20
78.63750838716611
 10
40.95750648331355
 20
78.63750838716601
 10
44.76750648331356
 20
78.63750838716589
 10
48.57750648331359
 20
78.6375083871658
 10
52.38750648331361
 20
78.63750838716569
  0
LWPOLYLINE
  5
10B
330
1F
100
AcDbEntity
  8
0.1mm kerf$HiPro1
100
AcDbPolyline
 90
        9
 70
     0
 43
0.0
 10
32.38750648331354
 20
79.58750838716624
 10
32.40336638331779
 20
79.4146434873747
 10
32.45420759730423
 20
79.23781841308245
 10
32.54236074765581
 20
79.06765912145033
 10
32.6657550411863
 20
78.91575694503902
 10
32.81765721759763
 20
78.79236265150851
 10
32.98781650922973
 20
78.70420950115691
 10
33.16464158352199
 20
78.65336828717047
 10
33.33750648331352
 20
78.63750838716621
  0
LWPOLYLINE
  5
10C
330
1F
100
AcDbEntity
  8
0.1mm kerf$HiPro1
100
AcDbPolyline
 90
        6
 70
     0
 43
0.0
 10
32.38750648331354
 20
91.73123603985986
 10
32.38750648331354
 20
89.30249050932138
 10
32.38750648331354
 20
86.87374497878289
 10
32.38750648331354
 20
84.44499944824441
 10
32.38750648331354
 20
82.01625391770592
 10
32.38750648331354
 20
79.58750838716743
  0
LWPOLYLINE
  5
10D
330
1F
100
AcDbEntity
  8
0.1mm kerf$HiPro1
100
AcDbPolyline
 90
        9
 70
     0
 43
0.0
 10
31.33750648331353
 20
92.78123603985987
 10
31.52856768834628
 20
92.76370667669725
 10
31.72400592835348
 20
92.70751375597541
 10
31.91207672436795
 20
92.61008132663944
 10
32.07996860355942
 20
92.47369816010575
 10
32.21635177009313
 20
92.30580628091429
 10
32.3137841994291
 20
92.11773548489981
 10
32.36997712015095
 20
91.9222972448926
 10
32.38750648331354
 20
91.73123603985988
  0
LWPOLYLINE
  5
10E
330
1F
100
AcDbEntity
  8
0.1mm kerf$HiPro1
100
AcDbPolyline
 90
        6
 70
     0
 43
0.0
 10
14.28750970154645
 20
92.78123603985962
 10
17.69750905789987
 20
92.78123603985967
 10
21.10750841425329
 20
92.78123603985973
 10
24.51750777060672
 20
92.78123603985978
 10
27.92750712696014
 20
92.78123603985982
 10
31.33750648331356
 20
92.78123603985987
  0
LWPOLYLINE
  5
10F
330
1F
100
AcDbEntity
  8
0.1mm kerf$HiPro1
100
AcDbPolyline
 90
        9
 70
     0
 43
0.0
 10
13.33750970154645
 20
93.73123603985963
 10
13.3533696015507
 20
93.55837114006808
 10
13.40421081553714
 20
93.38154606577585
 10
13.49236396588873
 20
93.21138677414372
 10
13.61575825941923
 20
93.0594845977324
 10
13.76766043583056
 20
92.9360903042019
 10
13.93781972746267
 20
92.84793715385031
 10
14.11464480175491
 20
92.79709593986387
 10
14.28750970154645
 20
92.78123603985962
  0
LWPOLYLINE
  5
110
330
1F
100
AcDbEntity
  8
0.1mm kerf$HiPro1
100
AcDbPolyline
 90
        6
 70
     0
 43
0.0
 10
13.33750970154646
 20
96.49377137390153
 10
13.33750970154646
 20
95.94126430709291
 10
13.33750970154646
 20
95.38875724028429
 10
13.33750970154645
 20
94.83625017347566
 10
13.33750970154645
 20
94.28374310666704
 10
13.33750970154645
 20
93.73123603985844
  0
LWPOLYLINE
  5
111
330
1F
100
AcDbEntity
  8
0.1mm kerf$HiPro1
100
AcDbPolyline
 90
        9
 70
     0
 43
0.0
 10
12.28750970154646
 20
97.54377137390152
 10
12.4785709065792
 20
97.52624201073894
 10
12.67400914658644
 20
97.47004909001708
 10
12.86207994260086
 20
97.37261666068111
 10
13.02997182179233
 20
97.2362334941474
 10
13.16635498832603
 20
97.06834161495592
 10
13.263787417662
 20
96.8802708189415
 10
13.31998033838386
 20
96.68483257893427
 10
13.33750970154646
 20
96.49377137390153
  0
LWPOLYLINE
  5
112
330
1F
100
AcDbEntity
  8
0.1mm kerf$HiPro1
100
AcDbPolyline
 90
        6
 70
     0
 43
0.0
 10
-2.762500000000017
 20
97.54377137390104
 10
0.2475019403092657
 20
97.54377137390113
 10
3.257503880618549
 20
97.54377137390122
 10
6.267505820927832
 20
97.54377137390132
 10
9.277507761237115
 20
97.54377137390143
 10
12.2875097015464
 20
97.54377137390152
  0
LWPOLYLINE
  5
113
330
1F
100
AcDbEntity
  8
0.1mm kerf$HiPro1
100
AcDbPolyline
 90
        9
 70
     0
 43
0.0
 10
-3.8125
 20
96.49377137390104
 10
-3.794970636837407
 20
96.68483257893379
 10
-3.738777716115552
 20
96.88027081894102
 10
-3.641345286779588
 20
97.06834161495544
 10
-3.504962120245886
 20
97.23623349414692
 10
-3.33707024105442
 20
97.37261666068061
 10
-3.148999445039996
 20
97.47004909001658
 10
-2.953561205032762
 20
97.52624201073846
 10
-2.762500000000017
 20
97.54377137390104
  0
LWPOLYLINE
  5
114
330
1F
100
AcDbEntity
  8
0.1mm kerf$HiPro1
100
AcDbPolyline
 90
        6
 70
     0
 43
0.0
 10
-3.812500000000028
 20
91.35000000000003
 10
-3.812500000000022
 20
92.37875427478046
 10
-3.812500000000016
 20
93.40750854956089
 10
-3.812500000000011
 20
94.43626282434134
 10
-3.812500000000005
 20
95.46501709912179
 10
-3.8125
 20
96.49377137390224
  0
LWPOLYLINE
  5
115
330
1F
100
AcDbEntity
  8
0.1mm kerf$HiPro1
100
AcDbPolyline
 90
        9
 70
     0
 43
0.0
 10
-4.762500000000031
 20
90.40000000000002
 10
-4.589635100208498
 20
90.41585990000426
 10
-4.412810025916263
 20
90.4667011139907
 10
-4.242650734284136
 20
90.55485426434229
 10
-4.090748557872808
 20
90.67824855787279
 10
-3.967354264342313
 20
90.83015073428411
 10
-3.879201113990714
 20
91.00031002591626
 10
-3.828359900004281
 20
91.17713510020847
 10
-3.812500000000028
 20
91.35000000000003
  0
LWPOLYLINE
  5
116
330
1F
100
AcDbEntity
  8
0.1mm kerf$HiPro1
100
AcDbPolyline
 90
        6
 70
     0
 43
0.0
 10
-12.64748288959219
 20
90.4
 10
-11.07048631167375
 20
90.4
 10
-9.493489733755325
 20
90.4
 10
-7.916493155836893
 20
90.4
 10
-6.339496577918462
 20
90.40000000000002
 10
-4.76250000000003
 20
90.40000000000002
  0
LWPOLYLINE
  5
117
330
1F
100
AcDbEntity
  8
0.1mm kerf$HiPro1
100
AcDbPolyline
 90
       18
 70
     0
 43
0.0
 10
-13.661704462273
 20
89.07823796897147
 10
-13.6846420914843
 20
89.18629050441877
 10
-13.6962075286712
 20
89.29826369551729
 10
-13.69563073800528
 20
89.41233861424519
 10
-13.68253845837061
 20
89.52652190471388
 10
-13.65699749968026
 20
89.63875640585106
 10
-13.61952060140949
 20
89.74704243186314
 10
-13.57103297234107
 20
89.84955504905231
 10
-13.51280396711221
 20
89.94474316564934
 10
-13.44592364878526
 20
90.03190347855042
 10
-13.36904992880552
 20
90.11278503388627
 10
-13.28258001390627
 20
90.1861528823654
 10
-13.1876836071803
 20
90.25037946706781
 10
-13.08588399480514
 20
90.30409877420952
 10
-12.97898001621287
 20
90.34629797502669
 10
-12.86894144365783
 20
90.37638009958845
 10
-12.75779031802892
 20
90.39418976782561
 10
-12.64748288959207
 20
90.40000000000002
  0
LWPOLYLINE
  5
118
330
1F
100
AcDbEntity
  8
0.1mm kerf$HiPro1
100
AcDbPolyline
 90
        6
 70
     0
 43
0.0
 10
-9.189601195893686
 20
72.38812136214072
 10
-10.08402184916955
 20
75.72614468350687
 10
-10.97844250244542
 20
79.06416800487304
 10
-11.87286315572128
 20
82.40219132623918
 10
-12.76728380899714
 20
85.74021464760534
 10
-13.661704462273
 20
89.07823796897151
  0
LWPOLYLINE
  5
119
330
1F
100
AcDbEntity
  8
0.1mm kerf$HiPro1
100
AcDbPolyline
 90
        9
 70
     0
 43
0.0
 10
-9.861352641810029
 20
71.2246137333034
 10
-9.69848281412756
 20
71.2846739488004
 10
-9.540841581883729
 20
71.37954848749728
 10
-9.399296041031318
 20
71.50873835764802
 10
-9.28450659838289
 20
71.66724326899593
 10
-9.204632039200703
 20
71.8459062976157
 10
-9.163523099631298
 20
72.0330832662772
 10
-9.160179954677627
 20
72.21704184678173
 10
-9.189601195893686
 20
72.38812136214072
  0
LWPOLYLINE
  5
11A
330
1F
100
AcDbEntity
  8
0.1mm kerf$HiPro1
100
AcDbPolyline
 90
        6
 70
     0
 43
0.0
 10
-18.46674085980349
 20
68.91880546250439
 10
-16.74566321620491
 20
69.37996711666416
 10
-15.02458557260634
 20
69.84112877082394
 10
-13.30350792900776
 20
70.30229042498371
 10
-11.58243028540918
 20
70.76345207914347
 10
-9.861352641810606
 20
71.22461373330324
  0
LWPOLYLINE
  5
11B
330
1F
100
AcDbEntity
  8
0.1mm kerf$HiPro1
100
AcDbPolyline
 90
      185
 70
     0
 43
0.0
 10
-76.22889148880474
 20
93.55593798358901
 10
-76.15429916158355
 20
93.5533472021437
 10
-76.07817907879709
 20
93.54530227313153
 10
-76.00108889519453
 20
93.53143448516282
 10
-75.92366196455991
 20
93.51144323388888
 10
-75.8465971165944
 20
93.48511383776324
 10
-75.77064388123659
 20
93.45233382824016
 10
-75.69658343583464
 20
93.41310638228746
 10
-75.62520598313645
 20
93.36755959869538
 10
-75.55728569409018
 20
93.31595051091444
 10
-75.49355470533765
 20
93.25866307841307
 10
-75.43467788453241
 20
93.19619987794181
 10
-75.38123011939896
 20
93.12916777049599
 10
-75.33367772783215
 20
93.05825837482725
 10
-75.29236523927306
 20
92.98422465427945
 10
-75.25750830821896
 20
92.90785525162197
 10
-75.22919295952071
 20
92.82994834273534
 10
-75.20738081233637
 20
92.751286714378
 10
-75.19191945892323
 20
92.67261552753444
 10
-75.18255683933119
 20
92.59462385603269
 10
-75.17895827916163
 20
92.51793065406689
 10
-75.17889444903925
 20
92.50846307818234
 10
-75.17889150111173
 20
92.50610080153412
 10
-75.17889148891256
 20
92.50595322140284
 10
-75.17889148880479
 20
92.49255629791493
 10
-75.17889148880479
 20
92.46271131408766
 10
-75.17889148880479
 20
92.40302134643874
 10
-75.17889148880479
 20
92.2836414111353
 10
-75.17889148880479
 20
91.80612166991048
 10
-75.17889148880479
 20
89.89604270502224
 10
-75.17889148880479
 20
86.07588477524577
 10
-75.17889148880479
 20
78.43556891569841
 10
-75.17889148880481
 20
70.79525305615099
 10
-75.17889148880481
 20
66.97509512637451
 10
-75.17889148880481
 20
66.02005564393036
 10
-75.17889148880481
 20
65.54253590271109
 10
-75.17889148880481
 20
65.30377603209867
 10
-75.17889148880479
 20
65.29972032968655
 10
-75.17889148880479
 20
65.29915409416442
 10
-75.17889148880477
 20
65.2980216122251
 10
-75.17889148880479
 20
65.29575660480436
 10
-75.17889148880479
 20
65.29122641609792
 10
-75.17889148880479
 20
65.28216534566516
 10
-75.17889148880481
 20
65.13706697290529
 10
-75.17889148880477
 20
62.80221371177521
 10
-75.17889148880475
 20
61.64363399357928
 10
-75.17889148880472
 20
61.07150055385887
 10
-75.17889148880472
 20
60.78780651980103
 10
-75.17889148880472
 20
60.7701335997078
 10
-75.17889148880472
 20
60.76129978060146
 10
-75.17889118389482
 20
60.75773645661002
 10
-75.17887717132021
 20
60.75322584751261
 10
-75.17878630073107
 20
60.74419631076703
 10
-75.17835160685272
 20
60.72610748268822
 10
-75.1731815247858
 20
60.65350680236914
 10
-75.16240126370814
 20
60.58092411378103
 10
-75.14591611402166
 20
60.50892610815179
 10
-75.12371729217708
 20
60.43809155489524
 10
-75.09588564659454
 20
60.36899661776082
 10
-75.06259198901623
 20
60.30219967606923
 10
-75.02409390419426
 20
60.23822646593227
 10
-74.98072914261188
 20
60.17755635994692
 10
-74.93290594935041
 20
60.12061053141942
 10
-74.90746633917457
 20
60.09364756554709
 10
-74.90095770430063
 20
60.08707078230926
 10
-74.90075337777532
 20
60.08686632962344
 10
-74.90065119346685
 20
60.08676412770746
 10
-74.89737376266289
 20
60.08348669680445
 10
-74.88314640370204
 20
60.06925933784359
 10
-74.85468978410118
 20
60.04080271824272
 10
-74.79776898466361
 20
59.98388191880515
 10
-74.68389751677867
 20
59.87001045092018
 10
-74.22802899314787
 20
59.41414192728941
 10
-72.39938843367385
 20
57.58550136781539
 10
-70.56511261470681
 20
55.75122554884837
 10
-66.89369389980026
 20
52.07980683394181
 10
-65.06351584283156
 20
50.24962877697315
 10
-63.24158886370074
 20
48.42770179784233
 10
-62.33476423308009
 20
47.52087716722168
 10
-61.43124469089517
 20
46.61735762503677
 10
-60.53143152060119
 20
45.71754445474279
 10
-59.63571885601814
 20
44.82183179015974
 10
-58.74449315360779
 20
43.9306060877494
 10
-58.63342436270819
 20
43.8195372968498
 10
-58.57791870674461
 20
43.76403164088621
 10
-58.55017310346386
 20
43.73628603760548
 10
-58.53630211297115
 20
43.72241504711277
 10
-58.53072673454023
 20
43.71683967067696
 10
-58.53054259742713
 20
43.71665560256724
 10
-58.52461387640616
 20
43.71078122977335
 10
-58.51254507960712
 20
43.69912778437083
 10
-58.46146147790271
 20
43.65394880042616
 10
-58.40594661925678
 20
43.61150519651977
 10
-58.34615553028228
 20
43.57239342755275
 10
-58.28233748975605
 20
43.53720827528286
 10
-58.21483950348393
 20
43.50652407280318
 10
-58.14410560598666
 20
43.48087434824048
 10
-58.07067141312449
 20
43.46073102232528
 10
-57.99515368814485
 20
43.44648451541876
 10
-57.91823510574697
 20
43.43842621838573
 10
-57.84064485677513
 20
43.43673472340203
 10
-57.76313616785738
 20
43.44146698269368
 10
-57.68646215007073
 20
43.45255518124956
 10
-57.61135158301413
 20
43.46980961835607
 10
-57.53848625257985
 20
43.49292735869279
 10
-57.4684812896994
 20
43.52150591191519
 10
-57.40186963194631
 20
43.5550607989789
 10
-57.33909130306526
 20
43.59304561283724
 10
-57.28048774268991
 20
43.63487310130734
 10
-57.22630098389251
 20
43.67993588223128
 10
-57.20091313680697
 20
43.70348996056747
 10
-57.18865075345986
 20
43.71548971970236
 10
-57.1878939363029
 20
43.71624432002856
 10
-57.18751595077955
 20
43.71662181889345
 10
-57.1873270637887
 20
43.71681061787873
 10
-57.18263875244151
 20
43.72149892287873
 10
-57.12573117255486
 20
43.7784065027654
 10
-57.01191601278285
 20
43.8922216625374
 10
-56.78428569323751
 20
44.11985198208274
 10
-54.96324313687486
 20
45.94089453844545
 10
-51.32115802415086
 20
49.58297965116949
 10
-50.86589738506152
 20
50.03824029025883
 10
-50.63826706551618
 20
50.26587060980418
 10
-50.52445190574418
 20
50.37968576957617
 10
-50.46754432585752
 20
50.43659334946283
 10
-50.45331743088683
 20
50.45082024443352
 10
-50.45165070977483
 20
50.45248696208023
 10
-50.4507339864665
 20
50.45340365353752
 10
-50.42138829828763
 20
50.48273073113167
 10
-50.36263561028729
 20
50.54134381250566
 10
-50.12680861133843
 20
50.7752455266489
 10
-49.65125100045075
 20
51.24037249274697
 10
-49.17051896506064
 20
51.70186227268378
 10
-48.68465043315569
 20
52.15963293607597
 10
-48.19368499508208
 20
52.61360299318447
 10
-47.697663899887
 20
53.06369143573346
 10
-47.19663005049163
 20
53.50981777781749
 10
-46.69062799768534
 20
53.9519020968593
 10
-46.17970393293372
 20
54.38986507457979
 10
-45.66390567999368
 20
54.82362803794021
 10
-45.14328268533058
 20
55.25311300001781
 10
-44.61788600733465
 20
55.67824270077437
 10
-44.0877683043339
 20
56.09894064767726
 10
-43.55298382140381
 20
56.51513115613262
 10
-43.01358837597444
 20
56.92673938968933
 10
-42.46963934223815
 20
57.33369139997333
 10
-41.92119563436168
 20
57.73591416631052
 10
-41.36831768850877
 20
58.13333563499783
 10
-40.81106744368075
 20
58.52588475818065
 10
-40.24950832138431
 20
58.91349153229622
 10
-39.68370520413661
 20
59.29608703604195
 10
-39.11372441282059
 20
59.67360346782836
 10
-38.53963368290397
 20
60.04597418267624
 10
-37.96150213953773
 20
60.41313372851838
 10
-37.37940027155057
 20
60.77501788186679
 10
-36.79339990435848
 20
61.13156368280621
 10
-36.20357417180923
 20
61.48270946927622
 10
-35.60999748698371
 20
61.82839491060422
 10
-35.01274551197685
 20
62.16856104025263
 10
-34.41189512668304
 20
62.50315028774462
 10
-33.80752439661211
 20
62.83210650973295
 10
-33.19971253976315
 20
63.15537502017815
 10
-32.58853989258509
 20
63.47290261960304
 10
-31.97408787505398
 20
63.7846376233913
 10
-31.35643895489859
 20
64.09052988909945
 10
-30.73567661100695
 20
64.39053084275241
 10
-30.11188529604725
 20
64.68459350409434
 10
-29.4851503983385
 20
64.97267251076746
 10
-28.85555820300662
 20
65.25472414139305
 10
-28.22319585246296
 20
65.53070633753023
 10
-27.58815130624338
 20
65.80057872448951
 10
-26.95051330024665
 20
66.0643026309794
 10
-26.31037130541154
 20
66.32184110756639
 10
-25.66781548587339
 20
66.57315894392948
 10
-25.02293665664105
 20
66.81822268489236
 10
-24.37582624083582
 20
67.05700064521835
 10
-23.72657622653494
 20
67.28946292315365
 10
-23.0752791232621
 20
67.51558141270765
 10
-22.42202791816813
 20
67.73532981465939
 10
-21.76691603194541
 20
67.94868364628181
 10
-21.11003727451983
 20
68.15562024977656
 10
-20.45148580056403
 20
68.35611879941414
 10
-19.791356064876
 20
68.55016030737606
 10
-19.12974277766709
 20
68.73772762829659
 10
-18.4667408598035
 20
68.91880546250439
  0
LWPOLYLINE
  5
11C
330
1F
100
AcDbEntity
  8
0.1mm kerf$HiPro1
100
AcDbPolyline
 90
        6
 70
     0
 43
0.0
 10
-80.22889148880462
 20
93.55593798358858
 10
-79.42889148880467
 20
93.55593798358865
 10
-78.62889148880471
 20
93.55593798358874
 10
-77.82889148880475
 20
93.55593798358883
 10
-77.02889148880482
 20
93.55593798358892
 10
-76.22889148880486
 20
93.55593798358901
  0
LWPOLYLINE
  5
11D
330
1F
100
AcDbEntity
  8
0.1mm kerf$HiPro1
100
AcDbPolyline
 90
      759
 70
     0
 43
0.0
 10
-43.91250000000905
 20
156.5896822710526
 10
-43.91157888799471
 20
156.6331391783538
 10
-43.90876869691715
 20
156.6771464581468
 10
-43.90400524662651
 20
156.7215884481619
 10
-43.89723343805687
 20
156.7663409762726
 10
-43.88840838503192
 20
156.8112721612508
 10
-43.87749646155127
 20
156.8562433930437
 10
-43.86447623424452
 20
156.9011104844843
 10
-43.84933925056101
 20
156.9457249804571
 10
-43.83209065538181
 20
156.9899356046386
 10
-43.81274961211122
 20
157.0335898183371
 10
-43.79134950887209
 20
157.0765354609495
 10
-43.76793793605569
 20
157.1186224374497
 10
-43.74257642795295
 20
157.159704415361
 10
-43.71533996824319
 20
157.1996404920801
 10
-43.68631626641319
 20
157.2382967933274
 10
-43.65560481937021
 20
157.2755479649667
 10
-43.62331577923902
 20
157.311278523418
 10
-43.58956865425848
 20
157.3453840342482
 10
-43.55449087452934
 20
157.3777720940616
 10
-43.5182162578875
 20
157.4083630972199
 10
-43.48088341324556
 20
157.4370907758987
 10
-43.44263411930998
 20
157.4639025091539
 10
-43.40361171567696
 20
157.4887594036929
 10
-43.36395954106143
 20
157.5116361555997
 10
-43.32381945000665
 20
157.5325207080643
 10
-43.2833304351005
 20
157.551413725012
 10
-43.24262737675698
 20
157.5683279042721
 10
-43.20183993729077
 20
157.5832871564979
 10
-43.16109161058977
 20
157.596325677459
 10
-43.11981386933465
 20
157.6078730643381
 10
-43.03584937377119
 20
157.6308208081702
 10
-42.36412531034253
 20
157.8126765715911
 10
-41.69239921205722
 20
157.9914676428523
 10
-41.02069050321544
 20
158.1671993513175
 10
-40.34901861927511
 20
158.3398771518451
 10
-39.67740290388104
 20
158.5095066511883
 10
-39.00586260752911
 20
158.6760936065751
 10
-38.33441688625305
 20
158.8396439242766
 10
-37.66308480033432
 20
159.0001636581637
 10
-36.99188531303464
 20
159.1576590082529
 10
-36.3208372893517
 20
159.3121363192411
 10
-35.64995949479784
 20
159.4636020790302
 10
-34.97927059420191
 20
159.612062917242
 10
-34.30878915053415
 20
159.757525603723
 10
-33.63853362375442
 20
159.8999970470404
 10
-32.96852236968341
 20
160.0394842929697
 10
-32.29877363889734
 20
160.1759945229724
 10
-31.62930557564597
 20
160.3095350526675
 10
-30.96013621679354
 20
160.4401133302941
 10
-30.29128349078332
 20
160.567736935167
 10
-29.62276521662536
 20
160.6924135761259
 10
-28.95459910290743
 20
160.8141510899769
 10
-28.28680274682937
 20
160.9329574399289
 10
-27.61939363326065
 20
161.0488407140238
 10
-26.95238913382104
 20
161.1618091235609
 10
-26.28580650598471
 20
161.271871001517
 10
-25.61966289220728
 20
161.3790348009606
 10
-24.95397531907611
 20
161.4833090934631
 10
-24.28876069648368
 20
161.5847025675047
 10
-23.62403581682388
 20
161.6832240268774
 10
-22.95981735421145
 20
161.7788823890845
 10
-22.29612186372411
 20
161.8716866837371
 10
-21.63296578066774
 20
161.9616460509476
 10
-20.97036541986417
 20
162.0487697397217
 10
-20.30833697496174
 20
162.1330671063475
 10
-19.6468965177684
 20
162.2145476127838
 10
-18.98605999760739
 20
162.2932208250463
 10
-18.32584324069528
 20
162.3690964115938
 10
-17.66626194954235
 20
162.4421841417128
 10
-17.00733170237526
 20
162.5124938839023
 10
-16.34906795258166
 20
162.5800356042582
 10
-15.69148602817699
 20
162.6448193648587
 10
-15.03460113129303
 20
162.7068553221496
 10
-14.37842833768828
 20
162.7661537253306
 10
-13.72298259627996
 20
162.8227249147434
 10
-13.06827872869749
 20
162.8765793202604
 10
-12.41433142885742
 20
162.927727459676
 10
-11.76115526255941
 20
162.9761799370999
 10
-11.10876466710352
 20
163.0219474413519
 10
-10.45717395092851
 20
163.0650407443607
 10
-9.806397293270631
 20
163.1054706995646
 10
-9.156448743843261
 20
163.143248240316
 10
-8.507342222537113
 20
163.178384378289
 10
-7.859091519140601
 20
163.2108902018911
 10
-7.211710293080523
 20
163.2407768746788
 10
-6.565212073182708
 20
163.2680556337771
 10
-5.919610257452476
 20
163.2927377883041
 10
-5.274918112874827
 20
163.3148347178004
 10
-4.631148775234112
 20
163.3343578706625
 10
-3.988315248952988
 20
163.3513187625829
 10
-3.346430406950598
 20
163.3657289749947
 10
-2.705506990519617
 20
163.3776001535224
 10
-2.065557609222155
 20
163.3869440064382
 10
-1.426594740804232
 20
163.3937723031251
 10
-0.7886307311286106
 20
163.398096872546
 10
-0.1516777941259136
 20
163.3999296017191
 10
0.4848365173423945
 20
163.399282619863
 10
1.12227425221837
 20
163.3961559784579
 10
1.760681569141256
 20
163.3905380283454
 10
2.400047262938495
 20
163.3824169228611
 10
3.04036000890394
 20
163.3717808640695
 10
3.681608362782653
 20
163.3586181041339
 10
4.323780760770478
 20
163.3429169466944
 10
4.966865519528566
 20
163.3246657482519
 10
5.610850836213008
 20
163.3038529195592
 10
6.255724788519758
 20
163.2804669270183
 10
6.901475334744977
 20
163.2544962940835
 10
7.54809031386098
 20
163.2259296026713
 10
8.195557445607894
 20
163.1947554945754
 10
8.843864330601414
 20
163.1609626728881
 10
9.492998450456379
 20
163.1245399034263
 10
10.14294716792656
 20
163.0854760161637
 10
10.79369772706109
 20
163.0437599066674
 10
11.44523725337715
 20
162.9993805375398
 10
12.09755275404945
 20
162.9523269398649
 10
12.75063111811644
 20
162.9025882146594
 10
13.4044591167035
 20
162.8501535343275
 10
14.05902340326324
 20
162.7950121441206
 10
14.71431051383298
 20
162.7371533635996
 10
15.37030686730962
 20
162.6765665881025
 10
16.02699876574197
 20
162.6132412902136
 10
16.68437239464076
 20
162.547167021237
 10
17.3424138233063
 20
162.4783334126726
 10
18.00110900517412
 20
162.4067301776952
 10
18.66044377817853
 20
162.332347112635
 10
19.32040386513432
 20
162.2551740984617
 10
19.98097487413665
 20
162.1752011022694
 10
20.64214229897933
 20
162.092418178764
 10
21.30389151959151
 20
162.0068154717512
 10
21.96620780249296
 20
161.9183832156269
 10
22.62907630126791
 20
161.8271117368671
 10
23.29248205705781
 20
161.7329914555197
 10
23.95640999907277
 20
161.6360128866961
 10
24.62084494512204
 20
161.5361666420627
 10
25.28577160216347
 20
161.4334434313329
 10
25.95117456687218
 20
161.3278340637586
 10
26.61703832622828
 20
161.2193294496203
 10
27.28334725812397
 20
161.1079206017169
 10
27.95008563199002
 20
160.9935986368543
 10
28.61723760944147
 20
160.8763547773318
 10
29.28478724494309
 20
160.7561803524274
 10
29.95271848649416
 20
160.6330667998806
 10
30.62101517633297
 20
160.5070056673728
 10
31.28966105166091
 20
160.377988614005
 10
31.95863974538633
 20
160.2460074117726
 10
32.62793478688806
 20
160.1110539470368
 10
33.29752960279881
 20
159.9731202219922
 10
33.96740751780836
 20
159.8321983561308
 10
34.6375517554865
 20
159.6882805877016
 10
35.30794543912604
 20
159.5413592751657
 10
35.97857159260558
 20
159.3914268986462
 10
36.64941314127227
 20
159.2384760613737
 10
37.32045291284438
 20
159.0824994911252
 10
37.99167363833403
 20
158.9234900416584
 10
38.66305795298962
 20
158.7614406941389
 10
39.33458839725835
 20
158.5963445585613
 10
40.00624741776852
 20
158.4281948751638
 10
40.6780173683321
 20
158.2569850158352
 10
41.34988051096673
 20
158.0827084855143
 10
42.02181901693775
 20
157.9053589235828
 10
42.69381496782028
 20
157.7249301052486
 10
43.36585035658091
 20
157.5414159429213
 10
44.03790708867925
 20
157.354810487579
 10
44.70996698318907
 20
157.165107930126
 10
45.38201177393936
 20
156.9723026027413
 10
46.05402311067474
 20
156.7763889802162
 10
46.72598256023564
 20
156.5773616812837
 10
47.39787160775792
 20
156.3752154699356
 10
47.73378392281798
 20
156.2729711758945
 10
48.06967165789175
 20
156.1699452567304
 10
48.40553247618778
 20
156.0661370993766
 10
48.74136403604016
 20
155.9615461000885
 10
49.0771639909482
 20
155.8561716644827
 10
49.41292998961652
 20
155.7500132075777
 10
49.74865967599541
 20
155.6430701538322
 10
50.08435068932143
 20
155.5353419371854
 10
50.42000066415836
 20
155.4268280010959
 10
50.75560723043849
 20
155.31752779858
 10
51.0911680135041
 20
155.2074407922512
 10
51.42668063414927
 20
155.0965664543582
 10
51.76214270866209
 20
154.9849042668236
 10
52.09755184886695
 20
154.8724537212816
 10
52.43290566216735
 20
154.7592143191161
 10
52.76820175158881
 20
154.6451855714983
 10
53.10343771582223
 20
154.5303669994244
 10
53.43861114926738
 20
154.4147581337523
 10
53.77371964207683
 20
154.2983585152392
 10
54.10876078020002
 20
154.1811676945781
 10
54.44373214542782
 20
154.0631852324345
 10
54.77863131543704
 20
153.9444106994825
 10
55.11345586383562
 20
153.8248436764411
 10
55.44820336020782
 20
153.7044837541101
 10
55.78287137015976
 20
153.5833305334058
 10
56.11745745536532
 20
153.4613836253962
 10
56.45195917361221
 20
153.3386426513361
 10
56.78637407884841
 20
153.2151072427024
 10
57.12069972122876
 20
153.0907770412284
 10
57.45493364716197
 20
152.9656516989383
 10
57.53413171762546
 20
152.9347934643521
 10
57.61281530956294
 20
152.9015805744935
 10
57.69115498618376
 20
152.865886056875
 10
57.76904076528726
 20
152.8276977886986
 10
57.84636046597197
 20
152.7870098050142
 10
57.92300011877202
 20
152.7438225568214
 10
57.99884440576154
 20
152.6981431380125
 10
58.07377712802284
 20
152.6499854774725
 10
58.14768169738495
 20
152.5993704928781
 10
58.22044164887191
 20
152.5463262030441
 10
58.29194116986231
 20
152.4908877960277
 10
58.36206564156631
 20
152.4330976506401
 10
58.43070218808351
 20
152.3730053095059
 10
58.49774022802387
 20
152.3106674023578
 10
58.56307202346396
 20
152.2461475188486
 10
58.62659322087916
 20
152.1795160307832
 10
58.68820337864544
 20
152.1108498643279
 10
58.74780647574456
 20
152.0402322234058
 10
58.80531139643867
 20
151.9677522661502
 10
58.86063238589935
 20
151.8935047369163
 10
58.91368947208557
 20
151.8175895569691
 10
58.96440884955317
 20
151.7401113775207
 10
59.01272322134457
 20
151.6611790993027
 10
59.05857209563742
 20
151.5809053632984
 10
59.10190203441701
 20
151.4994060176251
 10
59.14266685206669
 20
151.4167995658362
 10
59.18082776242864
 20
151.3332066021073
 10
59.21635347356273
 20
151.2487492388691
 10
59.24922023010813
 20
151.1635505324577
 10
59.27941180381644
 20
151.0777339122729
 10
59.30691943346625
 20
150.9914226187597
 10
59.33174171597105
 20
150.9047391552848
 10
59.35388445104732
 20
150.8178047586478
 10
59.37336044230735
 20
150.7307388925837
 10
59.39018925807337
 20
150.643658768171
 10
59.40439695557237
 20
150.5566788945697
 10
59.41601577245875
 20
150.4699106630044
 10
59.42508378982464
 20
150.3834619663662
 10
59.43164457099478
 20
150.2974368562678
 10
59.4357467804668
 20
150.2119352388427
 10
59.437443787351
 20
150.1270526100532
 10
59.4374896254407
 20
150.116490381234
 10
59.43749882407725
 20
150.1112134822913
 10
59.43749999972597
 20
150.1085760960699
 10
59.43749999999997
 20
150.0958195854694
 10
59.43749999999997
 20
150.0789092341934
 10
59.43749999999997
 20
150.0450885316357
 10
59.43749999999997
 20
149.9774471265204
 10
59.43749999999997
 20
149.8421643162954
 10
59.43749999999997
 20
147.6776393526334
 10
59.43749999999997
 20
143.3485894253096
 10
59.43749999999998
 20
126.0323897160143
 10
59.43749999999999
 20
91.39999029742362
 10
59.43749999999999
 20
74.0837905881283
 10
59.43749999999999
 20
69.75474066080443
 10
59.43749999999999
 20
68.67247817897072
 10
59.43749999999999
 20
68.40191255851505
 10
59.43749999999999
 20
68.33427115340533
 10
59.43749999999999
 20
68.30045045084768
 10
59.43749998409037
 20
68.29968847359609
 10
59.43749959355307
 20
68.2984254123983
 10
59.43749279613252
 20
68.29337100764369
 10
59.43738154179647
 20
68.27311913302903
 10
59.43557248205129
 20
68.19158346915044
 10
59.43152991588863
 20
68.109259676065
 10
59.42518807703014
 20
68.02622792934895
 10
59.41648437802059
 20
67.94257359120123
 10
59.40535984663527
 20
67.85838710835612
 10
59.39175956531788
 20
67.77376387030592
 10
59.37563310978362
 20
67.6888040263433
 10
59.35693498262445
 20
67.60361226032813
 10
59.33562503749737
 20
67.51829752253157
 10
59.31166888926949
 20
67.43297271840643
 10
59.28503830534707
 20
67.34775435467239
 10
59.25571157333535
 20
67.26276214367962
 10
59.22367384017107
 20
67.17811856761592
 10
59.18891741794577
 20
67.09394840474011
 10
59.15144205179904
 20
67.01037822044769
 10
59.11125514551084
 20
66.9275358265871
 10
59.06837194076056
 20
66.84554971303883
 10
59.02281564644672
 20
66.76454845612383
 10
58.97461751497065
 20
66.68466010891494
 10
58.92381686297357
 20
66.60601157896683
 10
58.87046103467178
 20
66.52872799934617
 10
58.81460530664541
 20
66.45293209912245
 10
58.75631273369246
 20
66.37874357966071
 10
58.69565393614434
 20
66.30627850313544
 10
58.63270682983685
 20
66.23564869965105
 10
58.56755630072445
 20
66.1669611992113
 10
58.50029382689857
 20
66.10031769452546
 10
58.43101705150441
 20
66.03581404027645
 10
58.35982931073099
 20
65.97353979401538
 10
58.28683912165879
 20
65.91357780329317
 10
58.21215963527665
 20
65.85600384300819
 10
58.13590806041168
 20
65.80088630625053
 10
58.05820506464789
 20
65.7482859511774
 10
57.97917415852928
 20
65.69825570567189
 10
57.89894106945532
 20
65.65084053074139
 10
57.81763311167549
 20
65.60607734281621
 10
57.73537855868126
 20
65.56399499433094
 10
57.65230602408266
 20
65.5246143112275
 10
57.5685438567507
 20
65.48794818532261
 10
57.48421955561706
 20
65.45400171884693
 10
57.39945920905967
 20
65.42277241789974
 10
57.31438696328039
 20
65.39425043107633
 10
57.22912452351296
 20
65.36841882912637
 10
57.14379069129943
 20
65.34525392118829
 10
57.05850094045512
 20
65.32472560292202
 10
56.97336703372036
 20
65.30679773172622
 10
56.88849668148264
 20
65.2914285241758
 10
56.80399324335832
 20
65.27857097084235
 10
56.71995547285746
 20
65.2681732637621
 10
56.63647730482878
 20
65.26017923198091
 10
56.55364768489839
 20
65.25452878082834
 10
56.47155043968375
 20
65.25115833084282
 10
56.3902641861858
 20
65.25000125257813
 10
56.38773787274979
 20
65.25000000927595
 10
56.38758000689836
 20
65.25000000104933
 10
56.3788027927449
 20
65.24999999999997
 10
56.3435341965502
 20
65.24999999999997
 10
56.27300031566406
 20
65.24999999999997
 10
56.13194574175298
 20
65.24999999999997
 10
55.56790084794159
 20
65.24999999999997
 10
54.44061577127953
 20
65.24999999999997
 10
53.31434705696054
 20
65.24999999999998
 10
52.1890269001123
 20
65.24999999999997
 10
51.06458759545535
 20
65.24999999999995
 10
49.94096152370707
 20
65.24999999999997
 10
47.69587895036923
 20
65.24999999999998
 10
45.45323943057566
 20
65.24999999999998
 10
43.21250372357687
 20
65.24999999999997
 10
40.97313266380477
 20
65.24999999999997
 10
38.73458672635095
 20
65.24999999999998
 10
34.25780770251308
 20
65.24999999999998
 10
32.01848983108308
 20
65.24999999999998
 10
29.77782662440395
 20
65.25
 10
27.53527015836756
 20
65.24999999999998
 10
25.29026948091849
 20
65.25
 10
24.16667944882791
 20
65.24999999999998
 10
23.04227014981286
 20
65.24999999999998
 10
21.91697165623787
 20
65.24999999999998
 10
20.7907137632255
 20
65.25
 10
19.66342597354783
 20
65.25
 10
18.53503748234892
 20
65.24999999999998
 10
17.4054771617141
 20
65.25
 10
16.27467354510216
 20
65.24999999999998
 10
15.14255481160989
 20
65.25
 10
14.00904877003787
 20
65.25
 10
12.87408284277326
 20
65.25
 10
11.73758404950488
 20
65.25
 10
10.59947899073959
 20
65.25
 10
9.459693831088014
 20
65.25000000000002
 10
8.318154282334853
 20
65.25000000000002
 10
7.174785586308595
 20
65.25000000000002
 10
6.029512497518675
 20
65.25
 10
4.882259265527467
 20
65.25000000000002
 10
3.73294961707149
 20
65.25
 10
2.581506737946193
 20
65.25
 10
1.427853254621289
 20
65.25
 10
0.2719112155530785
 20
65.25
 10
0.1272536411467294
 20
65.25000000000002
 10
0.0549109363401515
 20
65.25000000000002
 10
0.0187360961057151
 20
65.25
 10
0.0006478029793264
 20
65.25
 10
-0.0001619159686769
 20
65.24999999973998
 10
-0.0028489577982596
 20
65.24999993676408
 10
-0.0082231074604349
 20
65.24999947884139
 10
-0.0189716706135413
 20
65.24999723503651
 10
-0.0619694332352203
 20
65.24997055050488
 10
-0.1479817190371347
 20
65.24983214069135
 10
-0.4922503793586294
 20
65.2481430112898
 10
-0.8368598679088108
 20
65.24463293319017
 10
-1.181796248833861
 20
65.23929646391519
 10
-1.527045501080708
 20
65.23212829780189
 10
-1.872593520002109
 20
65.22312326746427
 10
-2.218426118989642
 20
65.21227634523445
 10
-2.5645290311343
 20
65.19958264458198
 10
-2.910887910914382
 20
65.18503742151063
 10
-3.257488335910333
 20
65.16863607593219
 10
-3.604315808546194
 20
65.15037415301643
 10
-3.951355757857319
 20
65.13024734451703
 10
-4.298593541283955
 20
65.10825149007255
 10
-4.646014446490346
 20
65.08438257848219
 10
-4.993603693208905
 20
65.05863674895556
 10
-5.341346435109102
 20
65.03101029233599
 10
-5.689227761690544
 20
65.00149965229693
 10
-6.037232700200113
 20
64.97010142651074
 10
-6.385346217572196
 20
64.93681236778953
 10
-6.733553222391824
 20
64.90162938519734
 10
-7.081838566880554
 20
64.86454954513336
 10
-7.430187048904041
 20
64.82557007238547
 10
-7.77858341400115
 20
64.78468835115385
 10
-8.127012357433986
 20
64.74190192604391
 10
-8.475458526258352
 20
64.69720850302834
 10
-8.823906521414091
 20
64.65060595037768
 10
-9.172340899834741
 20
64.60209229955886
 10
-9.520746176575997
 20
64.55166574610153
 10
-9.869106826962354
 20
64.49932465043146
 10
-10.21740728875141
 20
64.44506753867094
 10
-10.56563196431515
 20
64.38889310340528
 10
-10.91376522283777
 20
64.33080020441561
 10
-11.26179140252919
 20
64.27078786937705
 10
-11.60969481285394
 20
64.20885529452231
 10
-11.95745973677445
 20
64.14500184527
 10
-12.30507043300844
 20
64.07922705681764
 10
-12.65251113829949
 20
64.01153063469879
 10
-12.99976606970032
 20
63.94191245530404
 10
-13.34681942686803
 20
63.87037256636578
 10
-13.69365539437056
 20
63.79691118740593
 10
-14.04025814400394
 20
63.72152871014705
 10
-14.38661183711929
 20
63.64422569888594
 10
-14.73270062695921
 20
63.5650028908299
 10
-15.07850866100265
 20
63.48386119639514
 10
-15.42402008331758
 20
63.40080169946751
 10
-15.76921903692084
 20
63.31582565762461
 10
-16.11408966614438
 20
63.22893450232013
 10
-16.4586161190072
 20
63.14012983902921
 10
-16.80278254959217
 20
63.04941344735546
 10
-17.14657312042715
 20
62.95678728109896
 10
-17.48997200486954
 20
62.86225346828545
 10
-17.83296338949369
 20
62.76581431115648
 10
-18.17553147648004
 20
62.66747228612029
 10
-18.51766048600589
 20
62.56723004366374
 10
-18.85933465863635
 20
62.4650904082246
 10
-19.20053825771518
 20
62.36105637802491
 10
-19.5412555717547
 20
62.25513112486471
 10
-19.88147091682377
 20
62.14731799387653
 10
-20.22116863893344
 20
62.03762050324053
 10
-20.56033311641917
 20
61.92604234386021
 10
-20.89894876231923
 20
61.81258737899902
 10
-21.23700002674808
 20
61.69725964387746
 10
-21.57447139926448
 20
61.58006334523125
 10
-21.91134741123308
 20
61.46100286083028
 10
-22.24761263817915
 20
61.34008273895861
 10
-22.58325170213544
 20
61.21730769785558
 10
-22.91824927398053
 20
61.09268262511834
 10
-23.25259007576787
 20
60.96621257706554
 10
-23.58625888304489
 20
60.83790277806293
 10
-23.91924052716123
 20
60.70775861981041
 10
-24.25151989756561
 20
60.57578566059146
 10
-24.58308194409033
 20
60.44198962448438
 10
-24.91391167922294
 20
60.30637640053617
 10
-25.24399418036427
 20
60.1689520418992
 10
-25.57331459207193
 20
60.02972276493053
 10
-25.90185812828883
 20
59.88869494825482
 10
-26.22961007455594
 20
59.74587513179039
 10
-26.55655579020845
 20
59.6012700157395
 10
-26.88268071055486
 20
59.45488645954256
 10
-27.20797034903816
 20
59.30673148079692
 10
-27.53241029937849
 20
59.15681225414054
 10
-27.85598623769665
 20
59.00513611010081
 10
-28.17868392461779
 20
58.85171053390919
 10
-28.5004892073543
 20
58.69654316428177
 10
-28.82138802176802
 20
58.53964179216613
 10
-29.14136639441045
 20
58.38101435945534
 10
-29.46041044454053
 20
58.22066895766905
 10
-29.77850638611954
 20
58.05861382660246
 10
-30.09564052978241
 20
57.89485735294348
 10
-30.41179928478475
 20
57.72940806885856
 10
-30.72696916092523
 20
57.56227465054782
 10
-31.04113677044262
 20
57.39346591676979
 10
-31.35428882988695
 20
57.22299082733647
 10
-31.66641216196423
 20
57.05085848157892
 10
-31.97749369735432
 20
56.8770781167845
 10
-32.28752047650122
 20
56.70165910660559
 10
-32.59647965137551
 20
56.52461095944087
 10
-32.90435848720831
 20
56.34594331678957
 10
-33.21114436419626
 20
56.16566595157927
 10
-33.51682477917719
 20
55.98378876646767
 10
-33.82138734727586
 20
55.80032179211936
 10
-34.12481980351952
 20
55.61527518545768
 10
-34.42711000442267
 20
55.42865922789268
 10
-34.72824592954083
 20
55.24048432352568
 10
-35.02821568299264
 20
55.05076099733077
 10
-35.32700749495022
 20
54.85949989331452
 10
-35.62460972309725
 20
54.66671177265402
 10
-35.92101085405438
 20
54.47240751181388
 10
-36.2161995047718
 20
54.27659810064342
 10
-36.51016442388848
 20
54.07929464045394
 10
-36.80289449305792
 20
53.88050834207739
 10
-37.09437872823995
 20
53.68025052390668
 10
-37.38460628095851
 20
53.4785326099186
 10
-37.67356643952501
 20
53.27536612767982
 10
-37.96124863022698
 20
53.07076270633678
 10
-38.24764241848206
 20
52.86473407459019
 10
-38.53273750995663
 20
52.65729205865462
 10
-38.8165237516495
 20
52.44844858020422
 10
-39.09899113293987
 20
52.23821565430494
 10
-39.38012978659982
 20
52.02660538733414
 10
-39.65992998977106
 20
51.81362997488819
 10
-39.93838216490561
 20
51.59930169967899
 10
-40.21547688067071
 20
51.38363292941971
 10
-40.49120485281735
 20
51.1666361147008
 10
-40.76555694501275
 20
50.94832378685693
 10
-41.03852416963654
 20
50.72870855582536
 10
-41.31009768854048
 20
50.5078031079967
 10
-41.58026881377193
 20
50.28562020405852
 10
-41.84902900826083
 20
50.0621726768328
 10
-42.11636988647031
 20
49.8374734291076
 10
-42.38228321501074
 20
49.61153543146395
 10
-42.64676091321761
 20
49.38437172009837
 10
-42.90979505369278
 20
49.15599539464194
 10
-43.17137786280953
 20
48.92641961597655
 10
-43.43150172118142
 20
48.69565760404892
 10
-43.69015916409483
 20
48.46372263568316
 10
-43.9473428819054
 20
48.23062804239259
 10
-44.20304572039859
 20
47.99638720819133
 10
-44.45726068111426
 20
47.76101356740657
 10
-44.70998092163558
 20
47.52452060249192
 10
-44.96119975584227
 20
47.28692184184269
 10
-45.21091065412842
 20
47.04823085761369
 10
-45.45910724358512
 20
46.80846126354018
 10
-45.70578330814791
 20
46.56762671276269
 10
-45.9509327887093
 20
46.32574089565614
 10
-46.07293320945622
 20
46.20440805011984
 10
-46.13378952200841
 20
46.1436448947524
 10
-46.13758985326245
 20
46.13984506361225
 10
-46.13853987744823
 20
46.13889506664776
 10
-46.13865862882254
 20
46.13877631592536
 10
-46.14075069412664
 20
46.13668425071778
 10
-46.14881200467157
 20
46.12862294017284
 10
-46.16493567084746
 20
46.11249927399698
 10
-46.22944414026902
 20
46.04799080457541
 10
-46.48769095915289
 20
45.78974398569156
 10
-47.00511222384116
 20
45.27232272100329
 10
-47.52357599327388
 20
44.75385895157055
 10
-48.04284848624535
 20
44.2345864585991
 10
-49.08288311133563
 20
43.19455183350883
 10
-50.12334512382506
 20
42.15408982101939
 10
-50.64315445826196
 20
41.63428048658249
 10
-51.16237466018649
 20
41.11506028465796
 10
-51.68077677509323
 20
40.59665816975122
 10
-52.19813389035216
 20
40.07930105449228
 10
-52.71422145570523
 20
39.56321348913923
 10
-53.22881759549527
 20
39.0486173493492
 10
-53.74170341175581
 20
38.53573153308865
 10
-54.25266327734028
 20
38.0247716675042
 10
-54.50735455923965
 20
37.7700803856048
 10
-54.76148511832183
 20
37.51594982652262
 10
-55.01502904499385
 20
37.26240589985061
 10
-55.26796068495208
 20
37.0094742598924
 10
-55.52025464697603
 20
36.75718029786844
 10
-55.64615463781588
 20
36.63128030702858
 10
-55.67760337895541
 20
36.59983156588906
 10
-55.69332377766283
 20
36.58411116718163
 10
-55.7011829814014
 20
36.57625196344306
 10
-55.70241554137187
 20
36.57501940628322
 10
-55.70252717648397
 20
36.57490778476186
 10
-55.70431441005858
 20
36.57312230135669
 10
-55.71868490803744
 20
36.55886999091901
 10
-55.77745769868801
 20
36.50244780108457
 10
-55.83829250530486
 20
36.44703889400808
 10
-55.90118073034535
 20
36.39274334917023
 10
-55.96610834256395
 20
36.33966271350118
 10
-56.03305565201304
 20
36.2878996558895
 10
-56.10199710671977
 20
36.23755759325039
 10
-56.17290111439293
 20
36.18874028944663
 10
-56.24572989248448
 20
36.14155142878386
 10
-56.32043934984766
 20
36.09609416624238
 10
-56.39697900309276
 20
36.05247065705221
 10
-56.4752919305399
 20
36.01078156865795
 10
-56.55531476640557
 20
35.97112557854764
 10
-56.63697773753424
 20
35.9335988618239
 10
-56.72020474459966
 20
35.89829457276653
 10
-56.80491348925794
 20
35.8653023249648
 10
-56.89101564823681
 20
35.83470767487244
 10
-56.97841709480254
 20
35.80659161385222
 10
-57.0670181674642
 20
35.78103007391909
 10
-57.15671398516349
 20
35.75809345245563
 10
-57.24739480756985
 20
35.73784616115429
 10
-57.33894643846518
 20
35.72034620433356
 10
-57.43125066957426
 20
35.70564479157768
 10
-57.52418576158916
 20
35.69378598936285
 10
-57.61762695856152
 20
35.68480641595761
 10
-57.71144703130934
 20
35.67873498342807
 10
-57.80551684501699
 20
35.67559269004526
 10
-57.89970594580997
 20
35.67539246579246
 10
-57.99388316076889
 20
35.67813907301458
 10
-58.08791720561966
 20
35.68382906355504
 10
-58.18167729420222
 20
35.69245079299806
 10
-58.27503374378451
 20
35.70398449189521
 10
-58.36785857035124
 20
35.71840239311626
 10
-58.46002606815687
 20
35.73566891374373
 10
-58.5514133680859
 20
35.75574088924066
 10
-58.64190096970422
 20
35.77856785697854
 10
-58.73137324230475
 20
35.80409238562616
 10
-58.81971889073839
 20
35.83225044638508
 10
-58.90683138236665
 20
35.862971821619
 10
-58.99260933206097
 20
35.89618054607075
 10
-59.07695684279421
 20
35.93179537559656
 10
-59.15978380000709
 20
35.96973027817359
 10
-59.24100611857294
 20
36.00989494185353
 10
-59.32054594181698
 20
36.05219529434063
 10
-59.39833179265646
 20
36.09653402896079
 10
-59.47429867750783
 20
36.14281113195472
 10
-59.54838814414451
 20
36.19092440626384
 10
-59.62054829517768
 20
36.24076998727378
 10
-59.6907337592663
 20
36.29224284632871
 10
-59.75890562253647
 20
36.34523727821784
 10
-59.82503132300209
 20
36.39964736925573
 10
-59.88908451102693
 20
36.45536744301811
 10
-59.9510448790544
 20
36.51229248124608
 10
-60.01089796395518
 20
36.57031851788548
 10
-60.01456858226836
 20
36.57397935216071
 10
-60.01548494482353
 20
36.57489516713589
 10
-60.01559945380213
 20
36.57500966101642
 10
-60.01659983264371
 20
36.57601003630967
 10
-60.02466098101538
 20
36.58407118468133
 10
-60.04078376955392
 20
36.60019397321987
 10
-60.10528145237933
 20
36.66469165604529
 10
-60.36337489460231
 20
36.92278509826829
 10
-60.88003399651269
 20
37.43944420017867
 10
-61.91506155777364
 20
38.47447176143962
 10
-62.95202548109309
 20
39.51143568475906
 10
-63.99051348405044
 20
40.54992368771642
 10
-65.0301126952352
 20
41.58952289890119
 10
-66.07041019964322
 20
42.62982040330922
 10
-68.1514514700561
 20
44.71086167372209
 10
-69.19137406575359
 20
45.75078426941959
 10
-70.23035368051887
 20
46.78976388418488
 10
-71.2679852555558
 20
47.82739545922182
 10
-72.30386687638317
 20
48.86327708004918
 10
-72.82102683970292
 20
49.38043704336894
 10
-73.33760027673974
 20
49.89701048040576
 10
-73.85353805504867
 20
50.41294825871467
 10
-74.36879133107815
 20
50.92820153474416
 10
-74.88331156485073
 20
51.44272176851673
 10
-75.39705053441888
 20
51.95646073808488
 10
-75.90996035008787
 20
52.46937055375386
 10
-76.42199346839714
 20
52.98140367206315
 10
-76.9331027058524
 20
53.49251290951841
 10
-77.44324125240083
 20
54.00265145606685
 10
-77.95236268464198
 20
54.51177288830798
 10
-78.46042097876727
 20
55.01983118243328
 10
-78.96737052322158
 20
55.5267807268876
 10
-79.47316613108028
 20
56.03257633474626
 10
-79.97776305213538
 20
56.53717325580139
 10
-80.22959814299335
 20
56.78900834665935
 10
-80.35539743728095
 20
56.91480764094695
 10
-80.37111675587331
 20
56.9305269595393
 10
-80.37897594748541
 20
56.93838615115141
 10
-80.3829054262967
 20
56.94231562996268
 10
-80.3856064110448
 20
56.94501661542475
 10
-80.38657927551689
 20
56.94598995437523
 10
-80.38852391073387
 20
56.94793817357187
 10
-80.44996395616754
 20
57.01135712298484
 10
-80.509807096695
 20
57.07682615407404
 10
-80.56795456516958
 20
57.14428647865747
 10
-80.62431040454253
 20
57.21367312716768
 10
-80.6787819427584
 20
57.2849151119315
 10
-80.73128025659309
 20
57.35793563368421
 10
-80.78172061988142
 20
57.43265233046915
 10
-80.83002293165375
 20
57.50897756752804
 10
-80.87611211984826
 20
57.58681876625058
 10
-80.91991851648334
 20
57.66607876973083
 10
-80.96137820046235
 20
57.74665624198756
 10
-81.00043330453784
 20
57.82844609745332
 10
-81.03703228337378
 20
57.91133995693361
 10
-81.07113014011041
 20
57.99522662589149
 10
-81.10268860934231
 20
58.07999259063088
 10
-81.13167629496263
 20
58.16552252774048
 10
-81.15806876188763
 20
58.25169982202202
 10
-81.18184858125022
 20
58.33840708806621
 10
-81.20300532922392
 20
58.42552669065401
 10
-81.22153554020115
 20
58.51294125925284
 10
-81.23744261558798
 20
58.60053419203822
 10
-81.25073668998544
 20
58.68819014510268
 10
-81.26144453370731
 20
58.77588831869318
 10
-81.26969845070586
 20
58.86478047611404
 10
-81.27533019383571
 20
58.95372799364036
 10
-81.27834872402974
 20
59.04361400330755
 10
-81.27886664456354
 20
59.08919663649243
 10
-81.278891337246
 20
59.10067932079833
 10
-81.27889147842784
 20
59.10139825366005
 10
-81.27889148790449
 20
59.10157801056527
 10
-81.27889148880463
 20
59.10240062248731
 10
-81.27889148880463
 20
59.10496726623335
 10
-81.27889148880463
 20
59.11523384122213
 10
-81.27889148880463
 20
59.13576699122444
 10
-81.27889148880463
 20
59.1768332913268
 10
-81.27889148880463
 20
59.34109849303317
 10
-81.27889148880463
 20
60.65522018141288
 10
-81.27889148880463
 20
63.28346395672541
 10
-81.27889148880463
 20
64.59758604365823
 10
-81.27889148880463
 20
65.25464713694379
 10
-81.27889148880463
 20
65.295713456377
 10
-81.27889148880463
 20
65.29828010134591
 10
-81.27889148880463
 20
65.29956342383035
 10
-81.27889148880463
 20
65.31115770334853
 10
-81.27889148880461
 20
65.37880486152277
 10
-81.27889148880463
 20
65.51412485911431
 10
-81.27889148880461
 20
65.78486576992194
 10
-81.27889148880461
 20
66.86909903267528
 10
-81.27889148880463
 20
67.95516451519671
 10
-81.27889148880463
 20
69.04279605632483
 10
-81.27889148880464
 20
70.13172694218337
 10
-81.27889148880463
 20
71.22169012386232
 10
-81.27889148880463
 20
73.40364480986185
 10
-81.27889148880463
 20
75.58652528429544
 10
-81.27889148880463
 20
77.76820522352948
 10
-81.27889148880463
 20
78.85793452319176
 10
-81.27889148880463
 20
79.94657363010052
 10
-81.27889148880464
 20
81.03386216088209
 10
-81.27889148880464
 20
82.11954151592449
 10
-81.27889148880464
 20
83.20335507770675
 10
-81.27889148880463
 20
84.28504840537433
 10
-81.27889148880463
 20
85.36436942524261
 10
-81.27889148880461
 20
86.4410686169209
 10
-81.27889148880463
 20
87.51489919480837
 10
-81.27889148880463
 20
88.05066242444294
 10
-81.27889148880464
 20
88.58561728472528
 10
-81.27889148880464
 20
89.11973377442325
 10
-81.27889148880464
 20
89.65298209541316
 10
-81.27889148880463
 20
90.1853326577587
 10
-81.27889148880463
 20
90.71675608465165
 10
-81.27889148880463
 20
91.24722321731722
 10
-81.27889148880463
 20
91.77670511980009
 10
-81.27889148880463
 20
92.30517308365753
 10
-81.27889148880463
 20
92.43712830448192
 10
-81.27889148880463
 20
92.50308134449706
 10
-81.2788914801529
 20
92.50607277490706
 10
-81.27889144656142
 20
92.50623582707675
 10
-81.27889130339978
 20
92.50656196284289
 10
-81.27888650667891
 20
92.50917255298279
 10
-81.27861226853204
 20
92.53015129828284
 10
-81.27677475782629
 20
92.5725762196434
 10
-81.27315481052702
 20
92.61554690158934
 10
-81.26768092860645
 20
92.65896249063311
 10
-81.260288324005
 20
92.70271340974401
 10
-81.25092006382056
 20
92.74668181393723
 10
-81.23952819501068
 20
92.79074221120643
 10
-81.22607482234858
 20
92.83476225170479
 10
-81.21053311185221
 20
92.87860368351346
 10
-81.19288819125067
 20
92.92212346828639
 10
-81.1731379194023
 20
92.96517504470577
 10
-81.15129349803959
 20
93.00760972223777
 10
-81.12737990183722
 20
93.04927818240159
 10
-81.10143610656976
 20
93.0900320599231
 10
-81.07351509996325
 20
93.12972557201382
 10
-81.04368366559828
 20
93.16821716085136
 10
-81.01202193667196
 20
93.20537111236012
 10
-80.97862272329708
 20
93.24105911376129
 10
-80.9435906239932
 20
93.27516171317618
 10
-80.90704093876949
 20
93.3075696468307
 10
-80.86909840738041
 20
93.33818500305316
 10
-80.82989580164548
 20
93.36692219711789
 10
-80.78957240490565
 20
93.3937087368352
 10
-80.74827241455068
 20
93.41848576533546
 10
-80.70614330498251
 20
93.44120837441407
 10
-80.6633341883537
 20
93.46184568876127
 10
-80.61999420899566
 20
93.48038072806316
 10
-80.57627100476574
 20
93.49681006003972
 10
-80.53230926478811
 20
93.51114326273172
 10
-80.48824940849156
 20
93.52340221858442
 10
-80.44422640571932
 20
93.53362026598782
 10
-80.40036875228073
 20
93.54184123588133
 10
-80.35679760989301
 20
93.54811840184067
 10
-80.31362611425782
 20
93.55251337181881
 10
-80.27095885022914
 20
93.55509494853841
 10
-80.22889148880462
 20
93.55593798358857
  0
LWPOLYLINE
  5
11E
330
1F
100
AcDbEntity
  8
0.1mm kerf$HiPro1
100
AcDbPolyline
 90
        6
 70
     0
 43
0.0
 10
-43.91250000000905
 20
149.3612533011201
 10
-43.91250000000905
 20
150.8069390951066
 10
-43.91250000000905
 20
152.2526248890931
 10
-43.91250000000905
 20
153.6983106830797
 10
-43.91250000000905
 20
155.1439964770662
 10
-43.91250000000905
 20
156.5896822710527
  0
LWPOLYLINE
  5
11F
330
1F
100
AcDbEntity
  8
0.1mm kerf$HiPro1
100
AcDbPolyline
 90
        6
 70
     0
 43
0.0
 10
-64.52925415039065
 20
148.5156015857417
 10
-64.52925415039072
 20
147.6389164653284
 10
-64.52925415039081
 20
146.7622313449152
 10
-64.52925415039088
 20
145.885546224502
 10
-64.52925415039096
 20
145.0088611040887
 10
-64.52925415039103
 20
144.1321759836755
  0
LWPOLYLINE
  5
120
330
1F
100
AcDbEntity
  8
0.1mm kerf$HiPro1
100
AcDbPolyline
 90
      201
 70
     0
 43
0.0
 10
-80.22889148880485
 20
119.001566076817
 10
-80.26954584710541
 20
119.0023343849923
 10
-80.31072811538104
 20
119.0046858306074
 10
-80.35235552627007
 20
119.0086872350987
 10
-80.39433795643981
 20
119.0144007643533
 10
-80.43657818154493
 20
119.0218830288299
 10
-80.47897224954416
 20
119.0311841798681
 10
-80.52140997710013
 20
119.0423470191072
 10
-80.56377557114087
 20
119.0554061394926
 10
-80.60594837461978
 20
119.0703871174844
 10
-80.64780373214892
 20
119.0873057766818
 10
-80.68921396760131
 20
119.106167543055
 10
-80.73004946211097
 20
119.1269669112578
 10
-80.7701798172914
 20
119.1496870400356
 10
-80.80947508510996
 20
119.1742994925378
 10
-80.84780704286115
 20
119.2007641344133
 10
-80.88505048924185
 20
119.2290291989953
 10
-80.92108453578978
 20
119.2590315247642
 10
-80.95579386702363
 20
119.2906969657745
 10
-80.98906994259971
 20
119.3239409710183
 10
-81.02081211571764
 20
119.3586693239655
 10
-81.05092864385037
 20
119.3947790289962
 10
-81.07933757058573
 20
119.4321593272973
 10
-81.10596746083713
 20
119.470692821251
 10
-81.13075797575994
 20
119.5102566835288
 10
-81.1536602782187
 20
119.5507239251462
 10
-81.17463726438364
 20
119.591964695707
 10
-81.19366362178899
 20
119.6338475889733
 10
-81.21072571875307
 20
119.6762409277325
 10
-81.22582133426206
 20
119.7190140035931
 10
-81.23895924109637
 20
119.7620382497394
 10
-81.25015865801451
 20
119.8051883276421
 10
-81.25944858912353
 20
119.8483431121192
 10
-81.26686707012281
 20
119.8913865627786
 10
-81.27246034191191
 20
119.9342084735996
 10
-81.27628197214177
 20
119.9767050960635
 10
-81.27839194473258
 20
120.0187796346917
 10
-81.27882533152819
 20
120.0396303687481
 10
-81.27889035661144
 20
120.0500044398092
 10
-81.27889145561599
 20
120.0512987005166
 10
-81.27889148362468
 20
120.0514604435467
 10
-81.27889148852014
 20
120.0515413117595
 10
-81.27889148879527
 20
120.0515615284686
 10
-81.27889148880488
 20
120.0531504163523
 10
-81.27889148880488
 20
120.0572389621271
 10
-81.27889148880488
 20
120.0899488797712
 10
-81.27889148880486
 20
120.1553769468708
 10
-81.27889148880488
 20
120.4171969743535
 10
-81.27889148880489
 20
120.9413315759953
 10
-81.27889148880489
 20
121.9913830250357
 10
-81.27889148880488
 20
123.0434366356759
 10
-81.27889148880488
 20
124.0970423848029
 10
-81.27889148880486
 20
125.1517496557384
 10
-81.27889148880486
 20
127.2626671674075
 10
-81.27889148880484
 20
129.3725966230719
 10
-81.27889148880484
 20
130.4260761156011
 10
-81.27889148880482
 20
131.47797655701
 10
-81.27889148880484
 20
132.5278608477319
 10
-81.27889148880482
 20
133.5752962514481
 10
-81.27889148880482
 20
134.0979617247295
 10
-81.27889148880482
 20
134.6198549670313
 10
-81.27889148880482
 20
135.1409233655419
 10
-81.27889148880482
 20
135.6611146844411
 10
-81.27889148880482
 20
136.1803770812933
 10
-81.27889148880482
 20
136.6986591231377
 10
-81.2788914888048
 20
137.2159098022646
 10
-81.27889148880482
 20
137.7320785516668
 10
-81.27889148880482
 20
138.2471152601598
 10
-81.2788914888048
 20
138.7609702871617
 10
-81.2788914888048
 20
139.2735944771242
 10
-81.2788914888048
 20
139.7849391736072
 10
-81.27889148880482
 20
139.9125697735809
 10
-81.2788914888048
 20
139.9444643703647
 10
-81.27889148880479
 20
139.9604097027576
 10
-81.2788914888048
 20
139.9683818768174
 10
-81.27889148880479
 20
139.9723678407338
 10
-81.27889148858765
 20
139.9727593074532
 10
-81.27889141397281
 20
139.9734062360333
 10
-81.27888977538916
 20
139.9759942670468
 10
-81.27888006082027
 20
139.9811718414177
 10
-81.27883484084325
 20
139.9915329723184
 10
-81.27722460898537
 20
140.0746914186606
 10
-81.27336280798044
 20
140.1582710637012
 10
-81.2672070951892
 20
140.2421879076937
 10
-81.25871910432568
 20
140.3263549268529
 10
-81.24786472051187
 20
140.4106822990834
 10
-81.23461434199491
 20
140.4950776542531
 10
-81.21894312585911
 20
140.5794463481101
 10
-81.20083121510424
 20
140.6636917586381
 10
-81.18026394453893
 20
140.747715603358
 10
-81.15723202305519
 20
140.831418275786
 10
-81.13173169000456
 20
140.914699198985
 10
-81.10376484359212
 20
140.997457193881
 10
-81.07333913943527
 20
141.0795908597768
 10
-81.04046805769964
 20
141.1609989642811
 10
-81.00517093752214
 20
141.2415808396889
 10
-80.96747297775516
 20
141.3212367827048
 10
-80.92740520341203
 20
141.3998684542913
 10
-80.88500439755767
 20
141.4773792763659
 10
-80.84031299876242
 20
141.5536748220469
 10
-80.79337896461519
 20
141.6286631961791
 10
-80.74425560216948
 20
141.7022554029441
 10
-80.69300136656272
 20
141.7743656974774
 10
-80.63967962940287
 20
141.8449119185809
 10
-80.58435841884588
 20
141.913815799824
 10
-80.52711013359287
 20
141.9810032565658
 10
-80.46801123330499
 20
142.0464046467115
 10
-80.40714190817009
 20
142.1099550033181
 10
-80.34458573054607
 20
142.1715942374904
 10
-80.28042929175802
 20
142.2312673103541
 10
-80.21476182722846
 20
142.2889243732463
 10
-80.14767483318035
 20
142.3445208756203
 10
-80.07926167816359
 20
142.3980176405203
 10
-80.00961721262449
 20
142.4493809078279
 10
-79.93883737966257
 20
142.498582345816
 10
-79.86701883000456
 20
142.5455990318637
 10
-79.79425854407413
 20
142.5904134034735
 10
-79.72065346385305
 20
142.6330131810017
 10
-79.56643059171729
 20
142.719104783438
 10
-79.25736254179527
 20
142.8909662560812
 10
-78.63806408946281
 20
143.2326907134668
 10
-78.01729049915843
 20
143.5717152074579
 10
-77.39513151261164
 20
143.9079981245848
 10
-76.77167699727291
 20
144.2414987368004
 10
-76.14701690410808
 20
144.5721772170796
 10
-75.52124122552995
 20
144.8999946543199
 10
-74.89443995350736
 20
145.2249130675323
 10
-74.26670303789117
 20
145.546895419312
 10
-73.95251180134875
 20
145.7067742591381
 10
-73.63812034499659
 20
145.8659056285818
 10
-73.32353988232483
 20
146.0242851689045
 10
-73.00878161648009
 20
146.1819085825986
 10
-72.6938567389992
 20
146.3387716337214
 10
-72.37877642854901
 20
146.4948701482187
 10
-72.06355184967238
 20
146.6502000142353
 10
-71.7481941515409
 20
146.8047571824144
 10
-71.43271446671464
 20
146.958537666185
 10
-71.11712390990878
 20
147.1115375420376
 10
-70.80143357676792
 20
147.2637529497878
 10
-70.48565454264799
 20
147.4151800928283
 10
-70.16979786140623
 20
147.5658152383685
 10
-69.85387456419927
 20
147.7156547176631
 10
-69.53789565828973
 20
147.8646949262281
 10
-69.22187212586159
 20
148.0129323240446
 10
-68.90581492284453
 20
148.1603634357522
 10
-68.58973497774742
 20
148.3069848508286
 10
-68.27364319050137
 20
148.4527932237587
 10
-67.95755043131234
 20
148.5977852741913
 10
-67.64146753952374
 20
148.7419577870844
 10
-67.32540532248922
 20
148.8853076128377
 10
-67.0093745544557
 20
149.0278316674149
 10
-66.69338597545695
 20
149.1695269324525
 10
-66.37745029021821
 20
149.3103904553582
 10
-66.0615781670714
 20
149.4504193493972
 10
-65.98253615977701
 20
149.4850672246002
 10
-65.94208048120616
 20
149.5009223784176
 10
-65.90062290493155
 20
149.5152125801261
 10
-65.85825145074377
 20
149.5278567548897
 10
-65.81506220330735
 20
149.5387802538001
 10
-65.77115873890434
 20
149.5479158092218
 10
-65.72665142050775
 20
149.5552044298111
 10
-65.68165656853394
 20
149.5605962144595
 10
-65.63629551831057
 20
149.5640510654428
 10
-65.59069357881703
 20
149.5655392828227
 10
-65.54497891044433
 20
149.5650420246046
 10
-65.49928134223083
 20
149.5625516202515
 10
-65.45373115112318
 20
149.5580717287543
 10
-65.4084578271804
 20
149.5516173364537
 10
-65.3635888492125
 20
149.5432145940132
 10
-65.31924849508863
 20
149.5329004961939
 10
-65.27555670987469
 20
149.5207224121915
 10
-65.23262805311734
 20
149.5067374781001
 10
-65.19057074407436
 20
149.4910118664055
 10
-65.14948582061733
 20
149.473619950161
 10
-65.10946642405436
 20
149.4546433815655
 10
-65.07059721839372
 20
149.4341701059984
 10
-65.03295394875902
 20
149.4122933331432
 10
-64.99657741798971
 20
149.3890933289875
 10
-64.96102602257025
 20
149.3643029360244
 10
-64.92620830682247
 20
149.3378127059526
 10
-64.89224032791686
 20
149.3096494481089
 10
-64.85923744876931
 20
149.2798502032651
 10
-64.82731323362478
 20
149.2484623212797
 10
-64.79657831694453
 20
149.2155433974228
 10
-64.76713926658483
 20
149.1811610612967
 10
-64.73909746357604
 20
149.1453926158467
 10
-64.71254802144726
 20
149.1083245278082
 10
-64.68757876792669
 20
149.0700517749451
 10
-64.66426931094554
 20
149.0306770594207
 10
-64.64269020919252
 20
148.9903099004439
 10
-64.62290226505057
 20
148.949065622781
 10
-64.60495595468684
 20
148.9070642606525
 10
-64.58889100648078
 20
148.8644293988314
 10
-64.57473613501361
 20
148.821286974308
 10
-64.56250893367716
 20
148.7777640626338
 10
-64.5522159247639
 20
148.733987672985
 10
-64.54385276185353
 20
148.6900835751142
 10
-64.53740457557316
 20
148.6461751797514
 10
-64.53284645051967
 20
148.602382491768
 10
-64.53014401840464
 20
148.5588211526562
 10
-64.52925415039067
 20
148.5156015857417
  0
LWPOLYLINE
  5
121
330
1F
100
AcDbEntity
  8
0.1mm kerf$HiPro1
100
AcDbPolyline
 90
        6
 70
     0
 43
0.0
 10
-76.22889148880479
 20
119.0015660768167
 10
-77.0288914888048
 20
119.0015660768168
 10
-77.82889148880482
 20
119.0015660768168
 10
-78.62889148880483
 20
119.0015660768169
 10
-79.42889148880485
 20
119.0015660768169
 10
-80.22889148880485
 20
119.001566076817
  0
LWPOLYLINE
  5
122
330
1F
100
AcDbEntity
  8
0.1mm kerf$HiPro1
100
AcDbPolyline
 90
      211
 70
     0
 43
0.0
 10
-64.52925415039103
 20
144.1321759836755
 10
-64.52964245808747
 20
144.1034745350526
 10
-64.53081914108581
 20
144.0745860241513
 10
-64.53280075066089
 20
144.0455407116092
 10
-64.53560239399616
 20
144.0163701364218
 10
-64.5392376205624
 20
143.9871070352325
 10
-64.54371831312387
 20
143.9577852508728
 10
-64.54905458453224
 20
143.9284396304129
 10
-64.55525468146589
 20
143.8991059131184
 10
-64.56232489625067
 20
143.8698206088433
 10
-64.57026948785977
 20
143.8406208675288
 10
-64.57909061313299
 20
143.8115443406112
 10
-64.58878826917892
 20
143.7826290352674
 10
-64.59936024783117
 20
143.7539131625509
 10
-64.61080210291702
 20
143.725434980578
 10
-64.62310713097163
 20
143.6972326340196
 10
-64.63626636588909
 20
143.6693439912358
 10
-64.65026858784954
 20
143.6418064804509
 10
-64.66510034669974
 20
143.6146569264099
 10
-64.6807459997957
 20
143.5879313889781
 10
-64.69718776414507
 20
143.5616650051471
 10
-64.71440578251396
 20
143.5358918358844
 10
-64.73237820299562
 20
143.5106447192216
 10
-64.75108127137414
 20
143.4859551309088
 10
-64.7704894354652
 20
143.4618530538739
 10
-64.7905754604741
 20
143.4383668576233
 10
-64.81131055428628
 20
143.4155231885922
 10
-64.83266450149781
 20
143.3933468723215
 10
-64.85460580490388
 20
143.3718608281839
 10
-64.87710183309506
 20
143.3510859972276
 10
-64.90011897276513
 20
143.3310412835413
 10
-64.92362278430809
 20
143.3117435093791
 10
-64.94757815928031
 20
143.2932073841183
 10
-64.97194947832055
 20
143.2754454869627
 10
-64.99670076815968
 20
143.2584682631482
 10
-65.02179585640829
 20
143.2422840332642
 10
-65.04719852288403
 20
143.2268990151678
 10
-65.07287264632911
 20
143.2123173578485
 10
-65.09878234546881
 20
143.1985411864954
 10
-65.12489211347274
 20
143.1855706579286
 10
-65.15102151360284
 20
143.1734415433922
 10
-65.3571742844362
 20
143.079448505742
 10
-65.56342269802029
 20
142.985045703031
 10
-65.76975380497119
 20
142.8902388112681
 10
-65.97615463416298
 20
142.7950335624251
 10
-66.18261219543462
 20
142.699435743289
 10
-66.38911348230578
 20
142.603451194295
 10
-66.59564547470113
 20
142.5070858083418
 10
-67.00874944417755
 20
142.3132363522389
 10
-67.42181977526114
 20
142.1179355213228
 10
-67.83475209708069
 20
141.9212322226554
 10
-68.24744208436598
 20
141.7231760832146
 10
-68.65978554528986
 20
141.5238174081658
 10
-69.0716785091281
 20
141.3232071382842
 10
-69.48301731358196
 20
141.1213968066035
 10
-69.89369869160961
 20
140.9184384943673
 10
-70.30361985761405
 20
140.7143847863632
 10
-70.71267859283659
 20
140.5092887257194
 10
-71.12077332980788
 20
140.3032037682445
 10
-71.5278032357108
 20
140.0961837363935
 10
-71.9336682945126
 20
139.8882827729421
 10
-72.13613299448529
 20
139.7840189376223
 10
-72.33826938772768
 20
139.6795552944515
 10
-72.54006523767451
 20
139.5748986806237
 10
-72.74150837367615
 20
139.4700559446083
 10
-72.94258669338404
 20
139.3650339446917
 10
-73.14328816510753
 20
139.2598395475191
 10
-73.34360083014158
 20
139.1544796266384
 10
-73.54351280506382
 20
139.0489610610463
 10
-73.74301228400074
 20
138.9432907337383
 10
-73.94208754086142
 20
138.8374755302618
 10
-74.14072693153871
 20
138.7315223372736
 10
-74.33891889607636
 20
138.6254380411028
 10
-74.53665196080176
 20
138.5192295263193
 10
-74.63534284432225
 20
138.4660808375437
 10
-74.68447173972482
 20
138.4395725767843
 10
-74.7080473839694
 20
138.4262486735896
 10
-74.73131130390767
 20
138.4122098542332
 10
-74.75423149701915
 20
138.3974668054076
 10
-74.77677643864677
 20
138.3820321027117
 10
-74.79891522030893
 20
138.3659201843821
 10
-74.82061768628153
 20
138.3491473129302
 10
-74.84185456722136
 20
138.3317315248238
 10
-74.86259760961363
 20
138.3136925684907
 10
-74.88281969986001
 20
138.2950518310672
 10
-74.90249498187276
 20
138.2758322544457
 10
-74.92159896710939
 20
138.2560582413113
 10
-74.94010863606591
 20
138.2357555519703
 10
-74.95800253034705
 20
138.2149511928884
 10
-74.97526083454362
 20
138.1936732979452
 10
-74.99186544727109
 20
138.1719510034942
 10
-75.00780004085547
 20
138.1498143183768
 10
-75.0230501092906
 20
138.1272939900836
 10
-75.03760300423242
 20
138.1044213682817
 10
-75.05151874471491
 20
138.0811057411585
 10
-75.06483435582568
 20
138.057268819093
 10
-75.07747561902914
 20
138.0330269367722
 10
-75.08942453638422
 20
138.0084089440612
 10
-75.10066477037487
 20
137.9834447325887
 10
-75.1111817175492
 20
137.958165115227
 10
-75.12096257157679
 20
137.932601699483
 10
-75.12999637515524
 20
137.9067867558901
 10
-75.13827406032415
 20
137.8807530825494
 10
-75.14578857134928
 20
137.8545343211659
 10
-75.15254065764984
 20
137.828179351292
 10
-75.15853153261781
 20
137.8016952462765
 10
-75.16375905280286
 20
137.7750682827048
 10
-75.16822031146929
 20
137.7482844717587
 10
-75.17191162475274
 20
137.7213295332765
 10
-75.17482851570779
 20
137.6941888687133
 10
-75.17696569615445
 20
137.6668475328915
 10
-75.17831704621804
 20
137.639290204417
 10
-75.17887559144518
 20
137.6115011546352
 10
-75.17888928409227
 20
137.6080104302609
 10
-75.17889143439636
 20
137.6062636058005
 10
-75.17889148290797
 20
137.6060451839045
 10
-75.17889148880469
 20
137.6057344810606
 10
-75.17889148880468
 20
137.5947114383026
 10
-75.17889148880467
 20
137.5506157178183
 10
-75.1788914888047
 20
137.462407379131
 10
-75.17889148880469
 20
136.75596881317
 10
-75.17889148880469
 20
136.0482831125489
 10
-75.1788914888047
 20
135.3395272355214
 10
-75.1788914888047
 20
134.6298785442056
 10
-75.1788914888047
 20
133.919514656844
 10
-75.17889148880472
 20
132.4973521608074
 10
-75.17889148880474
 20
131.0744602049493
 10
-75.17889148880472
 20
129.6522539247219
 10
-75.17889148880475
 20
128.9418475448888
 10
-75.17889148880475
 20
128.2321384973991
 10
-75.17889148880474
 20
127.5233001277397
 10
-75.17889148880477
 20
126.8155045973454
 10
-75.17889148880477
 20
126.1089227486874
 10
-75.17889148880477
 20
125.4037239729295
 10
-75.17889148880477
 20
125.0516957433393
 10
-75.17889148880477
 20
124.7000760803608
 10
-75.17889148880477
 20
124.3488856924988
 10
-75.17889148880477
 20
123.9981451738006
 10
-75.17889148880479
 20
123.6478750000749
 10
-75.17889148880481
 20
123.2980955251658
 10
-75.17889148880479
 20
122.9488269772819
 10
-75.17889148880479
 20
122.6000894553797
 10
-75.17889148880479
 20
122.2519029256047
 10
-75.17889148880481
 20
121.9042872177924
 10
-75.17889148880479
 20
121.557262022029
 10
-75.17889148880481
 20
121.2108468852716
 10
-75.17889148880481
 20
120.8650612080305
 10
-75.17889148880479
 20
120.519924241115
 10
-75.17889148880479
 20
120.1754550824441
 10
-75.17889148880479
 20
120.0894443610411
 10
-75.17889148880477
 20
120.0679484218727
 10
-75.17889148880477
 20
120.0572014666259
 10
-75.17889148880479
 20
120.0518282428379
 10
-75.1788914900214
 20
120.0515155315183
 10
-75.17889159655729
 20
120.0510903875913
 10
-75.17889374558072
 20
120.0493891008397
 10
-75.17901078749975
 20
120.0357384734853
 10
-75.17978610772233
 20
120.0082313403592
 10
-75.18130121189246
 20
119.9804702842635
 10
-75.18357706927588
 20
119.9524814446834
 10
-75.18663362290425
 20
119.9242925879493
 10
-75.1904896550549
 20
119.8959330736813
 10
-75.19516265200732
 20
119.8674338092116
 10
-75.2006686692271
 20
119.8388271915613
 10
-75.20702219821352
 20
119.8101470366675
 10
-75.21423603631804
 20
119.7814284956864
 10
-75.22232116089902
 20
119.7527079583394
 10
-75.23128660921956
 20
119.7240229434315
 10
-75.24113936551596
 20
119.6954119768284
 10
-75.25188425666645
 20
119.6669144573616
 10
-75.26352385786619
 20
119.6385705113004
 10
-75.27605840966984
 20
119.6104208362141
 10
-75.28948574769057
 20
119.5825065352212
 10
-75.30380124614983
 20
119.5548689427957
 10
-75.31899777635003
 20
119.5275494434591
 10
-75.33506568099946
 20
119.500589284836
 10
-75.35199276515148
 20
119.4740293866789
 10
-75.36976430433492
 20
119.447910147578
 10
-75.38836307025089
 20
119.4222712511559
 10
-75.40776937419424
 20
119.3971514736043
 10
-75.42796112813602
 20
119.3725884944481
 10
-75.44891392317156
 20
119.3486187124223
 10
-75.47060112481196
 20
119.3252770683113
 10
-75.49299398437084
 20
119.3025968765368
 10
-75.51606176548387
 20
119.2806096671862
 10
-75.5397718845973
 20
119.2593450400492
 10
-75.56409006407888
 20
119.2388305320775
 10
-75.58898049644419
 20
119.2190914995135
 10
-75.6144060180553
 20
119.2001510157343
 10
-75.64032829054231
 20
119.1820297856527
 10
-75.66670798812002
 20
119.1647460772915
 10
-75.6935049889256
 20
119.1483156709229
 10
-75.72067856848929
 20
119.1327518259344
 10
-75.74818759346375
 20
119.1180652653526
 10
-75.77599071378621
 20
119.1042641777435
 10
-75.80404655151816
 20
119.0913542359909
 10
-75.83231388470858
 20
119.0793386322702
 10
-75.86075182474671
 20
119.0682181283532
 10
-75.88931998581085
 20
119.0579911202309
 10
-75.9179786451752
 20
119.0486537159066
 10
-75.94668889330461
 20
119.0401998251091
 10
-75.97541277284037
 20
119.03262125959
 10
-76.00411340575998
 20
119.0259078426165
 10
-76.03275510817178
 20
119.020047526236
 10
-76.06130349238139
 20
119.0150265148824
 10
-76.08972555603564
 20
119.0108293939057
 10
-76.11798975831074
 20
119.0074392616388
 10
-76.14606608326027
 20
119.0048378636704
 10
-76.17392609057542
 20
119.0030057280539
 10
-76.20154295413183
 20
119.0019223002662
 10
-76.22889148880479
 20
119.0015660768167
  0
LWPOLYLINE
  5
123
330
1F
100
AcDbEntity
  8
0.1mm kerf$HiPro1
100
AcDbPolyline
 90
       41
 70
     1
 43
0.0
 10
-76.67889148880485
 20
90.50593798358891
 10
-76.69444686977967
 20
90.72498069893148
 10
-76.74388303418421
 20
90.95006621924301
 10
-76.82999364911383
 20
91.17345939456219
 10
-76.95317364659593
 20
91.3863038092942
 10
-77.11095636212117
 20
91.5795864607576
 10
-77.29803194408727
 20
91.74529285932392
 10
-77.5068120119837
 20
91.87747042183222
 10
-77.72842320585656
 20
91.97291838487677
 10
-77.95386799709316
 20
92.03134352933947
 10
-78.17505887882247
 20
92.05500287897008
 10
-78.39233976716847
 20
92.04729604072548
 10
-78.61657963138421
 20
92.00667043945946
 10
-78.84119643536759
 20
91.9298700930712
 10
-79.05753605127668
 20
91.81584186902698
 10
-79.25651947975812
 20
91.66631753882471
 10
-79.42977404629018
 20
91.48592833207578
 10
-79.57074838331364
 20
91.281773065716
 10
-79.67551723334835
 20
91.06251138865227
 10
-79.74307599286588
 20
90.83721624677767
 10
-79.77510015560899
 20
90.61428353587272
 10
-79.77510015560899
 20
90.39759243130509
 10
-79.74307599286588
 20
90.17465972040014
 10
-79.67551723334835
 20
89.94936457852551
 10
-79.57074838331362
 20
89.73010290146177
 10
-79.42977404629018
 20
89.52594763510203
 10
-79.25651947975812
 20
89.34555842835308
 10
-79.05753605127666
 20
89.1960340981508
 10
-78.84119643536758
 20
89.08200587410659
 10
-78.61657963138421
 20
89.00520552771835
 10
-78.39233976716845
 20
88.96457992645229
 10
-78.1750588788225
 20
88.95687308820768
 10
-77.95386799709316
 20
88.98053243783831
 10
-77.72842320585657
 20
89.03895758230103
 10
-77.50681201198371
 20
89.1344055453456
 10
-77.29803194408728
 20
89.2665831078539
 10
-77.11095636212118
 20
89.43228950642019
 10
-76.95317364659594
 20
89.62557215788359
 10
-76.82999364911385
 20
89.83841657261564
 10
-76.74388303418424
 20
90.0618097479348
 10
-76.69444686977968
 20
90.28689526824637
  0
LWPOLYLINE
  5
124
330
1F
100
AcDbEntity
  8
0.1mm kerf$HiPro1
100
AcDbPolyline
 90
       41
 70
     1
 43
0.0
 10
-56.30901237058847
 20
39.56020106423942
 10
-56.32456775156329
 20
39.77924377958199
 10
-56.37400391596784
 20
40.00432929989354
 10
-56.46011453089745
 20
40.22772247521271
 10
-56.58329452837957
 20
40.44056688994476
 10
-56.74107724390482
 20
40.63384954140818
 10
-56.92815282587092
 20
40.79955593997445
 10
-57.13693289376735
 20
40.93173350248276
 10
-57.35854408764023
 20
41.02718146552732
 10
-57.58398887887682
 20
41.08560660999003
 10
-57.80517976060615
 20
41.10926595962066
 10
-58.02246064895213
 20
41.10155912137605
 10
-58.24670051316788
 20
41.06093352011001
 10
-58.47131731715124
 20
40.98413317372176
 10
-58.68765693306032
 20
40.87010494967754
 10
-58.88664036154178
 20
40.72058061947525
 10
-59.05989492807383
 20
40.54019141272631
 10
-59.20086926509728
 20
40.33603614636653
 10
-59.30563811513201
 20
40.1167744693028
 10
-59.37319687464954
 20
39.89147932742819
 10
-59.40522103739264
 20
39.66854661652323
 10
-59.40522103739265
 20
39.4518555119556
 10
-59.37319687464955
 20
39.22892280105065
 10
-59.30563811513201
 20
39.00362765917602
 10
-59.20086926509728
 20
38.7843659821123
 10
-59.05989492807383
 20
38.58021071575254
 10
-58.88664036154178
 20
38.3998215090036
 10
-58.68765693306031
 20
38.25029717880131
 10
-58.47131731715124
 20
38.1362689547571
 10
-58.24670051316788
 20
38.05946860836884
 10
-58.02246064895212
 20
38.0188430071028
 10
-57.80517976060616
 20
38.01113616885819
 10
-57.58398887887683
 20
38.03479551848882
 10
-57.35854408764023
 20
38.09322066295152
 10
-57.13693289376735
 20
38.18866862599609
 10
-56.92815282587092
 20
38.32084618850439
 10
-56.74107724390482
 20
38.48655258707069
 10
-56.58329452837958
 20
38.67983523853409
 10
-56.46011453089746
 20
38.89267965326613
 10
-56.37400391596786
 20
39.11607282858529
 10
-56.32456775156331
 20
39.34115834889686
  0
LWPOLYLINE
  5
125
330
1F
100
AcDbEntity
  8
0.1mm kerf$HiPro1
100
AcDbPolyline
 90
       41
 70
     1
 43
0.0
 10
57.35171356237286
 20
68.88578643762691
 10
57.33615818139804
 20
69.1048291529695
 10
57.28672201699347
 20
69.32991467328104
 10
57.20061140206389
 20
69.55330784860021
 10
57.07743140458176
 20
69.76615226333226
 10
56.91964868905653
 20
69.95943491479568
 10
56.73257310709043
 20
70.12514131336196
 10
56.52379303919399
 20
70.25731887587027
 10
56.30218184532113
 20
70.35276683891485
 10
56.07673705408452
 20
70.41119198337755
 10
55.85554617235519
 20
70.43485133300817
 10
55.63826528400921
 20
70.42714449476355
 10
55.41402541979347
 20
70.38651889349752
 10
55.18940861581011
 20
70.30971854710926
 10
54.97306899990102
 20
70.19569032306503
 10
54.77408557141957
 20
70.04616599286276
 10
54.60083100488751
 20
69.86577678611381
 10
54.45985666786405
 20
69.66162151975403
 10
54.35508781782932
 20
69.44235984269031
 10
54.2875290583118
 20
69.21706470081568
 10
54.25550489556869
 20
68.99413198991074
 10
54.25550489556869
 20
68.7774408853431
 10
54.28752905831181
 20
68.55450817443816
 10
54.35508781782932
 20
68.32921303256353
 10
54.45985666786405
 20
68.10995135549979
 10
54.60083100488751
 20
67.90579608914004
 10
54.77408557141957
 20
67.7254068823911
 10
54.97306899990102
 20
67.5758825521888
 10
55.18940861581011
 20
67.4618543281446
 10
55.41402541979348
 20
67.38505398175634
 10
55.6382652840092
 20
67.34442838049031
 10
55.85554617235521
 20
67.3367215422457
 10
56.07673705408453
 20
67.36038089187632
 10
56.30218184532114
 20
67.41880603633903
 10
56.52379303919401
 20
67.51425399938359
 10
56.73257310709043
 20
67.64643156189189
 10
56.91964868905653
 20
67.81213796045818
 10
57.07743140458178
 20
68.00542061192159
 10
57.20061140206389
 20
68.21826502665364
 10
57.2867220169935
 20
68.4416582019728
 10
57.33615818139806
 20
68.66674372228435
  0
LWPOLYLINE
  5
126
330
1F
100
AcDbEntity
  8
0.1mm kerf$HiPro1
100
AcDbPolyline
 90
       41
 70
     1
 43
0.0
 10
57.576367599792
 20
149.85668482767
 10
57.56081221881718
 20
150.0757275430126
 10
57.51137605441262
 20
150.3008130633241
 10
57.42526543948303
 20
150.5242062386433
 10
57.3020854420009
 20
150.7370506533753
 10
57.14430272647567
 20
150.9303333048387
 10
56.95722714450957
 20
151.096039703405
 10
56.74844707661315
 20
151.2282172659134
 10
56.52683588274028
 20
151.3236652289579
 10
56.30139109150367
 20
151.3820903734206
 10
56.08020020977434
 20
151.4057497230512
 10
55.86291932142836
 20
151.3980428848066
 10
55.63867945721262
 20
151.3574172835406
 10
55.41406265322926
 20
151.2806169371523
 10
55.19772303732017
 20
151.1665887131081
 10
54.99873960883871
 20
151.0170643829058
 10
54.82548504230666
 20
150.8366751761569
 10
54.6845107052832
 20
150.6325199097971
 10
54.57974185524847
 20
150.4132582327333
 10
54.51218309573095
 20
150.1879630908587
 10
54.48015893298784
 20
149.9650303799538
 10
54.48015893298784
 20
149.7483392753861
 10
54.51218309573095
 20
149.5254065644812
 10
54.57974185524847
 20
149.3001114226065
 10
54.6845107052832
 20
149.0808497455428
 10
54.82548504230665
 20
148.8766944791831
 10
54.99873960883871
 20
148.6963052724341
 10
55.19772303732016
 20
148.5467809422318
 10
55.41406265322925
 20
148.4327527181876
 10
55.63867945721263
 20
148.3559523717994
 10
55.86291932142836
 20
148.3153267705334
 10
56.08020020977436
 20
148.3076199322888
 10
56.30139109150368
 20
148.3312792819194
 10
56.52683588274028
 20
148.3897044263821
 10
56.74844707661316
 20
148.4851523894267
 10
56.95722714450958
 20
148.6173299519349
 10
57.14430272647568
 20
148.7830363505012
 10
57.30208544200092
 20
148.9763190019646
 10
57.42526543948304
 20
149.1891634166967
 10
57.51137605441265
 20
149.4125565920158
 10
57.5608122188172
 20
149.6376421123274
  0
LWPOLYLINE
  5
127
330
1F
100
AcDbEntity
  8
0.1mm kerf$HiPro1
100
AcDbPolyline
 90
       41
 70
     1
 43
0.0
 10
-38.41423992933701
 20
155.2899934304831
 10
-38.42979531031182
 20
155.5090361458257
 10
-38.47923147471637
 20
155.7341216661373
 10
-38.56534208964599
 20
155.9575148414564
 10
-38.6885220871281
 20
156.1703592561884
 10
-38.84630480265334
 20
156.3636419076519
 10
-39.03338038461944
 20
156.5293483062182
 10
-39.24216045251588
 20
156.6615258687265
 10
-39.46377164638875
 20
156.756973831771
 10
-39.68921643762535
 20
156.8153989762337
 10
-39.91040731935468
 20
156.8390583258643
 10
-40.12768820770067
 20
156.8313514876197
 10
-40.35192807191642
 20
156.7907258863537
 10
-40.57654487589978
 20
156.7139255399655
 10
-40.79288449180887
 20
156.5998973159213
 10
-40.99186792029033
 20
156.450372985719
 10
-41.16512248682237
 20
156.2699837789701
 10
-41.30609682384583
 20
156.0658285126103
 10
-41.41086567388056
 20
155.8465668355466
 10
-41.47842443339807
 20
155.621271693672
 10
-41.51044859614119
 20
155.398338982767
 10
-41.51044859614119
 20
155.1816478781993
 10
-41.47842443339808
 20
154.9587151672944
 10
-41.41086567388056
 20
154.7334200254198
 10
-41.30609682384582
 20
154.514158348356
 10
-41.16512248682236
 20
154.3100030819962
 10
-40.99186792029032
 20
154.1296138752473
 10
-40.79288449180886
 20
153.980089545045
 10
-40.57654487589977
 20
153.8660613210008
 10
-40.35192807191642
 20
153.7892609746126
 10
-40.12768820770066
 20
153.7486353733466
 10
-39.91040731935468
 20
153.7409285351019
 10
-39.68921643762535
 20
153.7645878847326
 10
-39.46377164638875
 20
153.8230130291953
 10
-39.24216045251588
 20
153.9184609922398
 10
-39.03338038461944
 20
154.0506385547481
 10
-38.84630480265334
 20
154.2163449533144
 10
-38.6885220871281
 20
154.4096276047778
 10
-38.56534208964599
 20
154.6224720195099
 10
-38.47923147471638
 20
154.845865194829
 10
-38.42979531031183
 20
155.0709507151406
  0
LWPOLYLINE
  5
128
330
1F
100
AcDbEntity
  8
0.1mm kerf$HiPro1
100
AcDbPolyline
 90
       41
 70
     1
 43
0.0
 10
-65.77621837749095
 20
145.5648170012756
 10
-65.79177375846576
 20
145.7838597166183
 10
-65.8412099228703
 20
146.0089452369298
 10
-65.92732053779991
 20
146.232338412249
 10
-66.05050053528202
 20
146.445182826981
 10
-66.20828325080727
 20
146.6384654784445
 10
-66.39535883277338
 20
146.8041718770107
 10
-66.60413890066981
 20
146.9363494395191
 10
-66.82575009454267
 20
147.0317974025636
 10
-67.05119488577927
 20
147.0902225470263
 10
-67.27238576750858
 20
147.1138818966569
 10
-67.48966665585459
 20
147.1061750584123
 10
-67.71390652007034
 20
147.0655494571463
 10
-67.93852332405371
 20
146.988749110758
 10
-68.15486293996278
 20
146.8747208867138
 10
-68.35384636844423
 20
146.7251965565115
 10
-68.52710093497629
 20
146.5448073497626
 10
-68.66807527199974
 20
146.3406520834028
 10
-68.77284412203447
 20
146.1213904063391
 10
-68.84040288155199
 20
145.8960952644645
 10
-68.8724270442951
 20
145.6731625535595
 10
-68.8724270442951
 20
145.4564714489919
 10
-68.84040288155201
 20
145.2335387380869
 10
-68.77284412203447
 20
145.0082435962122
 10
-68.66807527199973
 20
144.7889819191485
 10
-68.52710093497629
 20
144.5848266527888
 10
-68.35384636844423
 20
144.4044374460399
 10
-68.15486293996277
 20
144.2549131158376
 10
-67.93852332405369
 20
144.1408848917934
 10
-67.71390652007034
 20
144.0640845454052
 10
-67.48966665585458
 20
144.0234589441391
 10
-67.27238576750861
 20
144.0157521058946
 10
-67.05119488577927
 20
144.0394114555252
 10
-66.82575009454267
 20
144.0978365999879
 10
-66.6041389006698
 20
144.1932845630324
 10
-66.39535883277337
 20
144.3254621255407
 10
-66.20828325080727
 20
144.491168524107
 10
-66.05050053528204
 20
144.6844511755704
 10
-65.92732053779991
 20
144.8972955903024
 10
-65.8412099228703
 20
145.1206887656215
 10
-65.79177375846575
 20
145.3457742859332
  0
LWPOLYLINE
  5
129
330
1F
100
AcDbEntity
  8
0.1mm kerf$HiPro1
100
AcDbPolyline
 90
       41
 70
     1
 43
0.0
 10
-76.67889148880485
 20
122.051566076817
 10
-76.69444686977967
 20
122.2706087921595
 10
-76.74388303418421
 20
122.4956943124711
 10
-76.82999364911383
 20
122.7190874877903
 10
-76.95317364659593
 20
122.9319319025223
 10
-77.11095636212117
 20
123.1252145539857
 10
-77.29803194408727
 20
123.290920952552
 10
-77.5068120119837
 20
123.4230985150603
 10
-77.72842320585656
 20
123.5185464781049
 10
-77.95386799709316
 20
123.5769716225675
 10
-78.17505887882247
 20
123.6006309721982
 10
-78.39233976716847
 20
123.5929241339536
 10
-78.61657963138421
 20
123.5522985326875
 10
-78.84119643536759
 20
123.4754981862993
 10
-79.05753605127668
 20
123.3614699622551
 10
-79.25651947975812
 20
123.2119456320528
 10
-79.42977404629018
 20
123.0315564253038
 10
-79.57074838331364
 20
122.8274011589441
 10
-79.67551723334835
 20
122.6081394818803
 10
-79.74307599286588
 20
122.3828443400057
 10
-79.77510015560899
 20
122.1599116291008
 10
-79.77510015560899
 20
121.9432205245331
 10
-79.74307599286588
 20
121.7202878136282
 10
-79.67551723334835
 20
121.4949926717536
 10
-79.57074838331362
 20
121.2757309946898
 10
-79.42977404629018
 20
121.07157572833
 10
-79.25651947975812
 20
120.8911865215811
 10
-79.05753605127666
 20
120.7416621913788
 10
-78.84119643536758
 20
120.6276339673346
 10
-78.61657963138421
 20
120.5508336209464
 10
-78.39233976716845
 20
120.5102080196803
 10
-78.1750588788225
 20
120.5025011814357
 10
-77.95386799709316
 20
120.5261605310663
 10
-77.72842320585657
 20
120.584585675529
 10
-77.50681201198371
 20
120.6800336385736
 10
-77.29803194408728
 20
120.8122112010819
 10
-77.11095636212118
 20
120.9779175996482
 10
-76.95317364659594
 20
121.1712002511116
 10
-76.82999364911385
 20
121.3840446658437
 10
-76.74388303418424
 20
121.6074378411629
 10
-76.69444686977968
 20
121.8325233614744
  0
ENDSEC
  0
SECTION
  2
OBJECTS
  0
DICTIONARY
  5
C
330
0
100
AcDbDictionary
281
     1
  3
ACAD_CIP_PREVIOUS_PRODUCT_INFO
350
F3
  3
ACAD_COLOR
350
EE
  3
ACAD_DETAILVIEWSTYLE
350
EA
  3
ACAD_GROUP
350
D
  3
ACAD_LAYOUT
350
1A
  3
ACAD_MATERIAL
350
43
  3
ACAD_MLEADERSTYLE
350
6B
  3
ACAD_MLINESTYLE
350
17
  3
ACAD_PLOTSETTINGS
350
19
  3
ACAD_PLOTSTYLENAME
350
E
  3
ACAD_SCALELIST
350
47
  3
ACAD_SECTIONVIEWSTYLE
350
EB
  3
ACAD_TABLESTYLE
350
69
  3
ACAD_VISUALSTYLE
350
2A
  3
ACDB_RECOMPOSE_DATA
350
135
  3
AcDbVariableDictionary
350
A7
  0
DICTIONARY
  5
12A
330
10
100
AcDbDictionary
280
     1
281
     1
  3
ADSK_XREC_LAYER_RECONCILED
360
12B
  0
DICTIONARY
  5
12C
330
6E
100
AcDbDictionary
280
     1
281
     1
  3
ADSK_XREC_LAYER_RECONCILED
360
12D
  0
XRECORD
  5
F3
102
{ACAD_REACTORS
330
C
102
}
330
C
100
AcDbXrecord
280
     1
300
ACD
300
2020
300
87224ACD_2020_0F
  0
DICTIONARY
  5
EE
102
{ACAD_REACTORS
330
C
102
}
330
C
100
AcDbDictionary
281
     1
  0
DICTIONARY
  5
EA
102
{ACAD_REACTORS
330
C
102
}
330
C
100
AcDbDictionary
281
     1
  3
Imperial24
350
F0
  0
DICTIONARY
  5
D
102
{ACAD_REACTORS
330
C
102
}
330
C
100
AcDbDictionary
281
     1
  0
DICTIONARY
  5
1A
102
{ACAD_REACTORS
330
C
102
}
330
C
100
AcDbDictionary
281
     1
  3
Layout1
350
1E
  3
Layout2
350
26
  3
Model
350
22
  0
DICTIONARY
  5
43
102
{ACAD_REACTORS
330
C
102
}
330
C
100
AcDbDictionary
281
     1
  3
ByBlock
350
45
  3
ByLayer
350
44
  3
Global
350
46
  0
DICTIONARY
  5
6B
102
{ACAD_REACTORS
330
C
102
}
330
C
100
AcDbDictionary
281
     1
  3
Standard
350
6C
  0
DICTIONARY
  5
17
102
{ACAD_REACTORS
330
C
102
}
330
C
100
AcDbDictionary
281
     1
  3
Standard
350
18
  0
DICTIONARY
  5
19
102
{ACAD_REACTORS
330
C
102
}
330
C
100
AcDbDictionary
281
     1
  0
ACDBDICTIONARYWDFLT
  5
E
102
{ACAD_REACTORS
330
C
102
}
330
C
100
AcDbDictionary
281
     1
  3
Normal
350
F
100
AcDbDictionaryWithDefault
340
F
  0
DICTIONARY
  5
47
102
{ACAD_REACTORS
330
C
102
}
330
C
100
AcDbDictionary
281
     1
  3
A0
350
48
  3
A1
350
49
  3
A2
350
4A
  3
A3
350
4B
  3
A4
350
4C
  3
A5
350
4D
  3
A6
350
4E
  3
A7
350
4F
  3
A8
350
50
  3
A9
350
51
  3
B0
350
52
  3
B1
350
53
  3
B2
350
54
  3
B3
350
55
  3
B4
350
56
  3
B5
350
57
  3
B6
350
58
  3
B7
350
59
  3
B8
350
5A
  3
B9
350
5B
  3
C0
350
5C
  3
C1
350
5D
  3
C2
350
5E
  3
C3
350
5F
  3
C4
350
60
  3
C5
350
61
  3
C6
350
62
  3
C7
350
63
  3
C8
350
64
  3
C9
350
65
  3
D0
350
66
  3
D1
350
67
  3
D2
350
68
  0
DICTIONARY
  5
EB
102
{ACAD_REACTORS
330
C
102
}
330
C
100
AcDbDictionary
281
     1
  3
Imperial24
350
EF
  0
DICTIONARY
  5
69
102
{ACAD_REACTORS
330
C
102
}
330
C
100
AcDbDictionary
281
     1
  3
Standard
350
6A
  0
DICTIONARY
  5
2A
102
{ACAD_REACTORS
330
C
102
}
330
C
100
AcDbDictionary
281
     1
  3
2dWireframe
350
2F
  3
Basic
350
32
  3
Brighten
350
36
  3
ColorChange
350
3A
  3
Conceptual
350
34
  3
Dim
350
35
  3
EdgeColorOff
350
3D
  3
Facepattern
350
39
  3
Flat
350
2B
  3
FlatWithEdges
350
2C
  3
Gouraud
350
2D
  3
GouraudWithEdges
350
2E
  3
Hidden
350
31
  3
JitterOff
350
3B
  3
Linepattern
350
38
  3
OverhangOff
350
3C
  3
Realistic
350
33
  3
Shaded
350
42
  3
Shaded with edges
350
41
  3
Shades of Gray
350
3E
  3
Sketchy
350
3F
  3
Thicken
350
37
  3
Wireframe
350
30
  3
X-Ray
350
40
  0
XRECORD
  5
135
102
{ACAD_REACTORS
330
C
102
}
330
C
100
AcDbXrecord
280
     1
 90
        1
330
6A
  0
DICTIONARY
  5
A7
102
{ACAD_REACTORS
330
C
102
}
330
C
100
AcDbDictionary
281
     1
  3
CANNOSCALE
350
A8
  3
CMLEADERSTYLE
350
E9
  3
CTABLESTYLE
350
E8
  3
CVIEWDETAILSTYLE
350
12E
  3
CVIEWSECTIONSTYLE
350
12F
  3
LAYEREVAL
350
131
  3
LAYERNOTIFY
350
132
  3
LIGHTINGUNITS
350
130
  3
MSLTSCALE
350
A9
  0
XRECORD
  5
12B
102
{ACAD_REACTORS
330
12A
102
}
330
12A
100
AcDbXrecord
280
     1
290
     1
  0
XRECORD
  5
12D
102
{ACAD_REACTORS
330
12C
102
}
330
12C
100
AcDbXrecord
280
     1
290
     1
  0
ACDBDETAILVIEWSTYLE
  5
F0
102
{ACAD_REACTORS
330
EA
102
}
330
EA
100
AcDbModelDocViewStyle
 70
     0
  3
Imperial24
290
     0
300
Imperial24
 90
        0
100
AcDbDetailViewStyle
 70
     0
 71
     0
 90
        3
 71
     1
340
11
 62
   256
 40
0.24
340
0
 62
   256
 40
0.24
300

 40
0.36
280
     3
 71
     2
340
16
 90
       25
 62
   256
 71
     3
340
11
 62
   256
 40
0.24
 90
        1
 40
0.75
 90
        1
300
%<\AcVar ViewType \f "%tc1">% %<\AcVar ViewDetailId>%\PSCALE %<\AcVar ViewScale \f "%sn">%
 71
     4
340
16
 90
       25
 62
   256
340
16
 90
       25
 62
   256
280
     0
  0
LAYOUT
  5
1E
102
{ACAD_REACTORS
330
1A
102
}
330
1A
100
AcDbPlotSettings
  1

  2
none_device
  4

  6

 40
0.0
 41
0.0
 42
0.0
 43
0.0
 44
0.0
 45
0.0
 46
0.0
 47
0.0
 48
0.0
 49
0.0
140
0.0
141
0.0
142
1.0
143
1.0
 70
   688
 72
     0
 73
     0
 74
     5
  7

 75
    16
147
1.0
 76
     0
 77
     2
 78
   300
148
0.0
149
0.0
100
AcDbLayout
  1
Layout1
 70
     1
 71
     1
 10
0.0
 20
0.0
 11
12.0
 21
9.0
 12
0.0
 22
0.0
 32
0.0
 14
1.000000000000000E+20
 24
1.000000000000000E+20
 34
1.000000000000000E+20
 15
-1.000000000000000E+20
 25
-1.000000000000000E+20
 35
-1.000000000000000E+20
146
0.0
 13
0.0
 23
0.0
 33
0.0
 16
1.0
 26
0.0
 36
0.0
 17
0.0
 27
1.0
 37
0.0
 76
     0
330
1B
  0
LAYOUT
  5
26
102
{ACAD_REACTORS
330
1A
102
}
330
1A
100
AcDbPlotSettings
  1

  2
none_device
  4

  6

 40
0.0
 41
0.0
 42
0.0
 43
0.0
 44
0.0
 45
0.0
 46
0.0
 47
0.0
 48
0.0
 49
0.0
140
0.0
141
0.0
142
1.0
143
1.0
 70
   688
 72
     0
 73
     0
 74
     5
  7

 75
    16
147
1.0
 76
     0
 77
     2
 78
   300
148
0.0
149
0.0
100
AcDbLayout
  1
Layout2
 70
     1
 71
     2
 10
0.0
 20
0.0
 11
0.0
 21
0.0
 12
0.0
 22
0.0
 32
0.0
 14
0.0
 24
0.0
 34
0.0
 15
0.0
 25
0.0
 35
0.0
146
0.0
 13
0.0
 23
0.0
 33
0.0
 16
1.0
 26
0.0
 36
0.0
 17
0.0
 27
1.0
 37
0.0
 76
     0
330
23
  0
LAYOUT
  5
22
102
{ACAD_REACTORS
330
1A
102
}
330
1A
100
AcDbPlotSettings
  1

  2
none_device
  4
Letter_(8.50_x_11.00_Inches)
  6

 40
6.349999999999999
 41
6.349999999999999
 42
6.350005079999999
 43
6.350005079999999
 44
215.9
 45
279.4
 46
0.0
 47
0.0
 48
0.0
 49
0.0
140
0.0
141
0.0
142
1.0
143
1.0
 70
  1712
 72
     0
 73
     0
 74
     0
  7

 75
     0
147
1.0
 76
     0
 77
     2
 78
   300
148
0.0
149
0.0
100
AcDbLayout
  1
Model
 70
     1
 71
     0
 10
0.0
 20
0.0
 11
12.0
 21
9.0
 12
0.0
 22
0.0
 32
0.0
 14
-81.27889148880488
 24
35.68480641595761
 34
-0.0000000000002223
 15
59.43749999999999
 25
163.3869440064383
 35
0.000000000000036
146
0.0
 13
0.0
 23
0.0
 33
0.0
 16
1.0
 26
0.0
 36
0.0
 17
0.0
 27
1.0
 37
0.0
 76
     0
330
1F
331
29
  0
MATERIAL
  5
45
102
{ACAD_XDICTIONARY
360
DD
102
}
102
{ACAD_REACTORS
330
43
102
}
330
43
100
AcDbMaterial
  1
ByBlock
  0
MATERIAL
  5
44
102
{ACAD_XDICTIONARY
360
DB
102
}
102
{ACAD_REACTORS
330
43
102
}
330
43
100
AcDbMaterial
  1
ByLayer
  0
MATERIAL
  5
46
102
{ACAD_XDICTIONARY
360
DF
102
}
102
{ACAD_REACTORS
330
43
102
}
330
43
100
AcDbMaterial
  1
Global
  0
MLEADERSTYLE
  5
6C
102
{ACAD_REACTORS
330
6B
102
}
330
6B
100
AcDbMLeaderStyle
179
     2
170
     2
171
     1
172
     0
 90
        2
 40
0.0
 41
0.0
173
     1
 91
-1056964608
340
14
 92
       -2
290
     1
 42
0.09
291
     1
 43
0.36
  3
Standard
 44
0.18
300

342
11
174
     1
178
     6
175
     1
176
     0
 93
-1056964608
 45
0.18
292
     0
297
     0
 46
0.18
 94
-1056964608
 47
1.0
 49
1.0
140
1.0
293
     1
141
0.0
294
     1
177
     0
142
1.0
295
     0
296
     0
143
0.125
271
     0
272
     9
273
     9
298
     0
1001
ACAD_MLEADERVER
1070
     2
  0
MLINESTYLE
  5
18
102
{ACAD_REACTORS
330
17
102
}
330
17
100
AcDbMlineStyle
  2
STANDARD
 70
     0
  3

 62
   256
 51
90.0
 52
90.0
 71
     2
 49
0.5
 62
   256
  6
BYLAYER
 49
-0.5
 62
   256
  6
BYLAYER
  0
ACDBPLACEHOLDER
  5
F
102
{ACAD_REACTORS
330
E
102
}
330
E
  0
SCALE
  5
48
102
{ACAD_REACTORS
330
47
102
}
330
47
100
AcDbScale
 70
     0
300
1:1
140
1.0
141
1.0
290
     1
  0
SCALE
  5
49
102
{ACAD_REACTORS
330
47
102
}
330
47
100
AcDbScale
 70
     0
300
1:2
140
1.0
141
2.0
290
     0
  0
SCALE
  5
4A
102
{ACAD_REACTORS
330
47
102
}
330
47
100
AcDbScale
 70
     0
300
1:4
140
1.0
141
4.0
290
     0
  0
SCALE
  5
4B
102
{ACAD_REACTORS
330
47
102
}
330
47
100
AcDbScale
 70
     0
300
1:5
140
1.0
141
5.0
290
     0
  0
SCALE
  5
4C
102
{ACAD_REACTORS
330
47
102
}
330
47
100
AcDbScale
 70
     0
300
1:8
140
1.0
141
8.0
290
     0
  0
SCALE
  5
4D
102
{ACAD_REACTORS
330
47
102
}
330
47
100
AcDbScale
 70
     0
300
1:10
140
1.0
141
10.0
290
     0
  0
SCALE
  5
4E
102
{ACAD_REACTORS
330
47
102
}
330
47
100
AcDbScale
 70
     0
300
1:16
140
1.0
141
16.0
290
     0
  0
SCALE
  5
4F
102
{ACAD_REACTORS
330
47
102
}
330
47
100
AcDbScale
 70
     0
300
1:20
140
1.0
141
20.0
290
     0
  0
SCALE
  5
50
102
{ACAD_REACTORS
330
47
102
}
330
47
100
AcDbScale
 70
     0
300
1:30
140
1.0
141
30.0
290
     0
  0
SCALE
  5
51
102
{ACAD_REACTORS
330
47
102
}
330
47
100
AcDbScale
 70
     0
300
1:40
140
1.0
141
40.0
290
     0
  0
SCALE
  5
52
102
{ACAD_REACTORS
330
47
102
}
330
47
100
AcDbScale
 70
     0
300
1:50
140
1.0
141
50.0
290
     0
  0
SCALE
  5
53
102
{ACAD_REACTORS
330
47
102
}
330
47
100
AcDbScale
 70
     0
300
1:100
140
1.0
141
100.0
290
     0
  0
SCALE
  5
54
102
{ACAD_REACTORS
330
47
102
}
330
47
100
AcDbScale
 70
     0
300
2:1
140
2.0
141
1.0
290
     0
  0
SCALE
  5
55
102
{ACAD_REACTORS
330
47
102
}
330
47
100
AcDbScale
 70
     0
300
4:1
140
4.0
141
1.0
290
     0
  0
SCALE
  5
56
102
{ACAD_REACTORS
330
47
102
}
330
47
100
AcDbScale
 70
     0
300
8:1
140
8.0
141
1.0
290
     0
  0
SCALE
  5
57
102
{ACAD_REACTORS
330
47
102
}
330
47
100
AcDbScale
 70
     0
300
10:1
140
10.0
141
1.0
290
     0
  0
SCALE
  5
58
102
{ACAD_REACTORS
330
47
102
}
330
47
100
AcDbScale
 70
     0
300
100:1
140
100.0
141
1.0
290
     0
  0
SCALE
  5
59
102
{ACAD_REACTORS
330
47
102
}
330
47
100
AcDbScale
 70
     0
300
1/128" = 1'-0"
140
0.0078125
141
12.0
290
     0
  0
SCALE
  5
5A
102
{ACAD_REACTORS
330
47
102
}
330
47
100
AcDbScale
 70
     0
300
1/64" = 1'-0"
140
0.015625
141
12.0
290
     0
  0
SCALE
  5
5B
102
{ACAD_REACTORS
330
47
102
}
330
47
100
AcDbScale
 70
     0
300
1/32" = 1'-0"
140
0.03125
141
12.0
290
     0
  0
SCALE
  5
5C
102
{ACAD_REACTORS
330
47
102
}
330
47
100
AcDbScale
 70
     0
300
1/16" = 1'-0"
140
0.0625
141
12.0
290
     0
  0
SCALE
  5
5D
102
{ACAD_REACTORS
330
47
102
}
330
47
100
AcDbScale
 70
     0
300
3/32" = 1'-0"
140
0.09375
141
12.0
290
     0
  0
SCALE
  5
5E
102
{ACAD_REACTORS
330
47
102
}
330
47
100
AcDbScale
 70
     0
300
1/8" = 1'-0"
140
0.125
141
12.0
290
     0
  0
SCALE
  5
5F
102
{ACAD_REACTORS
330
47
102
}
330
47
100
AcDbScale
 70
     0
300
3/16" = 1'-0"
140
0.1875
141
12.0
290
     0
  0
SCALE
  5
60
102
{ACAD_REACTORS
330
47
102
}
330
47
100
AcDbScale
 70
     0
300
1/4" = 1'-0"
140
0.25
141
12.0
290
     0
  0
SCALE
  5
61
102
{ACAD_REACTORS
330
47
102
}
330
47
100
AcDbScale
 70
     0
300
3/8" = 1'-0"
140
0.375
141
12.0
290
     0
  0
SCALE
  5
62
102
{ACAD_REACTORS
330
47
102
}
330
47
100
AcDbScale
 70
     0
300
1/2" = 1'-0"
140
0.5
141
12.0
290
     0
  0
SCALE
  5
63
102
{ACAD_REACTORS
330
47
102
}
330
47
100
AcDbScale
 70
     0
300
3/4" = 1'-0"
140
0.75
141
12.0
290
     0
  0
SCALE
  5
64
102
{ACAD_REACTORS
330
47
102
}
330
47
100
AcDbScale
 70
     0
300
1" = 1'-0"
140
1.0
141
12.0
290
     0
  0
SCALE
  5
65
102
{ACAD_REACTORS
330
47
102
}
330
47
100
AcDbScale
 70
     0
300
1-1/2" = 1'-0"
140
1.5
141
12.0
290
     0
  0
SCALE
  5
66
102
{ACAD_REACTORS
330
47
102
}
330
47
100
AcDbScale
 70
     0
300
3" = 1'-0"
140
3.0
141
12.0
290
     0
  0
SCALE
  5
67
102
{ACAD_REACTORS
330
47
102
}
330
47
100
AcDbScale
 70
     0
300
6" = 1'-0"
140
6.0
141
12.0
290
     0
  0
SCALE
  5
68
102
{ACAD_REACTORS
330
47
102
}
330
47
100
AcDbScale
 70
     0
300
1'-0" = 1'-0"
140
12.0
141
12.0
290
     0
  0
ACDBSECTIONVIEWSTYLE
  5
EF
102
{ACAD_REACTORS
330
EB
102
}
330
EB
100
AcDbModelDocViewStyle
 70
     0
  3
Imperial24
290
     0
300
Imperial24
 90
        0
100
AcDbSectionViewStyle
 70
     0
 71
     0
 90
       78
 71
     1
340
11
 62
   256
 40
0.24
340
0
340
0
 62
   256
 40
0.24
300
I, O, Q, S, X, Z
 40
0.48
 90
        3
 40
0.18
 90
        1
 71
     2
340
16
 90
       25
 62
   256
340
16
 90
       50
 62
   256
 40
0.24
 40
0.0
 40
0.24
 71
     3
340
11
 62
   256
 40
0.24
 90
        1
 40
0.75
 90
        1
300
%<\AcVar ViewType \f "%tc1">% %<\AcVar ViewSectionStartId>%-%<\AcVar ViewSectionEndId>%\PSCALE %<\AcVar ViewScale \f "%sn">%
 71
     4
 62
   256
 62
   257
300
ANSI31
 40
1.0
 90
        0
290
     0
290
     0
 90
        6
 40
0.0
 40
1.570796326794896
 40
0.2617993877991494
 40
1.308996938995747
 40
-0.2617993877991494
 40
1.832595714594046
  0
TABLESTYLE
  5
6A
102
{ACAD_XDICTIONARY
360
E1
102
}
102
{ACAD_REACTORS
330
69
102
}
330
69
100
AcDbTableStyle
280
     0
  3
Standard
 70
     0
 71
     0
 40
0.06
 41
0.06
280
     0
281
     0
  7
Standard
140
0.18
170
     2
 62
     0
 63
     7
283
     0
 90
        4
 91
        0
  1

274
    -2
284
     1
 64
     0
275
    -2
285
     1
 65
     0
276
    -2
286
     1
 66
     0
277
    -2
287
     1
 67
     0
278
    -2
288
     1
 68
     0
279
    -2
289
     1
 69
     0
  7
Standard
140
0.25
170
     5
 62
     0
 63
     7
283
     0
 90
        4
 91
        0
  1

274
    -2
284
     1
 64
     0
275
    -2
285
     1
 65
     0
276
    -2
286
     1
 66
     0
277
    -2
287
     1
 67
     0
278
    -2
288
     1
 68
     0
279
    -2
289
     1
 69
     0
  7
Standard
140
0.18
170
     5
 62
     0
 63
     7
283
     0
 90
        4
 91
        0
  1

274
    -2
284
     1
 64
     0
275
    -2
285
     1
 65
     0
276
    -2
286
     1
 66
     0
277
    -2
287
     1
 67
     0
278
    -2
288
     1
 68
     0
279
    -2
289
     1
 69
     0
  0
VISUALSTYLE
  5
2F
102
{ACAD_REACTORS
330
2A
102
}
330
2A
100
AcDbVisualStyle
  2

 70
     4
177
     3
291
     0
 70
    58
 90
        0
176
     1
 90
        2
176
     1
 90
        0
176
     1
 90
        0
176
     1
 40
0.6
176
     1
 40
30.0
176
     1
 62
     7
420
 16777215
176
     1
 90
        1
176
     1
 90
        4
176
     1
 62
     7
176
     1
 62
   257
176
     1
 90
        1
176
     1
 90
        1
176
     1
 40
1.0
176
     1
 90
        0
176
     1
 62
   257
176
     1
 40
1.0
176
     1
 90
        1
176
     1
 90
        6
176
     1
 90
        2
176
     1
 62
     7
176
     1
 90
        5
176
     1
 90
        0
176
     1
 90
        0
176
     1
290
     0
176
     1
 90
        1
176
     1
 40
0.0
176
     1
 90
        0
176
     1
290
     1
176
     1
290
     1
176
     1
290
     0
176
     1
290
     0
176
     1
290
     0
176
     1
290
     0
176
     1
290
     0
176
     1
290
     0
176
     1
290
     0
176
     1
 90
       50
176
     1
 40
0.0
176
     1
 40
1.0
176
     1
 90
        0
176
     1
 62
    18
420
        0
176
     1
 90
       50
176
     1
 90
        3
176
     1
 62
     5
420
      255
176
     1
290
     0
176
     1
 90
       50
176
     1
 90
       50
176
     1
 90
       50
176
     1
290
     0
176
     1
 90
       50
176
     1
 62
   256
176
     0
 40
1.0
176
     0
 90
        2
176
     1
  1
strokes_ogs.tif
176
     1
290
     0
176
     1
 40
1.0
176
     1
 40
1.0
176
     1
1001
ACAD
1000
AcDbSavedByObjectVersion
1070
     0
  0
VISUALSTYLE
  5
32
102
{ACAD_REACTORS
330
2A
102
}
330
2A
100
AcDbVisualStyle
  2

 70
     7
177
     3
291
     1
 70
    58
 90
        1
176
     1
 90
        0
176
     1
 90
        1
176
     1
 90
        0
176
     1
 40
0.6
176
     1
 40
30.0
176
     1
 62
     7
420
 16777215
176
     1
 90
        0
176
     1
 90
        4
176
     1
 62
     7
176
     1
 62
   257
176
     1
 90
        1
176
     1
 90
        1
176
     1
 40
1.0
176
     1
 90
        8
176
     1
 62
     7
176
     1
 40
1.0
176
     1
 90
        1
176
     1
 90
        6
176
     1
 90
        2
176
     1
 62
     7
176
     1
 90
        5
176
     1
 90
        0
176
     1
 90
        0
176
     1
290
     0
176
     1
 90
        1
176
     1
 40
0.0
176
     1
 90
        0
176
     1
290
     0
176
     1
290
     1
176
     1
290
     1
176
     1
290
     0
176
     1
290
     0
176
     1
290
     0
176
     1
290
     0
176
     1
290
     0
176
     1
290
     0
176
     1
 90
       50
176
     1
 40
0.0
176
     1
 40
1.0
176
     1
 90
        0
176
     1
 62
    18
420
        0
176
     1
 90
       50
176
     1
 90
        3
176
     1
 62
     5
420
      255
176
     1
290
     0
176
     1
 90
       50
176
     1
 90
       50
176
     1
 90
       50
176
     1
290
     0
176
     1
 90
       50
176
     1
 62
   256
176
     0
 40
1.0
176
     0
 90
        2
176
     1
  1
strokes_ogs.tif
176
     1
290
     0
176
     1
 40
1.0
176
     1
 40
1.0
176
     1
1001
ACAD
1000
AcDbSavedByObjectVersion
1070
     0
  0
VISUALSTYLE
  5
36
102
{ACAD_REACTORS
330
2A
102
}
330
2A
100
AcDbVisualStyle
  2

 70
    12
177
     3
291
     1
 70
    58
 90
        2
176
     1
 90
        2
176
     1
 90
        0
176
     1
 90
        0
176
     1
 40
0.6
176
     1
 40
30.0
176
     1
 62
     7
420
 16777215
176
     1
 90
        1
176
     1
 90
        4
176
     1
 62
     7
176
     1
 62
   257
176
     1
 90
        1
176
     1
 90
        1
176
     1
 40
1.0
176
     1
 90
        8
176
     1
 62
     7
176
     1
 40
1.0
176
     1
 90
        1
176
     1
 90
        6
176
     1
 90
        2
176
     1
 62
     7
176
     1
 90
        5
176
     1
 90
        0
176
     1
 90
        0
176
     1
290
     0
176
     1
 90
        1
176
     1
 40
50.0
176
     1
 90
        0
176
     1
290
     0
176
     1
290
     1
176
     1
290
     1
176
     1
290
     0
176
     1
290
     0
176
     1
290
     0
176
     1
290
     0
176
     1
290
     0
176
     1
290
     0
176
     1
 90
       50
176
     1
 40
0.0
176
     1
 40
1.0
176
     1
 90
        0
176
     1
 62
    18
420
        0
176
     1
 90
       50
176
     1
 90
        3
176
     1
 62
     5
420
      255
176
     1
290
     0
176
     1
 90
       50
176
     1
 90
       50
176
     1
 90
       50
176
     1
290
     0
176
     1
 90
       50
176
     1
 62
   256
176
     0
 40
1.0
176
     0
 90
        2
176
     1
  1
strokes_ogs.tif
176
     1
290
     0
176
     1
 40
1.0
176
     1
 40
1.0
176
     1
1001
ACAD
1000
AcDbSavedByObjectVersion
1070
     0
  0
VISUALSTYLE
  5
3A
102
{ACAD_REACTORS
330
2A
102
}
330
2A
100
AcDbVisualStyle
  2

 70
    16
177
     3
291
     1
 70
    58
 90
        2
176
     1
 90
        2
176
     1
 90
        3
176
     1
 90
        0
176
     1
 40
0.6
176
     1
 40
30.0
176
     1
 62
     8
420
  8421504
176
     1
 90
        1
176
     1
 90
        4
176
     1
 62
     7
176
     1
 62
   257
176
     1
 90
        1
176
     1
 90
        1
176
     1
 40
1.0
176
     1
 90
        8
176
     1
 62
     8
420
  8421504
176
     1
 40
1.0
176
     1
 90
        1
176
     1
 90
        6
176
     1
 90
        2
176
     1
 62
     7
176
     1
 90
        5
176
     1
 90
        0
176
     1
 90
        0
176
     1
290
     0
176
     1
 90
        1
176
     1
 40
0.0
176
     1
 90
        0
176
     1
290
     0
176
     1
290
     1
176
     1
290
     1
176
     1
290
     0
176
     1
290
     0
176
     1
290
     0
176
     1
290
     0
176
     1
290
     0
176
     1
290
     0
176
     1
 90
       50
176
     1
 40
0.0
176
     1
 40
1.0
176
     1
 90
        0
176
     1
 62
    18
420
        0
176
     1
 90
       50
176
     1
 90
        3
176
     1
 62
     5
420
      255
176
     1
290
     0
176
     1
 90
       50
176
     1
 90
       50
176
     1
 90
       50
176
     1
290
     0
176
     1
 90
       50
176
     1
 62
   256
176
     0
 40
1.0
176
     0
 90
        2
176
     1
  1
strokes_ogs.tif
176
     1
290
     0
176
     1
 40
1.0
176
     1
 40
1.0
176
     1
1001
ACAD
1000
AcDbSavedByObjectVersion
1070
     0
  0
VISUALSTYLE
  5
34
102
{ACAD_REACTORS
330
2A
102
}
330
2A
100
AcDbVisualStyle
  2

 70
     9
177
     3
291
     0
 70
    58
 90
        3
176
     1
 90
        2
176
     1
 90
        0
176
     1
 90
        0
176
     1
 40
0.6
176
     1
 40
30.0
176
     1
 62
     7
420
 16777215
176
     1
 90
        2
176
     1
 90
        2
176
     1
 62
     7
176
     1
 62
   257
176
     1
 90
        1
176
     1
 90
        1
176
     1
 40
179.0
176
     1
 90
        8
176
     1
 62
     7
176
     1
 40
1.0
176
     1
 90
        1
176
     1
 90
        6
176
     1
 90
        2
176
     1
 62
     7
176
     1
 90
        3
176
     1
 90
        0
176
     1
 90
        0
176
     1
290
     0
176
     1
 90
        1
176
     1
 40
0.0
176
     1
 90
        0
176
     1
290
     0
176
     1
290
     1
176
     1
290
     1
176
     1
290
     0
176
     1
290
     0
176
     1
290
     0
176
     1
290
     0
176
     1
290
     0
176
     1
290
     0
176
     1
 90
       50
176
     1
 40
0.0
176
     1
 40
1.0
176
     1
 90
        0
176
     1
 62
    18
420
        0
176
     1
 90
       50
176
     1
 90
        3
176
     1
 62
     5
420
      255
176
     1
290
     0
176
     1
 90
       50
176
     1
 90
       50
176
     1
 90
       50
176
     1
290
     0
176
     1
 90
       50
176
     1
 62
   256
176
     0
 40
1.0
176
     0
 90
        2
176
     1
  1
strokes_ogs.tif
176
     1
290
     0
176
     1
 40
1.0
176
     1
 40
1.0
176
     1
1001
ACAD
1000
AcDbSavedByObjectVersion
1070
     0
  0
VISUALSTYLE
  5
35
102
{ACAD_REACTORS
330
2A
102
}
330
2A
100
AcDbVisualStyle
  2

 70
    11
177
     3
291
     1
 70
    58
 90
        2
176
     1
 90
        2
176
     1
 90
        0
176
     1
 90
        0
176
     1
 40
0.6
176
     1
 40
30.0
176
     1
 62
     7
420
 16777215
176
     1
 90
        1
176
     1
 90
        4
176
     1
 62
     7
176
     1
 62
   257
176
     1
 90
        1
176
     1
 90
        1
176
     1
 40
1.0
176
     1
 90
        8
176
     1
 62
     7
176
     1
 40
1.0
176
     1
 90
        1
176
     1
 90
        6
176
     1
 90
        2
176
     1
 62
     7
176
     1
 90
        5
176
     1
 90
        0
176
     1
 90
        0
176
     1
290
     0
176
     1
 90
        1
176
     1
 40
-50.0
176
     1
 90
        0
176
     1
290
     0
176
     1
290
     1
176
     1
290
     1
176
     1
290
     0
176
     1
290
     0
176
     1
290
     0
176
     1
290
     0
176
     1
290
     0
176
     1
290
     0
176
     1
 90
       50
176
     1
 40
0.0
176
     1
 40
1.0
176
     1
 90
        0
176
     1
 62
    18
420
        0
176
     1
 90
       50
176
     1
 90
        3
176
     1
 62
     5
420
      255
176
     1
290
     0
176
     1
 90
       50
176
     1
 90
       50
176
     1
 90
       50
176
     1
290
     0
176
     1
 90
       50
176
     1
 62
   256
176
     0
 40
1.0
176
     0
 90
        2
176
     1
  1
strokes_ogs.tif
176
     1
290
     0
176
     1
 40
1.0
176
     1
 40
1.0
176
     1
1001
ACAD
1000
AcDbSavedByObjectVersion
1070
     0
  0
VISUALSTYLE
  5
3D
102
{ACAD_REACTORS
330
2A
102
}
330
2A
100
AcDbVisualStyle
  2

 70
    22
177
     3
291
     1
 70
    58
 90
        2
176
     0
 90
        2
176
     0
 90
        0
176
     0
 90
        0
176
     0
 40
0.6
176
     0
 40
30.0
176
     0
 62
     7
420
 16777215
176
     0
 90
        1
176
     0
 90
        4
176
     0
 62
     7
176
     0
 62
   257
176
     0
 90
        1
176
     0
 90
        1
176
     0
 40
1.0
176
     0
 90
        8
176
     2
 62
     7
176
     0
 40
1.0
176
     0
 90
        1
176
     0
 90
        6
176
     0
 90
        2
176
     0
 62
     7
176
     0
 90
        5
176
     0
 90
        0
176
     0
 90
        0
176
     0
290
     0
176
     0
 90
        1
176
     0
 40
0.0
176
     0
 90
        0
176
     0
290
     0
176
     0
290
     1
176
     0
290
     1
176
     0
290
     0
176
     0
290
     0
176
     0
290
     0
176
     0
290
     0
176
     0
290
     0
176
     0
290
     0
176
     0
 90
       50
176
     0
 40
0.0
176
     0
 40
1.0
176
     0
 90
        0
176
     0
 62
    18
420
        0
176
     0
 90
       50
176
     0
 90
        3
176
     0
 62
     5
420
      255
176
     0
290
     0
176
     0
 90
       50
176
     0
 90
       50
176
     0
 90
       50
176
     0
290
     0
176
     0
 90
       50
176
     0
 62
   256
176
     0
 40
1.0
176
     0
 90
        2
176
     0
  1
strokes_ogs.tif
176
     0
290
     0
176
     0
 40
1.0
176
     0
 40
1.0
176
     0
1001
ACAD
1000
AcDbSavedByObjectVersion
1070
     0
  0
VISUALSTYLE
  5
39
102
{ACAD_REACTORS
330
2A
102
}
330
2A
100
AcDbVisualStyle
  2

 70
    15
177
     3
291
     1
 70
    58
 90
        2
176
     1
 90
        2
176
     1
 90
        0
176
     1
 90
        0
176
     1
 40
0.6
176
     1
 40
30.0
176
     1
 62
     7
420
 16777215
176
     1
 90
        1
176
     1
 90
        4
176
     1
 62
     7
176
     1
 62
   257
176
     1
 90
        1
176
     1
 90
        1
176
     1
 40
1.0
176
     1
 90
        8
176
     1
 62
     7
176
     1
 40
1.0
176
     1
 90
        1
176
     1
 90
        6
176
     1
 90
        2
176
     1
 62
     7
176
     1
 90
        5
176
     1
 90
        0
176
     1
 90
        0
176
     1
290
     0
176
     1
 90
        1
176
     1
 40
0.0
176
     1
 90
        0
176
     1
290
     0
176
     1
290
     1
176
     1
290
     1
176
     1
290
     0
176
     1
290
     0
176
     1
290
     0
176
     1
290
     0
176
     1
290
     0
176
     1
290
     0
176
     1
 90
       50
176
     1
 40
0.0
176
     1
 40
1.0
176
     1
 90
        0
176
     1
 62
    18
420
        0
176
     1
 90
       50
176
     1
 90
        3
176
     1
 62
     5
420
      255
176
     1
290
     0
176
     1
 90
       50
176
     1
 90
       50
176
     1
 90
       50
176
     1
290
     0
176
     1
 90
       50
176
     1
 62
   256
176
     0
 40
1.0
176
     0
 90
        2
176
     1
  1
strokes_ogs.tif
176
     1
290
     0
176
     1
 40
1.0
176
     1
 40
1.0
176
     1
1001
ACAD
1000
AcDbSavedByObjectVersion
1070
     0
  0
VISUALSTYLE
  5
2B
102
{ACAD_REACTORS
330
2A
102
}
330
2A
100
AcDbVisualStyle
  2

 70
     0
177
     3
291
     1
 70
    58
 90
        2
176
     1
 90
        1
176
     1
 90
        1
176
     1
 90
        2
176
     1
 40
0.6
176
     1
 40
30.0
176
     1
 62
     7
420
 16777215
176
     1
 90
        0
176
     1
 90
        0
176
     1
 62
     7
176
     1
 62
   257
176
     1
 90
        1
176
     1
 90
        1
176
     1
 40
1.0
176
     1
 90
        8
176
     1
 62
     7
176
     1
 40
1.0
176
     1
 90
        1
176
     1
 90
        6
176
     1
 90
        2
176
     1
 62
     7
176
     1
 90
        5
176
     1
 90
        0
176
     1
 90
        0
176
     1
290
     0
176
     1
 90
       13
176
     1
 40
0.0
176
     1
 90
        0
176
     1
290
     0
176
     1
290
     1
176
     1
290
     1
176
     1
290
     0
176
     1
290
     0
176
     1
290
     0
176
     1
290
     0
176
     1
290
     0
176
     1
290
     0
176
     1
 90
       50
176
     1
 40
0.0
176
     1
 40
1.0
176
     1
 90
        0
176
     1
 62
    18
420
        0
176
     1
 90
       50
176
     1
 90
        3
176
     1
 62
     5
420
      255
176
     1
290
     0
176
     1
 90
       50
176
     1
 90
       50
176
     1
 90
       50
176
     1
290
     0
176
     1
 90
       50
176
     1
 62
   256
176
     0
 40
1.0
176
     0
 90
        2
176
     1
  1
strokes_ogs.tif
176
     1
290
     0
176
     1
 40
1.0
176
     1
 40
1.0
176
     1
1001
ACAD
1000
AcDbSavedByObjectVersion
1070
     0
  0
VISUALSTYLE
  5
2C
102
{ACAD_REACTORS
330
2A
102
}
330
2A
100
AcDbVisualStyle
  2

 70
     1
177
     3
291
     1
 70
    58
 90
        2
176
     1
 90
        1
176
     1
 90
        1
176
     1
 90
        2
176
     1
 40
0.6
176
     1
 40
30.0
176
     1
 62
     7
420
 16777215
176
     1
 90
        1
176
     1
 90
        0
176
     1
 62
     7
176
     1
 62
   257
176
     1
 90
        1
176
     1
 90
        1
176
     1
 40
1.0
176
     1
 90
        0
176
     1
 62
   257
176
     1
 40
1.0
176
     1
 90
        1
176
     1
 90
        6
176
     1
 90
        2
176
     1
 62
     7
176
     1
 90
        5
176
     1
 90
        0
176
     1
 90
        0
176
     1
290
     0
176
     1
 90
       13
176
     1
 40
0.0
176
     1
 90
        0
176
     1
290
     0
176
     1
290
     1
176
     1
290
     1
176
     1
290
     0
176
     1
290
     0
176
     1
290
     0
176
     1
290
     0
176
     1
290
     0
176
     1
290
     0
176
     1
 90
       50
176
     1
 40
0.0
176
     1
 40
1.0
176
     1
 90
        0
176
     1
 62
    18
420
        0
176
     1
 90
       50
176
     1
 90
        3
176
     1
 62
     5
420
      255
176
     1
290
     0
176
     1
 90
       50
176
     1
 90
       50
176
     1
 90
       50
176
     1
290
     0
176
     1
 90
       50
176
     1
 62
   256
176
     0
 40
1.0
176
     0
 90
        2
176
     1
  1
strokes_ogs.tif
176
     1
290
     0
176
     1
 40
1.0
176
     1
 40
1.0
176
     1
1001
ACAD
1000
AcDbSavedByObjectVersion
1070
     0
  0
VISUALSTYLE
  5
2D
102
{ACAD_REACTORS
330
2A
102
}
330
2A
100
AcDbVisualStyle
  2

 70
     2
177
     3
291
     1
 70
    58
 90
        2
176
     1
 90
        2
176
     1
 90
        1
176
     1
 90
        2
176
     1
 40
0.6
176
     1
 40
30.0
176
     1
 62
     7
420
 16777215
176
     1
 90
        0
176
     1
 90
        0
176
     1
 62
     7
176
     1
 62
   257
176
     1
 90
        1
176
     1
 90
        1
176
     1
 40
1.0
176
     1
 90
        0
176
     1
 62
     7
176
     1
 40
1.0
176
     1
 90
        1
176
     1
 90
        6
176
     1
 90
        2
176
     1
 62
     7
176
     1
 90
        5
176
     1
 90
        0
176
     1
 90
        0
176
     1
290
     0
176
     1
 90
       13
176
     1
 40
0.0
176
     1
 90
        0
176
     1
290
     0
176
     1
290
     1
176
     1
290
     1
176
     1
290
     0
176
     1
290
     0
176
     1
290
     0
176
     1
290
     0
176
     1
290
     0
176
     1
290
     0
176
     1
 90
       50
176
     1
 40
0.0
176
     1
 40
1.0
176
     1
 90
        0
176
     1
 62
    18
420
        0
176
     1
 90
       50
176
     1
 90
        3
176
     1
 62
     5
420
      255
176
     1
290
     0
176
     1
 90
       50
176
     1
 90
       50
176
     1
 90
       50
176
     1
290
     0
176
     1
 90
       50
176
     1
 62
   256
176
     0
 40
1.0
176
     0
 90
        2
176
     1
  1
strokes_ogs.tif
176
     1
290
     0
176
     1
 40
1.0
176
     1
 40
1.0
176
     1
1001
ACAD
1000
AcDbSavedByObjectVersion
1070
     0
  0
VISUALSTYLE
  5
2E
102
{ACAD_REACTORS
330
2A
102
}
330
2A
100
AcDbVisualStyle
  2

 70
     3
177
     3
291
     1
 70
    58
 90
        2
176
     1
 90
        2
176
     1
 90
        1
176
     1
 90
        2
176
     1
 40
0.6
176
     1
 40
30.0
176
     1
 62
     7
420
 16777215
176
     1
 90
        1
176
     1
 90
        0
176
     1
 62
     7
176
     1
 62
   257
176
     1
 90
        1
176
     1
 90
        1
176
     1
 40
1.0
176
     1
 90
        0
176
     1
 62
   257
176
     1
 40
1.0
176
     1
 90
        1
176
     1
 90
        6
176
     1
 90
        2
176
     1
 62
     7
176
     1
 90
        5
176
     1
 90
        0
176
     1
 90
        0
176
     1
290
     0
176
     1
 90
       13
176
     1
 40
0.0
176
     1
 90
        0
176
     1
290
     0
176
     1
290
     1
176
     1
290
     1
176
     1
290
     0
176
     1
290
     0
176
     1
290
     0
176
     1
290
     0
176
     1
290
     0
176
     1
290
     0
176
     1
 90
       50
176
     1
 40
0.0
176
     1
 40
1.0
176
     1
 90
        0
176
     1
 62
    18
420
        0
176
     1
 90
       50
176
     1
 90
        3
176
     1
 62
     5
420
      255
176
     1
290
     0
176
     1
 90
       50
176
     1
 90
       50
176
     1
 90
       50
176
     1
290
     0
176
     1
 90
       50
176
     1
 62
   256
176
     0
 40
1.0
176
     0
 90
        2
176
     1
  1
strokes_ogs.tif
176
     1
290
     0
176
     1
 40
1.0
176
     1
 40
1.0
176
     1
1001
ACAD
1000
AcDbSavedByObjectVersion
1070
     0
  0
VISUALSTYLE
  5
31
102
{ACAD_REACTORS
330
2A
102
}
330
2A
100
AcDbVisualStyle
  2

 70
     6
177
     3
291
     0
 70
    58
 90
        1
176
     1
 90
        2
176
     1
 90
        2
176
     1
 90
        0
176
     1
 40
0.6
176
     1
 40
30.0
176
     1
 62
     7
420
 16777215
176
     1
 90
        2
176
     1
 90
        2
176
     1
 62
     7
176
     1
 62
   257
176
     1
 90
        2
176
     1
 90
        1
176
     1
 40
40.0
176
     1
 90
        0
176
     1
 62
   257
176
     1
 40
1.0
176
     1
 90
        1
176
     1
 90
        6
176
     1
 90
        2
176
     1
 62
     7
176
     1
 90
        3
176
     1
 90
        0
176
     1
 90
        0
176
     1
290
     0
176
     1
 90
        1
176
     1
 40
0.0
176
     1
 90
        0
176
     1
290
     0
176
     1
290
     1
176
     1
290
     1
176
     1
290
     0
176
     1
290
     0
176
     1
290
     0
176
     1
290
     0
176
     1
290
     0
176
     1
290
     0
176
     1
 90
       50
176
     1
 40
0.0
176
     1
 40
1.0
176
     1
 90
        0
176
     1
 62
    18
420
        0
176
     1
 90
       50
176
     1
 90
        3
176
     1
 62
     5
420
      255
176
     1
290
     0
176
     1
 90
       50
176
     1
 90
       50
176
     1
 90
       50
176
     1
290
     0
176
     1
 90
       50
176
     1
 62
   256
176
     0
 40
1.0
176
     0
 90
        2
176
     1
  1
strokes_ogs.tif
176
     1
290
     0
176
     1
 40
1.0
176
     1
 40
1.0
176
     1
1001
ACAD
1000
AcDbSavedByObjectVersion
1070
     0
  0
VISUALSTYLE
  5
3B
102
{ACAD_REACTORS
330
2A
102
}
330
2A
100
AcDbVisualStyle
  2

 70
    20
177
     3
291
     1
 70
    58
 90
        2
176
     0
 90
        2
176
     0
 90
        0
176
     0
 90
        0
176
     0
 40
0.6
176
     0
 40
30.0
176
     0
 62
     7
420
 16777215
176
     0
 90
        1
176
     0
 90
        4
176
     0
 62
     7
176
     0
 62
   257
176
     0
 90
        1
176
     0
 90
        1
176
     0
 40
1.0
176
     0
 90
       10
176
     2
 62
     7
176
     0
 40
1.0
176
     0
 90
        1
176
     0
 90
        6
176
     0
 90
        2
176
     0
 62
     7
176
     0
 90
        5
176
     0
 90
        0
176
     0
 90
        0
176
     0
290
     0
176
     0
 90
        1
176
     0
 40
0.0
176
     0
 90
        0
176
     0
290
     0
176
     0
290
     1
176
     0
290
     1
176
     0
290
     0
176
     0
290
     0
176
     0
290
     0
176
     0
290
     0
176
     0
290
     0
176
     0
290
     0
176
     0
 90
       50
176
     0
 40
0.0
176
     0
 40
1.0
176
     0
 90
        0
176
     0
 62
    18
420
        0
176
     0
 90
       50
176
     0
 90
        3
176
     0
 62
     5
420
      255
176
     0
290
     0
176
     0
 90
       50
176
     0
 90
       50
176
     0
 90
       50
176
     0
290
     0
176
     0
 90
       50
176
     0
 62
   256
176
     0
 40
1.0
176
     0
 90
        2
176
     0
  1
strokes_ogs.tif
176
     0
290
     0
176
     0
 40
1.0
176
     0
 40
1.0
176
     0
1001
ACAD
1000
AcDbSavedByObjectVersion
1070
     0
  0
VISUALSTYLE
  5
38
102
{ACAD_REACTORS
330
2A
102
}
330
2A
100
AcDbVisualStyle
  2

 70
    14
177
     3
291
     1
 70
    58
 90
        2
176
     1
 90
        2
176
     1
 90
        0
176
     1
 90
        0
176
     1
 40
0.6
176
     1
 40
30.0
176
     1
 62
     7
420
 16777215
176
     1
 90
        1
176
     1
 90
        4
176
     1
 62
     7
176
     1
 62
   257
176
     1
 90
        7
176
     1
 90
        7
176
     1
 40
1.0
176
     1
 90
        8
176
     1
 62
     7
176
     1
 40
1.0
176
     1
 90
        1
176
     1
 90
        6
176
     1
 90
        2
176
     1
 62
     7
176
     1
 90
        5
176
     1
 90
        0
176
     1
 90
        0
176
     1
290
     0
176
     1
 90
        1
176
     1
 40
0.0
176
     1
 90
        0
176
     1
290
     0
176
     1
290
     1
176
     1
290
     1
176
     1
290
     0
176
     1
290
     0
176
     1
290
     0
176
     1
290
     0
176
     1
290
     0
176
     1
290
     0
176
     1
 90
       50
176
     1
 40
0.0
176
     1
 40
1.0
176
     1
 90
        0
176
     1
 62
    18
420
        0
176
     1
 90
       50
176
     1
 90
        3
176
     1
 62
     5
420
      255
176
     1
290
     0
176
     1
 90
       50
176
     1
 90
       50
176
     1
 90
       50
176
     1
290
     0
176
     1
 90
       50
176
     1
 62
   256
176
     0
 40
1.0
176
     0
 90
        2
176
     1
  1
strokes_ogs.tif
176
     1
290
     0
176
     1
 40
1.0
176
     1
 40
1.0
176
     1
1001
ACAD
1000
AcDbSavedByObjectVersion
1070
     0
  0
VISUALSTYLE
  5
3C
102
{ACAD_REACTORS
330
2A
102
}
330
2A
100
AcDbVisualStyle
  2

 70
    21
177
     3
291
     1
 70
    58
 90
        2
176
     0
 90
        2
176
     0
 90
        0
176
     0
 90
        0
176
     0
 40
0.6
176
     0
 40
30.0
176
     0
 62
     7
420
 16777215
176
     0
 90
        1
176
     0
 90
        4
176
     0
 62
     7
176
     0
 62
   257
176
     0
 90
        1
176
     0
 90
        1
176
     0
 40
1.0
176
     0
 90
        9
176
     2
 62
     7
176
     0
 40
1.0
176
     0
 90
        1
176
     0
 90
        6
176
     0
 90
        2
176
     0
 62
     7
176
     0
 90
        5
176
     0
 90
        0
176
     0
 90
        0
176
     0
290
     0
176
     0
 90
        1
176
     0
 40
0.0
176
     0
 90
        0
176
     0
290
     0
176
     0
290
     1
176
     0
290
     1
176
     0
290
     0
176
     0
290
     0
176
     0
290
     0
176
     0
290
     0
176
     0
290
     0
176
     0
290
     0
176
     0
 90
       50
176
     0
 40
0.0
176
     0
 40
1.0
176
     0
 90
        0
176
     0
 62
    18
420
        0
176
     0
 90
       50
176
     0
 90
        3
176
     0
 62
     5
420
      255
176
     0
290
     0
176
     0
 90
       50
176
     0
 90
       50
176
     0
 90
       50
176
     0
290
     0
176
     0
 90
       50
176
     0
 62
   256
176
     0
 40
1.0
176
     0
 90
        2
176
     0
  1
strokes_ogs.tif
176
     0
290
     0
176
     0
 40
1.0
176
     0
 40
1.0
176
     0
1001
ACAD
1000
AcDbSavedByObjectVersion
1070
     0
  0
VISUALSTYLE
  5
33
102
{ACAD_REACTORS
330
2A
102
}
330
2A
100
AcDbVisualStyle
  2

 70
     8
177
     3
291
     0
 70
    58
 90
        2
176
     1
 90
        3
176
     1
 90
        0
176
     1
 90
        2
176
     1
 40
0.6
176
     1
 40
30.0
176
     1
 62
     7
420
 16777215
176
     1
 90
        0
176
     1
 90
        0
176
     1
 62
     7
176
     1
 62
   257
176
     1
 90
        1
176
     1
 90
        1
176
     1
 40
1.0
176
     1
 90
        8
176
     1
 62
   257
176
     1
 40
1.0
176
     1
 90
        1
176
     1
 90
        6
176
     1
 90
        2
176
     1
 62
     7
176
     1
 90
        3
176
     1
 90
        0
176
     1
 90
        0
176
     1
290
     0
176
     1
 90
       13
176
     1
 40
0.0
176
     1
 90
        0
176
     1
290
     0
176
     1
290
     1
176
     1
290
     1
176
     1
290
     0
176
     1
290
     0
176
     1
290
     0
176
     1
290
     0
176
     1
290
     0
176
     1
290
     0
176
     1
 90
       50
176
     1
 40
0.0
176
     1
 40
1.0
176
     1
 90
        0
176
     1
 62
    18
420
        0
176
     1
 90
       50
176
     1
 90
        3
176
     1
 62
     5
420
      255
176
     1
290
     0
176
     1
 90
       50
176
     1
 90
       50
176
     1
 90
       50
176
     1
290
     0
176
     1
 90
       50
176
     1
 62
   256
176
     0
 40
1.0
176
     0
 90
        2
176
     1
  1
strokes_ogs.tif
176
     1
290
     0
176
     1
 40
1.0
176
     1
 40
1.0
176
     1
1001
ACAD
1000
AcDbSavedByObjectVersion
1070
     0
  0
VISUALSTYLE
  5
42
102
{ACAD_REACTORS
330
2A
102
}
330
2A
100
AcDbVisualStyle
  2

 70
    27
177
     3
291
     0
 70
    58
 90
        2
176
     1
 90
        2
176
     1
 90
        1
176
     1
 90
        2
176
     1
 40
0.6
176
     1
 40
30.0
176
     1
 62
     7
420
 16777215
176
     1
 90
        0
176
     1
 90
        4
176
     1
 62
     7
176
     1
 62
   257
176
     1
 90
        1
176
     1
 90
        1
176
     1
 40
1.0
176
     1
 90
        8
176
     1
 62
   257
176
     1
 40
1.0
176
     1
 90
        1
176
     1
 90
        6
176
     1
 90
        2
176
     1
 62
     8
420
  7895160
176
     1
 90
        3
176
     1
 90
        0
176
     1
 90
        0
176
     1
290
     0
176
     1
 90
        5
176
     1
 40
0.0
176
     1
 90
        0
176
     1
290
     0
176
     1
290
     1
176
     1
290
     1
176
     1
290
     0
176
     1
290
     0
176
     1
290
     0
176
     1
290
     0
176
     1
290
     0
176
     1
290
     0
176
     1
 90
       50
176
     1
 40
0.0
176
     1
 40
1.0
176
     1
 90
        0
176
     1
 62
    18
420
        0
176
     1
 90
       50
176
     1
 90
        3
176
     1
 62
     5
420
      255
176
     1
290
     0
176
     1
 90
       50
176
     1
 90
       50
176
     1
 90
       50
176
     1
290
     0
176
     1
 90
       50
176
     1
 62
   256
176
     0
 40
1.0
176
     0
 90
        2
176
     1
  1
strokes_ogs.tif
176
     1
290
     0
176
     1
 40
1.0
176
     1
 40
1.0
176
     1
1001
ACAD
1000
AcDbSavedByObjectVersion
1070
     0
  0
VISUALSTYLE
  5
41
102
{ACAD_REACTORS
330
2A
102
}
330
2A
100
AcDbVisualStyle
  2

 70
    26
177
     3
291
     0
 70
    58
 90
        2
176
     1
 90
        2
176
     1
 90
        1
176
     1
 90
        2
176
     1
 40
0.6
176
     1
 40
30.0
176
     1
 62
     7
420
 16777215
176
     1
 90
        1
176
     1
 90
       10
176
     1
 62
     7
176
     1
 62
   257
176
     1
 90
        2
176
     1
 90
        1
176
     1
 40
1.0
176
     1
 90
        8
176
     1
 62
   257
176
     1
 40
1.0
176
     1
 90
        1
176
     1
 90
        6
176
     1
 90
        2
176
     1
 62
     7
176
     1
 90
        3
176
     1
 90
        0
176
     1
 90
        0
176
     1
290
     0
176
     1
 90
        5
176
     1
 40
0.0
176
     1
 90
        0
176
     1
290
     0
176
     1
290
     1
176
     1
290
     1
176
     1
290
     0
176
     1
290
     0
176
     1
290
     0
176
     1
290
     0
176
     1
290
     0
176
     1
290
     0
176
     1
 90
       50
176
     1
 40
0.0
176
     1
 40
1.0
176
     1
 90
        0
176
     1
 62
    18
420
        0
176
     1
 90
       50
176
     1
 90
        3
176
     1
 62
     5
420
      255
176
     1
290
     0
176
     1
 90
       50
176
     1
 90
       50
176
     1
 90
       50
176
     1
290
     0
176
     1
 90
       50
176
     1
 62
   256
176
     0
 40
1.0
176
     0
 90
        2
176
     1
  1
strokes_ogs.tif
176
     1
290
     0
176
     1
 40
1.0
176
     1
 40
1.0
176
     1
1001
ACAD
1000
AcDbSavedByObjectVersion
1070
     0
  0
VISUALSTYLE
  5
3E
102
{ACAD_REACTORS
330
2A
102
}
330
2A
100
AcDbVisualStyle
  2

 70
    23
177
     3
291
     0
 70
    58
 90
        2
176
     1
 90
        2
176
     1
 90
        3
176
     1
 90
        0
176
     1
 40
0.6
176
     1
 40
30.0
176
     1
 62
     7
420
 16777215
176
     1
 90
        2
176
     1
 90
        2
176
     1
 62
     7
176
     1
 62
     7
176
     1
 90
        1
176
     1
 90
        1
176
     1
 40
40.0
176
     1
 90
        8
176
     1
 62
     7
176
     1
 40
1.0
176
     1
 90
        1
176
     1
 90
        6
176
     1
 90
        2
176
     1
 62
     7
176
     1
 90
        3
176
     1
 90
        0
176
     1
 90
        0
176
     1
290
     0
176
     1
 90
        1
176
     1
 40
0.0
176
     1
 90
        0
176
     1
290
     0
176
     1
290
     1
176
     1
290
     1
176
     1
290
     0
176
     1
290
     0
176
     1
290
     0
176
     1
290
     0
176
     1
290
     0
176
     1
290
     0
176
     1
 90
       50
176
     1
 40
0.0
176
     1
 40
1.0
176
     1
 90
        0
176
     1
 62
    18
420
        0
176
     1
 90
       50
176
     1
 90
        3
176
     1
 62
     5
420
      255
176
     1
290
     0
176
     1
 90
       50
176
     1
 90
       50
176
     1
 90
       50
176
     1
290
     0
176
     1
 90
       50
176
     1
 62
   256
176
     0
 40
1.0
176
     0
 90
        2
176
     1
  1
strokes_ogs.tif
176
     1
290
     0
176
     1
 40
1.0
176
     1
 40
1.0
176
     1
1001
ACAD
1000
AcDbSavedByObjectVersion
1070
     0
  0
VISUALSTYLE
  5
3F
102
{ACAD_REACTORS
330
2A
102
}
330
2A
100
AcDbVisualStyle
  2

 70
    24
177
     3
291
     0
 70
    58
 90
        1
176
     1
 90
        2
176
     1
 90
        2
176
     1
 90
        0
176
     1
 40
0.6
176
     1
 40
30.0
176
     1
 62
     7
420
 16777215
176
     1
 90
        2
176
     1
 90
        2
176
     1
 62
     7
176
     1
 62
     7
176
     1
 90
        1
176
     1
 90
        1
176
     1
 40
40.0
176
     1
 90
       11
176
     1
 62
     7
176
     1
 40
1.0
176
     1
 90
        1
176
     1
 90
        6
176
     1
 90
        2
176
     1
 62
     7
176
     1
 90
        6
176
     1
 90
        0
176
     1
 90
        0
176
     1
290
     0
176
     1
 90
        1
176
     1
 40
0.0
176
     1
 90
        0
176
     1
290
     0
176
     1
290
     1
176
     1
290
     1
176
     1
290
     0
176
     1
290
     0
176
     1
290
     0
176
     1
290
     0
176
     1
290
     0
176
     1
290
     0
176
     1
 90
       50
176
     1
 40
0.0
176
     1
 40
1.0
176
     1
 90
        0
176
     1
 62
    18
420
        0
176
     1
 90
       50
176
     1
 90
        3
176
     1
 62
     5
420
      255
176
     1
290
     0
176
     1
 90
       50
176
     1
 90
       50
176
     1
 90
       50
176
     1
290
     0
176
     1
 90
       50
176
     1
 62
   256
176
     0
 40
1.0
176
     0
 90
        2
176
     1
  1
strokes_ogs.tif
176
     1
290
     0
176
     1
 40
1.0
176
     1
 40
1.0
176
     1
1001
ACAD
1000
AcDbSavedByObjectVersion
1070
     0
  0
VISUALSTYLE
  5
37
102
{ACAD_REACTORS
330
2A
102
}
330
2A
100
AcDbVisualStyle
  2

 70
    13
177
     3
291
     1
 70
    58
 90
        2
176
     1
 90
        2
176
     1
 90
        0
176
     1
 90
        0
176
     1
 40
0.6
176
     1
 40
30.0
176
     1
 62
     7
420
 16777215
176
     1
 90
        1
176
     1
 90
        4
176
     1
 62
     7
176
     1
 62
   257
176
     1
 90
        1
176
     1
 90
        1
176
     1
 40
1.0
176
     1
 90
       12
176
     1
 62
     7
176
     1
 40
1.0
176
     1
 90
        1
176
     1
 90
        6
176
     1
 90
        2
176
     1
 62
     7
176
     1
 90
        5
176
     1
 90
        0
176
     1
 90
        0
176
     1
290
     0
176
     1
 90
        1
176
     1
 40
0.0
176
     1
 90
        0
176
     1
290
     0
176
     1
290
     1
176
     1
290
     1
176
     1
290
     0
176
     1
290
     0
176
     1
290
     0
176
     1
290
     0
176
     1
290
     0
176
     1
290
     0
176
     1
 90
       50
176
     1
 40
0.0
176
     1
 40
1.0
176
     1
 90
        0
176
     1
 62
    18
420
        0
176
     1
 90
       50
176
     1
 90
        3
176
     1
 62
     5
420
      255
176
     1
290
     0
176
     1
 90
       50
176
     1
 90
       50
176
     1
 90
       50
176
     1
290
     0
176
     1
 90
       50
176
     1
 62
   256
176
     0
 40
1.0
176
     0
 90
        2
176
     1
  1
strokes_ogs.tif
176
     1
290
     0
176
     1
 40
1.0
176
     1
 40
1.0
176
     1
1001
ACAD
1000
AcDbSavedByObjectVersion
1070
     0
  0
VISUALSTYLE
  5
30
102
{ACAD_REACTORS
330
2A
102
}
330
2A
100
AcDbVisualStyle
  2

 70
     5
177
     3
291
     0
 70
    58
 90
        0
176
     1
 90
        2
176
     1
 90
        0
176
     1
 90
        0
176
     1
 40
0.6
176
     1
 40
30.0
176
     1
 62
     7
420
 16777215
176
     1
 90
        1
176
     1
 90
        4
176
     1
 62
     7
176
     1
 62
   257
176
     1
 90
        1
176
     1
 90
        1
176
     1
 40
1.0
176
     1
 90
        0
176
     1
 62
   257
176
     1
 40
1.0
176
     1
 90
        1
176
     1
 90
        6
176
     1
 90
        2
176
     1
 62
     7
176
     1
 90
        3
176
     1
 90
        0
176
     1
 90
        0
176
     1
290
     0
176
     1
 90
        1
176
     1
 40
0.0
176
     1
 90
        0
176
     1
290
     0
176
     1
290
     1
176
     1
290
     1
176
     1
290
     0
176
     1
290
     0
176
     1
290
     0
176
     1
290
     0
176
     1
290
     0
176
     1
290
     0
176
     1
 90
       50
176
     1
 40
0.0
176
     1
 40
1.0
176
     1
 90
        0
176
     1
 62
    18
420
        0
176
     1
 90
       50
176
     1
 90
        3
176
     1
 62
     5
420
      255
176
     1
290
     0
176
     1
 90
       50
176
     1
 90
       50
176
     1
 90
       50
176
     1
290
     0
176
     1
 90
       50
176
     1
 62
   256
176
     0
 40
1.0
176
     0
 90
        2
176
     1
  1
strokes_ogs.tif
176
     1
290
     0
176
     1
 40
1.0
176
     1
 40
1.0
176
     1
1001
ACAD
1000
AcDbSavedByObjectVersion
1070
     0
  0
VISUALSTYLE
  5
40
102
{ACAD_REACTORS
330
2A
102
}
330
2A
100
AcDbVisualStyle
  2

 70
    25
177
     3
291
     0
 70
    58
 90
        2
176
     1
 90
        2
176
     1
 90
        1
176
     1
 90
        1
176
     1
 40
0.5
176
     1
 40
30.0
176
     1
 62
     7
420
 16777215
176
     1
 90
        1
176
     1
 90
        0
176
     1
 62
     7
176
     1
 62
   257
176
     1
 90
        1
176
     1
 90
        1
176
     1
 40
1.0
176
     1
 90
        8
176
     1
 62
     7
176
     1
 40
1.0
176
     1
 90
        1
176
     1
 90
        6
176
     1
 90
        2
176
     1
 62
     7
176
     1
 90
        3
176
     1
 90
        0
176
     1
 90
        0
176
     1
290
     0
176
     1
 90
       13
176
     1
 40
0.0
176
     1
 90
        0
176
     1
290
     0
176
     1
290
     1
176
     1
290
     1
176
     1
290
     0
176
     1
290
     0
176
     1
290
     0
176
     1
290
     0
176
     1
290
     0
176
     1
290
     0
176
     1
 90
       50
176
     1
 40
0.0
176
     1
 40
1.0
176
     1
 90
        0
176
     1
 62
    18
420
        0
176
     1
 90
       50
176
     1
 90
        3
176
     1
 62
     5
420
      255
176
     1
290
     0
176
     1
 90
       50
176
     1
 90
       50
176
     1
 90
       50
176
     1
290
     0
176
     1
 90
       50
176
     1
 62
   256
176
     0
 40
1.0
176
     0
 90
        2
176
     1
  1
strokes_ogs.tif
176
     1
290
     0
176
     1
 40
1.0
176
     1
 40
1.0
176
     1
1001
ACAD
1000
AcDbSavedByObjectVersion
1070
     0
  0
DICTIONARYVAR
  5
A8
102
{ACAD_REACTORS
330
A7
102
}
330
A7
100
DictionaryVariables
280
     0
  1
1:1
  0
DICTIONARYVAR
  5
E9
102
{ACAD_REACTORS
330
A7
102
}
330
A7
100
DictionaryVariables
280
     0
  1
STANDARD
  0
DICTIONARYVAR
  5
E8
102
{ACAD_REACTORS
330
A7
102
}
330
A7
100
DictionaryVariables
280
     0
  1
STANDARD
  0
DICTIONARYVAR
  5
12E
102
{ACAD_REACTORS
330
A7
102
}
330
A7
100
DictionaryVariables
280
     0
  1
Imperial24
  0
DICTIONARYVAR
  5
12F
102
{ACAD_REACTORS
330
A7
102
}
330
A7
100
DictionaryVariables
280
     0
  1
Imperial24
  0
DICTIONARYVAR
  5
131
102
{ACAD_REACTORS
330
A7
102
}
330
A7
100
DictionaryVariables
280
     0
  1
1
  0
DICTIONARYVAR
  5
132
102
{ACAD_REACTORS
330
A7
102
}
330
A7
100
DictionaryVariables
280
     0
  1
15
  0
DICTIONARYVAR
  5
130
102
{ACAD_REACTORS
330
A7
102
}
330
A7
100
DictionaryVariables
280
     0
  1
0
  0
DICTIONARYVAR
  5
A9
102
{ACAD_REACTORS
330
A7
102
}
330
A7
100
DictionaryVariables
280
     0
  1
1
  0
DICTIONARY
  5
DD
330
45
100
AcDbDictionary
280
     1
281
     1
  3
ACAD_XREC_ROUNDTRIP
360
DE
  0
DICTIONARY
  5
DB
330
44
100
AcDbDictionary
280
     1
281
     1
  3
ACAD_XREC_ROUNDTRIP
360
DC
  0
DICTIONARY
  5
DF
330
46
100
AcDbDictionary
280
     1
281
     1
  3
ACAD_XREC_ROUNDTRIP
360
E0
  0
DICTIONARY
  5
E1
330
6A
100
AcDbDictionary
280
     1
281
     1
  3
ACAD_ROUNDTRIP_2008_TABLESTYLE_CELLSTYLEMAP
360
134
  0
XRECORD
  5
DE
102
{ACAD_REACTORS
330
DD
102
}
330
DD
100
AcDbXrecord
280
     1
102
MATERIAL
148
0.0
149
0.0
149
0.0
 93
        0
 94
      127
282
     0
 72
     1
 77
     1
171
     1
175
     1
179
     1
273
     0
  0
XRECORD
  5
DC
102
{ACAD_REACTORS
330
DB
102
}
330
DB
100
AcDbXrecord
280
     1
102
MATERIAL
148
0.0
149
0.0
149
0.0
 93
        0
 94
      127
282
     0
 72
     1
 77
     1
171
     1
175
     1
179
     1
273
     0
  0
XRECORD
  5
E0
102
{ACAD_REACTORS
330
DF
102
}
330
DF
100
AcDbXrecord
280
     1
102
MATERIAL
148
0.0
149
0.0
149
0.0
 93
        0
 94
      127
282
     0
 72
     1
 77
     1
171
     1
175
     1
179
     1
273
     0
  0
CELLSTYLEMAP
  5
134
102
{ACAD_REACTORS
330
E1
102
}
330
E1
100
AcDbCellStyleMap
 90
        3
300
CELLSTYLE
  1
TABLEFORMAT_BEGIN
 90
        5
170
     1
 91
        0
 92
    32768
 62
   257
 93
        1
300
CONTENTFORMAT
  1
CONTENTFORMAT_BEGIN
 90
        0
 91
        0
 92
        4
 93
        0
300

 40
0.0
140
1.0
 94
        5
 62
     0
340
11
144
0.25
309
CONTENTFORMAT_END
171
     1
301
MARGIN
  1
CELLMARGIN_BEGIN
 40
0.06
 40
0.06
 40
0.06
 40
0.06
 40
0.18
 40
0.18
309
CELLMARGIN_END
 94
        6
 95
        1
302
GRIDFORMAT
  1
GRIDFORMAT_BEGIN
 90
        0
 91
        1
 62
     0
 92
       -2
340
14
 93
        0
 40
0.045
309
GRIDFORMAT_END
 95
        2
302
GRIDFORMAT
  1
GRIDFORMAT_BEGIN
 90
        0
 91
        1
 62
     0
 92
       -2
340
14
 93
        0
 40
0.045
309
GRIDFORMAT_END
 95
        4
302
GRIDFORMAT
  1
GRIDFORMAT_BEGIN
 90
        0
 91
        1
 62
     0
 92
       -2
340
14
 93
        0
 40
0.045
309
GRIDFORMAT_END
 95
        8
302
GRIDFORMAT
  1
GRIDFORMAT_BEGIN
 90
        0
 91
        1
 62
     0
 92
       -2
340
14
 93
        0
 40
0.045
309
GRIDFORMAT_END
 95
       16
302
GRIDFORMAT
  1
GRIDFORMAT_BEGIN
 90
        0
 91
        1
 62
     0
 92
       -2
340
14
 93
        0
 40
0.045
309
GRIDFORMAT_END
 95
       32
302
GRIDFORMAT
  1
GRIDFORMAT_BEGIN
 90
        0
 91
        1
 62
     0
 92
       -2
340
14
 93
        0
 40
0.045
309
GRIDFORMAT_END
309
TABLEFORMAT_END
  1
CELLSTYLE_BEGIN
 90
        1
 91
        1
300
_TITLE
309
CELLSTYLE_END
300
CELLSTYLE
  1
TABLEFORMAT_BEGIN
 90
        5
170
     1
 91
        0
 92
        0
 62
   257
 93
        1
300
CONTENTFORMAT
  1
CONTENTFORMAT_BEGIN
 90
        0
 91
        0
 92
        4
 93
        0
300

 40
0.0
140
1.0
 94
        5
 62
     0
340
11
144
0.18
309
CONTENTFORMAT_END
171
     1
301
MARGIN
  1
CELLMARGIN_BEGIN
 40
0.06
 40
0.06
 40
0.06
 40
0.06
 40
0.18
 40
0.18
309
CELLMARGIN_END
 94
        6
 95
        1
302
GRIDFORMAT
  1
GRIDFORMAT_BEGIN
 90
        0
 91
        1
 62
     0
 92
       -2
340
14
 93
        0
 40
0.045
309
GRIDFORMAT_END
 95
        2
302
GRIDFORMAT
  1
GRIDFORMAT_BEGIN
 90
        0
 91
        1
 62
     0
 92
       -2
340
14
 93
        0
 40
0.045
309
GRIDFORMAT_END
 95
        4
302
GRIDFORMAT
  1
GRIDFORMAT_BEGIN
 90
        0
 91
        1
 62
     0
 92
       -2
340
14
 93
        0
 40
0.045
309
GRIDFORMAT_END
 95
        8
302
GRIDFORMAT
  1
GRIDFORMAT_BEGIN
 90
        0
 91
        1
 62
     0
 92
       -2
340
14
 93
        0
 40
0.045
309
GRIDFORMAT_END
 95
       16
302
GRIDFORMAT
  1
GRIDFORMAT_BEGIN
 90
        0
 91
        1
 62
     0
 92
       -2
340
14
 93
        0
 40
0.045
309
GRIDFORMAT_END
 95
       32
302
GRIDFORMAT
  1
GRIDFORMAT_BEGIN
 90
        0
 91
        1
 62
     0
 92
       -2
340
14
 93
        0
 40
0.045
309
GRIDFORMAT_END
309
TABLEFORMAT_END
  1
CELLSTYLE_BEGIN
 90
        2
 91
        1
300
_HEADER
309
CELLSTYLE_END
300
CELLSTYLE
  1
TABLEFORMAT_BEGIN
 90
        5
170
     1
 91
        0
 92
        0
 62
   257
 93
        1
300
CONTENTFORMAT
  1
CONTENTFORMAT_BEGIN
 90
        0
 91
        0
 92
        4
 93
        0
300

 40
0.0
140
1.0
 94
        2
 62
     0
340
11
144
0.18
309
CONTENTFORMAT_END
171
     1
301
MARGIN
  1
CELLMARGIN_BEGIN
 40
0.06
 40
0.06
 40
0.06
 40
0.06
 40
0.18
 40
0.18
309
CELLMARGIN_END
 94
        6
 95
        1
302
GRIDFORMAT
  1
GRIDFORMAT_BEGIN
 90
        0
 91
        1
 62
     0
 92
       -2
340
14
 93
        0
 40
0.045
309
GRIDFORMAT_END
 95
        2
302
GRIDFORMAT
  1
GRIDFORMAT_BEGIN
 90
        0
 91
        1
 62
     0
 92
       -2
340
14
 93
        0
 40
0.045
309
GRIDFORMAT_END
 95
        4
302
GRIDFORMAT
  1
GRIDFORMAT_BEGIN
 90
        0
 91
        1
 62
     0
 92
       -2
340
14
 93
        0
 40
0.045
309
GRIDFORMAT_END
 95
        8
302
GRIDFORMAT
  1
GRIDFORMAT_BEGIN
 90
        0
 91
        1
 62
     0
 92
       -2
340
14
 93
        0
 40
0.045
309
GRIDFORMAT_END
 95
       16
302
GRIDFORMAT
  1
GRIDFORMAT_BEGIN
 90
        0
 91
        1
 62
     0
 92
       -2
340
14
 93
        0
 40
0.045
309
GRIDFORMAT_END
 95
       32
302
GRIDFORMAT
  1
GRIDFORMAT_BEGIN
 90
        0
 91
        1
 62
     0
 92
       -2
340
14
 93
        0
 40
0.045
309
GRIDFORMAT_END
309
TABLEFORMAT_END
  1
CELLSTYLE_BEGIN
 90
        3
 91
        2
300
_DATA
309
CELLSTYLE_END
  0
ENDSEC
  0
EOF
