  0
SECTION
  2
HEADER
  9
$ACADVER
  1
AC1032
  9
$ACADMAINTVER
 90
      155
  9
$DWGCODEPAGE
  3
ANSI_1252
  9
$LASTSAVEDBY
  1
21961517
  9
$REQUIREDVERSIONS
160
                 0
  9
$INSBASE
 10
0.0
 20
0.0
 30
0.0
  9
$EXTMIN
 10
-81.27889148880493
 20
35.67543711658775
 30
-0.0000000000002223
  9
$EXTMAX
 10
59.43749999999985
 20
163.3999586823081
 30
0.000000000000036
  9
$LIMMIN
 10
0.0
 20
0.0
  9
$LIMMAX
 10
12.0
 20
9.0
  9
$ORTHOMODE
 70
     0
  9
$REGENMODE
 70
     1
  9
$FILLMODE
 70
     1
  9
$QTEXTMODE
 70
     0
  9
$MIRRTEXT
 70
     1
  9
$LTSCALE
 40
1.0
  9
$ATTMODE
 70
     1
  9
$TEXTSIZE
 40
0.2
  9
$TRACEWID
 40
0.05
  9
$TEXTSTYLE
  7
Standard
  9
$CLAYER
  8
0.1mm kerf$Mid
  9
$CELTYPE
  6
ByLayer
  9
$CECOLOR
 62
   256
  9
$CELTSCALE
 40
1.0
  9
$DISPSILH
 70
     0
  9
$DIMSCALE
 40
1.0
  9
$DIMASZ
 40
0.18
  9
$DIMEXO
 40
0.0625
  9
$DIMDLI
 40
0.38
  9
$DIMRND
 40
0.0
  9
$DIMDLE
 40
0.0
  9
$DIMEXE
 40
0.18
  9
$DIMTP
 40
0.0
  9
$DIMTM
 40
0.0
  9
$DIMTXT
 40
0.18
  9
$DIMCEN
 40
0.09
  9
$DIMTSZ
 40
0.0
  9
$DIMTOL
 70
     0
  9
$DIMLIM
 70
     0
  9
$DIMTIH
 70
     1
  9
$DIMTOH
 70
     1
  9
$DIMSE1
 70
     0
  9
$DIMSE2
 70
     0
  9
$DIMTAD
 70
     0
  9
$DIMZIN
 70
     0
  9
$DIMBLK
  1

  9
$DIMASO
 70
     1
  9
$DIMSHO
 70
     1
  9
$DIMPOST
  1

  9
$DIMAPOST
  1

  9
$DIMALT
 70
     0
  9
$DIMALTD
 70
     2
  9
$DIMALTF
 40
25.4
  9
$DIMLFAC
 40
1.0
  9
$DIMTOFL
 70
     0
  9
$DIMTVP
 40
0.0
  9
$DIMTIX
 70
     0
  9
$DIMSOXD
 70
     0
  9
$DIMSAH
 70
     0
  9
$DIMBLK1
  1

  9
$DIMBLK2
  1

  9
$DIMSTYLE
  2
Standard
  9
$DIMCLRD
 70
     0
  9
$DIMCLRE
 70
     0
  9
$DIMCLRT
 70
     0
  9
$DIMTFAC
 40
1.0
  9
$DIMGAP
 40
0.09
  9
$DIMJUST
 70
     0
  9
$DIMSD1
 70
     0
  9
$DIMSD2
 70
     0
  9
$DIMTOLJ
 70
     1
  9
$DIMTZIN
 70
     0
  9
$DIMALTZ
 70
     0
  9
$DIMALTTZ
 70
     0
  9
$DIMUPT
 70
     0
  9
$DIMDEC
 70
     4
  9
$DIMTDEC
 70
     4
  9
$DIMALTU
 70
     2
  9
$DIMALTTD
 70
     2
  9
$DIMTXSTY
  7
Standard
  9
$DIMAUNIT
 70
     0
  9
$DIMADEC
 70
     0
  9
$DIMALTRND
 40
0.0
  9
$DIMAZIN
 70
     0
  9
$DIMDSEP
 70
    46
  9
$DIMATFIT
 70
     3
  9
$DIMFRAC
 70
     0
  9
$DIMLDRBLK
  1

  9
$DIMLUNIT
 70
     2
  9
$DIMLWD
 70
    -2
  9
$DIMLWE
 70
    -2
  9
$DIMTMOVE
 70
     2
  9
$DIMFXL
 40
1.0
  9
$DIMFXLON
 70
     0
  9
$DIMJOGANG
 40
0.7853981633974483
  9
$DIMTFILL
 70
     0
  9
$DIMTFILLCLR
 70
     0
  9
$DIMARCSYM
 70
     0
  9
$DIMLTYPE
  6

  9
$DIMLTEX1
  6

  9
$DIMLTEX2
  6

  9
$DIMTXTDIRECTION
 70
     0
  9
$LUNITS
 70
     2
  9
$LUPREC
 70
     3
  9
$SKETCHINC
 40
0.1
  9
$FILLETRAD
 40
0.5
  9
$AUNITS
 70
     0
  9
$AUPREC
 70
     0
  9
$MENU
  1
.
  9
$ELEVATION
 40
0.0
  9
$PELEVATION
 40
0.0
  9
$THICKNESS
 40
0.0
  9
$LIMCHECK
 70
     0
  9
$CHAMFERA
 40
0.0
  9
$CHAMFERB
 40
0.0
  9
$CHAMFERC
 40
0.0
  9
$CHAMFERD
 40
0.0
  9
$SKPOLY
 70
     0
  9
$TDCREATE
 40
2459031.837928241
  9
$TDUCREATE
 40
2459031.504596135
  9
$TDUPDATE
 40
2459043.543634259
  9
$TDUUPDATE
 40
2459043.210300926
  9
$TDINDWG
 40
0.0004282523
  9
$TDUSRTIMER
 40
0.0004282523
  9
$USRTIMER
 70
     1
  9
$ANGBASE
 50
0.0
  9
$ANGDIR
 70
     0
  9
$PDMODE
 70
     0
  9
$PDSIZE
 40
0.0
  9
$PLINEWID
 40
0.0
  9
$SPLFRAME
 70
     0
  9
$SPLINETYPE
 70
     6
  9
$SPLINESEGS
 70
     8
  9
$HANDSEED
  5
F0
  9
$SURFTAB1
 70
     6
  9
$SURFTAB2
 70
     6
  9
$SURFTYPE
 70
     6
  9
$SURFU
 70
     6
  9
$SURFV
 70
     6
  9
$UCSBASE
  2

  9
$UCSNAME
  2

  9
$UCSORG
 10
0.0
 20
0.0
 30
0.0
  9
$UCSXDIR
 10
1.0
 20
0.0
 30
0.0
  9
$UCSYDIR
 10
0.0
 20
1.0
 30
0.0
  9
$UCSORTHOREF
  2

  9
$UCSORTHOVIEW
 70
     0
  9
$UCSORGTOP
 10
0.0
 20
0.0
 30
0.0
  9
$UCSORGBOTTOM
 10
0.0
 20
0.0
 30
0.0
  9
$UCSORGLEFT
 10
0.0
 20
0.0
 30
0.0
  9
$UCSORGRIGHT
 10
0.0
 20
0.0
 30
0.0
  9
$UCSORGFRONT
 10
0.0
 20
0.0
 30
0.0
  9
$UCSORGBACK
 10
0.0
 20
0.0
 30
0.0
  9
$PUCSBASE
  2

  9
$PUCSNAME
  2

  9
$PUCSORG
 10
0.0
 20
0.0
 30
0.0
  9
$PUCSXDIR
 10
1.0
 20
0.0
 30
0.0
  9
$PUCSYDIR
 10
0.0
 20
1.0
 30
0.0
  9
$PUCSORTHOREF
  2

  9
$PUCSORTHOVIEW
 70
     0
  9
$PUCSORGTOP
 10
0.0
 20
0.0
 30
0.0
  9
$PUCSORGBOTTOM
 10
0.0
 20
0.0
 30
0.0
  9
$PUCSORGLEFT
 10
0.0
 20
0.0
 30
0.0
  9
$PUCSORGRIGHT
 10
0.0
 20
0.0
 30
0.0
  9
$PUCSORGFRONT
 10
0.0
 20
0.0
 30
0.0
  9
$PUCSORGBACK
 10
0.0
 20
0.0
 30
0.0
  9
$USERI1
 70
     0
  9
$USERI2
 70
     0
  9
$USERI3
 70
     0
  9
$USERI4
 70
     0
  9
$USERI5
 70
     0
  9
$USERR1
 40
0.0
  9
$USERR2
 40
0.0
  9
$USERR3
 40
0.0
  9
$USERR4
 40
0.0
  9
$USERR5
 40
0.0
  9
$WORLDVIEW
 70
     1
  9
$SHADEDGE
 70
     3
  9
$SHADEDIF
 70
    70
  9
$TILEMODE
 70
     1
  9
$MAXACTVP
 70
    64
  9
$PINSBASE
 10
0.0
 20
0.0
 30
0.0
  9
$PLIMCHECK
 70
     0
  9
$PEXTMIN
 10
1.000000000000000E+20
 20
1.000000000000000E+20
 30
1.000000000000000E+20
  9
$PEXTMAX
 10
-1.000000000000000E+20
 20
-1.000000000000000E+20
 30
-1.000000000000000E+20
  9
$PLIMMIN
 10
0.0
 20
0.0
  9
$PLIMMAX
 10
12.0
 20
9.0
  9
$UNITMODE
 70
     0
  9
$VISRETAIN
 70
     1
  9
$PLINEGEN
 70
     0
  9
$PSLTSCALE
 70
     1
  9
$TREEDEPTH
 70
  3020
  9
$CMLSTYLE
  2
Standard
  9
$CMLJUST
 70
     0
  9
$CMLSCALE
 40
1.0
  9
$PROXYGRAPHICS
 70
     1
  9
$MEASUREMENT
 70
     0
  9
$CELWEIGHT
370
    -1
  9
$ENDCAPS
280
     0
  9
$JOINSTYLE
280
     0
  9
$LWDISPLAY
290
     0
  9
$INSUNITS
 70
     4
  9
$HYPERLINKBASE
  1

  9
$STYLESHEET
  1

  9
$XEDIT
290
     1
  9
$CEPSNTYPE
380
     0
  9
$PSTYLEMODE
290
     1
  9
$FINGERPRINTGUID
  2
{F56305F4-FF82-4C39-8637-80E041EB108C}
  9
$VERSIONGUID
  2
{002BAE82-38F1-1D4C-B354-C8476F74BFC1}
  9
$EXTNAMES
290
     1
  9
$PSVPSCALE
 40
0.0
  9
$OLESTARTUP
290
     0
  9
$SORTENTS
280
   127
  9
$INDEXCTL
280
     0
  9
$HIDETEXT
280
     1
  9
$XCLIPFRAME
280
     2
  9
$HALOGAP
280
     0
  9
$OBSCOLOR
 70
   257
  9
$OBSLTYPE
280
     0
  9
$INTERSECTIONDISPLAY
280
     0
  9
$INTERSECTIONCOLOR
 70
   257
  9
$DIMASSOC
280
     2
  9
$PROJECTNAME
  1

  9
$CAMERADISPLAY
290
     0
  9
$LENSLENGTH
 40
50.0
  9
$CAMERAHEIGHT
 40
0.0
  9
$STEPSPERSEC
 40
2.0
  9
$STEPSIZE
 40
6.0
  9
$3DDWFPREC
 40
2.0
  9
$PSOLWIDTH
 40
0.25
  9
$PSOLHEIGHT
 40
4.0
  9
$LOFTANG1
 40
1.570796326794896
  9
$LOFTANG2
 40
1.570796326794896
  9
$LOFTMAG1
 40
0.0
  9
$LOFTMAG2
 40
0.0
  9
$LOFTPARAM
 70
     7
  9
$LOFTNORMALS
280
     1
  9
$LATITUDE
 40
37.795
  9
$LONGITUDE
 40
-122.394
  9
$NORTHDIRECTION
 40
0.0
  9
$TIMEZONE
 70
 -8000
  9
$LIGHTGLYPHDISPLAY
280
     1
  9
$TILEMODELIGHTSYNCH
280
     1
  9
$CMATERIAL
347
44
  9
$SOLIDHIST
280
     0
  9
$SHOWHIST
280
     1
  9
$DWFFRAME
280
     2
  9
$DGNFRAME
280
     0
  9
$REALWORLDSCALE
290
     1
  9
$INTERFERECOLOR
 62
     1
  9
$INTERFEREOBJVS
345
33
  9
$INTERFEREVPVS
346
30
  9
$CSHADOW
280
     0
  9
$SHADOWPLANELOCATION
 40
0.0
  0
ENDSEC
  0
SECTION
  2
CLASSES
  0
CLASS
  1
ACDBDICTIONARYWDFLT
  2
AcDbDictionaryWithDefault
  3
ObjectDBX Classes
 90
        0
 91
        1
280
     0
281
     0
  0
CLASS
  1
VISUALSTYLE
  2
AcDbVisualStyle
  3
ObjectDBX Classes
 90
     4095
 91
       24
280
     0
281
     0
  0
CLASS
  1
MATERIAL
  2
AcDbMaterial
  3
ObjectDBX Classes
 90
     1153
 91
        3
280
     0
281
     0
  0
CLASS
  1
SCALE
  2
AcDbScale
  3
ObjectDBX Classes
 90
     1153
 91
       33
280
     0
281
     0
  0
CLASS
  1
TABLESTYLE
  2
AcDbTableStyle
  3
ObjectDBX Classes
 90
     4095
 91
        1
280
     0
281
     0
  0
CLASS
  1
MLEADERSTYLE
  2
AcDbMLeaderStyle
  3
ACDB_MLEADERSTYLE_CLASS
 90
     4095
 91
        1
280
     0
281
     0
  0
CLASS
  1
SUN
  2
AcDbSun
  3
SCENEOE
 90
     1153
 91
        0
280
     0
281
     0
  0
CLASS
  1
DICTIONARYVAR
  2
AcDbDictionaryVar
  3
ObjectDBX Classes
 90
        0
 91
       10
280
     0
281
     0
  0
CLASS
  1
CELLSTYLEMAP
  2
AcDbCellStyleMap
  3
ObjectDBX Classes
 90
     1152
 91
        2
280
     0
281
     0
  0
CLASS
  1
ACDBSECTIONVIEWSTYLE
  2
AcDbSectionViewStyle
  3
ObjectDBX Classes
 90
     1025
 91
        1
280
     0
281
     0
  0
CLASS
  1
ACDBDETAILVIEWSTYLE
  2
AcDbDetailViewStyle
  3
ObjectDBX Classes
 90
     1025
 91
        1
280
     0
281
     0
  0
ENDSEC
  0
SECTION
  2
TABLES
  0
TABLE
  2
VPORT
  5
8
330
0
100
AcDbSymbolTable
 70
     1
  0
VPORT
  5
29
330
8
100
AcDbSymbolTableRecord
100
AcDbViewportTableRecord
  2
*Active
 70
     0
 10
0.0
 20
0.0
 11
1.0
 21
1.0
 12
123.3345845033575
 22
97.6818426765859
 13
0.0
 23
0.0
 14
0.5
 24
0.5
 15
0.5
 25
0.5
 16
0.0
 26
0.0
 36
1.0
 17
0.0
 27
0.0
 37
0.0
 40
208.3214686701188
 41
2.305925030229746
 42
50.0
 43
0.0
 44
0.0
 50
0.0
 51
0.0
 71
     0
 72
   100
 73
     1
 74
     3
 75
     0
 76
     0
 77
     0
 78
     0
281
     0
 65
     1
110
0.0
120
0.0
130
0.0
111
1.0
121
0.0
131
0.0
112
0.0
122
1.0
132
0.0
 79
     0
146
0.0
348
2F
 60
     3
 61
     5
292
     1
282
     1
141
0.0
142
0.0
 63
   250
421
  3355443
1001
ACAD_NAV_VCDISPLAY
1070
     3
  0
ENDTAB
  0
TABLE
  2
LTYPE
  5
5
330
0
100
AcDbSymbolTable
 70
     1
  0
LTYPE
  5
14
330
5
100
AcDbSymbolTableRecord
100
AcDbLinetypeTableRecord
  2
ByBlock
 70
     0
  3

 72
    65
 73
     0
 40
0.0
  0
LTYPE
  5
15
330
5
100
AcDbSymbolTableRecord
100
AcDbLinetypeTableRecord
  2
ByLayer
 70
     0
  3

 72
    65
 73
     0
 40
0.0
  0
LTYPE
  5
16
330
5
100
AcDbSymbolTableRecord
100
AcDbLinetypeTableRecord
  2
Continuous
 70
     0
  3
Solid line
 72
    65
 73
     0
 40
0.0
  0
ENDTAB
  0
TABLE
  2
LAYER
  5
2
330
0
100
AcDbSymbolTable
 70
     2
  0
LAYER
  5
10
102
{ACAD_XDICTIONARY
360
E4
102
}
330
2
100
AcDbSymbolTableRecord
100
AcDbLayerTableRecord
  2
0
 70
     0
 62
     7
  6
Continuous
370
    -3
390
F
347
46
348
0
  0
LAYER
  5
6E
102
{ACAD_XDICTIONARY
360
E6
102
}
330
2
100
AcDbSymbolTableRecord
100
AcDbLayerTableRecord
  2
0.1mm kerf$Mid
 70
     0
 62
    18
420
        0
  6
Continuous
370
    -3
390
F
347
46
348
0
  0
ENDTAB
  0
TABLE
  2
STYLE
  5
3
330
0
100
AcDbSymbolTable
 70
     1
  0
STYLE
  5
11
330
3
100
AcDbSymbolTableRecord
100
AcDbTextStyleTableRecord
  2
Standard
 70
     0
 40
0.0
 41
1.0
 50
0.0
 71
     0
 42
0.2
  3
txt
  4

  0
ENDTAB
  0
TABLE
  2
VIEW
  5
6
330
0
100
AcDbSymbolTable
 70
     0
  0
ENDTAB
  0
TABLE
  2
UCS
  5
7
330
0
100
AcDbSymbolTable
 70
     0
  0
ENDTAB
  0
TABLE
  2
APPID
  5
9
330
0
100
AcDbSymbolTable
 70
     3
  0
APPID
  5
12
330
9
100
AcDbSymbolTableRecord
100
AcDbRegAppTableRecord
  2
ACAD
 70
     0
  0
APPID
  5
C1
330
9
100
AcDbSymbolTableRecord
100
AcDbRegAppTableRecord
  2
ACAD_MLEADERVER
 70
     0
  0
APPID
  5
ED
330
9
100
AcDbSymbolTableRecord
100
AcDbRegAppTableRecord
  2
ACAD_NAV_VCDISPLAY
 70
     0
  0
ENDTAB
  0
TABLE
  2
DIMSTYLE
  5
A
330
0
100
AcDbSymbolTable
 70
     1
100
AcDbDimStyleTable
 71
     0
  0
DIMSTYLE
105
27
330
A
100
AcDbSymbolTableRecord
100
AcDbDimStyleTableRecord
  2
Standard
 70
     0
340
11
  0
ENDTAB
  0
TABLE
  2
BLOCK_RECORD
  5
1
330
0
100
AcDbSymbolTable
 70
     1
  0
BLOCK_RECORD
  5
1F
330
1
100
AcDbSymbolTableRecord
100
AcDbBlockTableRecord
  2
*Model_Space
340
22
 70
     0
280
     1
281
     0
  0
BLOCK_RECORD
  5
1B
330
1
100
AcDbSymbolTableRecord
100
AcDbBlockTableRecord
  2
*Paper_Space
340
1E
 70
     0
280
     1
281
     0
  0
BLOCK_RECORD
  5
23
330
1
100
AcDbSymbolTableRecord
100
AcDbBlockTableRecord
  2
*Paper_Space0
340
26
 70
     0
280
     1
281
     0
  0
ENDTAB
  0
ENDSEC
  0
SECTION
  2
BLOCKS
  0
BLOCK
  5
20
330
1F
100
AcDbEntity
  8
0
100
AcDbBlockBegin
  2
*Model_Space
 70
     0
 10
0.0
 20
0.0
 30
0.0
  3
*Model_Space
  1

  0
ENDBLK
  5
21
330
1F
100
AcDbEntity
  8
0
100
AcDbBlockEnd
  0
BLOCK
  5
1C
330
1B
100
AcDbEntity
 67
     1
  8
0
100
AcDbBlockBegin
  2
*Paper_Space
 70
     0
 10
0.0
 20
0.0
 30
0.0
  3
*Paper_Space
  1

  0
ENDBLK
  5
1D
330
1B
100
AcDbEntity
 67
     1
  8
0
100
AcDbBlockEnd
  0
BLOCK
  5
24
330
23
100
AcDbEntity
 67
     1
  8
0
100
AcDbBlockBegin
  2
*Paper_Space0
 70
     0
 10
0.0
 20
0.0
 30
0.0
  3
*Paper_Space0
  1

  0
ENDBLK
  5
25
330
23
100
AcDbEntity
 67
     1
  8
0
100
AcDbBlockEnd
  0
ENDSEC
  0
SECTION
  2
ENTITIES
  0
LWPOLYLINE
  5
D1
330
1F
100
AcDbEntity
  8
0.1mm kerf$Mid
100
AcDbPolyline
 90
        6
 70
     0
 43
0.0
 10
-42.91246067347216
 20
152.7072733092078
 10
-42.91245538905847
 20
153.5401368149729
 10
-42.91245010464476
 20
154.373000320738
 10
-42.91244482023105
 20
155.2058638265031
 10
-42.91243953581735
 20
156.0387273322683
 10
-42.91243425140365
 20
156.8715908380334
  0
LWPOLYLINE
  5
D2
330
1F
100
AcDbEntity
  8
0.1mm kerf$Mid
100
AcDbPolyline
 90
      359
 70
     0
 43
0.0
 10
-75.17889148880482
 20
67.34956644031557
 10
-75.17889148880482
 20
65.36488619418792
 10
-75.17889148880484
 20
65.11680115962737
 10
-75.17889148880484
 20
65.05477990085553
 10
-75.17889148880482
 20
65.02477601775044
 10
-75.17889148880482
 20
65.02242259356417
 10
-75.17889148880482
 20
65.01300823080997
 10
-75.17889148880482
 20
64.97534024754729
 10
-75.17889148880484
 20
64.89995519999701
 10
-75.17889148880485
 20
64.59782724918074
 10
-75.17889148880485
 20
63.99150914127656
 10
-75.17889148880486
 20
62.77717111992309
 10
-75.17889148880488
 20
62.17285814674246
 10
-75.17889148880489
 20
61.57286125672142
 10
-75.17889148880488
 20
60.97891883173601
 10
-75.17889148880488
 20
60.83157595165118
 10
-75.17889148737335
 20
60.75845448758664
 10
-75.1788458458601
 20
60.74907871341431
 10
-75.17775224897235
 20
60.71147038344067
 10
-75.17110141284216
 20
60.63599057437582
 10
-75.1583614015026
 20
60.56067580955431
 10
-75.13945055267857
 20
60.48616670453924
 10
-75.11438889819714
 20
60.41311325393597
 10
-75.08330145754084
 20
60.34215678345107
 10
-75.04641719842921
 20
60.2739116014923
 10
-75.00406358219509
 20
60.20894742629762
 10
-74.95665695570432
 20
60.1477736322596
 10
-74.90468937526168
 20
60.09082622200369
 10
-74.9013022976981
 20
60.0874158634522
 10
-74.90087781794177
 20
60.08699083218303
 10
-74.90066548713677
 20
60.08677842201691
 10
-74.89403664833466
 20
60.08014958247638
 10
-74.86446956068061
 20
60.05058249482233
 10
-74.80532720882212
 20
59.99144014296385
 10
-74.56865096660881
 20
59.75476390075053
 10
-74.09481050384076
 20
59.28092343798248
 10
-73.14539204209634
 20
58.33150497623808
 10
-71.24132564138797
 20
56.42743857552972
 10
-69.3335709205507
 20
54.51968385469243
 10
-67.42606177722665
 20
52.61217471136841
 10
-65.52269970632344
 20
50.70881264046518
 10
-63.62732766397577
 20
48.81344059811752
 10
-62.6838166111903
 20
47.86992954533205
 10
-61.7437049421207
 20
46.92981787626243
 10
-60.80744559337302
 20
45.99355852751476
 10
-59.87548338782495
 20
45.06159632196668
 10
-58.94825438572844
 20
44.13436731987018
 10
-58.71723691443615
 20
43.90334984857788
 10
-58.60185118699596
 20
43.7879641211377
 10
-58.54418943350561
 20
43.73030236764735
 10
-58.53073762363369
 20
43.71685055877078
 10
-58.53035489717083
 20
43.71646807384563
 10
-58.52958855272285
 20
43.71570348811817
 10
-58.51716538895844
 20
43.70354167722106
 10
-58.46443835396769
 20
43.65641041693076
 10
-58.40692129062082
 20
43.61219677356825
 10
-58.34478446013117
 20
43.57156937515285
 10
-58.2783078287532
 20
43.53519520934741
 10
-58.20788524792874
 20
43.50371689396817
 10
-58.13402336877466
 20
43.47772799348959
 10
-58.05733455698978
 20
43.45774787732349
 10
-57.9785235412844
 20
43.44419790569586
 10
-57.89836810836877
 20
43.43738084229735
 10
-57.81769477788277
 20
43.43746528139589
 10
-57.73735095891416
 20
43.44447652791827
 10
-57.65817551150829
 20
43.458294813234
 10
-57.58096983676923
 20
43.4786610401959
 10
-57.50647156052073
 20
43.50518953038508
 10
-57.43533256811701
 20
43.53738660362048
 10
-57.36810264684854
 20
43.5746733471394
 10
-57.30521938365929
 20
43.61641068633937
 10
-57.24700434651872
 20
43.66192486293209
 10
-57.19366503460893
 20
43.7105316302294
 10
-57.18734654048864
 20
43.71679114546788
 10
-57.18679017353737
 20
43.71734750178331
 10
-57.18309453558317
 20
43.72104313973752
 10
-57.17570325967542
 20
43.72843441564526
 10
-57.16092070785991
 20
43.74321696746076
 10
-57.13135560422891
 20
43.77278207109177
 10
-57.07222539696757
 20
43.83191227835311
 10
-56.95396498244421
 20
43.95017269287647
 10
-56.4809233243508
 20
44.42321435096987
 10
-55.53484000816333
 20
45.36929766715735
 10
-51.75050674341408
 20
49.1536309319066
 10
-50.80442342722659
 20
50.0997142480941
 10
-50.56790259817923
 20
50.33623507714146
 10
-50.50877239091722
 20
50.39536528440347
 10
-50.47920728728622
 20
50.42493038803448
 10
-50.46442473547072
 20
50.43971293984998
 10
-50.45703345956364
 20
50.44710421575707
 10
-50.45333782161009
 20
50.45079985371061
 10
-50.45199065734848
 20
50.45214701784795
 10
-50.44818043367896
 20
50.45595693426963
 10
-50.43293583703991
 20
50.47119439875607
 10
-50.37189824485413
 20
50.53210898204145
 10
-50.24953918106668
 20
50.65376817139076
 10
-50.00368821614066
 20
50.89640097050546
 10
-49.50747687834446
 20
51.37887898177922
 10
-49.00529618177724
 20
51.85755427628773
 10
-48.49720006949151
 20
52.33232422041559
 10
-47.983244900072
 20
52.80308679493512
 10
-47.4634894364007
 20
53.26974065890513
 10
-46.93799483223355
 20
53.73218521364474
 10
-46.40682461657898
 20
54.19032066670603
 10
-45.87004467587184
 20
54.64404809576797
 10
-45.32772323394016
 20
55.09326951237326
 10
-44.77993082976511
 20
55.53788792542931
 10
-44.22674029303888
 20
55.9778074043935
 10
-43.66822671752776
 20
56.4129331420626
 10
-43.10446743225251
 20
56.84317151688658
 10
-42.53554197050109
 20
57.26843015472586
 10
-41.96153203669255
 20
57.68861798997232
 10
-41.38252147111471
 20
58.10364532595357
 10
-40.79859621256214
 20
58.5134238945411
 10
-40.20984425890384
 20
58.91786691488369
 10
-39.61635562561483
 20
59.31688915118705
 10
-39.01822230230851
 20
59.71040696946324
 10
-38.41553820731033
 20
60.09833839317316
 10
-37.80839914031711
 20
60.48060315768767
 10
-37.19690273318986
 20
60.85712276349335
 10
-36.58114839893097
 20
61.22782052807156
 10
-35.9612372788997
 20
61.59262163638057
 10
-35.33727218832351
 20
61.95145318987262
 10
-34.70935756016628
 20
62.30424425398001
 10
-34.0775993874161
 20
62.65092590400597
 10
-33.44210516385915
 20
62.99143126935969
 10
-32.80298382340859
 20
63.32569557607598
 10
-32.16034567806031
 20
63.65365618756353
 10
-31.51430235454922
 20
63.97525264352815
 10
-30.86496672978213
 20
64.29042669702086
 10
-30.21245286512578
 20
64.5991223495629
 10
-29.55687593963046
 20
64.90128588430334
 10
-28.89835218227127
 20
65.19686589716781
 10
-28.23699880329025
 20
65.4858133259612
 10
-27.57293392472485
 20
65.76808147738894
 10
-26.90627651020941
 20
66.04362605196614
 10
-26.23714629413671
 20
66.31240516678701
 10
-25.5656637102679
 20
66.57437937613053
 10
-24.89194981987984
 20
66.82951168988212
 10
-24.21612623953981
 20
67.07776758975403
 10
-23.53831506859707
 20
67.3191150432918
 10
-22.85863881648115
 20
67.55352451565729
 10
-22.17722032989686
 20
67.78096897918238
 10
-21.49418272000602
 20
68.0014239206913
 10
-20.80964928968487
 20
68.2148673465929
 10
-20.12374346094546
 20
68.42127978574865
 10
-19.43658870260918
 20
68.62064429012455
 10
-18.74830845831923
 20
68.81294643323951
 10
-18.0590260749778
 20
68.99817430642584
 10
-17.3688647316916
 20
69.17631851292171
 10
-16.67794736930921
 20
69.34737215981728
 10
-15.98639662063138
 20
69.51133084788105
 10
-15.2943347413735
 20
69.6681926592956
 10
-14.60188354195748
 20
69.81795814333435
 10
-13.90916432020887
 20
69.96063030001505
 10
-13.2162977950318
 20
70.09621456176827
 10
-12.52340404113266
 20
70.22471877316134
 10
-11.83060242486121
 20
70.34615316872133
 10
-11.1380115412343
 20
70.46053034890395
 10
-10.44574915220541
 20
70.567865254256
 10
-9.75393212624065
 20
70.6681751378228
 10
-9.062676379257981
 20
70.76147953585335
 10
-8.372096816984486
 20
70.84780023685842
 10
-7.68230727878346
 20
70.92716124907809
 10
-6.993420482999485
 20
70.99958876641792
 10
-6.305547973866568
 20
71.06511113291317
 10
-5.618800070021797
 20
71.12375880578342
 10
-4.933285814663753
 20
71.17556431713978
 10
-4.249112927391252
 20
71.22056223440937
 10
-3.566387757754761
 20
71.25878911954146
 10
-2.885215240550087
 20
71.29028348706133
 10
-2.20569885288077
 20
71.31508576103858
 10
-1.52794057301182
 20
71.33323823103639
 10
-0.8520408410343579
 20
71.34478500710965
 10
-0.1780985213579348
 20
71.34977197391939
 10
-0.0099302198502823
 20
71.34999928773004
 10
-0.0046770461918803
 20
71.349999841131
 10
-0.0020505069583291
 20
71.34999996906171
 10
-0.0007372492429704
 20
71.34999999583593
 10
-0.0000806233610172
 20
71.3499999999254
 10
0.0083356763393552
 20
71.34999999999985
 10
0.0245051649746632
 20
71.34999999999985
 10
0.0568441422505988
 20
71.34999999999983
 10
1.091691414635237
 20
71.34999999999985
 10
3.161385957388465
 20
71.34999999999987
 10
7.300775034836547
 20
71.34999999999988
 10
15.57955315747015
 20
71.34999999999992
 10
48.69466521790873
 20
71.35000000000004
 10
50.76435969884235
 20
71.35000000000005
 10
51.79920693829822
 20
71.35000000000005
 10
52.31663055777124
 20
71.35000000000005
 10
52.38130851019428
 20
71.35000000000005
 10
52.38758346546569
 20
71.35000000366662
 10
52.38771872888666
 20
71.35000002518023
 10
52.38798927963769
 20
71.3500001259972
 10
52.38907180092947
 20
71.35000130029471
 10
52.39123836559899
 20
71.35000735549031
 10
52.42616797100504
 20
71.35078727989018
 10
52.49732656153092
 20
71.35636970884664
 10
52.56974550477629
 20
71.36764460853779
 10
52.64278221760643
 20
71.38494208414235
 10
52.71571732281479
 20
71.40849936118697
 10
52.78777106187252
 20
71.43844148368948
 10
52.85812512018575
 20
71.4747654901485
 10
52.92594898101373
 20
71.51732976622018
 10
52.99042933050674
 20
71.56585000005835
 10
53.05080054606259
 20
71.61990266461874
 10
53.1063740093402
 20
71.67893626841141
 10
53.15656396398117
 20
71.74228984292452
 10
53.20090791060491
 20
71.80921738930059
 10
53.23908006638392
 20
71.87891640908588
 10
53.27089713066928
 20
71.9505582888022
 10
53.29631637616611
 20
72.02331824344231
 10
53.31542680547184
 20
72.09640274145662
 10
53.32843467452758
 20
72.16907277490438
 10
53.3356450265413
 20
72.240661912362
 10
53.33719339520313
 20
72.27586589328122
 10
53.33747631140428
 20
72.29329121692917
 10
53.33749703837391
 20
72.29762785321345
 10
53.33749997747784
 20
72.29979313851053
 10
53.33749999730167
 20
72.29992840123204
 10
53.33749999999977
 20
72.30729749850397
 10
53.33749999999977
 20
72.33830812543764
 10
53.33749999999977
 20
72.40032937929941
 10
53.33749999999977
 20
72.52437188702292
 10
53.33749999999978
 20
73.51671194880556
 10
53.33749999999978
 20
105.2715939258667
 10
53.33749999999979
 20
137.0264759029333
 10
53.3374999999998
 20
144.9651963972
 10
53.3374999999998
 20
146.9498765207708
 10
53.3374999999998
 20
147.1979615362179
 10
53.3374999999998
 20
147.2599827900797
 10
53.3374999999998
 20
147.2909934170133
 10
53.3374999999998
 20
147.3064987304774
 10
53.33749999575659
 20
147.3122490169797
 10
53.33749921486329
 20
147.3133768728835
 10
53.33748258679179
 20
147.317892624209
 10
53.33738419656215
 20
147.3269444418422
 10
53.33610853723731
 20
147.3634013542473
 10
53.32918204976062
 20
147.4372581527563
 10
53.31618222312402
 20
147.5118059787266
 10
53.29691263662071
 20
147.5863073867309
 10
53.27129566088959
 20
147.6599767813783
 10
53.23938412212823
 20
147.7320045602646
 10
53.20136695279072
 20
147.8015844633467
 10
53.15756792113726
 20
147.8679423476887
 10
53.10843714782864
 20
147.9303643262643
 10
53.05453581449651
 20
147.9882221705484
 10
52.99651514247375
 20
148.0409940998161
 10
52.93509126473836
 20
148.0882795376083
 10
52.87101794865002
 20
148.1298070359945
 10
52.80505920995768
 20
148.1654352516072
 10
52.73796369609882
 20
148.1951474993911
 10
52.44597196771692
 20
148.2993932029443
 10
51.26539913852147
 20
148.7116298450397
 10
50.08375633298341
 20
149.1137396472182
 10
48.90116678574468
 20
149.5057386423438
 10
47.71775300474125
 20
149.8876447482531
 10
46.53363673760027
 20
150.2594777442444
 10
45.34893893879156
 20
150.621259246913
 10
44.16377973754625
 20
150.9730126853589
 10
42.97827840655419
 20
151.3147632757912
 10
41.79255333145113
 20
151.6465379955567
 10
40.60672198110547
 20
151.9683655566158
 10
39.4209008787138
 20
152.2802763784944
 10
38.23520557371339
 20
152.5823025607357
 10
37.04975061451892
 20
152.8744778548792
 10
35.86464952208999
 20
153.1568376359921
 10
34.68001476433484
 20
153.429418873779
 10
33.4959577313553
 20
153.6922601032963
 10
32.31258871153646
 20
153.9454013952969
 10
31.13001686848472
 20
154.1888843262311
 10
29.94835021881583
 20
154.4227519479276
 10
28.7676956107949
 20
154.6470487569829
 10
27.58815870382891
 20
154.861820663882
 10
26.40984394881136
 20
155.0671149618753
 10
25.2328545693187
 20
155.2629802956379
 10
24.05729254365656
 20
155.4494666297345
 10
22.8832585877536
 20
155.6266252169146
 10
21.71085213890011
 20
155.7945085662612
 10
20.54017134032738
 20
155.9531704112167
 10
19.37131302662382
 20
156.1026656775103
 10
18.20437270998254
 20
156.2430504510074
 10
17.03944456727495
 20
156.3743819455053
 10
15.87662142794408
 20
156.4967184704962
 10
14.71599476271079
 20
156.6101193989197
 10
13.55765467308557
 20
156.7146451349247
 10
12.4016898816779
 20
156.8103570816631
 10
11.24818772329482
 20
156.8973176091342
 10
10.0972341368198
 20
156.9755900220994
 10
8.948913657862318
 20
157.0452385280882
 10
7.803309412168503
 20
157.1063282055117
 10
6.660503109782406
 20
157.1589249719041
 10
5.520575039947202
 20
157.2030955523087
 10
4.383604066735242
 20
157.2389074478263
 10
3.249667625395474
 20
157.266428904342
 10
2.118841719406397
 20
157.2857288814472
 10
0.9912009182224624
 20
157.2968770215725
 10
-0.1332283679306065
 20
157.29994357978
 10
-1.258390339377103
 20
157.294966396747
 10
-2.386793331741698
 20
157.2818909397758
 10
-3.518363870530125
 20
157.2606470661829
 10
-4.653027045963434
 20
157.2311652927292
 10
-5.790706514711262
 20
157.193376826317
 10
-6.931324502308505
 20
157.1472135949082
 10
-8.0748018062688
 20
157.0926082786503
 10
-9.221057799906329
 20
157.0294943411931
 10
-10.37001043687737
 20
156.9578060611802
 10
-11.52157625645378
 20
156.8774785638995
 10
-12.67567038953878
 20
156.788447853073
 10
-13.83220656543598
 20
156.6906508427708
 10
-14.99109711938164
 20
156.5840253894288
 10
-16.15225300085014
 20
156.4685103239516
 10
-17.31558378264178
 20
156.3440454838825
 10
-18.48099767076189
 20
156.2105717456194
 10
-19.64840151509938
 20
156.0680310566564
 10
-20.81770082091277
 20
155.9163664678311
 10
-21.98879976113063
 20
155.7555221655558
 10
-23.16160118947346
 20
155.585443504011
 10
-24.33600665440281
 20
155.4060770372797
 10
-25.51191641390319
 20
155.2173705513982
 10
-26.68922945110181
 20
155.019273096304
 10
-27.86784349073003
 20
154.8117350176537
 10
-29.04765501643032
 20
154.5947079884901
 10
-30.2285592889114
 20
154.3681450407332
 10
-31.41045036495382
 20
154.132000596472
 10
-32.59322111726729
 20
153.8862304990313
 10
-33.77676325520047
 20
153.6307920437898
 10
-34.96096734630319
 20
153.3656440087244
 10
-36.14572283874001
 20
153.0907466846544
 10
-37.3309180845539
 20
152.8060619051625
 10
-38.51644036377701
 20
152.5115530761641
 10
-39.70217590938583
 20
152.2071852051019
 10
-40.88800993309617
 20
151.892924929738
 10
-41.47979140532462
 20
151.7323862376209
 10
-41.55443196829476
 20
151.7119613074677
 10
-41.63270487740595
 20
151.6917060465147
 10
-41.71489771636711
 20
151.6766781555286
 10
-41.79914828461358
 20
151.6681648022248
 10
-41.88467838319263
 20
151.666486152944
 10
-41.97065159297373
 20
151.6718366390584
 10
-42.05619915253643
 20
151.6842729067039
 10
-42.14044856119325
 20
151.7037082705469
 10
-42.22255298053525
 20
151.7299143029713
 10
-42.30171937880226
 20
151.7625295393248
 10
-42.37723347597747
 20
151.801074620718
 10
-42.4484798875402
 20
151.8449726250136
 10
-42.51506059919641
 20
151.8936557562293
 10
-42.57812201361329
 20
151.9478896075606
 10
-42.63750204458388
 20
152.0078321058204
 10
-42.69245837122524
 20
152.0731001647437
 10
-42.7423048400571
 20
152.1431851541218
 10
-42.78643747653411
 20
152.2174640918897
 10
-42.82435755883113
 20
152.2952171919479
 10
-42.85568998750672
 20
152.3756508005142
 10
-42.88019556259652
 20
152.4579242124433
 10
-42.89777633319413
 20
152.54117848417
 10
-42.90847383409638
 20
152.6245652088587
 10
-42.91246067347216
 20
152.7072733092078
  0
LWPOLYLINE
  5
D3
330
1F
100
AcDbEntity
  8
0.1mm kerf$Mid
100
AcDbPolyline
 90
        6
 70
     0
 43
0.0
 10
-75.17889148880482
 20
92.50593798358886
 10
-75.17889148880482
 20
87.47466367493421
 10
-75.17889148880482
 20
82.44338936627958
 10
-75.17889148880482
 20
77.41211505762493
 10
-75.17889148880482
 20
72.38084074897028
 10
-75.17889148880482
 20
67.34956644031564
  0
LWPOLYLINE
  5
D4
330
1F
100
AcDbEntity
  8
0.1mm kerf$Mid
100
AcDbPolyline
 90
        9
 70
     0
 43
0.0
 10
-76.22889148880479
 20
93.55593798358887
 10
-76.03783028377204
 20
93.53840862042629
 10
-75.8423920437648
 20
93.48221569970441
 10
-75.65432124775037
 20
93.38478327036844
 10
-75.48642936855891
 20
93.24840010383475
 10
-75.35004620202522
 20
93.08050822464327
 10
-75.25261377268924
 20
92.89243742862884
 10
-75.19642085196742
 20
92.69699918862162
 10
-75.17889148880484
 20
92.50593798358888
  0
LWPOLYLINE
  5
D5
330
1F
100
AcDbEntity
  8
0.1mm kerf$Mid
100
AcDbPolyline
 90
        6
 70
     0
 43
0.0
 10
-80.22889148880489
 20
93.55593798358887
 10
-79.42889148880488
 20
93.55593798358887
 10
-78.62889148880487
 20
93.55593798358887
 10
-77.82889148880485
 20
93.55593798358887
 10
-77.02889148880484
 20
93.55593798358887
 10
-76.22889148880485
 20
93.55593798358887
  0
LWPOLYLINE
  5
D6
330
1F
100
AcDbEntity
  8
0.1mm kerf$Mid
100
AcDbPolyline
 90
        9
 70
     0
 43
0.0
 10
-81.27889148880489
 20
92.50593798358892
 10
-81.26136212564231
 20
92.69699918862167
 10
-81.20516920492045
 20
92.89243742862888
 10
-81.10773677558448
 20
93.08050822464329
 10
-80.97135360905076
 20
93.24840010383478
 10
-80.8034617298593
 20
93.38478327036847
 10
-80.61539093384485
 20
93.48221569970444
 10
-80.41995269383765
 20
93.53840862042629
 10
-80.22889148880489
 20
93.55593798358887
  0
LWPOLYLINE
  5
D7
330
1F
100
AcDbEntity
  8
0.1mm kerf$Mid
100
AcDbPolyline
 90
        6
 70
     0
 43
0.0
 10
-81.27889148880489
 20
67.22878123073687
 10
-81.27889148880489
 20
72.28421258130729
 10
-81.27889148880489
 20
77.3396439318777
 10
-81.27889148880489
 20
82.39507528244812
 10
-81.27889148880489
 20
87.45050663301855
 10
-81.27889148880489
 20
92.50593798358897
  0
LWPOLYLINE
  5
D8
330
1F
100
AcDbEntity
  8
0.1mm kerf$Mid
100
AcDbPolyline
 90
      671
 70
     0
 43
0.0
 10
-42.91243425140365
 20
156.8715908380334
 10
-42.9110559380906
 20
156.9143667660666
 10
-42.9078394412042
 20
156.9576583031162
 10
-42.90272490407719
 20
157.0013540851207
 10
-42.89566113809844
 20
157.0453348235487
 10
-42.88660666275131
 20
157.0894740628153
 10
-42.87553066591089
 20
157.1336391012173
 10
-42.86241385716933
 20
157.1776920677524
 10
-42.84724918781387
 20
157.2214911419543
 10
-42.83004241302042
 20
157.264891898644
 10
-42.81081247485895
 20
157.3077487545446
 10
-42.78959168878174
 20
157.3499164892749
 10
-42.76642572126594
 20
157.3912518095871
 10
-42.74137335202352
 20
157.4316149230772
 10
-42.71450602044007
 20
157.4708710861417
 10
-42.68590716237682
 20
157.5088920908171
 10
-42.65567134986403
 20
157.5455576563591
 10
-42.62390325221993
 20
157.5807566939696
 10
-42.59071644245426
 20
157.6143884168548
 10
-42.5562320772068
 20
157.6463632726159
 10
-42.52057748172982
 20
157.6766036805997
 10
-42.48388467341857
 20
157.7050445629771
 10
-42.44628885807336
 20
157.7316336646896
 10
-42.40792693246082
 20
157.7563316636805
 10
-42.3689360249268
 20
157.7791120787465
 10
-42.32945210295034
 20
157.7999609876417
 10
-42.2896086728237
 20
157.8188765725601
 10
-42.24953559232157
 20
157.8358685136688
 10
-42.20935801253173
 20
157.850957253895
 10
-42.16919546019295
 20
157.864173159669
 10
-42.12902224058731
 20
157.8756016340357
 10
-42.04641492049803
 20
157.8976222020996
 10
-41.38556328195571
 20
158.0721203908679
 10
-40.72473707856952
 20
158.2436598157813
 10
-40.06395477866815
 20
158.4122457361901
 10
-39.40323476401193
 20
158.5778835531618
 10
-38.74259532857049
 20
158.7405788081675
 10
-38.08205467732129
 20
158.9003371817574
 10
-37.4216309250688
 20
159.0571644922265
 10
-36.76134209528458
 20
159.211066694271
 10
-36.10120611896813
 20
159.3620498776338
 10
-35.44124083352873
 20
159.5101202657415
 10
-34.78146398168821
 20
159.6552842143326
 10
-34.12189321040477
 20
159.7975482100767
 10
-33.46254606981772
 20
159.9369188691859
 10
-32.80344001221348
 20
160.0734029360181
 10
-32.14459239101242
 20
160.2070072816727
 10
-31.48602045977706
 20
160.3377389025792
 10
-30.82774137124118
 20
160.4656049190792
 10
-30.16977209958755
 20
160.5906125743618
 10
-29.51212957908918
 20
160.7127692312699
 10
-28.85483074963266
 20
160.8320823724572
 10
-28.19789235115312
 20
160.9485595996267
 10
-27.54133101822062
 20
161.0622086312084
 10
-26.88516327919607
 20
161.1730373009073
 10
-26.22940555540797
 20
161.2810535562455
 10
-25.5740741603503
 20
161.3862654571016
 10
-24.91918529890129
 20
161.4886811742444
 10
-24.26475506656315
 20
161.5883089878647
 10
-23.61079944872269
 20
161.6851572861025
 10
-22.95733431993274
 20
161.7792345635721
 10
-22.30437544321429
 20
161.8705494198837
 10
-21.65193846937948
 20
161.959110558163
 10
-21.00003893637506
 20
162.044926783569
 10
-20.34869226864653
 20
162.1280070018097
 10
-19.69791377652278
 20
162.2083602176561
 10
-19.04771865562107
 20
162.2859955334553
 10
-18.39812198627241
 20
162.360922147643
 10
-17.74913873296716
 20
162.4331493532546
 10
-17.1007837438208
 20
162.5026865364367
 10
-16.45307175005974
 20
162.5695431749579
 10
-15.80601736552712
 20
162.6337288367207
 10
-15.15963508620846
 20
162.6952531782728
 10
-14.51393928977699
 20
162.7541259433205
 10
-13.86894423515877
 20
162.8103569612419
 10
-13.22466406211717
 20
162.863956145602
 10
-12.58111279085688
 20
162.9149334926696
 10
-11.9383043216471
 20
162.9632990799356
 10
-11.29625243446402
 20
163.0090630646338
 10
-10.65497078865222
 20
163.0522356822632
 10
-10.01447292260499
 20
163.0928272451146
 10
-9.374772253463488
 20
163.130848140798
 10
-8.735882076834432
 20
163.1663088307745
 10
-8.097815566526364
 20
163.1992198488911
 10
-7.460585774304195
 20
163.229591799919
 10
-6.82420562966197
 20
163.2574353580957
 10
-6.188687939613721
 20
163.2827612656713
 10
-5.554045388502172
 20
163.3055803314587
 10
-4.920290537825176
 20
163.3259034293886
 10
-4.287435826079824
 20
163.3437414970693
 10
-3.655493568623891
 20
163.3591055343506
 10
-3.024475957554598
 20
163.372006601894
 10
-2.394395061604489
 20
163.3824558197469
 10
-1.765262826054185
 20
163.3904643659233
 10
-1.137091072662011
 20
163.3960434749903
 10
-0.5098914996101576
 20
163.3992044366589
 10
0.1163580129690905
 20
163.3999586823081
 10
0.7429166125349286
 20
163.3983155796946
 10
1.370420071536241
 20
163.394267981405
 10
1.998857788623883
 20
163.3878045792227
 10
2.628219050481389
 20
163.3789141097998
 10
3.258493031802592
 20
163.3675853559161
 10
3.889668795282545
 20
163.3538071477455
 10
4.521735291621935
 20
163.3375683641271
 10
5.15468135954504
 20
163.3188579338435
 10
5.78849572583152
 20
163.2976648369044
 10
6.42316700536202
 20
163.2739781058364
 10
7.058683701177871
 20
163.2477868269778
 10
7.695034204554971
 20
163.2190801417793
 10
8.332206795091947
 20
163.18784724811
 10
8.970189640812796
 20
163.1540774015676
 10
9.608970798284186
 20
163.1177599167955
 10
10.24853821274737
 20
163.0788841688022
 10
10.88887971826505
 20
163.0374395942868
 10
11.52998303788329
 20
162.993415692969
 10
12.17183578380835
 20
162.9468020289224
 10
12.81442545759907
 20
162.8975882319125
 10
13.45773945037441
 20
162.8457639987383
 10
14.10176504303656
 20
162.7913190945776
 10
14.74648940650971
 20
162.7342433543358
 10
15.39189960199462
 20
162.6745266839976
 10
16.0379825812389
 20
162.6121590619827
 10
16.6847251868234
 20
162.5471305405028
 10
17.33211415246466
 20
162.479431246923
 10
17.98013610333361
 20
162.409051385124
 10
18.62877755639047
 20
162.335981236868
 10
19.27802492073615
 20
162.260211163165
 10
19.92786449798028
 20
162.1817316056428
 10
20.57828248262558
 20
162.1005330879165
 10
21.22926496246923
 20
162.0166062169609
 10
21.88079791902094
 20
161.9299416844832
 10
22.53286722793785
 20
161.8405302682968
 10
23.18545865947662
 20
161.748362833696
 10
23.83855787896242
 20
161.6534303348304
 10
24.49215044727515
 20
161.5557238160801
 10
25.14622182135291
 20
161.4552344134307
 10
25.80075735471282
 20
161.3519533558476
 10
26.45574229798918
 20
161.2458719666501
 10
27.11116179948908
 20
161.1369816648847
 10
27.76700090576562
 20
161.025273966697
 10
28.42324456220863
 20
160.9107404867024
 10
29.07987761365309
 20
160.7933729393554
 10
29.73688480500529
 20
160.6731631403171
 10
30.39425078188668
 20
160.5501030078197
 10
31.05196009129547
 20
160.42418456403
 10
31.70999718228634
 20
160.2953999364092
 10
32.36834640666777
 20
160.1637413590702
 10
33.02699201971734
 20
160.0292011741318
 10
33.68591818091519
 20
159.8917718330689
 10
34.34510895469522
 20
159.7514458980599
 10
35.00454831121452
 20
159.6082160433292
 10
35.66422012714058
 20
159.4620750564857
 10
36.32410818645694
 20
159.3130158398569
 10
36.98419618128649
 20
159.1610314118183
 10
37.64446771273309
 20
159.0061149081168
 10
38.3049062917413
 20
158.8482595831899
 10
38.96549533997395
 20
158.6874588114781
 10
39.62621819070808
 20
158.5237060887319
 10
40.28705808974869
 20
158.3569950333126
 10
40.9479981963608
 20
158.1873193874857
 10
41.60902158421922
 20
158.014673018709
 10
42.27011124237664
 20
157.8390499209114
 10
42.93125007624954
 20
157.6604442157663
 10
43.59242090862205
 20
157.478850153956
 10
44.25360648066778
 20
157.2942621164282
 10
44.91478945298956
 20
157.1066746156447
 10
45.57595240667679
 20
156.9160822968209
 10
46.23707784438088
 20
156.7224799391565
 10
46.89814819140821
 20
156.5258624570572
 10
47.55914579683074
 20
156.3262249013465
 10
48.2200529346143
 20
156.1235624604675
 10
48.88085180476431
 20
155.9178704616757
 10
49.54152453448912
 20
155.7091443722198
 10
50.20205317938049
 20
155.4973798005124
 10
50.86241972461149
 20
155.2825724972906
 10
51.52260608615151
 20
155.0647183567632
 10
52.18259411199853
 20
154.8438134177484
 10
52.84236558342811
 20
154.6198538647981
 10
53.50190221625952
 20
154.3928360293104
 10
54.16118566213849
 20
154.16275639063
 10
54.82019750983671
 20
153.9296115771348
 10
55.47891928656779
 20
153.6933983673104
 10
56.13733245931969
 20
153.4541136908102
 10
56.79541843620345
 20
153.2117546295027
 10
57.45315856781788
 20
152.9663184185041
 10
57.5311815690064
 20
152.9359885667413
 10
57.60860502104968
 20
152.9034238558815
 10
57.68570124328426
 20
152.8684579528927
 10
57.7623656461749
 20
152.8310789597447
 10
57.83849155449923
 20
152.7912807295372
 10
57.91397058313371
 20
152.7490631064982
 10
57.98869304019913
 20
152.7044321380237
 10
58.06254835528349
 20
152.6574002554523
 10
58.13542553003049
 20
152.6079864204678
 10
58.20721360796808
 20
152.556216234277
 10
58.27780216006319
 20
152.5021220070249
 10
58.34708178213605
 20
152.4457427852841
 10
58.41494459995769
 20
152.3871243358787
 10
58.48128477759691
 20
152.3263190847746
 10
58.54599902438584
 20
152.2633860102824
 10
58.60898709574245
 20
152.1983904903622
 10
58.67015228302877
 20
152.1314041043811
 10
58.7294018876409
 20
152.0625043902598
 10
58.78664767462016
 20
151.9917745585113
 10
58.84180630124682
 20
151.919303165249
 10
58.89479971632577
 20
151.8451837467778
 10
58.94555552619337
 20
151.7695144188936
 10
58.99400732386235
 20
151.6923974444771
 10
59.04009497816798
 20
151.6139387733789
 10
59.08376488027755
 20
151.5342475589334
 10
59.12497014546353
 20
151.4534356557191
 10
59.16367076861128
 20
151.3716171033798
 10
59.19983373251939
 20
151.2889076014425
 10
59.2334330686464
 20
151.2054239801109
 10
59.26444987054656
 20
151.1212836719733
 10
59.29287226081182
 20
151.036604189452
 10
59.31869531288162
 20
150.9515026126298
 10
59.34192092959204
 20
150.8660950918405
 10
59.36255768079849
 20
150.7804963690912
 10
59.38062060281598
 20
150.6948193220249
 10
59.3961309627733
 20
150.6091745337193
 10
59.40911599126633
 20
150.5236698911848
 10
59.41960858692064
 20
150.438410214958
 10
59.42764699663209
 20
150.3534969217151
 10
59.43327447534932
 20
150.2690277213527
 10
59.43653892929353
 20
150.1850963495101
 10
59.43730117377594
 20
150.1433604972454
 10
59.43746777874658
 20
150.1225547922546
 10
59.4374978364424
 20
150.1121680761426
 10
59.43749982340612
 20
150.1095731057539
 10
59.43749997516024
 20
150.1089244706436
 10
59.43749999930815
 20
150.1086001692388
 10
59.43749999999985
 20
150.0985631641472
 10
59.43749999999985
 20
150.0819264284063
 10
59.43749999999985
 20
149.9488325425367
 10
59.43749999999985
 20
149.4164570000879
 10
59.43749999999982
 20
132.3804405139686
 10
59.43749999999979
 20
98.30841261664218
 10
59.43749999999978
 20
81.2724012054365
 10
59.43749999999978
 20
72.75439613419855
 10
59.43749999999977
 20
68.49539375716993
 10
59.43749999999977
 20
68.36229993459219
 10
59.43749999999977
 20
68.32902647896389
 10
59.43749999999977
 20
68.31238975115216
 10
59.4374999997421
 20
68.29996035327304
 10
59.43749992839314
 20
68.29933909118299
 10
59.43749837699271
 20
68.29685351936159
 10
59.43748919071591
 20
68.29187986978547
 10
59.437446427034
 20
68.28192260468987
 10
59.43726287905644
 20
68.26196867701418
 10
59.43520286228849
 20
68.18164771570803
 10
59.43097316225145
 20
68.10057304431495
 10
59.42451147371288
 20
68.0188215717112
 10
59.41575851212554
 20
67.93647505761256
 10
59.40465841629278
 20
67.85362001501827
 10
59.39115915348447
 20
67.7703475765301
 10
59.37521292353285
 20
67.68675332324305
 10
59.35677655817773
 20
67.60293707525443
 10
59.33581191170876
 20
67.51900264323436
 10
59.31228623877188
 20
67.43505754093739
 10
59.28617255508014
 20
67.3512126590095
 10
59.25744997669863
 20
67.2675819009499
 10
59.22610403356881
 20
67.18428178261466
 10
59.19212695300197
 20
67.1014309971914
 10
59.15551790901004
 20
67.01914994812101
 10
59.11628323355731
 20
66.93756025298171
 10
59.07443658610714
 20
66.85678422187198
 10
59.02999907820625
 20
66.7769443143214
 10
58.98299935028782
 20
66.69816257920651
 10
58.93347359838223
 20
66.62056008254555
 10
58.88146554899073
 20
66.54425632837643
 10
58.82702638099536
 20
66.46936867818052
 10
58.77021459413573
 20
66.39601177448715
 10
58.71109582426857
 20
66.32429697438087
 10
58.64974260632543
 20
66.25433179862304
 10
58.58623408658218
 20
66.18621940199543
 10
58.52065568653862
 20
66.12005807027184
 10
58.45309872136077
 20
66.05594074893024
 10
58.383659976449
 20
65.99395460833441
 10
58.3124412462495
 20
65.93418064965082
 10
58.23954883991199
 20
65.87669335523138
 10
58.16509305880376
 20
65.82156038659565
 10
58.08918765121031
 20
65.76884233250523
 10
58.01194924978191
 20
65.71859250894357
 10
57.9334967974174
 20
65.67085681212026
 10
57.85395096731371
 20
65.6256736249171
 10
57.77343358285139
 20
65.58307377650328
 10
57.69206704283659
 20
65.54308055417935
 10
57.60997375738766
 20
65.50570976588009
 10
57.52727559944217
 20
65.47096985118296
 10
57.44409337648307
 20
65.43886203814432
 10
57.3605463266476
 20
65.40938054282526
 10
57.27675164290158
 20
65.38251280798073
 10
57.19282402844797
 20
65.35823977707154
 10
57.10887528600309
 20
65.33653619952197
 10
57.02501394302822
 20
65.31737096298511
 10
56.94134491445961
 20
65.30070744829266
 10
56.85796920394725
 20
65.28650390275065
 10
56.77498364410015
 20
65.27471382749421
 10
56.69248067575185
 20
65.26528637472695
 10
56.61054816581146
 20
65.2581667508346
 10
56.52926926285747
 20
65.25329662157459
 10
56.44872228926733
 20
65.25061451579226
 10
56.40874641344259
 20
65.25007400255091
 10
56.38883674193301
 20
65.250000292931
 10
56.38759415618329
 20
65.25000000145334
 10
56.38066872255259
 20
65.24999999999998
 10
56.36331962614354
 20
65.25
 10
56.32862223572447
 20
65.24999999999998
 10
56.25923065755944
 20
65.25000000000002
 10
55.98170675714507
 20
65.25000000000002
 10
55.42685924559305
 20
65.25
 10
54.31793706287237
 20
65.25
 10
52.10295788719786
 20
65.24999999999998
 10
49.89136904002366
 20
65.25
 10
47.6826556912569
 20
65.25
 10
45.47630388448344
 20
65.25
 10
43.27180013752727
 20
65.25
 10
41.06863104282982
 20
65.25
 10
36.66424114883104
 20
65.25
 10
32.25901317433199
 20
65.24999999999998
 10
30.05479070483394
 20
65.24999999999998
 10
27.84880144156617
 20
65.24999999999997
 10
25.64052115579301
 20
65.24999999999997
 10
23.42942241002119
 20
65.24999999999995
 10
21.21497412640775
 20
65.24999999999995
 10
18.99664114802208
 20
65.24999999999995
 10
17.88584943663192
 20
65.24999999999995
 10
16.77388379220085
 20
65.24999999999995
 10
15.66067597253906
 20
65.24999999999993
 10
14.54615739516031
 20
65.24999999999991
 10
13.43025912251335
 20
65.24999999999991
 10
12.31291184704344
 20
65.24999999999991
 10
11.19404587608273
 20
65.2499999999999
 10
10.07359111654944
 20
65.24999999999991
 10
8.951477059455189
 20
65.24999999999988
 10
7.827632764219421
 20
65.24999999999988
 10
6.701986842776928
 20
65.24999999999987
 10
5.574467443465123
 20
65.24999999999987
 10
4.445002234688511
 20
65.24999999999988
 10
3.313518388358418
 20
65.24999999999987
 10
2.179942563093418
 20
65.24999999999986
 10
1.044200887166233
 20
65.24999999999986
 10
0.4754946210183979
 20
65.24999999999984
 10
0.1909285438980538
 20
65.24999999999984
 10
0.0485917566266321
 20
65.24999999999983
 10
0.0130019361462967
 20
65.24999999999984
 10
-0.0000450377892315
 20
65.24999999996805
 10
-0.0002102598786109
 20
65.24999999958447
 10
-0.0008711490682667
 20
65.24999999386657
 10
-0.0114455570997451
 20
65.24999899198419
 10
-0.0325953940374337
 20
65.2499918466554
 10
-0.074899140203406
 20
65.24995698511097
 10
-0.1595228319640364
 20
65.24980494152988
 10
-0.3288342942684193
 20
65.24917127844729
 10
-0.6677077656768128
 20
65.2465833227872
 10
-1.006904265498465
 20
65.24223017021212
 10
-1.346410482599048
 20
65.23610670329205
 10
-1.686213026764878
 20
65.22820793344712
 10
-2.026298430194828
 20
65.21852900228633
 10
-2.366653149017428
 20
65.20706518292633
 10
-2.707263564832726
 20
65.19381188129024
 10
-3.048115986278903
 20
65.17876463738594
 10
-3.389196650623182
 20
65.16191912656298
 10
-3.730491725376629
 20
65.14327116074802
 10
-4.07198730993273
 20
65.12281668965802
 10
-4.413669437229318
 20
65.10055180199072
 10
-4.755524075433433
 20
65.07647272659196
 10
-5.097537129648753
 20
65.05057583359951
 10
-5.439694443645431
 20
65.02285763556239
 10
-5.781981801611794
 20
64.99331478853601
 10
-6.124384929927411
 20
64.96194409315179
 10
-6.466889498957225
 20
64.92874249566161
 10
-6.809481124866603
 20
64.89370708895588
 10
-7.152145371456347
 20
64.85683511355539
 10
-7.494867752017534
 20
64.81812395857613
 10
-7.83763373120594
 20
64.77757116266687
 10
-8.180428726935113
 20
64.73517441491877
 10
-8.523238112287861
 20
64.69093155574703
 10
-8.866047217445954
 20
64.64484057774375
 10
-9.208841331637001
 20
64.59689962650189
 10
-9.551605705098303
 20
64.54710700140977
 10
-9.894325551057418
 20
64.49546115641592
 10
-10.23698604772835
 20
64.44196070076357
 10
-10.57957234032323
 20
64.38660439969488
 10
-10.92206954307901
 20
64.32939117512411
 10
-11.26446274129831
 20
64.27032010627965
 10
-11.60673699340398
 20
64.20939043031463
 10
-11.94887733300719
 20
64.14660154288546
 10
-12.29086877098779
 20
64.08195299869849
 10
-12.63269629758684
 20
64.01544451202389
 10
-12.97434488451085
 20
63.94707595717723
 10
-13.31579948704656
 20
63.87684736896754
 10
-13.6570450461861
 20
63.8047589431125
 10
-13.99806649076206
 20
63.73081103661998
 10
-14.33884873959136
 20
63.65500416813576
 10
-14.67937670362756
 20
63.57733901825746
 10
-15.01963528812125
 20
63.49781642981401
 10
-15.3596093947874
 20
63.41643740811107
 10
-15.69928392397924
 20
63.33320312114167
 10
-16.03864377686834
 20
63.24811489976206
 10
-16.3776738576297
 20
63.16117423783295
 10
-16.71635907563144
 20
63.07238279232551
 10
-17.05468434762876
 20
62.98174238339214
 10
-17.39263459996093
 20
62.88925499440219
 10
-17.73019477075096
 20
62.79492277194223
 10
-18.06734981210749
 20
62.69874802578064
 10
-18.4040846923278
 20
62.600733228797
 10
-18.74038439810141
 20
62.50088101687568
 10
-19.07623393671402
 20
62.39919418876375
 10
-19.41161833825042
 20
62.29567570589342
 10
-19.74652265779613
 20
62.19032869216859
 10
-20.08093197763721
 20
62.08315643371578
 10
-20.41483140945714
 20
61.97416237859949
 10
-20.74820609653035
 20
61.86335013650172
 10
-21.08104121591192
 20
61.750723478366
 10
-21.41332198062232
 20
61.63628633600591
 10
-21.74503364182675
 20
61.52004280167804
 10
-22.07616149100871
 20
61.4019971276195
 10
-22.40669086213648
 20
61.28215372555035
 10
-22.73660713382238
 20
61.16051716614067
 10
-23.06589573147396
 20
61.03709217844258
 10
-23.39454212943648
 20
60.91188364928751
 10
-23.72253185312577
 20
60.78489662264855
 10
-24.04985048115145
 20
60.65613629896837
 10
-24.37648364742908
 20
60.52560803445261
 10
-24.70241704328108
 20
60.39331734032918
 10
-25.0276364195258
 20
60.25926988207362
 10
-25.35212758855373
 20
60.12347147860055
 10
-25.67587642639051
 20
59.98592810142191
 10
-25.99886887474617
 20
59.84664587377153
 10
-26.32109094304966
 20
59.7056310696971
 10
-26.6425287104683
 20
59.56289011311937
 10
-26.96316832791153
 20
59.41842957685881
 10
-27.28299602001827
 20
59.27225618163021
 10
-27.60199808712729
 20
59.12437679500564
 10
-27.92016090722997
 20
58.97479843034595
 10
-28.23747093790515
 20
58.823528245701
 10
-28.55391471823502
 20
58.67057354267938
 10
-28.8694788707018
 20
58.51594176528775
 10
-29.18415010306473
 20
58.35964049874003
 10
-29.4979152102165
 20
58.20167746823718
 10
-29.81076107601877
 20
58.04206053771789
 10
-30.12267467511633
 20
57.88079770858018
 10
-30.43364307472926
 20
57.71789711837513
 10
-30.74365343642235
 20
57.55336703947225
 10
-31.052693017852
 20
57.38721587769795
 10
-31.36074917448917
 20
57.21945217094646
 10
-31.66780936131851
 20
57.05008458776475
 10
-31.97386113451324
 20
56.8791219259112
 10
-32.27889215308481
 20
56.70657311088863
 10
-32.58289018050736
 20
56.5324471944526
 10
-32.88584308631647
 20
56.35675335309496
 10
-33.18773884768158
 20
56.17950088650341
 10
-33.48856555095168
 20
56.00069921599772
 10
-33.78831139317423
 20
55.82035788294285
 10
-34.08696468358647
 20
55.63848654713972
 10
-34.38451384507888
 20
55.4550949851942
 10
-34.68094741563065
 20
55.27019308886461
 10
-34.97625404971656
 20
55.08379086338873
 10
-35.2704225196848
 20
54.89589842579042
 10
-35.56344171710593
 20
54.70652600316668
 10
-35.85530065409215
 20
54.51568393095586
 10
-36.14598846458668
 20
54.32338265118726
 10
-36.43549440562324
 20
54.12963271071294
 10
-36.72380785855507
 20
53.93444475942225
 10
-37.01091833025325
 20
53.73782954843996
 10
-37.29681545427427
 20
53.53979792830791
 10
-37.58148899199638
 20
53.34036084715162
 10
-37.86492883372456
 20
53.13952934883192
 10
-38.14712499976422
 20
52.93731457108247
 10
-38.42806764146278
 20
52.73372774363343
 10
-38.70774704221956
 20
52.52878018632266
 10
-38.98615361846357
 20
52.32248330719403
 10
-39.26327792059901
 20
52.11484860058444
 10
-39.5391106339183
 20
51.90588764519953
 10
-39.81364257948287
 20
51.69561210217903
 10
-40.08686471497106
 20
51.48403371315215
 10
-40.35876813549339
 20
51.27116429828402
 10
-40.62934407437509
 20
51.05701575431326
 10
-40.89858390390574
 20
50.84160005258182
 10
-41.1664791360558
 20
50.6249292370574
 10
-41.43302142316048
 20
50.40701542234923
 10
-41.69820255857038
 20
50.18787079171778
 10
-41.96201447726899
 20
49.96750759507904
 10
-42.22444925645761
 20
49.74593814700396
 10
-42.48549911610672
 20
49.52317482471375
 10
-42.74515641947469
 20
49.2992300660716
 10
-43.00341367359339
 20
49.07411636757139
 10
-43.260263529721
 20
48.84784628232411
 10
-43.51569878376166
 20
48.62043241804268
 10
-43.76971237665279
 20
48.39188743502535
 10
-44.02229739471937
 20
48.16222404413882
 10
-44.27344706999556
 20
47.93145500480151
 10
-44.52315478051422
 20
47.69959312296719
 10
-44.77141405056368
 20
47.46665124911016
 10
-45.01821855091236
 20
47.23264227621227
 10
-45.26356209900138
 20
46.99757913775227
 10
-45.50743865910522
 20
46.76147480569812
 10
-45.74984234246056
 20
46.52434228850309
 10
-45.99076740736339
 20
46.28619462910591
 10
-46.11067370384106
 20
46.16674420593835
 10
-46.12563586681426
 20
46.15179537008049
 10
-46.13311476971068
 20
46.14431949487037
 10
-46.13685367643877
 20
46.14058119312001
 10
-46.1389048671622
 20
46.13853007768254
 10
-46.20236061348793
 20
46.07507433135682
 10
-46.71073470787154
 20
45.56670023697319
 10
-47.22024623790378
 20
45.05718870694096
 10
-48.24179199510481
 20
44.03564294973993
 10
-49.2652153902557
 20
43.01221955458907
 10
-50.28873591472574
 20
41.98869903011902
 10
-51.31058528163405
 20
40.9668496632107
 10
-51.82033650597007
 20
40.45709843887467
 10
-52.32901744825728
 20
39.94841749658749
 10
-52.83641491920806
 20
39.44102002563671
 10
-53.34231830801284
 20
38.93511663683192
 10
-53.84651985951274
 20
38.43091508533204
 10
-54.34881494216741
 20
37.92862000267736
 10
-54.84900230614665
 20
37.42843263869811
 10
-55.34688433092369
 20
36.93055061392108
 10
-55.59490013552633
 20
36.68253480931845
 10
-55.65680365625576
 20
36.620631288589
 10
-55.6877400970839
 20
36.58969484776088
 10
-55.6954726036892
 20
36.58196234115557
 10
-55.69933861595611
 20
36.57809632888866
 10
-55.70236134006353
 20
36.57507360505595
 10
-55.70280068568025
 20
36.57463435646644
 10
-55.70631984422622
 20
36.57112225995304
 10
-55.72047458722743
 20
36.55710789804683
 10
-55.74915894939278
 20
36.52924719799415
 10
-55.80802584909282
 20
36.4742388219567
 10
-55.86888501552602
 20
36.4202600847068
 10
-55.93172571068184
 20
36.36740702327667
 10
-55.99653200024842
 20
36.3157768942197
 10
-56.0632825554688
 20
36.26546784240333
 10
-56.13195047609481
 20
36.21657854451882
 10
-56.20250313742516
 20
36.16920782863809
 10
-56.27490206436657
 20
36.12345427152916
 10
-56.3491028353629
 20
36.07941577583132
 10
-56.42505501889022
 20
36.03718912957997
 10
-56.50270214501817
 20
35.99686955095473
 10
-56.58198171428416
 20
35.95855022149147
 10
-56.66282524582214
 20
35.92232181134481
 10
-56.74515836632976
 20
35.88827200050053
 10
-56.82890094105155
 20
35.85648500011064
 10
-56.91396724750596
 20
35.8270410783487
 10
-57.00026619219562
 20
35.80001609535156
 10
-57.08770157002073
 20
35.77548105191938
 10
-57.17617236557362
 20
35.75350165668198
 10
-57.26557309493852
 20
35.73413791640274
 10
-57.35579418606251
 20
35.71744375397783
 10
-57.446722395216
 20
35.70346665849658
 10
-57.53824125653226
 20
35.69224737146054
 10
-57.63023156111891
 20
35.6838196129142
 10
-57.72257186178022
 20
35.6782098508271
 10
-57.81513899898767
 20
35.67543711658775
 10
-57.90780864339793
 20
35.67551286893603
 10
-58.00045584994919
 20
35.67844090807947
 10
-58.09295561837654
 20
35.68421734112313
 10
-58.18518345487733
 20
35.6928305993028
 10
-58.27701592963419
 20
35.70426150686181
 10
-58.36833122496415
 20
35.71848340076388
 10
-58.45900966900703
 20
35.73546229980286
 10
-58.54893425009277
 20
35.75515712106627
 10
-58.63799110722663
 20
35.77751994114573
 10
-58.72606999250115
 20
35.80249629897402
 10
-58.81306470167054
 20
35.83002553671497
 10
-58.89887346960085
 20
35.86004117474574
 10
-58.98339932782469
 20
35.89247131645758
 10
-59.06655042197289
 20
35.9272390783646
 10
-59.14824028741326
 20
35.96426304085124
 10
-59.22838808199087
 20
36.00345771480955
 10
-59.30691877531883
 20
36.04473401941343
 10
-59.38376329460964
 20
36.08799976634631
 10
-59.45885862754797
 20
36.13316014593493
 10
-59.53214788318601
 20
36.18011821084058
 10
-59.60358031227747
 20
36.22877535320969
 10
-59.67311128885818
 20
36.27903177148443
 10
-59.74070225521923
 20
36.33078692340737
 10
-59.80632063270531
 20
36.38393996211874
 10
-59.86993970100151
 20
36.43839015262662
 10
-59.93153844874901
 20
36.49403726632609
 10
-59.99110139845377
 20
36.55078195164072
 10
-60.0056727397737
 20
36.56512808748443
 10
-60.01291041493937
 20
36.57232410197209
 10
-60.01471483214601
 20
36.57412546378385
 10
-60.01561629039245
 20
36.57502649638614
 10
-60.01712726163741
 20
36.57653746530322
 10
-60.02109260352124
 20
36.58050280718705
 10
-60.02902340637776
 20
36.58843361004357
 10
-60.04488548779633
 20
36.60429569146214
 10
-60.17180480366199
 20
36.73121500732781
 10
-61.18852646061644
 20
37.74793666428225
 10
-62.20740172676086
 20
38.76681193042669
 10
-63.22803872179311
 20
39.78744892545893
 10
-64.25004464669349
 20
40.80945485035932
 10
-65.27302628658965
 20
41.83243649025547
 10
-67.32034478553448
 20
43.87975498920033
 10
-69.36685922090515
 20
45.926269424571
 10
-70.38884169336412
 20
46.94825189702998
 10
-71.40945979841163
 20
47.96887000207749
 10
-72.42833128807496
 20
48.9877414917408
 10
-73.44507739582654
 20
50.00448759949238
 10
-74.45932328907666
 20
51.01873349274251
 10
-75.47069851007385
 20
52.0301087137397
 10
-75.97519515234505
 20
52.53460535601091
 10
-76.47883740417825
 20
53.03824760784411
 10
-76.98158037726327
 20
53.54099058092912
 10
-77.48337953453068
 20
54.04278973819653
 10
-77.98419070230391
 20
54.54360090596976
 10
-78.48397008220189
 20
55.04338028586774
 10
-78.98267426278933
 20
55.54208446645517
 10
-79.48026023097101
 20
56.03967043463686
 10
-79.97668538312263
 20
56.53609558678847
 10
-80.22444945419692
 20
56.78385965786277
 10
-80.34821706972456
 20
56.90762727339041
 10
-80.37914694444181
 20
56.93855714810766
 10
-80.38301283923951
 20
56.94242304290534
 10
-80.38560749747938
 20
56.94501770188034
 10
-80.3858452182003
 20
56.94525545681816
 10
-80.38632059384857
 20
56.94573105420662
 10
-80.38822121843082
 20
56.94763461032754
 10
-80.41843807670499
 20
56.97834459849655
 10
-80.47774795616851
 20
57.0411809958835
 10
-80.53548783362947
 20
57.10587564020623
 10
-80.59157321924319
 20
57.17238807349289
 10
-80.6459214961368
 20
57.24067319948222
 10
-80.69845225742559
 20
57.31068133507206
 10
-80.74908764056479
 20
57.38235828766719
 10
-80.79775265644615
 20
57.45564545863577
 10
-80.84437551061588
 20
57.5304799728292
 10
-80.88888791398771
 20
57.60679483385615
 10
-80.9312253804582
 20
57.68451910453353
 10
-80.97132750889869
 20
57.76357811166804
 10
-81.00913824709991
 20
57.84389367405758
 10
-81.04460613538098
 20
57.92538435234426
 10
-81.07768452774363
 20
58.0079657191074
 10
-81.1083317886503
 20
58.09155064735716
 10
-81.13651146373266
 20
58.17604961538414
 10
-81.16219242298686
 20
58.26137102573687
 10
-81.18534897528475
 20
58.34742153594679
 10
-81.20596095331748
 20
58.43410639849541
 10
-81.22401376838769
 20
58.52132980742773
 10
-81.2394984347733
 20
58.60899524895852
 10
-81.25241156369357
 20
58.6970058533956
 10
-81.26275532721377
 20
58.78526474571599
 10
-81.27053739272104
 20
58.87367539217791
 10
-81.27577082888919
 20
58.96214194043019
 10
-81.27847398431649
 20
59.05056955069079
 10
-81.27888384868432
 20
59.0947394725214
 10
-81.27889117766889
 20
59.10025780679691
 10
-81.27889148876503
 20
59.10163727863624
 10
-81.27889148880482
 20
59.11163797994469
 10
-81.27889148880482
 20
59.13183889619451
 10
-81.27889148880482
 20
59.21264256119332
 10
-81.27889148880482
 20
59.37424989119094
 10
-81.27889148880482
 20
60.02067921118188
 10
-81.27889148880486
 20
62.60639649114568
 10
-81.27889148880489
 20
63.89925513112761
 10
-81.27889148880489
 20
64.54568445111856
 10
-81.27889148880491
 20
64.86889911111383
 10
-81.27889148880491
 20
64.94970277611265
 10
-81.27889148880491
 20
64.99010460861206
 10
-81.27889148880491
 20
65.01030552486188
 10
-81.27889148880491
 20
65.02040598298667
 10
-81.27889148880491
 20
65.02293109751787
 10
-81.27889148880491
 20
65.02419365478345
 10
-81.27889148880491
 20
65.03273220074222
 10
-81.27889148880491
 20
65.09927914104465
 10
-81.27889148880493
 20
67.22878123073688
  0
LWPOLYLINE
  5
D9
330
1F
100
AcDbEntity
  8
0.1mm kerf$Mid
100
AcDbPolyline
 90
       41
 70
     1
 43
0.0
 10
-38.41423992933701
 20
155.2899934304831
 10
-38.42979531031182
 20
155.5090361458257
 10
-38.47923147471637
 20
155.7341216661373
 10
-38.56534208964599
 20
155.9575148414564
 10
-38.6885220871281
 20
156.1703592561884
 10
-38.84630480265334
 20
156.3636419076519
 10
-39.03338038461944
 20
156.5293483062182
 10
-39.24216045251588
 20
156.6615258687265
 10
-39.46377164638875
 20
156.756973831771
 10
-39.68921643762535
 20
156.8153989762337
 10
-39.91040731935468
 20
156.8390583258643
 10
-40.12768820770067
 20
156.8313514876197
 10
-40.35192807191642
 20
156.7907258863537
 10
-40.57654487589978
 20
156.7139255399655
 10
-40.79288449180887
 20
156.5998973159213
 10
-40.99186792029033
 20
156.450372985719
 10
-41.16512248682237
 20
156.2699837789701
 10
-41.30609682384583
 20
156.0658285126103
 10
-41.41086567388056
 20
155.8465668355466
 10
-41.47842443339807
 20
155.621271693672
 10
-41.51044859614119
 20
155.398338982767
 10
-41.51044859614119
 20
155.1816478781993
 10
-41.47842443339808
 20
154.9587151672944
 10
-41.41086567388056
 20
154.7334200254198
 10
-41.30609682384582
 20
154.514158348356
 10
-41.16512248682236
 20
154.3100030819962
 10
-40.99186792029032
 20
154.1296138752473
 10
-40.79288449180886
 20
153.980089545045
 10
-40.57654487589977
 20
153.8660613210008
 10
-40.35192807191642
 20
153.7892609746126
 10
-40.12768820770066
 20
153.7486353733466
 10
-39.91040731935468
 20
153.7409285351019
 10
-39.68921643762535
 20
153.7645878847326
 10
-39.46377164638875
 20
153.8230130291953
 10
-39.24216045251588
 20
153.9184609922398
 10
-39.03338038461944
 20
154.0506385547481
 10
-38.84630480265334
 20
154.2163449533144
 10
-38.6885220871281
 20
154.4096276047778
 10
-38.56534208964599
 20
154.6224720195099
 10
-38.47923147471638
 20
154.845865194829
 10
-38.42979531031183
 20
155.0709507151406
  0
LWPOLYLINE
  5
DA
330
1F
100
AcDbEntity
  8
0.1mm kerf$Mid
100
AcDbPolyline
 90
       41
 70
     1
 43
0.0
 10
57.576367599792
 20
149.85668482767
 10
57.56081221881718
 20
150.0757275430126
 10
57.51137605441262
 20
150.3008130633241
 10
57.42526543948303
 20
150.5242062386433
 10
57.3020854420009
 20
150.7370506533753
 10
57.14430272647567
 20
150.9303333048387
 10
56.95722714450957
 20
151.096039703405
 10
56.74844707661315
 20
151.2282172659134
 10
56.52683588274028
 20
151.3236652289579
 10
56.30139109150367
 20
151.3820903734206
 10
56.08020020977434
 20
151.4057497230512
 10
55.86291932142836
 20
151.3980428848066
 10
55.63867945721262
 20
151.3574172835406
 10
55.41406265322926
 20
151.2806169371523
 10
55.19772303732017
 20
151.1665887131081
 10
54.99873960883871
 20
151.0170643829058
 10
54.82548504230666
 20
150.8366751761569
 10
54.6845107052832
 20
150.6325199097971
 10
54.57974185524847
 20
150.4132582327333
 10
54.51218309573095
 20
150.1879630908587
 10
54.48015893298784
 20
149.9650303799538
 10
54.48015893298784
 20
149.7483392753861
 10
54.51218309573095
 20
149.5254065644812
 10
54.57974185524847
 20
149.3001114226065
 10
54.6845107052832
 20
149.0808497455428
 10
54.82548504230665
 20
148.8766944791831
 10
54.99873960883871
 20
148.6963052724341
 10
55.19772303732016
 20
148.5467809422318
 10
55.41406265322925
 20
148.4327527181876
 10
55.63867945721263
 20
148.3559523717994
 10
55.86291932142836
 20
148.3153267705334
 10
56.08020020977436
 20
148.3076199322888
 10
56.30139109150368
 20
148.3312792819194
 10
56.52683588274028
 20
148.3897044263821
 10
56.74844707661316
 20
148.4851523894267
 10
56.95722714450958
 20
148.6173299519349
 10
57.14430272647568
 20
148.7830363505012
 10
57.30208544200092
 20
148.9763190019646
 10
57.42526543948304
 20
149.1891634166967
 10
57.51137605441265
 20
149.4125565920158
 10
57.5608122188172
 20
149.6376421123274
  0
LWPOLYLINE
  5
DB
330
1F
100
AcDbEntity
  8
0.1mm kerf$Mid
100
AcDbPolyline
 90
       41
 70
     1
 43
0.0
 10
57.35171356237286
 20
68.88578643762691
 10
57.33615818139804
 20
69.1048291529695
 10
57.28672201699347
 20
69.32991467328104
 10
57.20061140206389
 20
69.55330784860021
 10
57.07743140458176
 20
69.76615226333226
 10
56.91964868905653
 20
69.95943491479568
 10
56.73257310709043
 20
70.12514131336196
 10
56.52379303919399
 20
70.25731887587027
 10
56.30218184532113
 20
70.35276683891485
 10
56.07673705408452
 20
70.41119198337755
 10
55.85554617235519
 20
70.43485133300817
 10
55.63826528400921
 20
70.42714449476355
 10
55.41402541979347
 20
70.38651889349752
 10
55.18940861581011
 20
70.30971854710926
 10
54.97306899990102
 20
70.19569032306503
 10
54.77408557141957
 20
70.04616599286276
 10
54.60083100488751
 20
69.86577678611381
 10
54.45985666786405
 20
69.66162151975403
 10
54.35508781782932
 20
69.44235984269031
 10
54.2875290583118
 20
69.21706470081568
 10
54.25550489556869
 20
68.99413198991074
 10
54.25550489556869
 20
68.7774408853431
 10
54.28752905831181
 20
68.55450817443816
 10
54.35508781782932
 20
68.32921303256353
 10
54.45985666786405
 20
68.10995135549979
 10
54.60083100488751
 20
67.90579608914004
 10
54.77408557141957
 20
67.7254068823911
 10
54.97306899990102
 20
67.5758825521888
 10
55.18940861581011
 20
67.4618543281446
 10
55.41402541979348
 20
67.38505398175634
 10
55.6382652840092
 20
67.34442838049031
 10
55.85554617235521
 20
67.3367215422457
 10
56.07673705408453
 20
67.36038089187632
 10
56.30218184532114
 20
67.41880603633903
 10
56.52379303919401
 20
67.51425399938359
 10
56.73257310709043
 20
67.64643156189189
 10
56.91964868905653
 20
67.81213796045818
 10
57.07743140458178
 20
68.00542061192159
 10
57.20061140206389
 20
68.21826502665364
 10
57.2867220169935
 20
68.4416582019728
 10
57.33615818139806
 20
68.66674372228435
  0
LWPOLYLINE
  5
DC
330
1F
100
AcDbEntity
  8
0.1mm kerf$Mid
100
AcDbPolyline
 90
       41
 70
     1
 43
0.0
 10
-56.30901237058847
 20
39.56020106423942
 10
-56.32456775156329
 20
39.77924377958199
 10
-56.37400391596784
 20
40.00432929989354
 10
-56.46011453089745
 20
40.22772247521271
 10
-56.58329452837957
 20
40.44056688994476
 10
-56.74107724390482
 20
40.63384954140818
 10
-56.92815282587092
 20
40.79955593997445
 10
-57.13693289376735
 20
40.93173350248276
 10
-57.35854408764023
 20
41.02718146552732
 10
-57.58398887887682
 20
41.08560660999003
 10
-57.80517976060615
 20
41.10926595962066
 10
-58.02246064895213
 20
41.10155912137605
 10
-58.24670051316788
 20
41.06093352011001
 10
-58.47131731715124
 20
40.98413317372176
 10
-58.68765693306032
 20
40.87010494967754
 10
-58.88664036154178
 20
40.72058061947525
 10
-59.05989492807383
 20
40.54019141272631
 10
-59.20086926509728
 20
40.33603614636653
 10
-59.30563811513201
 20
40.1167744693028
 10
-59.37319687464954
 20
39.89147932742819
 10
-59.40522103739264
 20
39.66854661652323
 10
-59.40522103739265
 20
39.4518555119556
 10
-59.37319687464955
 20
39.22892280105065
 10
-59.30563811513201
 20
39.00362765917602
 10
-59.20086926509728
 20
38.7843659821123
 10
-59.05989492807383
 20
38.58021071575254
 10
-58.88664036154178
 20
38.3998215090036
 10
-58.68765693306031
 20
38.25029717880131
 10
-58.47131731715124
 20
38.1362689547571
 10
-58.24670051316788
 20
38.05946860836884
 10
-58.02246064895212
 20
38.0188430071028
 10
-57.80517976060616
 20
38.01113616885819
 10
-57.58398887887683
 20
38.03479551848882
 10
-57.35854408764023
 20
38.09322066295152
 10
-57.13693289376735
 20
38.18866862599609
 10
-56.92815282587092
 20
38.32084618850439
 10
-56.74107724390482
 20
38.48655258707069
 10
-56.58329452837958
 20
38.67983523853409
 10
-56.46011453089746
 20
38.89267965326613
 10
-56.37400391596786
 20
39.11607282858529
 10
-56.32456775156331
 20
39.34115834889686
  0
LWPOLYLINE
  5
DD
330
1F
100
AcDbEntity
  8
0.1mm kerf$Mid
100
AcDbPolyline
 90
       41
 70
     1
 43
0.0
 10
-76.67889148880485
 20
90.50593798358891
 10
-76.69444686977967
 20
90.72498069893148
 10
-76.74388303418421
 20
90.95006621924301
 10
-76.82999364911383
 20
91.17345939456219
 10
-76.95317364659593
 20
91.3863038092942
 10
-77.11095636212117
 20
91.5795864607576
 10
-77.29803194408727
 20
91.74529285932392
 10
-77.5068120119837
 20
91.87747042183222
 10
-77.72842320585656
 20
91.97291838487677
 10
-77.95386799709316
 20
92.03134352933947
 10
-78.17505887882247
 20
92.05500287897008
 10
-78.39233976716847
 20
92.04729604072548
 10
-78.61657963138421
 20
92.00667043945946
 10
-78.84119643536759
 20
91.9298700930712
 10
-79.05753605127668
 20
91.81584186902698
 10
-79.25651947975812
 20
91.66631753882471
 10
-79.42977404629018
 20
91.48592833207578
 10
-79.57074838331364
 20
91.281773065716
 10
-79.67551723334835
 20
91.06251138865227
 10
-79.74307599286588
 20
90.83721624677767
 10
-79.77510015560899
 20
90.61428353587272
 10
-79.77510015560899
 20
90.39759243130509
 10
-79.74307599286588
 20
90.17465972040014
 10
-79.67551723334835
 20
89.94936457852551
 10
-79.57074838331362
 20
89.73010290146177
 10
-79.42977404629018
 20
89.52594763510203
 10
-79.25651947975812
 20
89.34555842835308
 10
-79.05753605127666
 20
89.1960340981508
 10
-78.84119643536758
 20
89.08200587410659
 10
-78.61657963138421
 20
89.00520552771835
 10
-78.39233976716845
 20
88.96457992645229
 10
-78.1750588788225
 20
88.95687308820768
 10
-77.95386799709316
 20
88.98053243783831
 10
-77.72842320585657
 20
89.03895758230103
 10
-77.50681201198371
 20
89.1344055453456
 10
-77.29803194408728
 20
89.2665831078539
 10
-77.11095636212118
 20
89.43228950642019
 10
-76.95317364659594
 20
89.62557215788359
 10
-76.82999364911385
 20
89.83841657261564
 10
-76.74388303418424
 20
90.0618097479348
 10
-76.69444686977968
 20
90.28689526824637
  0
LWPOLYLINE
  5
DE
330
1F
100
AcDbEntity
  8
0.1mm kerf$Mid
100
AcDbPolyline
 90
        6
 70
     0
 43
0.0
 10
-64.52925415039065
 20
148.5156015857417
 10
-64.52925415039072
 20
147.6389164653284
 10
-64.52925415039081
 20
146.7622313449152
 10
-64.52925415039088
 20
145.885546224502
 10
-64.52925415039096
 20
145.0088611040887
 10
-64.52925415039103
 20
144.1321759836755
  0
LWPOLYLINE
  5
DF
330
1F
100
AcDbEntity
  8
0.1mm kerf$Mid
100
AcDbPolyline
 90
      201
 70
     0
 43
0.0
 10
-80.22889148880485
 20
119.001566076817
 10
-80.26954584710541
 20
119.0023343849923
 10
-80.31072811538104
 20
119.0046858306074
 10
-80.35235552627007
 20
119.0086872350987
 10
-80.39433795643981
 20
119.0144007643533
 10
-80.43657818154493
 20
119.0218830288299
 10
-80.47897224954416
 20
119.0311841798681
 10
-80.52140997710013
 20
119.0423470191072
 10
-80.56377557114087
 20
119.0554061394926
 10
-80.60594837461978
 20
119.0703871174844
 10
-80.64780373214892
 20
119.0873057766818
 10
-80.68921396760131
 20
119.106167543055
 10
-80.73004946211097
 20
119.1269669112578
 10
-80.7701798172914
 20
119.1496870400356
 10
-80.80947508510996
 20
119.1742994925378
 10
-80.84780704286115
 20
119.2007641344133
 10
-80.88505048924185
 20
119.2290291989953
 10
-80.92108453578978
 20
119.2590315247642
 10
-80.95579386702363
 20
119.2906969657745
 10
-80.98906994259971
 20
119.3239409710183
 10
-81.02081211571764
 20
119.3586693239655
 10
-81.05092864385037
 20
119.3947790289962
 10
-81.07933757058573
 20
119.4321593272973
 10
-81.10596746083713
 20
119.470692821251
 10
-81.13075797575994
 20
119.5102566835288
 10
-81.1536602782187
 20
119.5507239251462
 10
-81.17463726438364
 20
119.591964695707
 10
-81.19366362178899
 20
119.6338475889733
 10
-81.21072571875307
 20
119.6762409277325
 10
-81.22582133426206
 20
119.7190140035931
 10
-81.23895924109637
 20
119.7620382497394
 10
-81.25015865801451
 20
119.8051883276421
 10
-81.25944858912353
 20
119.8483431121192
 10
-81.26686707012281
 20
119.8913865627786
 10
-81.27246034191191
 20
119.9342084735996
 10
-81.27628197214177
 20
119.9767050960635
 10
-81.27839194473258
 20
120.0187796346917
 10
-81.27882533152819
 20
120.0396303687481
 10
-81.27889035661144
 20
120.0500044398092
 10
-81.27889145561599
 20
120.0512987005166
 10
-81.27889148362468
 20
120.0514604435467
 10
-81.27889148852014
 20
120.0515413117595
 10
-81.27889148879527
 20
120.0515615284686
 10
-81.27889148880488
 20
120.0531504163523
 10
-81.27889148880488
 20
120.0572389621271
 10
-81.27889148880488
 20
120.0899488797712
 10
-81.27889148880486
 20
120.1553769468708
 10
-81.27889148880488
 20
120.4171969743535
 10
-81.27889148880489
 20
120.9413315759953
 10
-81.27889148880489
 20
121.9913830250357
 10
-81.27889148880488
 20
123.0434366356759
 10
-81.27889148880488
 20
124.0970423848029
 10
-81.27889148880486
 20
125.1517496557384
 10
-81.27889148880486
 20
127.2626671674075
 10
-81.27889148880484
 20
129.3725966230719
 10
-81.27889148880484
 20
130.4260761156011
 10
-81.27889148880482
 20
131.47797655701
 10
-81.27889148880484
 20
132.5278608477319
 10
-81.27889148880482
 20
133.5752962514481
 10
-81.27889148880482
 20
134.0979617247295
 10
-81.27889148880482
 20
134.6198549670313
 10
-81.27889148880482
 20
135.1409233655419
 10
-81.27889148880482
 20
135.6611146844411
 10
-81.27889148880482
 20
136.1803770812933
 10
-81.27889148880482
 20
136.6986591231377
 10
-81.2788914888048
 20
137.2159098022646
 10
-81.27889148880482
 20
137.7320785516668
 10
-81.27889148880482
 20
138.2471152601598
 10
-81.2788914888048
 20
138.7609702871617
 10
-81.2788914888048
 20
139.2735944771242
 10
-81.2788914888048
 20
139.7849391736072
 10
-81.27889148880482
 20
139.9125697735809
 10
-81.2788914888048
 20
139.9444643703647
 10
-81.27889148880479
 20
139.9604097027576
 10
-81.2788914888048
 20
139.9683818768174
 10
-81.27889148880479
 20
139.9723678407338
 10
-81.27889148858765
 20
139.9727593074532
 10
-81.27889141397281
 20
139.9734062360333
 10
-81.27888977538916
 20
139.9759942670468
 10
-81.27888006082027
 20
139.9811718414177
 10
-81.27883484084325
 20
139.9915329723184
 10
-81.27722460898537
 20
140.0746914186606
 10
-81.27336280798044
 20
140.1582710637012
 10
-81.2672070951892
 20
140.2421879076937
 10
-81.25871910432568
 20
140.3263549268529
 10
-81.24786472051187
 20
140.4106822990834
 10
-81.23461434199491
 20
140.4950776542531
 10
-81.21894312585911
 20
140.5794463481101
 10
-81.20083121510424
 20
140.6636917586381
 10
-81.18026394453893
 20
140.747715603358
 10
-81.15723202305519
 20
140.831418275786
 10
-81.13173169000456
 20
140.914699198985
 10
-81.10376484359212
 20
140.997457193881
 10
-81.07333913943527
 20
141.0795908597768
 10
-81.04046805769964
 20
141.1609989642811
 10
-81.00517093752214
 20
141.2415808396889
 10
-80.96747297775516
 20
141.3212367827048
 10
-80.92740520341203
 20
141.3998684542913
 10
-80.88500439755767
 20
141.4773792763659
 10
-80.84031299876242
 20
141.5536748220469
 10
-80.79337896461519
 20
141.6286631961791
 10
-80.74425560216948
 20
141.7022554029441
 10
-80.69300136656272
 20
141.7743656974774
 10
-80.63967962940287
 20
141.8449119185809
 10
-80.58435841884588
 20
141.913815799824
 10
-80.52711013359287
 20
141.9810032565658
 10
-80.46801123330499
 20
142.0464046467115
 10
-80.40714190817009
 20
142.1099550033181
 10
-80.34458573054607
 20
142.1715942374904
 10
-80.28042929175802
 20
142.2312673103541
 10
-80.21476182722846
 20
142.2889243732463
 10
-80.14767483318035
 20
142.3445208756203
 10
-80.07926167816359
 20
142.3980176405203
 10
-80.00961721262449
 20
142.4493809078279
 10
-79.93883737966257
 20
142.498582345816
 10
-79.86701883000456
 20
142.5455990318637
 10
-79.79425854407413
 20
142.5904134034735
 10
-79.72065346385305
 20
142.6330131810017
 10
-79.56643059171729
 20
142.719104783438
 10
-79.25736254179527
 20
142.8909662560812
 10
-78.63806408946281
 20
143.2326907134668
 10
-78.01729049915843
 20
143.5717152074579
 10
-77.39513151261164
 20
143.9079981245848
 10
-76.77167699727291
 20
144.2414987368004
 10
-76.14701690410808
 20
144.5721772170796
 10
-75.52124122552995
 20
144.8999946543199
 10
-74.89443995350736
 20
145.2249130675323
 10
-74.26670303789117
 20
145.546895419312
 10
-73.95251180134875
 20
145.7067742591381
 10
-73.63812034499659
 20
145.8659056285818
 10
-73.32353988232483
 20
146.0242851689045
 10
-73.00878161648009
 20
146.1819085825986
 10
-72.6938567389992
 20
146.3387716337214
 10
-72.37877642854901
 20
146.4948701482187
 10
-72.06355184967238
 20
146.6502000142353
 10
-71.7481941515409
 20
146.8047571824144
 10
-71.43271446671464
 20
146.958537666185
 10
-71.11712390990878
 20
147.1115375420376
 10
-70.80143357676792
 20
147.2637529497878
 10
-70.48565454264799
 20
147.4151800928283
 10
-70.16979786140623
 20
147.5658152383685
 10
-69.85387456419927
 20
147.7156547176631
 10
-69.53789565828973
 20
147.8646949262281
 10
-69.22187212586159
 20
148.0129323240446
 10
-68.90581492284453
 20
148.1603634357522
 10
-68.58973497774742
 20
148.3069848508286
 10
-68.27364319050137
 20
148.4527932237587
 10
-67.95755043131234
 20
148.5977852741913
 10
-67.64146753952374
 20
148.7419577870844
 10
-67.32540532248922
 20
148.8853076128377
 10
-67.0093745544557
 20
149.0278316674149
 10
-66.69338597545695
 20
149.1695269324525
 10
-66.37745029021821
 20
149.3103904553582
 10
-66.0615781670714
 20
149.4504193493972
 10
-65.98253615977701
 20
149.4850672246002
 10
-65.94208048120616
 20
149.5009223784176
 10
-65.90062290493155
 20
149.5152125801261
 10
-65.85825145074377
 20
149.5278567548897
 10
-65.81506220330735
 20
149.5387802538001
 10
-65.77115873890434
 20
149.5479158092218
 10
-65.72665142050775
 20
149.5552044298111
 10
-65.68165656853394
 20
149.5605962144595
 10
-65.63629551831057
 20
149.5640510654428
 10
-65.59069357881703
 20
149.5655392828227
 10
-65.54497891044433
 20
149.5650420246046
 10
-65.49928134223083
 20
149.5625516202515
 10
-65.45373115112318
 20
149.5580717287543
 10
-65.4084578271804
 20
149.5516173364537
 10
-65.3635888492125
 20
149.5432145940132
 10
-65.31924849508863
 20
149.5329004961939
 10
-65.27555670987469
 20
149.5207224121915
 10
-65.23262805311734
 20
149.5067374781001
 10
-65.19057074407436
 20
149.4910118664055
 10
-65.14948582061733
 20
149.473619950161
 10
-65.10946642405436
 20
149.4546433815655
 10
-65.07059721839372
 20
149.4341701059984
 10
-65.03295394875902
 20
149.4122933331432
 10
-64.99657741798971
 20
149.3890933289875
 10
-64.96102602257025
 20
149.3643029360244
 10
-64.92620830682247
 20
149.3378127059526
 10
-64.89224032791686
 20
149.3096494481089
 10
-64.85923744876931
 20
149.2798502032651
 10
-64.82731323362478
 20
149.2484623212797
 10
-64.79657831694453
 20
149.2155433974228
 10
-64.76713926658483
 20
149.1811610612967
 10
-64.73909746357604
 20
149.1453926158467
 10
-64.71254802144726
 20
149.1083245278082
 10
-64.68757876792669
 20
149.0700517749451
 10
-64.66426931094554
 20
149.0306770594207
 10
-64.64269020919252
 20
148.9903099004439
 10
-64.62290226505057
 20
148.949065622781
 10
-64.60495595468684
 20
148.9070642606525
 10
-64.58889100648078
 20
148.8644293988314
 10
-64.57473613501361
 20
148.821286974308
 10
-64.56250893367716
 20
148.7777640626338
 10
-64.5522159247639
 20
148.733987672985
 10
-64.54385276185353
 20
148.6900835751142
 10
-64.53740457557316
 20
148.6461751797514
 10
-64.53284645051967
 20
148.602382491768
 10
-64.53014401840464
 20
148.5588211526562
 10
-64.52925415039067
 20
148.5156015857417
  0
LWPOLYLINE
  5
E0
330
1F
100
AcDbEntity
  8
0.1mm kerf$Mid
100
AcDbPolyline
 90
        6
 70
     0
 43
0.0
 10
-76.22889148880479
 20
119.0015660768167
 10
-77.0288914888048
 20
119.0015660768168
 10
-77.82889148880482
 20
119.0015660768168
 10
-78.62889148880483
 20
119.0015660768169
 10
-79.42889148880485
 20
119.0015660768169
 10
-80.22889148880485
 20
119.001566076817
  0
LWPOLYLINE
  5
E1
330
1F
100
AcDbEntity
  8
0.1mm kerf$Mid
100
AcDbPolyline
 90
      211
 70
     0
 43
0.0
 10
-64.52925415039103
 20
144.1321759836755
 10
-64.52964245808747
 20
144.1034745350526
 10
-64.53081914108581
 20
144.0745860241513
 10
-64.53280075066089
 20
144.0455407116092
 10
-64.53560239399616
 20
144.0163701364218
 10
-64.5392376205624
 20
143.9871070352325
 10
-64.54371831312387
 20
143.9577852508728
 10
-64.54905458453224
 20
143.9284396304129
 10
-64.55525468146589
 20
143.8991059131184
 10
-64.56232489625067
 20
143.8698206088433
 10
-64.57026948785977
 20
143.8406208675288
 10
-64.57909061313299
 20
143.8115443406112
 10
-64.58878826917892
 20
143.7826290352674
 10
-64.59936024783117
 20
143.7539131625509
 10
-64.61080210291702
 20
143.725434980578
 10
-64.62310713097163
 20
143.6972326340196
 10
-64.63626636588909
 20
143.6693439912358
 10
-64.65026858784954
 20
143.6418064804509
 10
-64.66510034669974
 20
143.6146569264099
 10
-64.6807459997957
 20
143.5879313889781
 10
-64.69718776414507
 20
143.5616650051471
 10
-64.71440578251396
 20
143.5358918358844
 10
-64.73237820299562
 20
143.5106447192216
 10
-64.75108127137414
 20
143.4859551309088
 10
-64.7704894354652
 20
143.4618530538739
 10
-64.7905754604741
 20
143.4383668576233
 10
-64.81131055428628
 20
143.4155231885922
 10
-64.83266450149781
 20
143.3933468723215
 10
-64.85460580490388
 20
143.3718608281839
 10
-64.87710183309506
 20
143.3510859972276
 10
-64.90011897276513
 20
143.3310412835413
 10
-64.92362278430809
 20
143.3117435093791
 10
-64.94757815928031
 20
143.2932073841183
 10
-64.97194947832055
 20
143.2754454869627
 10
-64.99670076815968
 20
143.2584682631482
 10
-65.02179585640829
 20
143.2422840332642
 10
-65.04719852288403
 20
143.2268990151678
 10
-65.07287264632911
 20
143.2123173578485
 10
-65.09878234546881
 20
143.1985411864954
 10
-65.12489211347274
 20
143.1855706579286
 10
-65.15102151360284
 20
143.1734415433922
 10
-65.3571742844362
 20
143.079448505742
 10
-65.56342269802029
 20
142.985045703031
 10
-65.76975380497119
 20
142.8902388112681
 10
-65.97615463416298
 20
142.7950335624251
 10
-66.18261219543462
 20
142.699435743289
 10
-66.38911348230578
 20
142.603451194295
 10
-66.59564547470113
 20
142.5070858083418
 10
-67.00874944417755
 20
142.3132363522389
 10
-67.42181977526114
 20
142.1179355213228
 10
-67.83475209708069
 20
141.9212322226554
 10
-68.24744208436598
 20
141.7231760832146
 10
-68.65978554528986
 20
141.5238174081658
 10
-69.0716785091281
 20
141.3232071382842
 10
-69.48301731358196
 20
141.1213968066035
 10
-69.89369869160961
 20
140.9184384943673
 10
-70.30361985761405
 20
140.7143847863632
 10
-70.71267859283659
 20
140.5092887257194
 10
-71.12077332980788
 20
140.3032037682445
 10
-71.5278032357108
 20
140.0961837363935
 10
-71.9336682945126
 20
139.8882827729421
 10
-72.13613299448529
 20
139.7840189376223
 10
-72.33826938772768
 20
139.6795552944515
 10
-72.54006523767451
 20
139.5748986806237
 10
-72.74150837367615
 20
139.4700559446083
 10
-72.94258669338404
 20
139.3650339446917
 10
-73.14328816510753
 20
139.2598395475191
 10
-73.34360083014158
 20
139.1544796266384
 10
-73.54351280506382
 20
139.0489610610463
 10
-73.74301228400074
 20
138.9432907337383
 10
-73.94208754086142
 20
138.8374755302618
 10
-74.14072693153871
 20
138.7315223372736
 10
-74.33891889607636
 20
138.6254380411028
 10
-74.53665196080176
 20
138.5192295263193
 10
-74.63534284432225
 20
138.4660808375437
 10
-74.68447173972482
 20
138.4395725767843
 10
-74.7080473839694
 20
138.4262486735896
 10
-74.73131130390767
 20
138.4122098542332
 10
-74.75423149701915
 20
138.3974668054076
 10
-74.77677643864677
 20
138.3820321027117
 10
-74.79891522030893
 20
138.3659201843821
 10
-74.82061768628153
 20
138.3491473129302
 10
-74.84185456722136
 20
138.3317315248238
 10
-74.86259760961363
 20
138.3136925684907
 10
-74.88281969986001
 20
138.2950518310672
 10
-74.90249498187276
 20
138.2758322544457
 10
-74.92159896710939
 20
138.2560582413113
 10
-74.94010863606591
 20
138.2357555519703
 10
-74.95800253034705
 20
138.2149511928884
 10
-74.97526083454362
 20
138.1936732979452
 10
-74.99186544727109
 20
138.1719510034942
 10
-75.00780004085547
 20
138.1498143183768
 10
-75.0230501092906
 20
138.1272939900836
 10
-75.03760300423242
 20
138.1044213682817
 10
-75.05151874471491
 20
138.0811057411585
 10
-75.06483435582568
 20
138.057268819093
 10
-75.07747561902914
 20
138.0330269367722
 10
-75.08942453638422
 20
138.0084089440612
 10
-75.10066477037487
 20
137.9834447325887
 10
-75.1111817175492
 20
137.958165115227
 10
-75.12096257157679
 20
137.932601699483
 10
-75.12999637515524
 20
137.9067867558901
 10
-75.13827406032415
 20
137.8807530825494
 10
-75.14578857134928
 20
137.8545343211659
 10
-75.15254065764984
 20
137.828179351292
 10
-75.15853153261781
 20
137.8016952462765
 10
-75.16375905280286
 20
137.7750682827048
 10
-75.16822031146929
 20
137.7482844717587
 10
-75.17191162475274
 20
137.7213295332765
 10
-75.17482851570779
 20
137.6941888687133
 10
-75.17696569615445
 20
137.6668475328915
 10
-75.17831704621804
 20
137.639290204417
 10
-75.17887559144518
 20
137.6115011546352
 10
-75.17888928409227
 20
137.6080104302609
 10
-75.17889143439636
 20
137.6062636058005
 10
-75.17889148290797
 20
137.6060451839045
 10
-75.17889148880469
 20
137.6057344810606
 10
-75.17889148880468
 20
137.5947114383026
 10
-75.17889148880467
 20
137.5506157178183
 10
-75.1788914888047
 20
137.462407379131
 10
-75.17889148880469
 20
136.75596881317
 10
-75.17889148880469
 20
136.0482831125489
 10
-75.1788914888047
 20
135.3395272355214
 10
-75.1788914888047
 20
134.6298785442056
 10
-75.1788914888047
 20
133.919514656844
 10
-75.17889148880472
 20
132.4973521608074
 10
-75.17889148880474
 20
131.0744602049493
 10
-75.17889148880472
 20
129.6522539247219
 10
-75.17889148880475
 20
128.9418475448888
 10
-75.17889148880475
 20
128.2321384973991
 10
-75.17889148880474
 20
127.5233001277397
 10
-75.17889148880477
 20
126.8155045973454
 10
-75.17889148880477
 20
126.1089227486874
 10
-75.17889148880477
 20
125.4037239729295
 10
-75.17889148880477
 20
125.0516957433393
 10
-75.17889148880477
 20
124.7000760803608
 10
-75.17889148880477
 20
124.3488856924988
 10
-75.17889148880477
 20
123.9981451738006
 10
-75.17889148880479
 20
123.6478750000749
 10
-75.17889148880481
 20
123.2980955251658
 10
-75.17889148880479
 20
122.9488269772819
 10
-75.17889148880479
 20
122.6000894553797
 10
-75.17889148880479
 20
122.2519029256047
 10
-75.17889148880481
 20
121.9042872177924
 10
-75.17889148880479
 20
121.557262022029
 10
-75.17889148880481
 20
121.2108468852716
 10
-75.17889148880481
 20
120.8650612080305
 10
-75.17889148880479
 20
120.519924241115
 10
-75.17889148880479
 20
120.1754550824441
 10
-75.17889148880479
 20
120.0894443610411
 10
-75.17889148880477
 20
120.0679484218727
 10
-75.17889148880477
 20
120.0572014666259
 10
-75.17889148880479
 20
120.0518282428379
 10
-75.1788914900214
 20
120.0515155315183
 10
-75.17889159655729
 20
120.0510903875913
 10
-75.17889374558072
 20
120.0493891008397
 10
-75.17901078749975
 20
120.0357384734853
 10
-75.17978610772233
 20
120.0082313403592
 10
-75.18130121189246
 20
119.9804702842635
 10
-75.18357706927588
 20
119.9524814446834
 10
-75.18663362290425
 20
119.9242925879493
 10
-75.1904896550549
 20
119.8959330736813
 10
-75.19516265200732
 20
119.8674338092116
 10
-75.2006686692271
 20
119.8388271915613
 10
-75.20702219821352
 20
119.8101470366675
 10
-75.21423603631804
 20
119.7814284956864
 10
-75.22232116089902
 20
119.7527079583394
 10
-75.23128660921956
 20
119.7240229434315
 10
-75.24113936551596
 20
119.6954119768284
 10
-75.25188425666645
 20
119.6669144573616
 10
-75.26352385786619
 20
119.6385705113004
 10
-75.27605840966984
 20
119.6104208362141
 10
-75.28948574769057
 20
119.5825065352212
 10
-75.30380124614983
 20
119.5548689427957
 10
-75.31899777635003
 20
119.5275494434591
 10
-75.33506568099946
 20
119.500589284836
 10
-75.35199276515148
 20
119.4740293866789
 10
-75.36976430433492
 20
119.447910147578
 10
-75.38836307025089
 20
119.4222712511559
 10
-75.40776937419424
 20
119.3971514736043
 10
-75.42796112813602
 20
119.3725884944481
 10
-75.44891392317156
 20
119.3486187124223
 10
-75.47060112481196
 20
119.3252770683113
 10
-75.49299398437084
 20
119.3025968765368
 10
-75.51606176548387
 20
119.2806096671862
 10
-75.5397718845973
 20
119.2593450400492
 10
-75.56409006407888
 20
119.2388305320775
 10
-75.58898049644419
 20
119.2190914995135
 10
-75.6144060180553
 20
119.2001510157343
 10
-75.64032829054231
 20
119.1820297856527
 10
-75.66670798812002
 20
119.1647460772915
 10
-75.6935049889256
 20
119.1483156709229
 10
-75.72067856848929
 20
119.1327518259344
 10
-75.74818759346375
 20
119.1180652653526
 10
-75.77599071378621
 20
119.1042641777435
 10
-75.80404655151816
 20
119.0913542359909
 10
-75.83231388470858
 20
119.0793386322702
 10
-75.86075182474671
 20
119.0682181283532
 10
-75.88931998581085
 20
119.0579911202309
 10
-75.9179786451752
 20
119.0486537159066
 10
-75.94668889330461
 20
119.0401998251091
 10
-75.97541277284037
 20
119.03262125959
 10
-76.00411340575998
 20
119.0259078426165
 10
-76.03275510817178
 20
119.020047526236
 10
-76.06130349238139
 20
119.0150265148824
 10
-76.08972555603564
 20
119.0108293939057
 10
-76.11798975831074
 20
119.0074392616388
 10
-76.14606608326027
 20
119.0048378636704
 10
-76.17392609057542
 20
119.0030057280539
 10
-76.20154295413183
 20
119.0019223002662
 10
-76.22889148880479
 20
119.0015660768167
  0
LWPOLYLINE
  5
E2
330
1F
100
AcDbEntity
  8
0.1mm kerf$Mid
100
AcDbPolyline
 90
       41
 70
     1
 43
0.0
 10
-65.77621837749095
 20
145.5648170012756
 10
-65.79177375846576
 20
145.7838597166183
 10
-65.8412099228703
 20
146.0089452369298
 10
-65.92732053779991
 20
146.232338412249
 10
-66.05050053528202
 20
146.445182826981
 10
-66.20828325080727
 20
146.6384654784445
 10
-66.39535883277338
 20
146.8041718770107
 10
-66.60413890066981
 20
146.9363494395191
 10
-66.82575009454267
 20
147.0317974025636
 10
-67.05119488577927
 20
147.0902225470263
 10
-67.27238576750858
 20
147.1138818966569
 10
-67.48966665585459
 20
147.1061750584123
 10
-67.71390652007034
 20
147.0655494571463
 10
-67.93852332405371
 20
146.988749110758
 10
-68.15486293996278
 20
146.8747208867138
 10
-68.35384636844423
 20
146.7251965565115
 10
-68.52710093497629
 20
146.5448073497626
 10
-68.66807527199974
 20
146.3406520834028
 10
-68.77284412203447
 20
146.1213904063391
 10
-68.84040288155199
 20
145.8960952644645
 10
-68.8724270442951
 20
145.6731625535595
 10
-68.8724270442951
 20
145.4564714489919
 10
-68.84040288155201
 20
145.2335387380869
 10
-68.77284412203447
 20
145.0082435962122
 10
-68.66807527199973
 20
144.7889819191485
 10
-68.52710093497629
 20
144.5848266527888
 10
-68.35384636844423
 20
144.4044374460399
 10
-68.15486293996277
 20
144.2549131158376
 10
-67.93852332405369
 20
144.1408848917934
 10
-67.71390652007034
 20
144.0640845454052
 10
-67.48966665585458
 20
144.0234589441391
 10
-67.27238576750861
 20
144.0157521058946
 10
-67.05119488577927
 20
144.0394114555252
 10
-66.82575009454267
 20
144.0978365999879
 10
-66.6041389006698
 20
144.1932845630324
 10
-66.39535883277337
 20
144.3254621255407
 10
-66.20828325080727
 20
144.491168524107
 10
-66.05050053528204
 20
144.6844511755704
 10
-65.92732053779991
 20
144.8972955903024
 10
-65.8412099228703
 20
145.1206887656215
 10
-65.79177375846575
 20
145.3457742859332
  0
LWPOLYLINE
  5
E3
330
1F
100
AcDbEntity
  8
0.1mm kerf$Mid
100
AcDbPolyline
 90
       41
 70
     1
 43
0.0
 10
-76.67889148880485
 20
122.051566076817
 10
-76.69444686977967
 20
122.2706087921595
 10
-76.74388303418421
 20
122.4956943124711
 10
-76.82999364911383
 20
122.7190874877903
 10
-76.95317364659593
 20
122.9319319025223
 10
-77.11095636212117
 20
123.1252145539857
 10
-77.29803194408727
 20
123.290920952552
 10
-77.5068120119837
 20
123.4230985150603
 10
-77.72842320585656
 20
123.5185464781049
 10
-77.95386799709316
 20
123.5769716225675
 10
-78.17505887882247
 20
123.6006309721982
 10
-78.39233976716847
 20
123.5929241339536
 10
-78.61657963138421
 20
123.5522985326875
 10
-78.84119643536759
 20
123.4754981862993
 10
-79.05753605127668
 20
123.3614699622551
 10
-79.25651947975812
 20
123.2119456320528
 10
-79.42977404629018
 20
123.0315564253038
 10
-79.57074838331364
 20
122.8274011589441
 10
-79.67551723334835
 20
122.6081394818803
 10
-79.74307599286588
 20
122.3828443400057
 10
-79.77510015560899
 20
122.1599116291008
 10
-79.77510015560899
 20
121.9432205245331
 10
-79.74307599286588
 20
121.7202878136282
 10
-79.67551723334835
 20
121.4949926717536
 10
-79.57074838331362
 20
121.2757309946898
 10
-79.42977404629018
 20
121.07157572833
 10
-79.25651947975812
 20
120.8911865215811
 10
-79.05753605127666
 20
120.7416621913788
 10
-78.84119643536758
 20
120.6276339673346
 10
-78.61657963138421
 20
120.5508336209464
 10
-78.39233976716845
 20
120.5102080196803
 10
-78.1750588788225
 20
120.5025011814357
 10
-77.95386799709316
 20
120.5261605310663
 10
-77.72842320585657
 20
120.584585675529
 10
-77.50681201198371
 20
120.6800336385736
 10
-77.29803194408728
 20
120.8122112010819
 10
-77.11095636212118
 20
120.9779175996482
 10
-76.95317364659594
 20
121.1712002511116
 10
-76.82999364911385
 20
121.3840446658437
 10
-76.74388303418424
 20
121.6074378411629
 10
-76.69444686977968
 20
121.8325233614744
  0
ENDSEC
  0
SECTION
  2
OBJECTS
  0
DICTIONARY
  5
C
330
0
100
AcDbDictionary
281
     1
  3
ACAD_CIP_PREVIOUS_PRODUCT_INFO
350
D0
  3
ACAD_COLOR
350
CB
  3
ACAD_DETAILVIEWSTYLE
350
C7
  3
ACAD_GROUP
350
D
  3
ACAD_LAYOUT
350
1A
  3
ACAD_MATERIAL
350
43
  3
ACAD_MLEADERSTYLE
350
6B
  3
ACAD_MLINESTYLE
350
17
  3
ACAD_PLOTSETTINGS
350
19
  3
ACAD_PLOTSTYLENAME
350
E
  3
ACAD_SCALELIST
350
47
  3
ACAD_SECTIONVIEWSTYLE
350
C8
  3
ACAD_TABLESTYLE
350
69
  3
ACAD_VISUALSTYLE
350
2A
  3
ACDB_RECOMPOSE_DATA
350
EF
  3
AcDbVariableDictionary
350
84
  0
DICTIONARY
  5
E4
330
10
100
AcDbDictionary
280
     1
281
     1
  3
ADSK_XREC_LAYER_RECONCILED
360
E5
  0
DICTIONARY
  5
E6
330
6E
100
AcDbDictionary
280
     1
281
     1
  3
ADSK_XREC_LAYER_RECONCILED
360
E7
  0
XRECORD
  5
D0
102
{ACAD_REACTORS
330
C
102
}
330
C
100
AcDbXrecord
280
     1
300
ACD
300
2020
300
87224ACD_2020_0F
  0
DICTIONARY
  5
CB
102
{ACAD_REACTORS
330
C
102
}
330
C
100
AcDbDictionary
281
     1
  0
DICTIONARY
  5
C7
102
{ACAD_REACTORS
330
C
102
}
330
C
100
AcDbDictionary
281
     1
  3
Imperial24
350
CD
  0
DICTIONARY
  5
D
102
{ACAD_REACTORS
330
C
102
}
330
C
100
AcDbDictionary
281
     1
  0
DICTIONARY
  5
1A
102
{ACAD_REACTORS
330
C
102
}
330
C
100
AcDbDictionary
281
     1
  3
Layout1
350
1E
  3
Layout2
350
26
  3
Model
350
22
  0
DICTIONARY
  5
43
102
{ACAD_REACTORS
330
C
102
}
330
C
100
AcDbDictionary
281
     1
  3
ByBlock
350
45
  3
ByLayer
350
44
  3
Global
350
46
  0
DICTIONARY
  5
6B
102
{ACAD_REACTORS
330
C
102
}
330
C
100
AcDbDictionary
281
     1
  3
Standard
350
6C
  0
DICTIONARY
  5
17
102
{ACAD_REACTORS
330
C
102
}
330
C
100
AcDbDictionary
281
     1
  3
Standard
350
18
  0
DICTIONARY
  5
19
102
{ACAD_REACTORS
330
C
102
}
330
C
100
AcDbDictionary
281
     1
  0
ACDBDICTIONARYWDFLT
  5
E
102
{ACAD_REACTORS
330
C
102
}
330
C
100
AcDbDictionary
281
     1
  3
Normal
350
F
100
AcDbDictionaryWithDefault
340
F
  0
DICTIONARY
  5
47
102
{ACAD_REACTORS
330
C
102
}
330
C
100
AcDbDictionary
281
     1
  3
A0
350
48
  3
A1
350
49
  3
A2
350
4A
  3
A3
350
4B
  3
A4
350
4C
  3
A5
350
4D
  3
A6
350
4E
  3
A7
350
4F
  3
A8
350
50
  3
A9
350
51
  3
B0
350
52
  3
B1
350
53
  3
B2
350
54
  3
B3
350
55
  3
B4
350
56
  3
B5
350
57
  3
B6
350
58
  3
B7
350
59
  3
B8
350
5A
  3
B9
350
5B
  3
C0
350
5C
  3
C1
350
5D
  3
C2
350
5E
  3
C3
350
5F
  3
C4
350
60
  3
C5
350
61
  3
C6
350
62
  3
C7
350
63
  3
C8
350
64
  3
C9
350
65
  3
D0
350
66
  3
D1
350
67
  3
D2
350
68
  0
DICTIONARY
  5
C8
102
{ACAD_REACTORS
330
C
102
}
330
C
100
AcDbDictionary
281
     1
  3
Imperial24
350
CC
  0
DICTIONARY
  5
69
102
{ACAD_REACTORS
330
C
102
}
330
C
100
AcDbDictionary
281
     1
  3
Standard
350
6A
  0
DICTIONARY
  5
2A
102
{ACAD_REACTORS
330
C
102
}
330
C
100
AcDbDictionary
281
     1
  3
2dWireframe
350
2F
  3
Basic
350
32
  3
Brighten
350
36
  3
ColorChange
350
3A
  3
Conceptual
350
34
  3
Dim
350
35
  3
EdgeColorOff
350
3D
  3
Facepattern
350
39
  3
Flat
350
2B
  3
FlatWithEdges
350
2C
  3
Gouraud
350
2D
  3
GouraudWithEdges
350
2E
  3
Hidden
350
31
  3
JitterOff
350
3B
  3
Linepattern
350
38
  3
OverhangOff
350
3C
  3
Realistic
350
33
  3
Shaded
350
42
  3
Shaded with edges
350
41
  3
Shades of Gray
350
3E
  3
Sketchy
350
3F
  3
Thicken
350
37
  3
Wireframe
350
30
  3
X-Ray
350
40
  0
XRECORD
  5
EF
102
{ACAD_REACTORS
330
C
102
}
330
C
100
AcDbXrecord
280
     1
 90
        1
330
6A
  0
DICTIONARY
  5
84
102
{ACAD_REACTORS
330
C
102
}
330
C
100
AcDbDictionary
281
     1
  3
CANNOSCALE
350
85
  3
CMLEADERSTYLE
350
C6
  3
CTABLESTYLE
350
C5
  3
CVIEWDETAILSTYLE
350
E8
  3
CVIEWSECTIONSTYLE
350
E9
  3
LAYEREVAL
350
EB
  3
LAYERNOTIFY
350
EC
  3
LIGHTINGUNITS
350
EA
  3
MSLTSCALE
350
86
  0
XRECORD
  5
E5
102
{ACAD_REACTORS
330
E4
102
}
330
E4
100
AcDbXrecord
280
     1
290
     1
  0
XRECORD
  5
E7
102
{ACAD_REACTORS
330
E6
102
}
330
E6
100
AcDbXrecord
280
     1
290
     1
  0
ACDBDETAILVIEWSTYLE
  5
CD
102
{ACAD_REACTORS
330
C7
102
}
330
C7
100
AcDbModelDocViewStyle
 70
     0
  3
Imperial24
290
     0
300
Imperial24
 90
        0
100
AcDbDetailViewStyle
 70
     0
 71
     0
 90
        3
 71
     1
340
11
 62
   256
 40
0.24
340
0
 62
   256
 40
0.24
300

 40
0.36
280
     3
 71
     2
340
16
 90
       25
 62
   256
 71
     3
340
11
 62
   256
 40
0.24
 90
        1
 40
0.75
 90
        1
300
%<\AcVar ViewType \f "%tc1">% %<\AcVar ViewDetailId>%\PSCALE %<\AcVar ViewScale \f "%sn">%
 71
     4
340
16
 90
       25
 62
   256
340
16
 90
       25
 62
   256
280
     0
  0
LAYOUT
  5
1E
102
{ACAD_REACTORS
330
1A
102
}
330
1A
100
AcDbPlotSettings
  1

  2
none_device
  4

  6

 40
0.0
 41
0.0
 42
0.0
 43
0.0
 44
0.0
 45
0.0
 46
0.0
 47
0.0
 48
0.0
 49
0.0
140
0.0
141
0.0
142
1.0
143
1.0
 70
   688
 72
     0
 73
     0
 74
     5
  7

 75
    16
147
1.0
 76
     0
 77
     2
 78
   300
148
0.0
149
0.0
100
AcDbLayout
  1
Layout1
 70
     1
 71
     1
 10
0.0
 20
0.0
 11
12.0
 21
9.0
 12
0.0
 22
0.0
 32
0.0
 14
1.000000000000000E+20
 24
1.000000000000000E+20
 34
1.000000000000000E+20
 15
-1.000000000000000E+20
 25
-1.000000000000000E+20
 35
-1.000000000000000E+20
146
0.0
 13
0.0
 23
0.0
 33
0.0
 16
1.0
 26
0.0
 36
0.0
 17
0.0
 27
1.0
 37
0.0
 76
     0
330
1B
  0
LAYOUT
  5
26
102
{ACAD_REACTORS
330
1A
102
}
330
1A
100
AcDbPlotSettings
  1

  2
none_device
  4

  6

 40
0.0
 41
0.0
 42
0.0
 43
0.0
 44
0.0
 45
0.0
 46
0.0
 47
0.0
 48
0.0
 49
0.0
140
0.0
141
0.0
142
1.0
143
1.0
 70
   688
 72
     0
 73
     0
 74
     5
  7

 75
    16
147
1.0
 76
     0
 77
     2
 78
   300
148
0.0
149
0.0
100
AcDbLayout
  1
Layout2
 70
     1
 71
     2
 10
0.0
 20
0.0
 11
0.0
 21
0.0
 12
0.0
 22
0.0
 32
0.0
 14
0.0
 24
0.0
 34
0.0
 15
0.0
 25
0.0
 35
0.0
146
0.0
 13
0.0
 23
0.0
 33
0.0
 16
1.0
 26
0.0
 36
0.0
 17
0.0
 27
1.0
 37
0.0
 76
     0
330
23
  0
LAYOUT
  5
22
102
{ACAD_REACTORS
330
1A
102
}
330
1A
100
AcDbPlotSettings
  1

  2
none_device
  4
Letter_(8.50_x_11.00_Inches)
  6

 40
6.349999999999999
 41
6.349999999999999
 42
6.350005079999999
 43
6.350005079999999
 44
215.9
 45
279.4
 46
0.0
 47
0.0
 48
0.0
 49
0.0
140
0.0
141
0.0
142
1.0
143
1.0
 70
  1712
 72
     0
 73
     0
 74
     0
  7

 75
     0
147
1.0
 76
     0
 77
     2
 78
   300
148
0.0
149
0.0
100
AcDbLayout
  1
Model
 70
     1
 71
     0
 10
0.0
 20
0.0
 11
12.0
 21
9.0
 12
0.0
 22
0.0
 32
0.0
 14
-81.27889148880491
 24
35.73413791640275
 34
-0.0000000000002223
 15
59.43749999999985
 25
163.3904643659234
 35
0.000000000000036
146
0.0
 13
0.0
 23
0.0
 33
0.0
 16
1.0
 26
0.0
 36
0.0
 17
0.0
 27
1.0
 37
0.0
 76
     0
330
1F
331
29
  0
MATERIAL
  5
45
102
{ACAD_XDICTIONARY
360
BA
102
}
102
{ACAD_REACTORS
330
43
102
}
330
43
100
AcDbMaterial
  1
ByBlock
  0
MATERIAL
  5
44
102
{ACAD_XDICTIONARY
360
B8
102
}
102
{ACAD_REACTORS
330
43
102
}
330
43
100
AcDbMaterial
  1
ByLayer
  0
MATERIAL
  5
46
102
{ACAD_XDICTIONARY
360
BC
102
}
102
{ACAD_REACTORS
330
43
102
}
330
43
100
AcDbMaterial
  1
Global
  0
MLEADERSTYLE
  5
6C
102
{ACAD_REACTORS
330
6B
102
}
330
6B
100
AcDbMLeaderStyle
179
     2
170
     2
171
     1
172
     0
 90
        2
 40
0.0
 41
0.0
173
     1
 91
-1056964608
340
14
 92
       -2
290
     1
 42
0.09
291
     1
 43
0.36
  3
Standard
 44
0.18
300

342
11
174
     1
178
     6
175
     1
176
     0
 93
-1056964608
 45
0.18
292
     0
297
     0
 46
0.18
 94
-1056964608
 47
1.0
 49
1.0
140
1.0
293
     1
141
0.0
294
     1
177
     0
142
1.0
295
     0
296
     0
143
0.125
271
     0
272
     9
273
     9
298
     0
1001
ACAD_MLEADERVER
1070
     2
  0
MLINESTYLE
  5
18
102
{ACAD_REACTORS
330
17
102
}
330
17
100
AcDbMlineStyle
  2
STANDARD
 70
     0
  3

 62
   256
 51
90.0
 52
90.0
 71
     2
 49
0.5
 62
   256
  6
BYLAYER
 49
-0.5
 62
   256
  6
BYLAYER
  0
ACDBPLACEHOLDER
  5
F
102
{ACAD_REACTORS
330
E
102
}
330
E
  0
SCALE
  5
48
102
{ACAD_REACTORS
330
47
102
}
330
47
100
AcDbScale
 70
     0
300
1:1
140
1.0
141
1.0
290
     1
  0
SCALE
  5
49
102
{ACAD_REACTORS
330
47
102
}
330
47
100
AcDbScale
 70
     0
300
1:2
140
1.0
141
2.0
290
     0
  0
SCALE
  5
4A
102
{ACAD_REACTORS
330
47
102
}
330
47
100
AcDbScale
 70
     0
300
1:4
140
1.0
141
4.0
290
     0
  0
SCALE
  5
4B
102
{ACAD_REACTORS
330
47
102
}
330
47
100
AcDbScale
 70
     0
300
1:5
140
1.0
141
5.0
290
     0
  0
SCALE
  5
4C
102
{ACAD_REACTORS
330
47
102
}
330
47
100
AcDbScale
 70
     0
300
1:8
140
1.0
141
8.0
290
     0
  0
SCALE
  5
4D
102
{ACAD_REACTORS
330
47
102
}
330
47
100
AcDbScale
 70
     0
300
1:10
140
1.0
141
10.0
290
     0
  0
SCALE
  5
4E
102
{ACAD_REACTORS
330
47
102
}
330
47
100
AcDbScale
 70
     0
300
1:16
140
1.0
141
16.0
290
     0
  0
SCALE
  5
4F
102
{ACAD_REACTORS
330
47
102
}
330
47
100
AcDbScale
 70
     0
300
1:20
140
1.0
141
20.0
290
     0
  0
SCALE
  5
50
102
{ACAD_REACTORS
330
47
102
}
330
47
100
AcDbScale
 70
     0
300
1:30
140
1.0
141
30.0
290
     0
  0
SCALE
  5
51
102
{ACAD_REACTORS
330
47
102
}
330
47
100
AcDbScale
 70
     0
300
1:40
140
1.0
141
40.0
290
     0
  0
SCALE
  5
52
102
{ACAD_REACTORS
330
47
102
}
330
47
100
AcDbScale
 70
     0
300
1:50
140
1.0
141
50.0
290
     0
  0
SCALE
  5
53
102
{ACAD_REACTORS
330
47
102
}
330
47
100
AcDbScale
 70
     0
300
1:100
140
1.0
141
100.0
290
     0
  0
SCALE
  5
54
102
{ACAD_REACTORS
330
47
102
}
330
47
100
AcDbScale
 70
     0
300
2:1
140
2.0
141
1.0
290
     0
  0
SCALE
  5
55
102
{ACAD_REACTORS
330
47
102
}
330
47
100
AcDbScale
 70
     0
300
4:1
140
4.0
141
1.0
290
     0
  0
SCALE
  5
56
102
{ACAD_REACTORS
330
47
102
}
330
47
100
AcDbScale
 70
     0
300
8:1
140
8.0
141
1.0
290
     0
  0
SCALE
  5
57
102
{ACAD_REACTORS
330
47
102
}
330
47
100
AcDbScale
 70
     0
300
10:1
140
10.0
141
1.0
290
     0
  0
SCALE
  5
58
102
{ACAD_REACTORS
330
47
102
}
330
47
100
AcDbScale
 70
     0
300
100:1
140
100.0
141
1.0
290
     0
  0
SCALE
  5
59
102
{ACAD_REACTORS
330
47
102
}
330
47
100
AcDbScale
 70
     0
300
1/128" = 1'-0"
140
0.0078125
141
12.0
290
     0
  0
SCALE
  5
5A
102
{ACAD_REACTORS
330
47
102
}
330
47
100
AcDbScale
 70
     0
300
1/64" = 1'-0"
140
0.015625
141
12.0
290
     0
  0
SCALE
  5
5B
102
{ACAD_REACTORS
330
47
102
}
330
47
100
AcDbScale
 70
     0
300
1/32" = 1'-0"
140
0.03125
141
12.0
290
     0
  0
SCALE
  5
5C
102
{ACAD_REACTORS
330
47
102
}
330
47
100
AcDbScale
 70
     0
300
1/16" = 1'-0"
140
0.0625
141
12.0
290
     0
  0
SCALE
  5
5D
102
{ACAD_REACTORS
330
47
102
}
330
47
100
AcDbScale
 70
     0
300
3/32" = 1'-0"
140
0.09375
141
12.0
290
     0
  0
SCALE
  5
5E
102
{ACAD_REACTORS
330
47
102
}
330
47
100
AcDbScale
 70
     0
300
1/8" = 1'-0"
140
0.125
141
12.0
290
     0
  0
SCALE
  5
5F
102
{ACAD_REACTORS
330
47
102
}
330
47
100
AcDbScale
 70
     0
300
3/16" = 1'-0"
140
0.1875
141
12.0
290
     0
  0
SCALE
  5
60
102
{ACAD_REACTORS
330
47
102
}
330
47
100
AcDbScale
 70
     0
300
1/4" = 1'-0"
140
0.25
141
12.0
290
     0
  0
SCALE
  5
61
102
{ACAD_REACTORS
330
47
102
}
330
47
100
AcDbScale
 70
     0
300
3/8" = 1'-0"
140
0.375
141
12.0
290
     0
  0
SCALE
  5
62
102
{ACAD_REACTORS
330
47
102
}
330
47
100
AcDbScale
 70
     0
300
1/2" = 1'-0"
140
0.5
141
12.0
290
     0
  0
SCALE
  5
63
102
{ACAD_REACTORS
330
47
102
}
330
47
100
AcDbScale
 70
     0
300
3/4" = 1'-0"
140
0.75
141
12.0
290
     0
  0
SCALE
  5
64
102
{ACAD_REACTORS
330
47
102
}
330
47
100
AcDbScale
 70
     0
300
1" = 1'-0"
140
1.0
141
12.0
290
     0
  0
SCALE
  5
65
102
{ACAD_REACTORS
330
47
102
}
330
47
100
AcDbScale
 70
     0
300
1-1/2" = 1'-0"
140
1.5
141
12.0
290
     0
  0
SCALE
  5
66
102
{ACAD_REACTORS
330
47
102
}
330
47
100
AcDbScale
 70
     0
300
3" = 1'-0"
140
3.0
141
12.0
290
     0
  0
SCALE
  5
67
102
{ACAD_REACTORS
330
47
102
}
330
47
100
AcDbScale
 70
     0
300
6" = 1'-0"
140
6.0
141
12.0
290
     0
  0
SCALE
  5
68
102
{ACAD_REACTORS
330
47
102
}
330
47
100
AcDbScale
 70
     0
300
1'-0" = 1'-0"
140
12.0
141
12.0
290
     0
  0
ACDBSECTIONVIEWSTYLE
  5
CC
102
{ACAD_REACTORS
330
C8
102
}
330
C8
100
AcDbModelDocViewStyle
 70
     0
  3
Imperial24
290
     0
300
Imperial24
 90
        0
100
AcDbSectionViewStyle
 70
     0
 71
     0
 90
       78
 71
     1
340
11
 62
   256
 40
0.24
340
0
340
0
 62
   256
 40
0.24
300
I, O, Q, S, X, Z
 40
0.48
 90
        3
 40
0.18
 90
        1
 71
     2
340
16
 90
       25
 62
   256
340
16
 90
       50
 62
   256
 40
0.24
 40
0.0
 40
0.24
 71
     3
340
11
 62
   256
 40
0.24
 90
        1
 40
0.75
 90
        1
300
%<\AcVar ViewType \f "%tc1">% %<\AcVar ViewSectionStartId>%-%<\AcVar ViewSectionEndId>%\PSCALE %<\AcVar ViewScale \f "%sn">%
 71
     4
 62
   256
 62
   257
300
ANSI31
 40
1.0
 90
        0
290
     0
290
     0
 90
        6
 40
0.0
 40
1.570796326794896
 40
0.2617993877991494
 40
1.308996938995747
 40
-0.2617993877991494
 40
1.832595714594046
  0
TABLESTYLE
  5
6A
102
{ACAD_XDICTIONARY
360
BE
102
}
102
{ACAD_REACTORS
330
69
102
}
330
69
100
AcDbTableStyle
280
     0
  3
Standard
 70
     0
 71
     0
 40
0.06
 41
0.06
280
     0
281
     0
  7
Standard
140
0.18
170
     2
 62
     0
 63
     7
283
     0
 90
        4
 91
        0
  1

274
    -2
284
     1
 64
     0
275
    -2
285
     1
 65
     0
276
    -2
286
     1
 66
     0
277
    -2
287
     1
 67
     0
278
    -2
288
     1
 68
     0
279
    -2
289
     1
 69
     0
  7
Standard
140
0.25
170
     5
 62
     0
 63
     7
283
     0
 90
        4
 91
        0
  1

274
    -2
284
     1
 64
     0
275
    -2
285
     1
 65
     0
276
    -2
286
     1
 66
     0
277
    -2
287
     1
 67
     0
278
    -2
288
     1
 68
     0
279
    -2
289
     1
 69
     0
  7
Standard
140
0.18
170
     5
 62
     0
 63
     7
283
     0
 90
        4
 91
        0
  1

274
    -2
284
     1
 64
     0
275
    -2
285
     1
 65
     0
276
    -2
286
     1
 66
     0
277
    -2
287
     1
 67
     0
278
    -2
288
     1
 68
     0
279
    -2
289
     1
 69
     0
  0
VISUALSTYLE
  5
2F
102
{ACAD_REACTORS
330
2A
102
}
330
2A
100
AcDbVisualStyle
  2

 70
     4
177
     3
291
     0
 70
    58
 90
        0
176
     1
 90
        2
176
     1
 90
        0
176
     1
 90
        0
176
     1
 40
0.6
176
     1
 40
30.0
176
     1
 62
     7
420
 16777215
176
     1
 90
        1
176
     1
 90
        4
176
     1
 62
     7
176
     1
 62
   257
176
     1
 90
        1
176
     1
 90
        1
176
     1
 40
1.0
176
     1
 90
        0
176
     1
 62
   257
176
     1
 40
1.0
176
     1
 90
        1
176
     1
 90
        6
176
     1
 90
        2
176
     1
 62
     7
176
     1
 90
        5
176
     1
 90
        0
176
     1
 90
        0
176
     1
290
     0
176
     1
 90
        1
176
     1
 40
0.0
176
     1
 90
        0
176
     1
290
     1
176
     1
290
     1
176
     1
290
     0
176
     1
290
     0
176
     1
290
     0
176
     1
290
     0
176
     1
290
     0
176
     1
290
     0
176
     1
290
     0
176
     1
 90
       50
176
     1
 40
0.0
176
     1
 40
1.0
176
     1
 90
        0
176
     1
 62
    18
420
        0
176
     1
 90
       50
176
     1
 90
        3
176
     1
 62
     5
420
      255
176
     1
290
     0
176
     1
 90
       50
176
     1
 90
       50
176
     1
 90
       50
176
     1
290
     0
176
     1
 90
       50
176
     1
 62
   256
176
     0
 40
1.0
176
     0
 90
        2
176
     1
  1
strokes_ogs.tif
176
     1
290
     0
176
     1
 40
1.0
176
     1
 40
1.0
176
     1
1001
ACAD
1000
AcDbSavedByObjectVersion
1070
     0
  0
VISUALSTYLE
  5
32
102
{ACAD_REACTORS
330
2A
102
}
330
2A
100
AcDbVisualStyle
  2

 70
     7
177
     3
291
     1
 70
    58
 90
        1
176
     1
 90
        0
176
     1
 90
        1
176
     1
 90
        0
176
     1
 40
0.6
176
     1
 40
30.0
176
     1
 62
     7
420
 16777215
176
     1
 90
        0
176
     1
 90
        4
176
     1
 62
     7
176
     1
 62
   257
176
     1
 90
        1
176
     1
 90
        1
176
     1
 40
1.0
176
     1
 90
        8
176
     1
 62
     7
176
     1
 40
1.0
176
     1
 90
        1
176
     1
 90
        6
176
     1
 90
        2
176
     1
 62
     7
176
     1
 90
        5
176
     1
 90
        0
176
     1
 90
        0
176
     1
290
     0
176
     1
 90
        1
176
     1
 40
0.0
176
     1
 90
        0
176
     1
290
     0
176
     1
290
     1
176
     1
290
     1
176
     1
290
     0
176
     1
290
     0
176
     1
290
     0
176
     1
290
     0
176
     1
290
     0
176
     1
290
     0
176
     1
 90
       50
176
     1
 40
0.0
176
     1
 40
1.0
176
     1
 90
        0
176
     1
 62
    18
420
        0
176
     1
 90
       50
176
     1
 90
        3
176
     1
 62
     5
420
      255
176
     1
290
     0
176
     1
 90
       50
176
     1
 90
       50
176
     1
 90
       50
176
     1
290
     0
176
     1
 90
       50
176
     1
 62
   256
176
     0
 40
1.0
176
     0
 90
        2
176
     1
  1
strokes_ogs.tif
176
     1
290
     0
176
     1
 40
1.0
176
     1
 40
1.0
176
     1
1001
ACAD
1000
AcDbSavedByObjectVersion
1070
     0
  0
VISUALSTYLE
  5
36
102
{ACAD_REACTORS
330
2A
102
}
330
2A
100
AcDbVisualStyle
  2

 70
    12
177
     3
291
     1
 70
    58
 90
        2
176
     1
 90
        2
176
     1
 90
        0
176
     1
 90
        0
176
     1
 40
0.6
176
     1
 40
30.0
176
     1
 62
     7
420
 16777215
176
     1
 90
        1
176
     1
 90
        4
176
     1
 62
     7
176
     1
 62
   257
176
     1
 90
        1
176
     1
 90
        1
176
     1
 40
1.0
176
     1
 90
        8
176
     1
 62
     7
176
     1
 40
1.0
176
     1
 90
        1
176
     1
 90
        6
176
     1
 90
        2
176
     1
 62
     7
176
     1
 90
        5
176
     1
 90
        0
176
     1
 90
        0
176
     1
290
     0
176
     1
 90
        1
176
     1
 40
50.0
176
     1
 90
        0
176
     1
290
     0
176
     1
290
     1
176
     1
290
     1
176
     1
290
     0
176
     1
290
     0
176
     1
290
     0
176
     1
290
     0
176
     1
290
     0
176
     1
290
     0
176
     1
 90
       50
176
     1
 40
0.0
176
     1
 40
1.0
176
     1
 90
        0
176
     1
 62
    18
420
        0
176
     1
 90
       50
176
     1
 90
        3
176
     1
 62
     5
420
      255
176
     1
290
     0
176
     1
 90
       50
176
     1
 90
       50
176
     1
 90
       50
176
     1
290
     0
176
     1
 90
       50
176
     1
 62
   256
176
     0
 40
1.0
176
     0
 90
        2
176
     1
  1
strokes_ogs.tif
176
     1
290
     0
176
     1
 40
1.0
176
     1
 40
1.0
176
     1
1001
ACAD
1000
AcDbSavedByObjectVersion
1070
     0
  0
VISUALSTYLE
  5
3A
102
{ACAD_REACTORS
330
2A
102
}
330
2A
100
AcDbVisualStyle
  2

 70
    16
177
     3
291
     1
 70
    58
 90
        2
176
     1
 90
        2
176
     1
 90
        3
176
     1
 90
        0
176
     1
 40
0.6
176
     1
 40
30.0
176
     1
 62
     8
420
  8421504
176
     1
 90
        1
176
     1
 90
        4
176
     1
 62
     7
176
     1
 62
   257
176
     1
 90
        1
176
     1
 90
        1
176
     1
 40
1.0
176
     1
 90
        8
176
     1
 62
     8
420
  8421504
176
     1
 40
1.0
176
     1
 90
        1
176
     1
 90
        6
176
     1
 90
        2
176
     1
 62
     7
176
     1
 90
        5
176
     1
 90
        0
176
     1
 90
        0
176
     1
290
     0
176
     1
 90
        1
176
     1
 40
0.0
176
     1
 90
        0
176
     1
290
     0
176
     1
290
     1
176
     1
290
     1
176
     1
290
     0
176
     1
290
     0
176
     1
290
     0
176
     1
290
     0
176
     1
290
     0
176
     1
290
     0
176
     1
 90
       50
176
     1
 40
0.0
176
     1
 40
1.0
176
     1
 90
        0
176
     1
 62
    18
420
        0
176
     1
 90
       50
176
     1
 90
        3
176
     1
 62
     5
420
      255
176
     1
290
     0
176
     1
 90
       50
176
     1
 90
       50
176
     1
 90
       50
176
     1
290
     0
176
     1
 90
       50
176
     1
 62
   256
176
     0
 40
1.0
176
     0
 90
        2
176
     1
  1
strokes_ogs.tif
176
     1
290
     0
176
     1
 40
1.0
176
     1
 40
1.0
176
     1
1001
ACAD
1000
AcDbSavedByObjectVersion
1070
     0
  0
VISUALSTYLE
  5
34
102
{ACAD_REACTORS
330
2A
102
}
330
2A
100
AcDbVisualStyle
  2

 70
     9
177
     3
291
     0
 70
    58
 90
        3
176
     1
 90
        2
176
     1
 90
        0
176
     1
 90
        0
176
     1
 40
0.6
176
     1
 40
30.0
176
     1
 62
     7
420
 16777215
176
     1
 90
        2
176
     1
 90
        2
176
     1
 62
     7
176
     1
 62
   257
176
     1
 90
        1
176
     1
 90
        1
176
     1
 40
179.0
176
     1
 90
        8
176
     1
 62
     7
176
     1
 40
1.0
176
     1
 90
        1
176
     1
 90
        6
176
     1
 90
        2
176
     1
 62
     7
176
     1
 90
        3
176
     1
 90
        0
176
     1
 90
        0
176
     1
290
     0
176
     1
 90
        1
176
     1
 40
0.0
176
     1
 90
        0
176
     1
290
     0
176
     1
290
     1
176
     1
290
     1
176
     1
290
     0
176
     1
290
     0
176
     1
290
     0
176
     1
290
     0
176
     1
290
     0
176
     1
290
     0
176
     1
 90
       50
176
     1
 40
0.0
176
     1
 40
1.0
176
     1
 90
        0
176
     1
 62
    18
420
        0
176
     1
 90
       50
176
     1
 90
        3
176
     1
 62
     5
420
      255
176
     1
290
     0
176
     1
 90
       50
176
     1
 90
       50
176
     1
 90
       50
176
     1
290
     0
176
     1
 90
       50
176
     1
 62
   256
176
     0
 40
1.0
176
     0
 90
        2
176
     1
  1
strokes_ogs.tif
176
     1
290
     0
176
     1
 40
1.0
176
     1
 40
1.0
176
     1
1001
ACAD
1000
AcDbSavedByObjectVersion
1070
     0
  0
VISUALSTYLE
  5
35
102
{ACAD_REACTORS
330
2A
102
}
330
2A
100
AcDbVisualStyle
  2

 70
    11
177
     3
291
     1
 70
    58
 90
        2
176
     1
 90
        2
176
     1
 90
        0
176
     1
 90
        0
176
     1
 40
0.6
176
     1
 40
30.0
176
     1
 62
     7
420
 16777215
176
     1
 90
        1
176
     1
 90
        4
176
     1
 62
     7
176
     1
 62
   257
176
     1
 90
        1
176
     1
 90
        1
176
     1
 40
1.0
176
     1
 90
        8
176
     1
 62
     7
176
     1
 40
1.0
176
     1
 90
        1
176
     1
 90
        6
176
     1
 90
        2
176
     1
 62
     7
176
     1
 90
        5
176
     1
 90
        0
176
     1
 90
        0
176
     1
290
     0
176
     1
 90
        1
176
     1
 40
-50.0
176
     1
 90
        0
176
     1
290
     0
176
     1
290
     1
176
     1
290
     1
176
     1
290
     0
176
     1
290
     0
176
     1
290
     0
176
     1
290
     0
176
     1
290
     0
176
     1
290
     0
176
     1
 90
       50
176
     1
 40
0.0
176
     1
 40
1.0
176
     1
 90
        0
176
     1
 62
    18
420
        0
176
     1
 90
       50
176
     1
 90
        3
176
     1
 62
     5
420
      255
176
     1
290
     0
176
     1
 90
       50
176
     1
 90
       50
176
     1
 90
       50
176
     1
290
     0
176
     1
 90
       50
176
     1
 62
   256
176
     0
 40
1.0
176
     0
 90
        2
176
     1
  1
strokes_ogs.tif
176
     1
290
     0
176
     1
 40
1.0
176
     1
 40
1.0
176
     1
1001
ACAD
1000
AcDbSavedByObjectVersion
1070
     0
  0
VISUALSTYLE
  5
3D
102
{ACAD_REACTORS
330
2A
102
}
330
2A
100
AcDbVisualStyle
  2

 70
    22
177
     3
291
     1
 70
    58
 90
        2
176
     0
 90
        2
176
     0
 90
        0
176
     0
 90
        0
176
     0
 40
0.6
176
     0
 40
30.0
176
     0
 62
     7
420
 16777215
176
     0
 90
        1
176
     0
 90
        4
176
     0
 62
     7
176
     0
 62
   257
176
     0
 90
        1
176
     0
 90
        1
176
     0
 40
1.0
176
     0
 90
        8
176
     2
 62
     7
176
     0
 40
1.0
176
     0
 90
        1
176
     0
 90
        6
176
     0
 90
        2
176
     0
 62
     7
176
     0
 90
        5
176
     0
 90
        0
176
     0
 90
        0
176
     0
290
     0
176
     0
 90
        1
176
     0
 40
0.0
176
     0
 90
        0
176
     0
290
     0
176
     0
290
     1
176
     0
290
     1
176
     0
290
     0
176
     0
290
     0
176
     0
290
     0
176
     0
290
     0
176
     0
290
     0
176
     0
290
     0
176
     0
 90
       50
176
     0
 40
0.0
176
     0
 40
1.0
176
     0
 90
        0
176
     0
 62
    18
420
        0
176
     0
 90
       50
176
     0
 90
        3
176
     0
 62
     5
420
      255
176
     0
290
     0
176
     0
 90
       50
176
     0
 90
       50
176
     0
 90
       50
176
     0
290
     0
176
     0
 90
       50
176
     0
 62
   256
176
     0
 40
1.0
176
     0
 90
        2
176
     0
  1
strokes_ogs.tif
176
     0
290
     0
176
     0
 40
1.0
176
     0
 40
1.0
176
     0
1001
ACAD
1000
AcDbSavedByObjectVersion
1070
     0
  0
VISUALSTYLE
  5
39
102
{ACAD_REACTORS
330
2A
102
}
330
2A
100
AcDbVisualStyle
  2

 70
    15
177
     3
291
     1
 70
    58
 90
        2
176
     1
 90
        2
176
     1
 90
        0
176
     1
 90
        0
176
     1
 40
0.6
176
     1
 40
30.0
176
     1
 62
     7
420
 16777215
176
     1
 90
        1
176
     1
 90
        4
176
     1
 62
     7
176
     1
 62
   257
176
     1
 90
        1
176
     1
 90
        1
176
     1
 40
1.0
176
     1
 90
        8
176
     1
 62
     7
176
     1
 40
1.0
176
     1
 90
        1
176
     1
 90
        6
176
     1
 90
        2
176
     1
 62
     7
176
     1
 90
        5
176
     1
 90
        0
176
     1
 90
        0
176
     1
290
     0
176
     1
 90
        1
176
     1
 40
0.0
176
     1
 90
        0
176
     1
290
     0
176
     1
290
     1
176
     1
290
     1
176
     1
290
     0
176
     1
290
     0
176
     1
290
     0
176
     1
290
     0
176
     1
290
     0
176
     1
290
     0
176
     1
 90
       50
176
     1
 40
0.0
176
     1
 40
1.0
176
     1
 90
        0
176
     1
 62
    18
420
        0
176
     1
 90
       50
176
     1
 90
        3
176
     1
 62
     5
420
      255
176
     1
290
     0
176
     1
 90
       50
176
     1
 90
       50
176
     1
 90
       50
176
     1
290
     0
176
     1
 90
       50
176
     1
 62
   256
176
     0
 40
1.0
176
     0
 90
        2
176
     1
  1
strokes_ogs.tif
176
     1
290
     0
176
     1
 40
1.0
176
     1
 40
1.0
176
     1
1001
ACAD
1000
AcDbSavedByObjectVersion
1070
     0
  0
VISUALSTYLE
  5
2B
102
{ACAD_REACTORS
330
2A
102
}
330
2A
100
AcDbVisualStyle
  2

 70
     0
177
     3
291
     1
 70
    58
 90
        2
176
     1
 90
        1
176
     1
 90
        1
176
     1
 90
        2
176
     1
 40
0.6
176
     1
 40
30.0
176
     1
 62
     7
420
 16777215
176
     1
 90
        0
176
     1
 90
        0
176
     1
 62
     7
176
     1
 62
   257
176
     1
 90
        1
176
     1
 90
        1
176
     1
 40
1.0
176
     1
 90
        8
176
     1
 62
     7
176
     1
 40
1.0
176
     1
 90
        1
176
     1
 90
        6
176
     1
 90
        2
176
     1
 62
     7
176
     1
 90
        5
176
     1
 90
        0
176
     1
 90
        0
176
     1
290
     0
176
     1
 90
       13
176
     1
 40
0.0
176
     1
 90
        0
176
     1
290
     0
176
     1
290
     1
176
     1
290
     1
176
     1
290
     0
176
     1
290
     0
176
     1
290
     0
176
     1
290
     0
176
     1
290
     0
176
     1
290
     0
176
     1
 90
       50
176
     1
 40
0.0
176
     1
 40
1.0
176
     1
 90
        0
176
     1
 62
    18
420
        0
176
     1
 90
       50
176
     1
 90
        3
176
     1
 62
     5
420
      255
176
     1
290
     0
176
     1
 90
       50
176
     1
 90
       50
176
     1
 90
       50
176
     1
290
     0
176
     1
 90
       50
176
     1
 62
   256
176
     0
 40
1.0
176
     0
 90
        2
176
     1
  1
strokes_ogs.tif
176
     1
290
     0
176
     1
 40
1.0
176
     1
 40
1.0
176
     1
1001
ACAD
1000
AcDbSavedByObjectVersion
1070
     0
  0
VISUALSTYLE
  5
2C
102
{ACAD_REACTORS
330
2A
102
}
330
2A
100
AcDbVisualStyle
  2

 70
     1
177
     3
291
     1
 70
    58
 90
        2
176
     1
 90
        1
176
     1
 90
        1
176
     1
 90
        2
176
     1
 40
0.6
176
     1
 40
30.0
176
     1
 62
     7
420
 16777215
176
     1
 90
        1
176
     1
 90
        0
176
     1
 62
     7
176
     1
 62
   257
176
     1
 90
        1
176
     1
 90
        1
176
     1
 40
1.0
176
     1
 90
        0
176
     1
 62
   257
176
     1
 40
1.0
176
     1
 90
        1
176
     1
 90
        6
176
     1
 90
        2
176
     1
 62
     7
176
     1
 90
        5
176
     1
 90
        0
176
     1
 90
        0
176
     1
290
     0
176
     1
 90
       13
176
     1
 40
0.0
176
     1
 90
        0
176
     1
290
     0
176
     1
290
     1
176
     1
290
     1
176
     1
290
     0
176
     1
290
     0
176
     1
290
     0
176
     1
290
     0
176
     1
290
     0
176
     1
290
     0
176
     1
 90
       50
176
     1
 40
0.0
176
     1
 40
1.0
176
     1
 90
        0
176
     1
 62
    18
420
        0
176
     1
 90
       50
176
     1
 90
        3
176
     1
 62
     5
420
      255
176
     1
290
     0
176
     1
 90
       50
176
     1
 90
       50
176
     1
 90
       50
176
     1
290
     0
176
     1
 90
       50
176
     1
 62
   256
176
     0
 40
1.0
176
     0
 90
        2
176
     1
  1
strokes_ogs.tif
176
     1
290
     0
176
     1
 40
1.0
176
     1
 40
1.0
176
     1
1001
ACAD
1000
AcDbSavedByObjectVersion
1070
     0
  0
VISUALSTYLE
  5
2D
102
{ACAD_REACTORS
330
2A
102
}
330
2A
100
AcDbVisualStyle
  2

 70
     2
177
     3
291
     1
 70
    58
 90
        2
176
     1
 90
        2
176
     1
 90
        1
176
     1
 90
        2
176
     1
 40
0.6
176
     1
 40
30.0
176
     1
 62
     7
420
 16777215
176
     1
 90
        0
176
     1
 90
        0
176
     1
 62
     7
176
     1
 62
   257
176
     1
 90
        1
176
     1
 90
        1
176
     1
 40
1.0
176
     1
 90
        0
176
     1
 62
     7
176
     1
 40
1.0
176
     1
 90
        1
176
     1
 90
        6
176
     1
 90
        2
176
     1
 62
     7
176
     1
 90
        5
176
     1
 90
        0
176
     1
 90
        0
176
     1
290
     0
176
     1
 90
       13
176
     1
 40
0.0
176
     1
 90
        0
176
     1
290
     0
176
     1
290
     1
176
     1
290
     1
176
     1
290
     0
176
     1
290
     0
176
     1
290
     0
176
     1
290
     0
176
     1
290
     0
176
     1
290
     0
176
     1
 90
       50
176
     1
 40
0.0
176
     1
 40
1.0
176
     1
 90
        0
176
     1
 62
    18
420
        0
176
     1
 90
       50
176
     1
 90
        3
176
     1
 62
     5
420
      255
176
     1
290
     0
176
     1
 90
       50
176
     1
 90
       50
176
     1
 90
       50
176
     1
290
     0
176
     1
 90
       50
176
     1
 62
   256
176
     0
 40
1.0
176
     0
 90
        2
176
     1
  1
strokes_ogs.tif
176
     1
290
     0
176
     1
 40
1.0
176
     1
 40
1.0
176
     1
1001
ACAD
1000
AcDbSavedByObjectVersion
1070
     0
  0
VISUALSTYLE
  5
2E
102
{ACAD_REACTORS
330
2A
102
}
330
2A
100
AcDbVisualStyle
  2

 70
     3
177
     3
291
     1
 70
    58
 90
        2
176
     1
 90
        2
176
     1
 90
        1
176
     1
 90
        2
176
     1
 40
0.6
176
     1
 40
30.0
176
     1
 62
     7
420
 16777215
176
     1
 90
        1
176
     1
 90
        0
176
     1
 62
     7
176
     1
 62
   257
176
     1
 90
        1
176
     1
 90
        1
176
     1
 40
1.0
176
     1
 90
        0
176
     1
 62
   257
176
     1
 40
1.0
176
     1
 90
        1
176
     1
 90
        6
176
     1
 90
        2
176
     1
 62
     7
176
     1
 90
        5
176
     1
 90
        0
176
     1
 90
        0
176
     1
290
     0
176
     1
 90
       13
176
     1
 40
0.0
176
     1
 90
        0
176
     1
290
     0
176
     1
290
     1
176
     1
290
     1
176
     1
290
     0
176
     1
290
     0
176
     1
290
     0
176
     1
290
     0
176
     1
290
     0
176
     1
290
     0
176
     1
 90
       50
176
     1
 40
0.0
176
     1
 40
1.0
176
     1
 90
        0
176
     1
 62
    18
420
        0
176
     1
 90
       50
176
     1
 90
        3
176
     1
 62
     5
420
      255
176
     1
290
     0
176
     1
 90
       50
176
     1
 90
       50
176
     1
 90
       50
176
     1
290
     0
176
     1
 90
       50
176
     1
 62
   256
176
     0
 40
1.0
176
     0
 90
        2
176
     1
  1
strokes_ogs.tif
176
     1
290
     0
176
     1
 40
1.0
176
     1
 40
1.0
176
     1
1001
ACAD
1000
AcDbSavedByObjectVersion
1070
     0
  0
VISUALSTYLE
  5
31
102
{ACAD_REACTORS
330
2A
102
}
330
2A
100
AcDbVisualStyle
  2

 70
     6
177
     3
291
     0
 70
    58
 90
        1
176
     1
 90
        2
176
     1
 90
        2
176
     1
 90
        0
176
     1
 40
0.6
176
     1
 40
30.0
176
     1
 62
     7
420
 16777215
176
     1
 90
        2
176
     1
 90
        2
176
     1
 62
     7
176
     1
 62
   257
176
     1
 90
        2
176
     1
 90
        1
176
     1
 40
40.0
176
     1
 90
        0
176
     1
 62
   257
176
     1
 40
1.0
176
     1
 90
        1
176
     1
 90
        6
176
     1
 90
        2
176
     1
 62
     7
176
     1
 90
        3
176
     1
 90
        0
176
     1
 90
        0
176
     1
290
     0
176
     1
 90
        1
176
     1
 40
0.0
176
     1
 90
        0
176
     1
290
     0
176
     1
290
     1
176
     1
290
     1
176
     1
290
     0
176
     1
290
     0
176
     1
290
     0
176
     1
290
     0
176
     1
290
     0
176
     1
290
     0
176
     1
 90
       50
176
     1
 40
0.0
176
     1
 40
1.0
176
     1
 90
        0
176
     1
 62
    18
420
        0
176
     1
 90
       50
176
     1
 90
        3
176
     1
 62
     5
420
      255
176
     1
290
     0
176
     1
 90
       50
176
     1
 90
       50
176
     1
 90
       50
176
     1
290
     0
176
     1
 90
       50
176
     1
 62
   256
176
     0
 40
1.0
176
     0
 90
        2
176
     1
  1
strokes_ogs.tif
176
     1
290
     0
176
     1
 40
1.0
176
     1
 40
1.0
176
     1
1001
ACAD
1000
AcDbSavedByObjectVersion
1070
     0
  0
VISUALSTYLE
  5
3B
102
{ACAD_REACTORS
330
2A
102
}
330
2A
100
AcDbVisualStyle
  2

 70
    20
177
     3
291
     1
 70
    58
 90
        2
176
     0
 90
        2
176
     0
 90
        0
176
     0
 90
        0
176
     0
 40
0.6
176
     0
 40
30.0
176
     0
 62
     7
420
 16777215
176
     0
 90
        1
176
     0
 90
        4
176
     0
 62
     7
176
     0
 62
   257
176
     0
 90
        1
176
     0
 90
        1
176
     0
 40
1.0
176
     0
 90
       10
176
     2
 62
     7
176
     0
 40
1.0
176
     0
 90
        1
176
     0
 90
        6
176
     0
 90
        2
176
     0
 62
     7
176
     0
 90
        5
176
     0
 90
        0
176
     0
 90
        0
176
     0
290
     0
176
     0
 90
        1
176
     0
 40
0.0
176
     0
 90
        0
176
     0
290
     0
176
     0
290
     1
176
     0
290
     1
176
     0
290
     0
176
     0
290
     0
176
     0
290
     0
176
     0
290
     0
176
     0
290
     0
176
     0
290
     0
176
     0
 90
       50
176
     0
 40
0.0
176
     0
 40
1.0
176
     0
 90
        0
176
     0
 62
    18
420
        0
176
     0
 90
       50
176
     0
 90
        3
176
     0
 62
     5
420
      255
176
     0
290
     0
176
     0
 90
       50
176
     0
 90
       50
176
     0
 90
       50
176
     0
290
     0
176
     0
 90
       50
176
     0
 62
   256
176
     0
 40
1.0
176
     0
 90
        2
176
     0
  1
strokes_ogs.tif
176
     0
290
     0
176
     0
 40
1.0
176
     0
 40
1.0
176
     0
1001
ACAD
1000
AcDbSavedByObjectVersion
1070
     0
  0
VISUALSTYLE
  5
38
102
{ACAD_REACTORS
330
2A
102
}
330
2A
100
AcDbVisualStyle
  2

 70
    14
177
     3
291
     1
 70
    58
 90
        2
176
     1
 90
        2
176
     1
 90
        0
176
     1
 90
        0
176
     1
 40
0.6
176
     1
 40
30.0
176
     1
 62
     7
420
 16777215
176
     1
 90
        1
176
     1
 90
        4
176
     1
 62
     7
176
     1
 62
   257
176
     1
 90
        7
176
     1
 90
        7
176
     1
 40
1.0
176
     1
 90
        8
176
     1
 62
     7
176
     1
 40
1.0
176
     1
 90
        1
176
     1
 90
        6
176
     1
 90
        2
176
     1
 62
     7
176
     1
 90
        5
176
     1
 90
        0
176
     1
 90
        0
176
     1
290
     0
176
     1
 90
        1
176
     1
 40
0.0
176
     1
 90
        0
176
     1
290
     0
176
     1
290
     1
176
     1
290
     1
176
     1
290
     0
176
     1
290
     0
176
     1
290
     0
176
     1
290
     0
176
     1
290
     0
176
     1
290
     0
176
     1
 90
       50
176
     1
 40
0.0
176
     1
 40
1.0
176
     1
 90
        0
176
     1
 62
    18
420
        0
176
     1
 90
       50
176
     1
 90
        3
176
     1
 62
     5
420
      255
176
     1
290
     0
176
     1
 90
       50
176
     1
 90
       50
176
     1
 90
       50
176
     1
290
     0
176
     1
 90
       50
176
     1
 62
   256
176
     0
 40
1.0
176
     0
 90
        2
176
     1
  1
strokes_ogs.tif
176
     1
290
     0
176
     1
 40
1.0
176
     1
 40
1.0
176
     1
1001
ACAD
1000
AcDbSavedByObjectVersion
1070
     0
  0
VISUALSTYLE
  5
3C
102
{ACAD_REACTORS
330
2A
102
}
330
2A
100
AcDbVisualStyle
  2

 70
    21
177
     3
291
     1
 70
    58
 90
        2
176
     0
 90
        2
176
     0
 90
        0
176
     0
 90
        0
176
     0
 40
0.6
176
     0
 40
30.0
176
     0
 62
     7
420
 16777215
176
     0
 90
        1
176
     0
 90
        4
176
     0
 62
     7
176
     0
 62
   257
176
     0
 90
        1
176
     0
 90
        1
176
     0
 40
1.0
176
     0
 90
        9
176
     2
 62
     7
176
     0
 40
1.0
176
     0
 90
        1
176
     0
 90
        6
176
     0
 90
        2
176
     0
 62
     7
176
     0
 90
        5
176
     0
 90
        0
176
     0
 90
        0
176
     0
290
     0
176
     0
 90
        1
176
     0
 40
0.0
176
     0
 90
        0
176
     0
290
     0
176
     0
290
     1
176
     0
290
     1
176
     0
290
     0
176
     0
290
     0
176
     0
290
     0
176
     0
290
     0
176
     0
290
     0
176
     0
290
     0
176
     0
 90
       50
176
     0
 40
0.0
176
     0
 40
1.0
176
     0
 90
        0
176
     0
 62
    18
420
        0
176
     0
 90
       50
176
     0
 90
        3
176
     0
 62
     5
420
      255
176
     0
290
     0
176
     0
 90
       50
176
     0
 90
       50
176
     0
 90
       50
176
     0
290
     0
176
     0
 90
       50
176
     0
 62
   256
176
     0
 40
1.0
176
     0
 90
        2
176
     0
  1
strokes_ogs.tif
176
     0
290
     0
176
     0
 40
1.0
176
     0
 40
1.0
176
     0
1001
ACAD
1000
AcDbSavedByObjectVersion
1070
     0
  0
VISUALSTYLE
  5
33
102
{ACAD_REACTORS
330
2A
102
}
330
2A
100
AcDbVisualStyle
  2

 70
     8
177
     3
291
     0
 70
    58
 90
        2
176
     1
 90
        3
176
     1
 90
        0
176
     1
 90
        2
176
     1
 40
0.6
176
     1
 40
30.0
176
     1
 62
     7
420
 16777215
176
     1
 90
        0
176
     1
 90
        0
176
     1
 62
     7
176
     1
 62
   257
176
     1
 90
        1
176
     1
 90
        1
176
     1
 40
1.0
176
     1
 90
        8
176
     1
 62
   257
176
     1
 40
1.0
176
     1
 90
        1
176
     1
 90
        6
176
     1
 90
        2
176
     1
 62
     7
176
     1
 90
        3
176
     1
 90
        0
176
     1
 90
        0
176
     1
290
     0
176
     1
 90
       13
176
     1
 40
0.0
176
     1
 90
        0
176
     1
290
     0
176
     1
290
     1
176
     1
290
     1
176
     1
290
     0
176
     1
290
     0
176
     1
290
     0
176
     1
290
     0
176
     1
290
     0
176
     1
290
     0
176
     1
 90
       50
176
     1
 40
0.0
176
     1
 40
1.0
176
     1
 90
        0
176
     1
 62
    18
420
        0
176
     1
 90
       50
176
     1
 90
        3
176
     1
 62
     5
420
      255
176
     1
290
     0
176
     1
 90
       50
176
     1
 90
       50
176
     1
 90
       50
176
     1
290
     0
176
     1
 90
       50
176
     1
 62
   256
176
     0
 40
1.0
176
     0
 90
        2
176
     1
  1
strokes_ogs.tif
176
     1
290
     0
176
     1
 40
1.0
176
     1
 40
1.0
176
     1
1001
ACAD
1000
AcDbSavedByObjectVersion
1070
     0
  0
VISUALSTYLE
  5
42
102
{ACAD_REACTORS
330
2A
102
}
330
2A
100
AcDbVisualStyle
  2

 70
    27
177
     3
291
     0
 70
    58
 90
        2
176
     1
 90
        2
176
     1
 90
        1
176
     1
 90
        2
176
     1
 40
0.6
176
     1
 40
30.0
176
     1
 62
     7
420
 16777215
176
     1
 90
        0
176
     1
 90
        4
176
     1
 62
     7
176
     1
 62
   257
176
     1
 90
        1
176
     1
 90
        1
176
     1
 40
1.0
176
     1
 90
        8
176
     1
 62
   257
176
     1
 40
1.0
176
     1
 90
        1
176
     1
 90
        6
176
     1
 90
        2
176
     1
 62
     8
420
  7895160
176
     1
 90
        3
176
     1
 90
        0
176
     1
 90
        0
176
     1
290
     0
176
     1
 90
        5
176
     1
 40
0.0
176
     1
 90
        0
176
     1
290
     0
176
     1
290
     1
176
     1
290
     1
176
     1
290
     0
176
     1
290
     0
176
     1
290
     0
176
     1
290
     0
176
     1
290
     0
176
     1
290
     0
176
     1
 90
       50
176
     1
 40
0.0
176
     1
 40
1.0
176
     1
 90
        0
176
     1
 62
    18
420
        0
176
     1
 90
       50
176
     1
 90
        3
176
     1
 62
     5
420
      255
176
     1
290
     0
176
     1
 90
       50
176
     1
 90
       50
176
     1
 90
       50
176
     1
290
     0
176
     1
 90
       50
176
     1
 62
   256
176
     0
 40
1.0
176
     0
 90
        2
176
     1
  1
strokes_ogs.tif
176
     1
290
     0
176
     1
 40
1.0
176
     1
 40
1.0
176
     1
1001
ACAD
1000
AcDbSavedByObjectVersion
1070
     0
  0
VISUALSTYLE
  5
41
102
{ACAD_REACTORS
330
2A
102
}
330
2A
100
AcDbVisualStyle
  2

 70
    26
177
     3
291
     0
 70
    58
 90
        2
176
     1
 90
        2
176
     1
 90
        1
176
     1
 90
        2
176
     1
 40
0.6
176
     1
 40
30.0
176
     1
 62
     7
420
 16777215
176
     1
 90
        1
176
     1
 90
       10
176
     1
 62
     7
176
     1
 62
   257
176
     1
 90
        2
176
     1
 90
        1
176
     1
 40
1.0
176
     1
 90
        8
176
     1
 62
   257
176
     1
 40
1.0
176
     1
 90
        1
176
     1
 90
        6
176
     1
 90
        2
176
     1
 62
     7
176
     1
 90
        3
176
     1
 90
        0
176
     1
 90
        0
176
     1
290
     0
176
     1
 90
        5
176
     1
 40
0.0
176
     1
 90
        0
176
     1
290
     0
176
     1
290
     1
176
     1
290
     1
176
     1
290
     0
176
     1
290
     0
176
     1
290
     0
176
     1
290
     0
176
     1
290
     0
176
     1
290
     0
176
     1
 90
       50
176
     1
 40
0.0
176
     1
 40
1.0
176
     1
 90
        0
176
     1
 62
    18
420
        0
176
     1
 90
       50
176
     1
 90
        3
176
     1
 62
     5
420
      255
176
     1
290
     0
176
     1
 90
       50
176
     1
 90
       50
176
     1
 90
       50
176
     1
290
     0
176
     1
 90
       50
176
     1
 62
   256
176
     0
 40
1.0
176
     0
 90
        2
176
     1
  1
strokes_ogs.tif
176
     1
290
     0
176
     1
 40
1.0
176
     1
 40
1.0
176
     1
1001
ACAD
1000
AcDbSavedByObjectVersion
1070
     0
  0
VISUALSTYLE
  5
3E
102
{ACAD_REACTORS
330
2A
102
}
330
2A
100
AcDbVisualStyle
  2

 70
    23
177
     3
291
     0
 70
    58
 90
        2
176
     1
 90
        2
176
     1
 90
        3
176
     1
 90
        0
176
     1
 40
0.6
176
     1
 40
30.0
176
     1
 62
     7
420
 16777215
176
     1
 90
        2
176
     1
 90
        2
176
     1
 62
     7
176
     1
 62
     7
176
     1
 90
        1
176
     1
 90
        1
176
     1
 40
40.0
176
     1
 90
        8
176
     1
 62
     7
176
     1
 40
1.0
176
     1
 90
        1
176
     1
 90
        6
176
     1
 90
        2
176
     1
 62
     7
176
     1
 90
        3
176
     1
 90
        0
176
     1
 90
        0
176
     1
290
     0
176
     1
 90
        1
176
     1
 40
0.0
176
     1
 90
        0
176
     1
290
     0
176
     1
290
     1
176
     1
290
     1
176
     1
290
     0
176
     1
290
     0
176
     1
290
     0
176
     1
290
     0
176
     1
290
     0
176
     1
290
     0
176
     1
 90
       50
176
     1
 40
0.0
176
     1
 40
1.0
176
     1
 90
        0
176
     1
 62
    18
420
        0
176
     1
 90
       50
176
     1
 90
        3
176
     1
 62
     5
420
      255
176
     1
290
     0
176
     1
 90
       50
176
     1
 90
       50
176
     1
 90
       50
176
     1
290
     0
176
     1
 90
       50
176
     1
 62
   256
176
     0
 40
1.0
176
     0
 90
        2
176
     1
  1
strokes_ogs.tif
176
     1
290
     0
176
     1
 40
1.0
176
     1
 40
1.0
176
     1
1001
ACAD
1000
AcDbSavedByObjectVersion
1070
     0
  0
VISUALSTYLE
  5
3F
102
{ACAD_REACTORS
330
2A
102
}
330
2A
100
AcDbVisualStyle
  2

 70
    24
177
     3
291
     0
 70
    58
 90
        1
176
     1
 90
        2
176
     1
 90
        2
176
     1
 90
        0
176
     1
 40
0.6
176
     1
 40
30.0
176
     1
 62
     7
420
 16777215
176
     1
 90
        2
176
     1
 90
        2
176
     1
 62
     7
176
     1
 62
     7
176
     1
 90
        1
176
     1
 90
        1
176
     1
 40
40.0
176
     1
 90
       11
176
     1
 62
     7
176
     1
 40
1.0
176
     1
 90
        1
176
     1
 90
        6
176
     1
 90
        2
176
     1
 62
     7
176
     1
 90
        6
176
     1
 90
        0
176
     1
 90
        0
176
     1
290
     0
176
     1
 90
        1
176
     1
 40
0.0
176
     1
 90
        0
176
     1
290
     0
176
     1
290
     1
176
     1
290
     1
176
     1
290
     0
176
     1
290
     0
176
     1
290
     0
176
     1
290
     0
176
     1
290
     0
176
     1
290
     0
176
     1
 90
       50
176
     1
 40
0.0
176
     1
 40
1.0
176
     1
 90
        0
176
     1
 62
    18
420
        0
176
     1
 90
       50
176
     1
 90
        3
176
     1
 62
     5
420
      255
176
     1
290
     0
176
     1
 90
       50
176
     1
 90
       50
176
     1
 90
       50
176
     1
290
     0
176
     1
 90
       50
176
     1
 62
   256
176
     0
 40
1.0
176
     0
 90
        2
176
     1
  1
strokes_ogs.tif
176
     1
290
     0
176
     1
 40
1.0
176
     1
 40
1.0
176
     1
1001
ACAD
1000
AcDbSavedByObjectVersion
1070
     0
  0
VISUALSTYLE
  5
37
102
{ACAD_REACTORS
330
2A
102
}
330
2A
100
AcDbVisualStyle
  2

 70
    13
177
     3
291
     1
 70
    58
 90
        2
176
     1
 90
        2
176
     1
 90
        0
176
     1
 90
        0
176
     1
 40
0.6
176
     1
 40
30.0
176
     1
 62
     7
420
 16777215
176
     1
 90
        1
176
     1
 90
        4
176
     1
 62
     7
176
     1
 62
   257
176
     1
 90
        1
176
     1
 90
        1
176
     1
 40
1.0
176
     1
 90
       12
176
     1
 62
     7
176
     1
 40
1.0
176
     1
 90
        1
176
     1
 90
        6
176
     1
 90
        2
176
     1
 62
     7
176
     1
 90
        5
176
     1
 90
        0
176
     1
 90
        0
176
     1
290
     0
176
     1
 90
        1
176
     1
 40
0.0
176
     1
 90
        0
176
     1
290
     0
176
     1
290
     1
176
     1
290
     1
176
     1
290
     0
176
     1
290
     0
176
     1
290
     0
176
     1
290
     0
176
     1
290
     0
176
     1
290
     0
176
     1
 90
       50
176
     1
 40
0.0
176
     1
 40
1.0
176
     1
 90
        0
176
     1
 62
    18
420
        0
176
     1
 90
       50
176
     1
 90
        3
176
     1
 62
     5
420
      255
176
     1
290
     0
176
     1
 90
       50
176
     1
 90
       50
176
     1
 90
       50
176
     1
290
     0
176
     1
 90
       50
176
     1
 62
   256
176
     0
 40
1.0
176
     0
 90
        2
176
     1
  1
strokes_ogs.tif
176
     1
290
     0
176
     1
 40
1.0
176
     1
 40
1.0
176
     1
1001
ACAD
1000
AcDbSavedByObjectVersion
1070
     0
  0
VISUALSTYLE
  5
30
102
{ACAD_REACTORS
330
2A
102
}
330
2A
100
AcDbVisualStyle
  2

 70
     5
177
     3
291
     0
 70
    58
 90
        0
176
     1
 90
        2
176
     1
 90
        0
176
     1
 90
        0
176
     1
 40
0.6
176
     1
 40
30.0
176
     1
 62
     7
420
 16777215
176
     1
 90
        1
176
     1
 90
        4
176
     1
 62
     7
176
     1
 62
   257
176
     1
 90
        1
176
     1
 90
        1
176
     1
 40
1.0
176
     1
 90
        0
176
     1
 62
   257
176
     1
 40
1.0
176
     1
 90
        1
176
     1
 90
        6
176
     1
 90
        2
176
     1
 62
     7
176
     1
 90
        3
176
     1
 90
        0
176
     1
 90
        0
176
     1
290
     0
176
     1
 90
        1
176
     1
 40
0.0
176
     1
 90
        0
176
     1
290
     0
176
     1
290
     1
176
     1
290
     1
176
     1
290
     0
176
     1
290
     0
176
     1
290
     0
176
     1
290
     0
176
     1
290
     0
176
     1
290
     0
176
     1
 90
       50
176
     1
 40
0.0
176
     1
 40
1.0
176
     1
 90
        0
176
     1
 62
    18
420
        0
176
     1
 90
       50
176
     1
 90
        3
176
     1
 62
     5
420
      255
176
     1
290
     0
176
     1
 90
       50
176
     1
 90
       50
176
     1
 90
       50
176
     1
290
     0
176
     1
 90
       50
176
     1
 62
   256
176
     0
 40
1.0
176
     0
 90
        2
176
     1
  1
strokes_ogs.tif
176
     1
290
     0
176
     1
 40
1.0
176
     1
 40
1.0
176
     1
1001
ACAD
1000
AcDbSavedByObjectVersion
1070
     0
  0
VISUALSTYLE
  5
40
102
{ACAD_REACTORS
330
2A
102
}
330
2A
100
AcDbVisualStyle
  2

 70
    25
177
     3
291
     0
 70
    58
 90
        2
176
     1
 90
        2
176
     1
 90
        1
176
     1
 90
        1
176
     1
 40
0.5
176
     1
 40
30.0
176
     1
 62
     7
420
 16777215
176
     1
 90
        1
176
     1
 90
        0
176
     1
 62
     7
176
     1
 62
   257
176
     1
 90
        1
176
     1
 90
        1
176
     1
 40
1.0
176
     1
 90
        8
176
     1
 62
     7
176
     1
 40
1.0
176
     1
 90
        1
176
     1
 90
        6
176
     1
 90
        2
176
     1
 62
     7
176
     1
 90
        3
176
     1
 90
        0
176
     1
 90
        0
176
     1
290
     0
176
     1
 90
       13
176
     1
 40
0.0
176
     1
 90
        0
176
     1
290
     0
176
     1
290
     1
176
     1
290
     1
176
     1
290
     0
176
     1
290
     0
176
     1
290
     0
176
     1
290
     0
176
     1
290
     0
176
     1
290
     0
176
     1
 90
       50
176
     1
 40
0.0
176
     1
 40
1.0
176
     1
 90
        0
176
     1
 62
    18
420
        0
176
     1
 90
       50
176
     1
 90
        3
176
     1
 62
     5
420
      255
176
     1
290
     0
176
     1
 90
       50
176
     1
 90
       50
176
     1
 90
       50
176
     1
290
     0
176
     1
 90
       50
176
     1
 62
   256
176
     0
 40
1.0
176
     0
 90
        2
176
     1
  1
strokes_ogs.tif
176
     1
290
     0
176
     1
 40
1.0
176
     1
 40
1.0
176
     1
1001
ACAD
1000
AcDbSavedByObjectVersion
1070
     0
  0
DICTIONARYVAR
  5
85
102
{ACAD_REACTORS
330
84
102
}
330
84
100
DictionaryVariables
280
     0
  1
1:1
  0
DICTIONARYVAR
  5
C6
102
{ACAD_REACTORS
330
84
102
}
330
84
100
DictionaryVariables
280
     0
  1
STANDARD
  0
DICTIONARYVAR
  5
C5
102
{ACAD_REACTORS
330
84
102
}
330
84
100
DictionaryVariables
280
     0
  1
STANDARD
  0
DICTIONARYVAR
  5
E8
102
{ACAD_REACTORS
330
84
102
}
330
84
100
DictionaryVariables
280
     0
  1
Imperial24
  0
DICTIONARYVAR
  5
E9
102
{ACAD_REACTORS
330
84
102
}
330
84
100
DictionaryVariables
280
     0
  1
Imperial24
  0
DICTIONARYVAR
  5
EB
102
{ACAD_REACTORS
330
84
102
}
330
84
100
DictionaryVariables
280
     0
  1
1
  0
DICTIONARYVAR
  5
EC
102
{ACAD_REACTORS
330
84
102
}
330
84
100
DictionaryVariables
280
     0
  1
15
  0
DICTIONARYVAR
  5
EA
102
{ACAD_REACTORS
330
84
102
}
330
84
100
DictionaryVariables
280
     0
  1
0
  0
DICTIONARYVAR
  5
86
102
{ACAD_REACTORS
330
84
102
}
330
84
100
DictionaryVariables
280
     0
  1
1
  0
DICTIONARY
  5
BA
330
45
100
AcDbDictionary
280
     1
281
     1
  3
ACAD_XREC_ROUNDTRIP
360
BB
  0
DICTIONARY
  5
B8
330
44
100
AcDbDictionary
280
     1
281
     1
  3
ACAD_XREC_ROUNDTRIP
360
B9
  0
DICTIONARY
  5
BC
330
46
100
AcDbDictionary
280
     1
281
     1
  3
ACAD_XREC_ROUNDTRIP
360
BD
  0
DICTIONARY
  5
BE
330
6A
100
AcDbDictionary
280
     1
281
     1
  3
ACAD_ROUNDTRIP_2008_TABLESTYLE_CELLSTYLEMAP
360
EE
  0
XRECORD
  5
BB
102
{ACAD_REACTORS
330
BA
102
}
330
BA
100
AcDbXrecord
280
     1
102
MATERIAL
148
0.0
149
0.0
149
0.0
 93
        0
 94
      127
282
     0
 72
     1
 77
     1
171
     1
175
     1
179
     1
273
     0
  0
XRECORD
  5
B9
102
{ACAD_REACTORS
330
B8
102
}
330
B8
100
AcDbXrecord
280
     1
102
MATERIAL
148
0.0
149
0.0
149
0.0
 93
        0
 94
      127
282
     0
 72
     1
 77
     1
171
     1
175
     1
179
     1
273
     0
  0
XRECORD
  5
BD
102
{ACAD_REACTORS
330
BC
102
}
330
BC
100
AcDbXrecord
280
     1
102
MATERIAL
148
0.0
149
0.0
149
0.0
 93
        0
 94
      127
282
     0
 72
     1
 77
     1
171
     1
175
     1
179
     1
273
     0
  0
CELLSTYLEMAP
  5
EE
102
{ACAD_REACTORS
330
BE
102
}
330
BE
100
AcDbCellStyleMap
 90
        3
300
CELLSTYLE
  1
TABLEFORMAT_BEGIN
 90
        5
170
     1
 91
        0
 92
    32768
 62
   257
 93
        1
300
CONTENTFORMAT
  1
CONTENTFORMAT_BEGIN
 90
        0
 91
        0
 92
        4
 93
        0
300

 40
0.0
140
1.0
 94
        5
 62
     0
340
11
144
0.25
309
CONTENTFORMAT_END
171
     1
301
MARGIN
  1
CELLMARGIN_BEGIN
 40
0.06
 40
0.06
 40
0.06
 40
0.06
 40
0.18
 40
0.18
309
CELLMARGIN_END
 94
        6
 95
        1
302
GRIDFORMAT
  1
GRIDFORMAT_BEGIN
 90
        0
 91
        1
 62
     0
 92
       -2
340
14
 93
        0
 40
0.045
309
GRIDFORMAT_END
 95
        2
302
GRIDFORMAT
  1
GRIDFORMAT_BEGIN
 90
        0
 91
        1
 62
     0
 92
       -2
340
14
 93
        0
 40
0.045
309
GRIDFORMAT_END
 95
        4
302
GRIDFORMAT
  1
GRIDFORMAT_BEGIN
 90
        0
 91
        1
 62
     0
 92
       -2
340
14
 93
        0
 40
0.045
309
GRIDFORMAT_END
 95
        8
302
GRIDFORMAT
  1
GRIDFORMAT_BEGIN
 90
        0
 91
        1
 62
     0
 92
       -2
340
14
 93
        0
 40
0.045
309
GRIDFORMAT_END
 95
       16
302
GRIDFORMAT
  1
GRIDFORMAT_BEGIN
 90
        0
 91
        1
 62
     0
 92
       -2
340
14
 93
        0
 40
0.045
309
GRIDFORMAT_END
 95
       32
302
GRIDFORMAT
  1
GRIDFORMAT_BEGIN
 90
        0
 91
        1
 62
     0
 92
       -2
340
14
 93
        0
 40
0.045
309
GRIDFORMAT_END
309
TABLEFORMAT_END
  1
CELLSTYLE_BEGIN
 90
        1
 91
        1
300
_TITLE
309
CELLSTYLE_END
300
CELLSTYLE
  1
TABLEFORMAT_BEGIN
 90
        5
170
     1
 91
        0
 92
        0
 62
   257
 93
        1
300
CONTENTFORMAT
  1
CONTENTFORMAT_BEGIN
 90
        0
 91
        0
 92
        4
 93
        0
300

 40
0.0
140
1.0
 94
        5
 62
     0
340
11
144
0.18
309
CONTENTFORMAT_END
171
     1
301
MARGIN
  1
CELLMARGIN_BEGIN
 40
0.06
 40
0.06
 40
0.06
 40
0.06
 40
0.18
 40
0.18
309
CELLMARGIN_END
 94
        6
 95
        1
302
GRIDFORMAT
  1
GRIDFORMAT_BEGIN
 90
        0
 91
        1
 62
     0
 92
       -2
340
14
 93
        0
 40
0.045
309
GRIDFORMAT_END
 95
        2
302
GRIDFORMAT
  1
GRIDFORMAT_BEGIN
 90
        0
 91
        1
 62
     0
 92
       -2
340
14
 93
        0
 40
0.045
309
GRIDFORMAT_END
 95
        4
302
GRIDFORMAT
  1
GRIDFORMAT_BEGIN
 90
        0
 91
        1
 62
     0
 92
       -2
340
14
 93
        0
 40
0.045
309
GRIDFORMAT_END
 95
        8
302
GRIDFORMAT
  1
GRIDFORMAT_BEGIN
 90
        0
 91
        1
 62
     0
 92
       -2
340
14
 93
        0
 40
0.045
309
GRIDFORMAT_END
 95
       16
302
GRIDFORMAT
  1
GRIDFORMAT_BEGIN
 90
        0
 91
        1
 62
     0
 92
       -2
340
14
 93
        0
 40
0.045
309
GRIDFORMAT_END
 95
       32
302
GRIDFORMAT
  1
GRIDFORMAT_BEGIN
 90
        0
 91
        1
 62
     0
 92
       -2
340
14
 93
        0
 40
0.045
309
GRIDFORMAT_END
309
TABLEFORMAT_END
  1
CELLSTYLE_BEGIN
 90
        2
 91
        1
300
_HEADER
309
CELLSTYLE_END
300
CELLSTYLE
  1
TABLEFORMAT_BEGIN
 90
        5
170
     1
 91
        0
 92
        0
 62
   257
 93
        1
300
CONTENTFORMAT
  1
CONTENTFORMAT_BEGIN
 90
        0
 91
        0
 92
        4
 93
        0
300

 40
0.0
140
1.0
 94
        2
 62
     0
340
11
144
0.18
309
CONTENTFORMAT_END
171
     1
301
MARGIN
  1
CELLMARGIN_BEGIN
 40
0.06
 40
0.06
 40
0.06
 40
0.06
 40
0.18
 40
0.18
309
CELLMARGIN_END
 94
        6
 95
        1
302
GRIDFORMAT
  1
GRIDFORMAT_BEGIN
 90
        0
 91
        1
 62
     0
 92
       -2
340
14
 93
        0
 40
0.045
309
GRIDFORMAT_END
 95
        2
302
GRIDFORMAT
  1
GRIDFORMAT_BEGIN
 90
        0
 91
        1
 62
     0
 92
       -2
340
14
 93
        0
 40
0.045
309
GRIDFORMAT_END
 95
        4
302
GRIDFORMAT
  1
GRIDFORMAT_BEGIN
 90
        0
 91
        1
 62
     0
 92
       -2
340
14
 93
        0
 40
0.045
309
GRIDFORMAT_END
 95
        8
302
GRIDFORMAT
  1
GRIDFORMAT_BEGIN
 90
        0
 91
        1
 62
     0
 92
       -2
340
14
 93
        0
 40
0.045
309
GRIDFORMAT_END
 95
       16
302
GRIDFORMAT
  1
GRIDFORMAT_BEGIN
 90
        0
 91
        1
 62
     0
 92
       -2
340
14
 93
        0
 40
0.045
309
GRIDFORMAT_END
 95
       32
302
GRIDFORMAT
  1
GRIDFORMAT_BEGIN
 90
        0
 91
        1
 62
     0
 92
       -2
340
14
 93
        0
 40
0.045
309
GRIDFORMAT_END
309
TABLEFORMAT_END
  1
CELLSTYLE_BEGIN
 90
        3
 91
        2
300
_DATA
309
CELLSTYLE_END
  0
ENDSEC
  0
EOF
